<svg width="60" height="59" viewBox="0 0 60 59" fill="none" xmlns="http://www.w3.org/2000/svg">
  <ellipse cx="29.6564" cy="29.4332" rx="29.3913" ry="29.301" fill="#E9E9E9"/>
  <g clip-path="url(#clip0)">
  <path d="M31.6736 26.5807C31.5849 26.614 31.494 26.6298 31.4047 26.6298C31.0967 26.6298 30.807 26.4423 30.6919 26.1384L30.2884 25.0723L30.2761 25.04H30.2416H27.4444H27.41L27.3977 25.0721L26.9896 26.1405L26.9896 26.1405C26.8399 26.5323 26.3998 26.7291 26.0066 26.5798L25.9889 26.6265L26.0066 26.5798C25.6134 26.4305 25.4162 25.9919 25.5659 25.6002L25.5192 25.5823L25.5659 25.6002L28.0042 19.2177L28.0043 19.2176L28.011 19.2005C28.0111 19.2004 28.0111 19.2004 28.0111 19.2004C28.1513 18.8588 28.481 18.6379 28.8514 18.6375H28.8514H28.8514H28.8514H28.8514H28.8514H28.8514H28.8514H28.8514H28.8514H28.8514H28.8514H28.8514H28.8514H28.8514H28.8514H28.8514H28.8514H28.8514H28.8514H28.8514H28.8514H28.8514H28.8514H28.8514H28.8514H28.8514H28.8514H28.8514H28.8514H28.8514H28.8514H28.8514H28.8514H28.8514H28.8514H28.8514H28.8514H28.8514H28.8515H28.8515H28.8515H28.8515H28.8515H28.8515H28.8515H28.8515H28.8515H28.8515H28.8515H28.8515H28.8515H28.8515H28.8515H28.8515H28.8515H28.8515H28.8515H28.8515H28.8515H28.8515H28.8515H28.8515H28.8515H28.8515H28.8515H28.8515H28.8515H28.8515H28.8515H28.8515H28.8515H28.8515H28.8515H28.8515H28.8515H28.8515H28.8515H28.8515H28.8515H28.8515H28.8515H28.8515H28.8515H28.8515H28.8515H28.8515H28.8515H28.8515H28.8515H28.8515H28.8516H28.8516H28.8516H28.8516H28.8516H28.8516H28.8516H28.8516H28.8516H28.8516H28.8516H28.8516H28.8516H28.8516H28.8516H28.8516H28.8516H28.8516H28.8516H28.8516H28.8516H28.8516H28.8516H28.8516H28.8516H28.8516H28.8516H28.8516H28.8516H28.8516H28.8516H28.8516H28.8516H28.8516H28.8516H28.8516H28.8516H28.8516H28.8516H28.8516H28.8516H28.8516H28.8516H28.8516H28.8516H28.8516H28.8516H28.8516H28.8516H28.8516H28.8516H28.8517H28.8517H28.8517H28.8517H28.8517H28.8517H28.8517H28.8517H28.8517H28.8517H28.8517H28.8517H28.8517H28.8517H28.8517H28.8517H28.8517H28.8517H28.8517H28.8517H28.8517H28.8517H28.8517H28.8517H28.8517H28.8517H28.8517H28.8517H28.8517H28.8517H28.8517H28.8517H28.8517H28.8517H28.8517H28.8517H28.8517H28.8517H28.8517H28.8517H28.8517H28.8517H28.8517H28.8517H28.8517H28.8517H28.8517H28.8517H28.8517H28.8517H28.8517H28.8517H28.8518H28.8518H28.8518H28.8518H28.8518H28.8518H28.8518H28.8518H28.8518H28.8518H28.8518H28.8518H28.8518H28.8518H28.8518H28.8518H28.8518H28.8518H28.8518H28.8518H28.8518H28.8518H28.8518H28.8518H28.8518H28.8518H28.8518H28.8518H28.8518H28.8518H28.8518H28.8518H28.8518H28.8518H28.8518H28.8518H28.8518H28.8518H28.8518H28.8518H28.8518H28.8518H28.8518H28.8518H28.8518H28.8518H28.8518H28.8518H28.8518H28.8518H28.8518H28.8519H28.8519H28.8519H28.8519H28.8519H28.8519H28.8519H28.8519H28.8519H28.8519H28.8519H28.8519H28.8519H28.8519H28.8519H28.8519H28.8519H28.8519H28.8519H28.8519H28.8519H28.8519H28.8519H28.8519H28.8519H28.8519H28.8519H28.8519H28.8519H28.8519H28.8519H28.8519H28.8519H28.8519H28.8519H28.8519H28.8519H28.8519H28.8519H28.8519H28.8519H28.8519H28.8519H28.8519H28.8519H28.8519H28.8519H28.8519H28.8519H28.8519H28.8519H28.8519H28.852H28.852H28.852H28.852H28.852H28.852H28.852H28.852H28.852H28.852H28.852H28.852H28.852H28.852H28.852H28.852H28.852H28.852H28.852H28.852H28.852H28.852H28.852H28.852H28.852H28.852H28.852H28.852H28.852H28.852H28.852H28.852H28.852H28.852H28.852H28.852H28.852H28.852H28.852H28.852H28.852H28.852H28.852H28.852H28.852H28.852H28.852H28.852H28.852H28.852H28.852H28.8521H28.8521H28.8521H28.8521H28.8521H28.8521H28.8521H28.8521H28.8521H28.8521H28.8521H28.8521H28.8521H28.8521H28.8521H28.8521H28.8521H28.8521H28.8521H28.8521H28.8521H28.8521H28.8521H28.8521H28.8521H28.8521H28.8521H28.8521H28.8521H28.8521H28.8521H28.8521H28.8521H28.8521H28.8521H28.8521H28.8521H28.8521H28.8521H28.8521H28.8521H28.8521H28.8521H28.8521H28.8521H28.8521H28.8521H28.8521H28.8521H28.8521H28.8521H28.8521H28.8521H28.8522H28.8522H28.8522H28.8522H28.8522H28.8522H28.8522H28.8522H28.8522H28.8522H28.8522H28.8522H28.8522H28.8522H28.8522H28.8522H28.8522H28.8522H28.8522H28.8522H28.8522H28.8522H28.8522H28.8522H28.8522H28.8522H28.8522H28.8522H28.8522H28.8522H28.8522H28.8522H28.8522H28.8522H28.8522H28.8522H28.8522H28.8522H28.8522H28.8522H28.8522H28.8522H28.8522H28.8522H28.8522H28.8522H28.8522H28.8522H28.8522H28.8522H28.8522H28.8523H28.8523H28.8523H28.8523H28.8523H28.8523H28.8523H28.8523H28.8523H28.8523H28.8523H28.8523H28.8523H28.8523H28.8523H28.8523H28.8523H28.8523H28.8523H28.8523H28.8523H28.8523H28.8523H28.8523H28.8523H28.8523H28.8523C29.2224 18.6375 29.552 18.8577 29.6928 19.1988C29.6957 19.2059 29.6985 19.2127 29.701 19.2196L29.7011 19.2196L32.1172 25.6024L32.1172 25.6024C32.2657 25.9945 32.0672 26.4326 31.6736 26.5807ZM31.6736 26.5807L31.6912 26.6275M31.6736 26.5807C31.6736 26.5807 31.6736 26.5807 31.6736 26.5807L31.6912 26.6275M31.6912 26.6275C32.1106 26.4697 32.3223 26.0028 32.164 25.5847L27.0363 26.1583L27.4444 25.09H30.2416L30.6452 26.1561C30.7679 26.4801 31.0767 26.6798 31.4047 26.6798C31.4999 26.6798 31.5968 26.6629 31.6912 26.6275ZM28.016 23.4538L27.9901 23.5216H28.0627H29.629H29.7014L29.6757 23.4539L28.8962 21.3947L28.8496 21.2717L28.8027 21.3946L28.016 23.4538Z" fill="#BDBDBD" stroke="#E9E9E9" stroke-width="0.1"/>
  <path d="M24.6332 35.1086L24.6085 35.1464L24.6438 35.1748C25.2141 35.6339 25.5795 36.3358 25.5793 37.1213C25.5793 38.5005 24.4537 39.623 23.0698 39.623C22.6423 39.623 21.1859 39.6293 20.9047 39.6305C20.8757 39.6306 20.8592 39.6307 20.8576 39.6307H20.8542C20.6527 39.6307 20.4595 39.5512 20.3167 39.4095C20.1731 39.267 20.0925 39.0734 20.0925 38.8715V32.3979C20.0925 31.9788 20.4334 31.6387 20.8542 31.6387H22.7404C23.9844 31.6387 24.9963 32.6476 24.9963 33.8875C24.9963 34.3375 24.8626 34.7566 24.6332 35.1086ZM21.6659 33.1571H21.6159V33.2071V34.5827V34.6327H21.6659V34.5827L21.6659 34.6327H21.6659H21.666H21.666H21.6661H21.6663H21.6664H21.6666H21.6667H21.6669H21.6672H21.6674H21.6677H21.6679H21.6682H21.6686H21.6689H21.6693H21.6696H21.67H21.6705H21.6709H21.6714H21.6719H21.6724H21.6729H21.6734H21.674H21.6745H21.6751H21.6758H21.6764H21.677H21.6777H21.6784H21.6791H21.6798H21.6806H21.6814H21.6821H21.6829H21.6838H21.6846H21.6855H21.6863H21.6872H21.6881H21.6891H21.69H21.691H21.692H21.693H21.694H21.695H21.6961H21.6971H21.6982H21.6993H21.7004H21.7016H21.7027H21.7039H21.7051H21.7063H21.7075H21.7087H21.71H21.7112H21.7125H21.7138H21.7151H21.7165H21.7178H21.7192H21.7205H21.7219H21.7233H21.7248H21.7262H21.7277H21.7291H21.7306H21.7321H21.7336H21.7352H21.7367H21.7383H21.7398H21.7414H21.743H21.7446H21.7463H21.7479H21.7496H21.7513H21.753H21.7547H21.7564H21.7581H21.7598H21.7616H21.7634H21.7652H21.767H21.7688H21.7706H21.7724H21.7743H21.7761H21.778H21.7799H21.7818H21.7837H21.7857H21.7876H21.7895H21.7915H21.7935H21.7955H21.7975H21.7995H21.8015H21.8036H21.8056H21.8077H21.8098H21.8118H21.8139H21.816H21.8182H21.8203H21.8224H21.8246H21.8268H21.8289H21.8311H21.8333H21.8355H21.8377H21.84H21.8422H21.8445H21.8467H21.849H21.8513H21.8536H21.8559H21.8582H21.8605H21.8628H21.8652H21.8675H21.8699H21.8723H21.8746H21.877H21.8794H21.8818H21.8843H21.8867H21.8891H21.8916H21.894H21.8965H21.8989H21.9014H21.9039H21.9064H21.9089H21.9114H21.9139H21.9165H21.919H21.9216H21.9241H21.9267H21.9292H21.9318H21.9344H21.937H21.9396H21.9422H21.9448H21.9474H21.9501H21.9527H21.9553H21.958H21.9607H21.9633H21.966H21.9687H21.9713H21.974H21.9767H21.9794H21.9821H21.9849H21.9876H21.9903H21.993H21.9958H21.9985H22.0013H22.004H22.0068H22.0096H22.0123H22.0151H22.0179H22.0207H22.0235H22.0263H22.0291H22.0319H22.0347H22.0375H22.0403H22.0432H22.046H22.0488H22.0517H22.0545H22.0574H22.0602H22.0631H22.0659H22.0688H22.0717H22.0745H22.0774H22.0803H22.0832H22.0861H22.0889H22.0918H22.0947H22.0976H22.1005H22.1034H22.1063H22.1093H22.1122H22.1151H22.118H22.1209H22.1238H22.1268H22.1297H22.1326H22.1356H22.1385H22.1414H22.1444H22.1473H22.1502H22.1532H22.1561H22.1591H22.162H22.165H22.1679H22.1709H22.1738H22.1768H22.1797H22.1827H22.1856H22.1886H22.1915H22.1945H22.1975H22.2004H22.2034H22.2063H22.2093H22.2122H22.2152H22.2182H22.2211H22.2241H22.227H22.23H22.2329H22.2359H22.2389H22.2418H22.2448H22.2477H22.2507H22.2536H22.2566H22.2595H22.2625H22.2654H22.2684H22.2713H22.2742H22.2772H22.2801H22.2831H22.286H22.2889H22.2919H22.2948H22.2977H22.3006H22.3036H22.3065H22.3094H22.3123H22.3152H22.3181H22.321H22.3239H22.3268H22.3297H22.3326H22.3355H22.3384H22.3413H22.3442H22.3471H22.3499H22.3528H22.3557H22.3585H22.3614H22.3643H22.3671H22.37H22.3728H22.3756H22.3785H22.3813H22.3841H22.387H22.3898H22.3926H22.3954H22.3982H22.401H22.4038H22.4066H22.4093H22.4121H22.4149H22.4177H22.4204H22.4232H22.4259H22.4287H22.4314H22.4341H22.4369H22.4396H22.4423H22.445H22.4477H22.4504H22.4531H22.4558H22.4585H22.4611H22.4638H22.4664H22.4691H22.4717H22.4744H22.477H22.4796H22.4822H22.4848H22.4874H22.49H22.4926H22.4952H22.4978H22.5003H22.5029H22.5054H22.5079H22.5105H22.513H22.5155H22.518H22.5205H22.523H22.5255H22.5279H22.5304H22.5328H22.5353H22.5377H22.5402H22.5426H22.545H22.5474H22.5498H22.5521H22.5545H22.5569H22.5592H22.5616H22.5639H22.5662H22.5685H22.5708H22.5731H22.5754H22.5777H22.5799H22.5822H22.5844H22.5866H22.5889H22.5911H22.5933H22.5954H22.5976H22.5998H22.6019H22.6041H22.6062H22.6083H22.6104H22.6125H22.6146H22.6167H22.6187H22.6208H22.6228H22.6248H22.6269H22.6289H22.6308H22.6328H22.6348H22.6367H22.6387H22.6406H22.6425H22.6444H22.6463H22.6482H22.65H22.6519H22.6537H22.6556H22.6574H22.6592H22.6609H22.6627H22.6645H22.6662H22.6679H22.6696H22.6713H22.673H22.6747H22.6764H22.678H22.6796H22.6813H22.6829H22.6844H22.686H22.6876H22.6891H22.6906H22.6922H22.6937H22.6951H22.6966H22.6981H22.6995H22.7009H22.7023H22.7037H22.7051H22.7064H22.7078H22.7091H22.7104H22.7117H22.713H22.7143H22.7155H22.7168H22.718H22.7192H22.7203H22.7215H22.7227H22.7238H22.7249H22.726H22.7271H22.7282H22.7292H22.7302H22.7312H22.7322H22.7332H22.7342H22.7351H22.736H22.737H22.7378H22.7387H22.7396H22.7404C23.1456 34.6327 23.4729 34.289 23.4729 33.8875C23.4729 33.4846 23.1442 33.1571 22.7404 33.1571H21.6659ZM21.6159 38.0589V38.1091L21.6661 38.1089C22.1875 38.1069 22.8125 38.1046 23.0698 38.1046C23.6136 38.1046 24.056 37.6637 24.056 37.1213C24.056 36.579 23.6136 36.138 23.0698 36.138H23.0698L23.0698 36.188L23.0698 36.138L23.0697 36.138H23.0696L23.0689 36.138L23.0661 36.138L23.0555 36.138L23.0148 36.1381L22.8685 36.1382L22.416 36.1386C22.0812 36.1389 21.7301 36.1392 21.6657 36.1395L21.6159 36.1397V36.1895V38.0589Z" fill="#BDBDBD" stroke="#E9E9E9" stroke-width="0.1"/>
  <path d="M35.8023 28.302L35.7649 28.3749H35.8468H40.2332C41.8468 28.3749 43.1594 29.6837 43.1594 31.292V39.9774C43.1594 41.5857 41.8468 42.8945 40.2332 42.8945H31.5209C30.683 42.8945 29.9268 42.5411 29.3927 41.9763L29.3564 41.9379L29.3201 41.9763C28.786 42.5411 28.0298 42.8945 27.1919 42.8945H18.4796C16.866 42.8945 15.5534 41.5857 15.5534 39.9774V31.292C15.5534 29.6837 16.866 28.3749 18.4796 28.3749H21.8353H21.9172L21.8797 28.302C21.675 27.9039 21.5587 27.4535 21.5587 26.9762V18.2908C21.5587 16.6825 22.8713 15.3737 24.4849 15.3737H33.1971C34.8108 15.3737 36.1234 16.6825 36.1234 18.2908V26.9762C36.1234 27.4535 36.0071 27.9039 35.8023 28.302ZM27.1919 41.3761C27.9653 41.3761 28.5947 40.7488 28.5947 39.9774V31.292C28.5947 30.5205 27.9653 29.8933 27.1919 29.8933H18.4796C17.7062 29.8933 17.0768 30.5205 17.0768 31.292V39.9774C17.0768 40.7488 17.7062 41.3761 18.4796 41.3761H27.1919ZM23.0821 26.9762C23.0821 27.7476 23.7115 28.3749 24.4849 28.3749H33.1971C33.9706 28.3749 34.6 27.7476 34.6 26.9762V18.2908C34.6 17.5193 33.9706 16.8921 33.1971 16.8921H24.4849C23.7115 16.8921 23.0821 17.5193 23.0821 18.2908V26.9762ZM40.2332 41.3761C41.0066 41.3761 41.636 40.7488 41.636 39.9774V31.292C41.636 30.5205 41.0066 29.8933 40.2332 29.8933H31.5209C30.7475 29.8933 30.1181 30.5205 30.1181 31.292V39.9774C30.1181 40.7488 30.7475 41.3761 31.5209 41.3761H40.2332Z" fill="#BDBDBD" stroke="#E9E9E9" stroke-width="0.1"/>
  <path d="M38.7663 38.7957L38.7663 38.7957C38.8869 38.6886 39.0015 38.5708 39.1068 38.4456C39.377 38.1243 39.3349 37.6455 39.0127 37.3761C38.6903 37.1066 38.2099 37.1487 37.9395 37.4699C37.9395 37.4699 37.9395 37.47 37.9395 37.47L37.9012 37.4378L38.7663 38.7957ZM38.7663 38.7957C38.1516 39.3415 37.3608 39.6307 36.4777 39.6307C34.2673 39.6307 32.4692 37.8379 32.4692 35.6347C32.4692 33.4315 34.2673 31.6387 36.4777 31.6387C37.2809 31.6387 38.0561 31.8748 38.7195 32.3216C39.0681 32.5564 39.1596 33.0282 38.9243 33.3756C38.6888 33.7231 38.2153 33.8146 37.8666 33.5798L38.7663 38.7957Z" fill="#BDBDBD" stroke="#E9E9E9" stroke-width="0.1"/>
  </g>
  <defs>
  <clipPath id="clip0">
  <rect width="27.706" height="27.6208" fill="white" transform="translate(15.5034 15.3237)"/>
  </clipPath>
  </defs>
</svg>
