<svg width="60" height="59" viewBox="0 0 60 59" fill="none" xmlns="http://www.w3.org/2000/svg">
  <path d="M58.0477 29.3781C58.0477 45.0505 45.3369 57.7563 29.6564 57.7563C13.9759 57.7563 1.26514 45.0505 1.26514 29.3781C1.26514 13.7058 13.9759 1 29.6564 1C45.3369 1 58.0477 13.7058 58.0477 29.3781Z" fill="#E0F7F1" stroke="#31C5A1" stroke-width="2"/>
  <g clip-path="url(#clip0)">
  <path d="M29.7391 19.0977L29.6928 19.1166C29.6957 19.1237 29.6984 19.1306 29.701 19.1376L29.701 19.1376L32.1172 25.5371L32.1172 25.5371C32.2658 25.9305 32.0671 26.3698 31.6735 26.5182C31.5849 26.5517 31.494 26.5675 31.4047 26.5675C31.0968 26.5675 30.807 26.3795 30.692 26.0747L30.2884 25.0058L30.2762 24.9735H30.2416H27.4444H27.41L27.3977 25.0057L26.9895 26.0768L26.9895 26.0769C26.8399 26.4698 26.3997 26.667 26.0066 26.5174L25.9889 26.5641L26.0066 26.5174C25.6135 26.3677 25.4162 25.9279 25.5659 25.5349L25.5192 25.5171L25.5659 25.5349L28.0043 19.1357L28.0043 19.1355L28.0111 19.1184C28.0111 19.1183 28.0111 19.1183 28.0111 19.1183C28.1513 18.7757 28.481 18.5543 28.8514 18.5539H28.8514H28.8514H28.8514H28.8514H28.8514H28.8514H28.8514H28.8514H28.8514H28.8514H28.8514H28.8514H28.8514H28.8514H28.8514H28.8514H28.8514H28.8514H28.8514H28.8514H28.8514H28.8514H28.8514H28.8514H28.8514H28.8514H28.8514H28.8514H28.8514H28.8514H28.8514H28.8514H28.8514H28.8514H28.8514H28.8514H28.8514H28.8514H28.8515H28.8515H28.8515H28.8515H28.8515H28.8515H28.8515H28.8515H28.8515H28.8515H28.8515H28.8515H28.8515H28.8515H28.8515H28.8515H28.8515H28.8515H28.8515H28.8515H28.8515H28.8515H28.8515H28.8515H28.8515H28.8515H28.8515H28.8515H28.8515H28.8515H28.8515H28.8515H28.8515H28.8515H28.8515H28.8515H28.8515H28.8515H28.8515H28.8515H28.8515H28.8515H28.8515H28.8515H28.8515H28.8515H28.8515H28.8515H28.8515H28.8515H28.8515H28.8515H28.8516H28.8516H28.8516H28.8516H28.8516H28.8516H28.8516H28.8516H28.8516H28.8516H28.8516H28.8516H28.8516H28.8516H28.8516H28.8516H28.8516H28.8516H28.8516H28.8516H28.8516H28.8516H28.8516H28.8516H28.8516H28.8516H28.8516H28.8516H28.8516H28.8516H28.8516H28.8516H28.8516H28.8516H28.8516H28.8516H28.8516H28.8516H28.8516H28.8516H28.8516H28.8516H28.8516H28.8516H28.8516H28.8516H28.8516H28.8516H28.8516H28.8516H28.8516H28.8517H28.8517H28.8517H28.8517H28.8517H28.8517H28.8517H28.8517H28.8517H28.8517H28.8517H28.8517H28.8517H28.8517H28.8517H28.8517H28.8517H28.8517H28.8517H28.8517H28.8517H28.8517H28.8517H28.8517H28.8517H28.8517H28.8517H28.8517H28.8517H28.8517H28.8517H28.8517H28.8517H28.8517H28.8517H28.8517H28.8517H28.8517H28.8517H28.8517H28.8517H28.8517H28.8517H28.8517H28.8517H28.8517H28.8517H28.8517H28.8517H28.8517H28.8517H28.8517H28.8518H28.8518H28.8518H28.8518H28.8518H28.8518H28.8518H28.8518H28.8518H28.8518H28.8518H28.8518H28.8518H28.8518H28.8518H28.8518H28.8518H28.8518H28.8518H28.8518H28.8518H28.8518H28.8518H28.8518H28.8518H28.8518H28.8518H28.8518H28.8518H28.8518H28.8518H28.8518H28.8518H28.8518H28.8518H28.8518H28.8518H28.8518H28.8518H28.8518H28.8518H28.8518H28.8518H28.8518H28.8518H28.8518H28.8518H28.8518H28.8518H28.8518H28.8518H28.8519H28.8519H28.8519H28.8519H28.8519H28.8519H28.8519H28.8519H28.8519H28.8519H28.8519H28.8519H28.8519H28.8519H28.8519H28.8519H28.8519H28.8519H28.8519H28.8519H28.8519H28.8519H28.8519H28.8519H28.8519H28.8519H28.8519H28.8519H28.8519H28.8519H28.8519H28.8519H28.8519H28.8519H28.8519H28.8519H28.8519H28.8519H28.8519H28.8519H28.8519H28.8519H28.8519H28.8519H28.8519H28.8519H28.8519H28.8519H28.8519H28.8519H28.8519H28.8519H28.852H28.852H28.852H28.852H28.852H28.852H28.852H28.852H28.852H28.852H28.852H28.852H28.852H28.852H28.852H28.852H28.852H28.852H28.852H28.852H28.852H28.852H28.852H28.852H28.852H28.852H28.852H28.852H28.852H28.852H28.852H28.852H28.852H28.852H28.852H28.852H28.852H28.852H28.852H28.852H28.852H28.852H28.852H28.852H28.852H28.852H28.852H28.852H28.852H28.852H28.852H28.852H28.8521H28.8521H28.8521H28.8521H28.8521H28.8521H28.8521H28.8521H28.8521H28.8521H28.8521H28.8521H28.8521H28.8521H28.8521H28.8521H28.8521H28.8521H28.8521H28.8521H28.8521H28.8521H28.8521H28.8521H28.8521H28.8521H28.8521H28.8521H28.8521H28.8521H28.8521H28.8521H28.8521H28.8521H28.8521H28.8521H28.8521H28.8521H28.8521H28.8521H28.8521H28.8521H28.8521H28.8521H28.8521H28.8521H28.8521H28.8521H28.8521H28.8521H28.8521H28.8522H28.8522H28.8522H28.8522H28.8522H28.8522H28.8522H28.8522H28.8522H28.8522H28.8522H28.8522H28.8522H28.8522H28.8522H28.8522H28.8522H28.8522H28.8522H28.8522H28.8522H28.8522H28.8522H28.8522H28.8522H28.8522H28.8522H28.8522H28.8522H28.8522H28.8522H28.8522H28.8522H28.8522H28.8522H28.8522H28.8522H28.8522H28.8522H28.8522H28.8522H28.8522H28.8522H28.8522H28.8522H28.8522H28.8522H28.8522H28.8522H28.8522H28.8522H28.8522H28.8523H28.8523H28.8523H28.8523H28.8523H28.8523H28.8523H28.8523H28.8523H28.8523H28.8523H28.8523H28.8523H28.8523H28.8523H28.8523H28.8523H28.8523H28.8523H28.8523H28.8523H28.8523H28.8523H28.8523H28.8523H28.8523C29.2223 18.5539 29.552 18.7746 29.6928 19.1167L29.7391 19.0977ZM29.7391 19.0977C29.7421 19.1051 29.745 19.1125 29.7478 19.1199L27.9648 19.0994C28.1127 18.7381 28.4607 18.5043 28.8513 18.5039H28.8523C29.2426 18.5039 29.5905 18.7369 29.7391 19.0977ZM28.016 23.3831L27.9902 23.4509H28.0627H29.629H29.7013L29.6758 23.3832L28.8962 21.3186L28.8496 21.1952L28.8027 21.3184L28.016 23.3831Z" fill="#31C5A1" stroke="#E0F7F1" stroke-width="0.1"/>
  <path d="M24.6332 35.0683L24.6086 35.1062L24.6437 35.1345C25.214 35.5948 25.5795 36.2986 25.5793 37.0863C25.5793 38.4693 24.4536 39.5947 23.0698 39.5947C22.6416 39.5947 21.1811 39.601 20.9033 39.6022C20.8752 39.6023 20.8592 39.6024 20.8576 39.6024H20.8542C20.6528 39.6024 20.4596 39.5227 20.3168 39.3806C20.1732 39.2377 20.0925 39.0436 20.0925 38.8411V32.3504C20.0925 31.93 20.4335 31.5891 20.8542 31.5891H22.7404C23.9843 31.5891 24.9963 32.6006 24.9963 33.8439C24.9963 34.2951 24.8625 34.7154 24.6332 35.0683ZM21.6659 33.1117H21.6159V33.1617V34.541V34.591H21.6659V34.541L21.6659 34.591H21.6659H21.666H21.666H21.6661H21.6663H21.6664H21.6666H21.6667H21.6669H21.6672H21.6674H21.6677H21.6679H21.6682H21.6686H21.6689H21.6693H21.6696H21.67H21.6705H21.6709H21.6714H21.6719H21.6724H21.6729H21.6734H21.674H21.6745H21.6751H21.6758H21.6764H21.677H21.6777H21.6784H21.6791H21.6798H21.6806H21.6814H21.6821H21.6829H21.6838H21.6846H21.6855H21.6863H21.6872H21.6881H21.6891H21.69H21.691H21.692H21.693H21.694H21.695H21.6961H21.6971H21.6982H21.6993H21.7004H21.7016H21.7027H21.7039H21.7051H21.7063H21.7075H21.7087H21.71H21.7112H21.7125H21.7138H21.7151H21.7165H21.7178H21.7192H21.7205H21.7219H21.7233H21.7248H21.7262H21.7277H21.7291H21.7306H21.7321H21.7336H21.7352H21.7367H21.7383H21.7398H21.7414H21.743H21.7446H21.7463H21.7479H21.7496H21.7513H21.753H21.7547H21.7564H21.7581H21.7598H21.7616H21.7634H21.7652H21.767H21.7688H21.7706H21.7724H21.7743H21.7761H21.778H21.7799H21.7818H21.7837H21.7857H21.7876H21.7895H21.7915H21.7935H21.7955H21.7975H21.7995H21.8015H21.8036H21.8056H21.8077H21.8098H21.8118H21.8139H21.816H21.8182H21.8203H21.8224H21.8246H21.8268H21.8289H21.8311H21.8333H21.8355H21.8377H21.84H21.8422H21.8445H21.8467H21.849H21.8513H21.8536H21.8559H21.8582H21.8605H21.8628H21.8652H21.8675H21.8699H21.8723H21.8746H21.877H21.8794H21.8818H21.8843H21.8867H21.8891H21.8916H21.894H21.8965H21.8989H21.9014H21.9039H21.9064H21.9089H21.9114H21.9139H21.9165H21.919H21.9216H21.9241H21.9267H21.9292H21.9318H21.9344H21.937H21.9396H21.9422H21.9448H21.9474H21.9501H21.9527H21.9553H21.958H21.9607H21.9633H21.966H21.9687H21.9713H21.974H21.9767H21.9794H21.9821H21.9849H21.9876H21.9903H21.993H21.9958H21.9985H22.0013H22.004H22.0068H22.0096H22.0123H22.0151H22.0179H22.0207H22.0235H22.0263H22.0291H22.0319H22.0347H22.0375H22.0403H22.0432H22.046H22.0488H22.0517H22.0545H22.0574H22.0602H22.0631H22.0659H22.0688H22.0717H22.0745H22.0774H22.0803H22.0832H22.0861H22.0889H22.0918H22.0947H22.0976H22.1005H22.1034H22.1063H22.1093H22.1122H22.1151H22.118H22.1209H22.1238H22.1268H22.1297H22.1326H22.1356H22.1385H22.1414H22.1444H22.1473H22.1502H22.1532H22.1561H22.1591H22.162H22.165H22.1679H22.1709H22.1738H22.1768H22.1797H22.1827H22.1856H22.1886H22.1915H22.1945H22.1975H22.2004H22.2034H22.2063H22.2093H22.2122H22.2152H22.2182H22.2211H22.2241H22.227H22.23H22.2329H22.2359H22.2389H22.2418H22.2448H22.2477H22.2507H22.2536H22.2566H22.2595H22.2625H22.2654H22.2684H22.2713H22.2742H22.2772H22.2801H22.2831H22.286H22.2889H22.2919H22.2948H22.2977H22.3006H22.3036H22.3065H22.3094H22.3123H22.3152H22.3181H22.321H22.3239H22.3268H22.3297H22.3326H22.3355H22.3384H22.3413H22.3442H22.3471H22.3499H22.3528H22.3557H22.3585H22.3614H22.3643H22.3671H22.37H22.3728H22.3756H22.3785H22.3813H22.3841H22.387H22.3898H22.3926H22.3954H22.3982H22.401H22.4038H22.4066H22.4093H22.4121H22.4149H22.4177H22.4204H22.4232H22.4259H22.4287H22.4314H22.4341H22.4369H22.4396H22.4423H22.445H22.4477H22.4504H22.4531H22.4558H22.4585H22.4611H22.4638H22.4664H22.4691H22.4717H22.4744H22.477H22.4796H22.4822H22.4848H22.4874H22.49H22.4926H22.4952H22.4978H22.5003H22.5029H22.5054H22.5079H22.5105H22.513H22.5155H22.518H22.5205H22.523H22.5255H22.5279H22.5304H22.5328H22.5353H22.5377H22.5402H22.5426H22.545H22.5474H22.5498H22.5521H22.5545H22.5569H22.5592H22.5616H22.5639H22.5662H22.5685H22.5708H22.5731H22.5754H22.5777H22.5799H22.5822H22.5844H22.5866H22.5889H22.5911H22.5933H22.5954H22.5976H22.5998H22.6019H22.6041H22.6062H22.6083H22.6104H22.6125H22.6146H22.6167H22.6187H22.6208H22.6228H22.6248H22.6269H22.6289H22.6308H22.6328H22.6348H22.6367H22.6387H22.6406H22.6425H22.6444H22.6463H22.6482H22.65H22.6519H22.6537H22.6556H22.6574H22.6592H22.6609H22.6627H22.6645H22.6662H22.6679H22.6696H22.6713H22.673H22.6747H22.6764H22.678H22.6796H22.6813H22.6829H22.6844H22.686H22.6876H22.6891H22.6906H22.6922H22.6937H22.6951H22.6966H22.6981H22.6995H22.7009H22.7023H22.7037H22.7051H22.7064H22.7078H22.7091H22.7104H22.7117H22.713H22.7143H22.7155H22.7168H22.718H22.7192H22.7203H22.7215H22.7227H22.7238H22.7249H22.726H22.7271H22.7282H22.7292H22.7302H22.7312H22.7322H22.7332H22.7342H22.7351H22.736H22.737H22.7378H22.7387H22.7396H22.7404C23.1457 34.591 23.4729 34.2463 23.4729 33.8439C23.4729 33.4401 23.1443 33.1117 22.7404 33.1117H21.6659ZM21.6159 38.0263V38.0765L21.6661 38.0763C22.1875 38.0743 22.8125 38.072 23.0698 38.072C23.6137 38.072 24.056 37.6299 24.056 37.0863C24.056 36.5427 23.6137 36.1005 23.0698 36.1005H23.0698L23.0698 36.1505L23.0698 36.1005L23.0697 36.1005H23.0696L23.0689 36.1005L23.0661 36.1005L23.0555 36.1005L23.0148 36.1006L22.8685 36.1007L22.416 36.1011C22.0812 36.1014 21.7301 36.1017 21.6657 36.102L21.6159 36.1022V36.152V38.0263Z" fill="#31C5A1" stroke="#E0F7F1" stroke-width="0.1"/>
  <path d="M35.8023 28.2441L35.7649 28.3169H35.8468H40.2332C41.8467 28.3169 43.1594 29.6291 43.1594 31.2418V39.9501C43.1594 41.5629 41.8467 42.875 40.2332 42.875H31.5209C30.6831 42.875 29.9269 42.5207 29.3928 41.9544L29.3564 41.9159L29.32 41.9544C28.7859 42.5207 28.0297 42.875 27.1919 42.875H18.4796C16.8661 42.875 15.5534 41.5629 15.5534 39.9501V31.2418C15.5534 29.6291 16.8661 28.3169 18.4796 28.3169H21.8353H21.9171L21.8797 28.2441C21.675 27.8449 21.5587 27.3933 21.5587 26.9147V18.2063C21.5587 16.5936 22.8714 15.2814 24.4849 15.2814H33.1971C34.8106 15.2814 36.1234 16.5936 36.1234 18.2063V26.9147C36.1234 27.3933 36.0071 27.8449 35.8023 28.2441ZM27.1919 41.3524C27.9654 41.3524 28.5947 40.7234 28.5947 39.9501V31.2418C28.5947 30.4685 27.9654 29.8396 27.1919 29.8396H18.4796C17.7061 29.8396 17.0768 30.4685 17.0768 31.2418V39.9501C17.0768 40.7234 17.7061 41.3524 18.4796 41.3524H27.1919ZM23.0821 26.9147C23.0821 27.6879 23.7114 28.3169 24.4849 28.3169H33.1971C33.9707 28.3169 34.6 27.6879 34.6 26.9147V18.2063C34.6 17.4331 33.9707 16.8041 33.1971 16.8041H24.4849C23.7114 16.8041 23.0821 17.4331 23.0821 18.2063V26.9147ZM40.2332 41.3524C41.0067 41.3524 41.636 40.7234 41.636 39.9501V31.2418C41.636 30.4685 41.0067 29.8396 40.2332 29.8396H31.5209C30.7474 29.8396 30.1181 30.4685 30.1181 31.2418V39.9501C30.1181 40.7234 30.7474 41.3524 31.5209 41.3524H40.2332Z" fill="#31C5A1" stroke="#E0F7F1" stroke-width="0.1"/>
  <path d="M38.766 38.7652L38.766 38.7652C38.8867 38.6578 39.0012 38.5397 39.1065 38.4141C39.3768 38.0919 39.3347 37.6118 39.0124 37.3416C38.6901 37.0714 38.2097 37.1135 37.9393 37.4357C37.9393 37.4357 37.9393 37.4357 37.9393 37.4357L37.901 37.4036L38.766 38.7652ZM38.766 38.7652C38.1513 39.3125 37.3606 39.6024 36.4774 39.6024C34.2672 39.6024 32.4689 37.805 32.4689 35.5957C32.4689 33.3865 34.2672 31.5891 36.4774 31.5891C37.2807 31.5891 38.0558 31.8258 38.7192 32.2738C39.0678 32.5092 39.1594 32.9824 38.924 33.3308C38.6885 33.6793 38.215 33.7709 37.8664 33.5355L38.766 38.7652Z" fill="#31C5A1" stroke="#E0F7F1" stroke-width="0.1"/>
  </g>
  <defs>
  <clipPath id="clip0">
  <rect width="27.706" height="27.6936" fill="white" transform="translate(15.5034 15.2314)"/>
  </clipPath>
  </defs>
  </svg>
