<svg width="59" height="59" viewBox="0 0 59 59" fill="none" xmlns="http://www.w3.org/2000/svg">
  <ellipse cx="29.4054" cy="29.4332" rx="28.7524" ry="29.301" fill="#E9E9E9"/>
  <path d="M38.922 17.8775C38.3321 17.9244 37.8846 18.4271 37.9077 19.0164C37.9311 19.6063 38.4178 20.0727 39.0104 20.0725H39.0104C40.1519 20.0722 41.1104 20.9296 41.2331 22.0612C41.2331 22.0612 41.2331 22.0612 41.2331 22.0612L41.1834 22.0666C41.3036 23.1728 40.5684 24.1915 39.4782 24.4294L38.922 17.8775ZM38.922 17.8775C38.9343 17.8784 38.9479 17.8793 38.962 17.8793C38.9873 17.8793 39.0122 17.8773 39.0362 17.8741C39.6347 17.8883 40.1129 18.3756 40.1136 18.9724C40.1136 19.2843 40.3673 19.537 40.6798 19.537C40.9923 19.537 41.246 19.2843 41.246 18.9723V18.9723C41.2447 17.9392 40.5326 17.0438 39.5282 16.8044V16.3497C39.5282 16.0377 39.2746 15.7851 38.962 15.7851C38.6495 15.7851 38.3958 16.0377 38.3958 16.3497V16.8295C37.3332 17.1321 36.6494 18.1662 36.7939 19.2628C36.9401 20.3721 37.8885 21.2012 39.0104 21.2012C39.6199 21.2012 40.1136 21.6938 40.1136 22.3011C40.1136 22.9081 39.6199 23.4007 39.0104 23.4007C38.401 23.4007 37.9073 22.9081 37.9073 22.3011C37.9073 21.9891 37.6536 21.7364 37.3411 21.7364C37.0285 21.7364 36.7748 21.9891 36.7748 22.3011L36.7748 22.3011C36.7761 23.2971 37.4387 24.1698 38.3958 24.4438V24.9697C38.3958 25.2816 38.6495 25.5343 38.962 25.5343C39.2746 25.5343 39.5282 25.2816 39.5282 24.9697V24.4693L38.922 17.8775ZM36.8248 22.3011C36.8261 23.2871 37.4905 24.1498 38.4458 24.4058V16.8676C37.3862 17.15 36.7006 18.172 36.8435 19.2563C36.9864 20.3406 37.9135 21.1512 39.0104 21.1512C39.6474 21.1512 40.1636 21.6661 40.1636 22.3011C40.1636 22.9358 39.6474 23.4507 39.0104 23.4507C38.3735 23.4507 37.8573 22.9358 37.8573 22.3011C37.8573 22.0169 37.6261 21.7864 37.3411 21.7864C37.056 21.7864 36.8248 22.0169 36.8248 22.3011Z" fill="#BDBDBD" stroke="#BDBDBD" stroke-width="0.1"/>
  <path d="M34.416 43.6607V43.6514C34.429 43.6523 34.4412 43.6533 34.453 43.6543L34.4577 43.6546C34.4974 43.6578 34.5347 43.6607 34.5799 43.6607H34.591H34.5911C36.8828 43.6571 38.7393 41.8039 38.7393 39.5186V28.0403C38.8379 28.0443 38.939 28.0463 39.0385 28.0463C43.1348 28.0463 46.4683 24.717 46.4683 20.6325C46.4683 16.5483 43.1363 13.2192 39.0398 13.2192C35.8452 13.2192 33.1168 15.2806 32.0693 18.0511H19.3264C18.9815 18.0511 18.7126 18.3569 18.7102 18.6881V18.6882L18.5889 36.6419H15.0362C14.7062 36.6419 14.4063 36.8828 14.4063 37.2324L14.4063 39.5234L14.4063 39.5237C14.413 41.7022 16.1093 43.497 18.2779 43.6439V43.6607H18.3779H34.316H34.416ZM15.6388 37.8712H30.4089V39.5108V39.5109C30.4097 40.6064 30.8465 41.6567 31.6228 42.4315H18.5743H18.5712C16.9561 42.4293 15.6462 41.1275 15.6388 39.5179V37.8712ZM19.9384 19.2804H31.7318C31.6536 19.7191 31.6131 20.1635 31.6107 20.6091V20.6095C31.6098 21.5869 31.8041 22.554 32.1817 23.4547H27.458C27.1177 23.4547 26.8418 23.7296 26.8418 24.0693C26.8418 24.409 27.1177 24.6839 27.458 24.6839H32.8393C33.9059 26.3288 35.5861 27.4817 37.5069 27.8884V39.5181C37.5071 41.1246 36.2023 42.4283 34.5903 42.4315H34.5808C32.962 42.4285 31.6496 41.124 31.6414 39.5112C31.6414 39.5111 31.6414 39.5109 31.6414 39.5108L31.6414 37.234C31.646 37.0752 31.5851 36.9217 31.4722 36.8095C31.3595 36.6974 31.2057 36.637 31.047 36.6419H19.8213L19.9384 19.2804ZM39.0397 26.8173C35.6173 26.8173 32.8432 24.0514 32.8434 20.6401C32.8434 17.2286 35.6174 14.4628 39.04 14.4628C42.4624 14.4628 45.2364 17.2288 45.2364 20.6399C45.2327 24.0497 42.4609 26.8136 39.0397 26.8173Z" fill="#BDBDBD" stroke="#BDBDBD" stroke-width="0.2"/>
  <path d="M24.1447 26.9296C23.2075 26.9296 22.4424 27.6657 22.4424 28.5744C22.4424 29.4832 23.2075 30.2193 24.1447 30.2193C25.0818 30.2193 25.8472 29.4832 25.8472 28.5744C25.8472 27.6657 25.0818 26.9296 24.1447 26.9296ZM24.1447 29.0901C23.8259 29.0901 23.5749 28.8545 23.5749 28.5744C23.5749 28.2942 23.8261 28.0588 24.1447 28.0588C24.4633 28.0588 24.7147 28.2944 24.7147 28.5744C24.7147 28.8544 24.4633 29.0901 24.1447 29.0901Z" fill="#BDBDBD" stroke="#BDBDBD" stroke-width="0.1"/>
  <path d="M26.8169 28.5721C26.8169 28.9257 27.1041 29.2118 27.4581 29.2118H34.3403C34.694 29.2118 34.9815 28.9257 34.9815 28.5721C34.9815 28.2185 34.694 27.9325 34.3403 27.9325H27.4581C27.1041 27.9325 26.8169 28.2186 26.8169 28.5721Z" fill="#BDBDBD" stroke="#BDBDBD" stroke-width="0.25"/>
  <path d="M24.7147 24.1011C24.7147 24.3759 24.4727 24.6081 24.1627 24.6168H24.1447C23.8259 24.6168 23.5749 24.3812 23.5749 24.1011C23.5749 23.8211 23.8261 23.5852 24.1447 23.5852C24.4633 23.5852 24.7147 23.8209 24.7147 24.1011ZM24.1447 22.456C23.2075 22.456 22.4424 23.1924 22.4424 24.1011C22.4424 25.0099 23.2075 25.746 24.1447 25.746C25.0818 25.746 25.8472 25.0099 25.8472 24.1011C25.8472 23.1924 25.0818 22.456 24.1447 22.456Z" fill="#BDBDBD" stroke="#BDBDBD" stroke-width="0.1"/>
  <path d="M24.1447 31.4026C23.2075 31.4026 22.4424 32.1388 22.4424 33.0475C22.4424 33.9563 23.2075 34.6924 24.1447 34.6924C25.0818 34.6924 25.8472 33.9563 25.8472 33.0475C25.8472 32.1388 25.0818 31.4026 24.1447 31.4026ZM24.1447 33.5631C23.8258 33.5631 23.5749 33.3278 23.5749 33.0475C23.5749 32.7675 23.8261 32.5319 24.1447 32.5319C24.4633 32.5319 24.7147 32.7675 24.7147 33.0475C24.7147 33.3275 24.4633 33.5631 24.1447 33.5631Z" fill="#BDBDBD" stroke="#BDBDBD" stroke-width="0.1"/>
  <path d="M34.3403 32.4355H27.4581C27.1041 32.4355 26.8169 32.7216 26.8169 33.0752C26.8169 33.4287 27.1041 33.7148 27.4581 33.7148H34.3403C34.694 33.7148 34.9815 33.4288 34.9815 33.0752C34.9815 32.7216 34.694 32.4355 34.3403 32.4355Z" fill="#BDBDBD" stroke="#BDBDBD" stroke-width="0.25"/>
</svg>
