<svg width="59" height="59" viewBox="0 0 59 59" fill="none" xmlns="http://www.w3.org/2000/svg">
  <path d="M57.158 29.3781C57.158 45.0714 44.7127 57.7563 29.4057 57.7563C14.0987 57.7563 1.65332 45.0714 1.65332 29.3781C1.65332 13.6849 14.0987 1 29.4057 1C44.7127 1 57.158 13.6849 57.158 29.3781Z" fill="#E0F7F1" stroke="#31C5A1" stroke-width="2"/>
  <path d="M38.922 17.7918C38.3323 17.8389 37.8846 18.3428 37.9077 18.9338C37.9311 19.5255 38.4179 19.993 39.0104 19.9928H39.0104C40.152 19.9925 41.1104 20.8522 41.2331 21.9867C41.2331 21.9867 41.2331 21.9867 41.2331 21.9867L41.1834 21.9921C41.3036 23.1012 40.5684 24.1225 39.4782 24.3611L38.922 17.7918ZM38.922 17.7918C38.9343 17.7927 38.9479 17.7936 38.962 17.7936C38.9873 17.7936 39.0122 17.7916 39.0362 17.7884C39.6346 17.8027 40.1129 18.2911 40.1136 18.8897C40.1136 19.2023 40.3672 19.4556 40.6798 19.4556C40.9925 19.4556 41.246 19.2022 41.246 18.8897V18.8896C41.2447 17.8539 40.5327 16.9561 39.5282 16.7161V16.2601C39.5282 15.9475 39.2747 15.6941 38.962 15.6941C38.6494 15.6941 38.3958 15.9475 38.3958 16.2601V16.7413C37.3331 17.0448 36.6494 18.0816 36.7939 19.1809C36.9401 20.2929 37.8884 21.1243 39.0104 21.1243C39.6198 21.1243 40.1136 21.6181 40.1136 22.2272C40.1136 22.8359 39.6198 23.3298 39.0104 23.3298C38.4011 23.3298 37.9073 22.8359 37.9073 22.2272C37.9073 21.9146 37.6537 21.6612 37.3411 21.6612C37.0284 21.6612 36.7748 21.9146 36.7748 22.2272L36.7748 22.2272C36.7761 23.2256 37.4386 24.1007 38.3958 24.3754V24.9028C38.3958 25.2154 38.6494 25.4688 38.962 25.4688C39.2747 25.4688 39.5282 25.2154 39.5282 24.9028V24.401L38.922 17.7918ZM36.8248 22.2272C36.8261 23.2158 37.4905 24.0807 38.4458 24.3374V16.7794C37.3862 17.0626 36.7006 18.0872 36.8435 19.1744C36.9864 20.2615 37.9135 21.0743 39.0104 21.0743C39.6474 21.0743 40.1636 21.5905 40.1636 22.2272C40.1636 22.8636 39.6474 23.3798 39.0104 23.3798C38.3735 23.3798 37.8573 22.8636 37.8573 22.2272C37.8573 21.9422 37.6261 21.7112 37.3411 21.7112C37.056 21.7112 36.8248 21.9422 36.8248 22.2272Z" fill="#31C5A1" stroke="#31C5A1" stroke-width="0.1"/>
  <path d="M34.416 43.6428V43.6335C34.429 43.6344 34.4412 43.6354 34.453 43.6364L34.4577 43.6367C34.4974 43.6399 34.5347 43.6428 34.5799 43.6428H34.591H34.5911C36.883 43.6392 38.7393 41.781 38.7393 39.4901V27.9813C38.8379 27.9852 38.939 27.9873 39.0385 27.9873C43.1351 27.9873 46.4683 24.6491 46.4683 20.5542C46.4683 16.4597 43.1366 13.1217 39.0398 13.1217C35.845 13.1217 33.1166 15.1886 32.0692 17.9663H19.3264C18.9812 17.9663 18.7126 18.273 18.7102 18.6047V18.6048L18.5889 36.6061H15.0362C14.7059 36.6061 14.4063 36.8477 14.4063 37.1979L14.4063 39.4949L14.4063 39.4952C14.413 41.679 16.109 43.4787 18.2779 43.626V43.6428H18.3779H34.316H34.416ZM15.6388 37.8381H30.4089V39.4823V39.4823C30.4097 40.5808 30.8467 41.634 31.6232 42.4109H18.5743H18.5712C16.9563 42.4087 15.6462 41.1036 15.6388 39.4893V37.8381ZM19.9384 19.1983H31.7319C31.6537 19.6382 31.6131 20.084 31.6107 20.5308V20.5312C31.6098 21.5113 31.8041 22.481 32.1819 23.3841H27.458C27.1175 23.3841 26.8418 23.6599 26.8418 24.0001C26.8418 24.3403 27.1175 24.6161 27.458 24.6161H32.8392C33.9058 26.2652 35.586 27.4212 37.5068 27.8289V39.4896C37.5071 41.1007 36.202 42.4077 34.5903 42.4109H34.5808C32.9622 42.4079 31.6496 41.1001 31.6414 39.4826C31.6414 39.4825 31.6414 39.4824 31.6414 39.4823L31.6414 37.1994C31.646 37.0404 31.5851 36.8865 31.4723 36.7741C31.3596 36.6617 31.2057 36.6011 31.0469 36.6061H19.8213L19.9384 19.1983ZM39.0397 26.7556C35.6175 26.7555 32.8432 23.9826 32.8434 20.5618C32.8434 17.141 35.6176 14.368 39.04 14.368C42.4622 14.368 45.2364 17.1412 45.2364 20.5617C45.2327 23.9808 42.4607 26.7519 39.0397 26.7556Z" fill="#31C5A1" stroke="#31C5A1" stroke-width="0.2"/>
  <path d="M24.1444 26.868C23.2072 26.868 22.4422 27.6061 22.4422 28.5171C22.4422 29.428 23.2072 30.1662 24.1444 30.1662C25.0817 30.1662 25.8469 29.428 25.8469 28.5171C25.8469 27.6061 25.0817 26.868 24.1444 26.868ZM24.1444 29.0342C23.8257 29.0342 23.5746 28.798 23.5746 28.5171C23.5746 28.2359 23.826 27.9999 24.1444 27.9999C24.4629 27.9999 24.7145 28.2361 24.7145 28.5171C24.7145 28.798 24.4629 29.0342 24.1444 29.0342Z" fill="#31C5A1" stroke="#31C5A1" stroke-width="0.1"/>
  <path d="M26.8169 28.515C26.8169 28.869 27.1038 29.156 27.4581 29.156H34.3403C34.6943 29.156 34.9815 28.869 34.9815 28.515C34.9815 28.161 34.6943 27.874 34.3403 27.874H27.4581C27.1038 27.874 26.8169 28.161 26.8169 28.515Z" fill="#31C5A1" stroke="#31C5A1" stroke-width="0.25"/>
  <path d="M24.7145 24.032C24.7145 24.3076 24.4723 24.5404 24.1624 24.5491H24.1444C23.8257 24.5491 23.5746 24.3129 23.5746 24.032C23.5746 23.751 23.826 23.5146 24.1444 23.5146C24.4629 23.5146 24.7145 23.7508 24.7145 24.032ZM24.1444 22.3826C23.2072 22.3826 22.4422 23.121 22.4422 24.032C22.4422 24.9429 23.2072 25.6811 24.1444 25.6811C25.0817 25.6811 25.8469 24.9429 25.8469 24.032C25.8469 23.121 25.0817 22.3826 24.1444 22.3826Z" fill="#31C5A1" stroke="#31C5A1" stroke-width="0.1"/>
  <path d="M24.1444 31.3528C23.2072 31.3528 22.4422 32.091 22.4422 33.0019C22.4422 33.9128 23.2072 34.651 24.1444 34.651C25.0817 34.651 25.8469 33.9129 25.8469 33.0019C25.8469 32.091 25.0817 31.3528 24.1444 31.3528ZM24.1444 33.519C23.8257 33.519 23.5746 33.2831 23.5746 33.0019C23.5746 32.7209 23.826 32.4848 24.1444 32.4848C24.4629 32.4848 24.7145 32.721 24.7145 33.0019C24.7145 33.2828 24.4629 33.519 24.1444 33.519Z" fill="#31C5A1" stroke="#31C5A1" stroke-width="0.1"/>
  <path d="M34.3403 32.3887H27.4581C27.1038 32.3887 26.8169 32.6757 26.8169 33.0296C26.8169 33.3836 27.1038 33.6706 27.4581 33.6706H34.3403C34.6943 33.6706 34.9815 33.3837 34.9815 33.0296C34.9815 32.6756 34.6943 32.3887 34.3403 32.3887Z" fill="#31C5A1" stroke="#31C5A1" stroke-width="0.25"/>
</svg>
