<svg width="59" height="59" viewBox="0 0 59 59" fill="none" xmlns="http://www.w3.org/2000/svg">
  <ellipse cx="29.4929" cy="29.3781" rx="29.3913" ry="29.3781" fill="#E9E9E9"/>
  <g clip-path="url(#clip0)">
  <path d="M29.9955 23.2611C29.6231 23.2611 29.3211 23.563 29.3211 23.9352C29.3211 23.995 29.2724 24.0437 29.2126 24.0437C28.8402 24.0437 28.5382 24.3455 28.5382 24.7177C28.5382 25.09 28.8402 25.3918 29.2126 25.3918C30.0161 25.3918 30.6698 24.7384 30.6698 23.9352C30.6698 23.563 30.3679 23.2611 29.9955 23.2611Z" fill="#BDBDBD" stroke="#BDBDBD" stroke-width="0.05"/>
  <mask id="path-3-outside-1" maskUnits="userSpaceOnUse" x="16.2302" y="11.4624" width="28" height="35" fill="black">
  <rect fill="white" x="16.2302" y="11.4624" width="28" height="35"/>
  <path d="M42.9538 37.8967C42.6224 37.7589 42.2426 37.9159 42.1049 38.2468C40.5747 41.9253 36.0955 44.3967 30.9591 44.3967C30.6453 44.3967 30.3326 44.3862 30.0211 44.3675L30.4862 41.4054C30.6433 41.4122 30.8009 41.4169 30.9591 41.4169C33.0748 41.4169 35.0712 40.801 36.5804 39.6826C38.148 38.5211 39.0113 36.9585 39.0113 35.2826C39.0113 34.9242 38.7206 34.6336 38.362 34.6336C38.0034 34.6336 37.7126 34.9242 37.7126 35.2826C37.7126 37.0081 36.4439 38.5252 34.5396 39.3813C34.3023 37.3119 32.6741 35.6281 30.566 35.3655C30.3698 35.3412 30.1876 35.2534 30.0526 35.1185C29.8427 34.9086 29.757 34.6216 29.8178 34.3309C29.8786 34.0403 30.072 33.8115 30.3487 33.7032L31.543 33.2356C33.157 32.6036 34.4616 31.4302 35.2162 29.9314C35.5702 29.2284 35.7921 28.4898 35.8798 27.7279C38.8132 28.7577 41.1019 30.6937 42.0863 33.0161C42.1912 33.2636 42.4316 33.4122 42.6846 33.4122C42.769 33.4122 42.8549 33.3956 42.9375 33.3606C43.2677 33.2207 43.422 32.8398 43.2822 32.5097C42.6725 31.0716 41.627 29.7361 40.2585 28.6477C39.5474 28.0821 38.7464 27.5825 37.8834 27.1606C38.8296 25.6347 39.1979 23.7524 38.9228 21.7786C38.6124 19.5515 37.5012 17.3852 35.7941 15.6789C33.961 13.8467 31.6364 12.7179 29.2483 12.5006C26.8161 12.2793 24.608 13.0252 23.0315 14.601C20.8399 16.7916 20.2961 20.1891 21.5515 23.4515C19.1212 23.7412 17.2302 25.8128 17.2302 28.3188C17.2302 30.1027 18.1885 31.6666 19.6173 32.5246C19.5253 33.8707 19.6359 35.1596 19.9468 36.3675C19.1373 36.8556 18.5947 37.743 18.5947 38.7548C18.5947 40.291 19.845 41.5408 21.3819 41.5408C21.8927 41.5408 22.3715 41.4021 22.7836 41.1613C23.5388 41.8516 24.4 42.4131 25.3527 42.8361C25.3795 43.1461 25.4578 43.4546 25.5903 43.7507C25.9626 44.5826 26.6873 45.1661 27.5787 45.3514C28.6752 45.5792 29.8125 45.6948 30.959 45.6948C33.7403 45.6948 36.3906 45.0255 38.6237 43.7596C40.8448 42.5005 42.4631 40.7665 43.304 38.7453C43.4418 38.4142 43.2849 38.0343 42.9538 37.8967ZM23.9499 15.519C25.249 14.2204 27.0889 13.6079 29.1306 13.7933C31.2168 13.9832 33.2571 14.9788 34.8758 16.5967C37.8434 19.5628 38.5761 23.7982 36.6762 26.6371C36.3927 26.5291 36.1045 26.4289 35.812 26.3376C35.5579 25.5828 34.8924 24.9974 34.1004 24.8761C34.7316 23.1634 34.3616 21.1624 32.988 19.7893L32.8113 19.6127C31.7283 18.5303 30.0366 18.293 28.6974 19.0357C28.3789 19.2124 28.018 19.3057 27.6536 19.3057H26.1113C25.9096 19.3057 25.7193 19.3994 25.5964 19.5593C25.4735 19.7191 25.4319 19.927 25.4838 20.1217C25.8206 21.3861 25.4543 22.7458 24.5278 23.6701C24.5278 23.6701 24.3015 23.8974 24.288 23.9137C23.8785 23.713 23.4369 23.5684 22.9733 23.4883C21.646 20.5545 22.0183 17.4496 23.9499 15.519ZM26.9182 27.2322C27.7206 27.7607 28.6473 28.0251 29.574 28.0251C30.2579 28.0251 30.9415 27.8805 31.5754 27.5926C31.2144 28.8271 29.7924 29.9131 27.8711 30.3499C27.4167 30.4531 26.9199 30.5806 26.4082 30.7235C26.8104 30.0124 27.0412 29.1923 27.0412 28.3188C27.0411 27.9453 26.9978 27.582 26.9182 27.2322ZM27.0785 25.696L25.6984 24.3166C26.583 23.2898 27.0079 21.9422 26.884 20.604H27.6535C28.2378 20.604 28.8167 20.4542 29.3276 20.1709C30.1626 19.7076 31.2175 19.8557 31.8929 20.5307L32.0696 20.7073C32.7362 21.3736 33.1032 22.2594 33.1032 23.2017C33.1032 24.144 32.7362 25.0298 32.0696 25.6961C30.6936 27.0715 28.4546 27.0715 27.0785 25.696ZM18.5289 28.3188C18.5289 26.3309 20.1469 24.7136 22.1357 24.7136C24.101 24.7136 25.703 26.2931 25.7407 28.2486C25.6613 28.3996 25.4836 28.4792 25.314 28.4296C24.9698 28.3292 24.6092 28.5264 24.5085 28.8704C24.4078 29.2145 24.6053 29.5749 24.9495 29.6756C25.1044 29.7207 25.2621 29.7432 25.419 29.7432C25.4289 29.7432 25.4389 29.7424 25.4488 29.7423C24.8954 31.0242 23.6189 31.9239 22.1357 31.9239C20.1469 31.9239 18.5289 30.3067 18.5289 28.3188ZM21.382 40.2427C20.5612 40.2427 19.8935 39.5752 19.8935 38.7548C19.8935 37.9343 20.5612 37.2669 21.382 37.2669C22.2027 37.2669 22.8705 37.9343 22.8705 38.7548C22.8705 39.5752 22.2027 40.2427 21.382 40.2427ZM25.7236 41.192C25.6648 41.2936 25.613 41.3976 25.5677 41.5032C24.8934 41.1707 24.2763 40.7554 23.7243 40.2618C24.0053 39.827 24.1691 39.3098 24.1691 38.7548C24.1691 37.2186 22.9188 35.9688 21.382 35.9688C21.3163 35.9688 21.2514 35.9719 21.1868 35.9764C20.9572 35.0566 20.8581 34.0805 20.8901 33.0614C21.2881 33.1659 21.7054 33.222 22.1357 33.222C22.7656 33.222 23.3675 33.1014 23.9213 32.8842C25.2479 32.3958 26.8891 31.9042 28.159 31.6157C29.4761 31.3163 30.6726 30.7206 31.528 29.9384C32.4679 29.0792 32.9645 28.0561 32.9645 26.9799C32.9645 26.7561 33.0524 26.5462 33.2119 26.389C33.3714 26.2319 33.5797 26.1484 33.8069 26.1505C34.2451 26.1569 34.6269 26.5595 34.6241 27.0122C34.6192 27.8234 34.428 28.6091 34.0561 29.3476C33.4455 30.5602 32.3847 31.5117 31.0692 32.0267L29.8748 32.4944C29.1929 32.7614 28.6963 33.3486 28.5465 34.0653C28.3966 34.7818 28.6164 35.5187 29.1342 36.0362C29.4725 36.3743 29.9239 36.5936 30.4054 36.6535C32.0142 36.8539 33.2326 38.2112 33.27 39.8268C32.5487 40.0155 31.7704 40.1185 30.959 40.1185C30.2255 40.1185 29.504 40.0341 28.8146 39.8676C27.6143 39.5778 26.3432 40.1222 25.7236 41.192ZM28.7273 44.2352C28.4299 44.1919 28.1348 44.1409 27.8432 44.0804C27.3649 43.981 26.976 43.6677 26.7759 43.2207C26.5747 42.7709 26.6008 42.2685 26.8476 41.8424C27.1809 41.2668 27.8643 40.9739 28.5096 41.1296C28.7346 41.184 28.9628 41.2298 29.1931 41.2688L28.7273 44.2352Z"/>
  </mask>
  <path d="M42.9538 37.8967C42.6224 37.7589 42.2426 37.9159 42.1049 38.2468C40.5747 41.9253 36.0955 44.3967 30.9591 44.3967C30.6453 44.3967 30.3326 44.3862 30.0211 44.3675L30.4862 41.4054C30.6433 41.4122 30.8009 41.4169 30.9591 41.4169C33.0748 41.4169 35.0712 40.801 36.5804 39.6826C38.148 38.5211 39.0113 36.9585 39.0113 35.2826C39.0113 34.9242 38.7206 34.6336 38.362 34.6336C38.0034 34.6336 37.7126 34.9242 37.7126 35.2826C37.7126 37.0081 36.4439 38.5252 34.5396 39.3813C34.3023 37.3119 32.6741 35.6281 30.566 35.3655C30.3698 35.3412 30.1876 35.2534 30.0526 35.1185C29.8427 34.9086 29.757 34.6216 29.8178 34.3309C29.8786 34.0403 30.072 33.8115 30.3487 33.7032L31.543 33.2356C33.157 32.6036 34.4616 31.4302 35.2162 29.9314C35.5702 29.2284 35.7921 28.4898 35.8798 27.7279C38.8132 28.7577 41.1019 30.6937 42.0863 33.0161C42.1912 33.2636 42.4316 33.4122 42.6846 33.4122C42.769 33.4122 42.8549 33.3956 42.9375 33.3606C43.2677 33.2207 43.422 32.8398 43.2822 32.5097C42.6725 31.0716 41.627 29.7361 40.2585 28.6477C39.5474 28.0821 38.7464 27.5825 37.8834 27.1606C38.8296 25.6347 39.1979 23.7524 38.9228 21.7786C38.6124 19.5515 37.5012 17.3852 35.7941 15.6789C33.961 13.8467 31.6364 12.7179 29.2483 12.5006C26.8161 12.2793 24.608 13.0252 23.0315 14.601C20.8399 16.7916 20.2961 20.1891 21.5515 23.4515C19.1212 23.7412 17.2302 25.8128 17.2302 28.3188C17.2302 30.1027 18.1885 31.6666 19.6173 32.5246C19.5253 33.8707 19.6359 35.1596 19.9468 36.3675C19.1373 36.8556 18.5947 37.743 18.5947 38.7548C18.5947 40.291 19.845 41.5408 21.3819 41.5408C21.8927 41.5408 22.3715 41.4021 22.7836 41.1613C23.5388 41.8516 24.4 42.4131 25.3527 42.8361C25.3795 43.1461 25.4578 43.4546 25.5903 43.7507C25.9626 44.5826 26.6873 45.1661 27.5787 45.3514C28.6752 45.5792 29.8125 45.6948 30.959 45.6948C33.7403 45.6948 36.3906 45.0255 38.6237 43.7596C40.8448 42.5005 42.4631 40.7665 43.304 38.7453C43.4418 38.4142 43.2849 38.0343 42.9538 37.8967ZM23.9499 15.519C25.249 14.2204 27.0889 13.6079 29.1306 13.7933C31.2168 13.9832 33.2571 14.9788 34.8758 16.5967C37.8434 19.5628 38.5761 23.7982 36.6762 26.6371C36.3927 26.5291 36.1045 26.4289 35.812 26.3376C35.5579 25.5828 34.8924 24.9974 34.1004 24.8761C34.7316 23.1634 34.3616 21.1624 32.988 19.7893L32.8113 19.6127C31.7283 18.5303 30.0366 18.293 28.6974 19.0357C28.3789 19.2124 28.018 19.3057 27.6536 19.3057H26.1113C25.9096 19.3057 25.7193 19.3994 25.5964 19.5593C25.4735 19.7191 25.4319 19.927 25.4838 20.1217C25.8206 21.3861 25.4543 22.7458 24.5278 23.6701C24.5278 23.6701 24.3015 23.8974 24.288 23.9137C23.8785 23.713 23.4369 23.5684 22.9733 23.4883C21.646 20.5545 22.0183 17.4496 23.9499 15.519ZM26.9182 27.2322C27.7206 27.7607 28.6473 28.0251 29.574 28.0251C30.2579 28.0251 30.9415 27.8805 31.5754 27.5926C31.2144 28.8271 29.7924 29.9131 27.8711 30.3499C27.4167 30.4531 26.9199 30.5806 26.4082 30.7235C26.8104 30.0124 27.0412 29.1923 27.0412 28.3188C27.0411 27.9453 26.9978 27.582 26.9182 27.2322ZM27.0785 25.696L25.6984 24.3166C26.583 23.2898 27.0079 21.9422 26.884 20.604H27.6535C28.2378 20.604 28.8167 20.4542 29.3276 20.1709C30.1626 19.7076 31.2175 19.8557 31.8929 20.5307L32.0696 20.7073C32.7362 21.3736 33.1032 22.2594 33.1032 23.2017C33.1032 24.144 32.7362 25.0298 32.0696 25.6961C30.6936 27.0715 28.4546 27.0715 27.0785 25.696ZM18.5289 28.3188C18.5289 26.3309 20.1469 24.7136 22.1357 24.7136C24.101 24.7136 25.703 26.2931 25.7407 28.2486C25.6613 28.3996 25.4836 28.4792 25.314 28.4296C24.9698 28.3292 24.6092 28.5264 24.5085 28.8704C24.4078 29.2145 24.6053 29.5749 24.9495 29.6756C25.1044 29.7207 25.2621 29.7432 25.419 29.7432C25.4289 29.7432 25.4389 29.7424 25.4488 29.7423C24.8954 31.0242 23.6189 31.9239 22.1357 31.9239C20.1469 31.9239 18.5289 30.3067 18.5289 28.3188ZM21.382 40.2427C20.5612 40.2427 19.8935 39.5752 19.8935 38.7548C19.8935 37.9343 20.5612 37.2669 21.382 37.2669C22.2027 37.2669 22.8705 37.9343 22.8705 38.7548C22.8705 39.5752 22.2027 40.2427 21.382 40.2427ZM25.7236 41.192C25.6648 41.2936 25.613 41.3976 25.5677 41.5032C24.8934 41.1707 24.2763 40.7554 23.7243 40.2618C24.0053 39.827 24.1691 39.3098 24.1691 38.7548C24.1691 37.2186 22.9188 35.9688 21.382 35.9688C21.3163 35.9688 21.2514 35.9719 21.1868 35.9764C20.9572 35.0566 20.8581 34.0805 20.8901 33.0614C21.2881 33.1659 21.7054 33.222 22.1357 33.222C22.7656 33.222 23.3675 33.1014 23.9213 32.8842C25.2479 32.3958 26.8891 31.9042 28.159 31.6157C29.4761 31.3163 30.6726 30.7206 31.528 29.9384C32.4679 29.0792 32.9645 28.0561 32.9645 26.9799C32.9645 26.7561 33.0524 26.5462 33.2119 26.389C33.3714 26.2319 33.5797 26.1484 33.8069 26.1505C34.2451 26.1569 34.6269 26.5595 34.6241 27.0122C34.6192 27.8234 34.428 28.6091 34.0561 29.3476C33.4455 30.5602 32.3847 31.5117 31.0692 32.0267L29.8748 32.4944C29.1929 32.7614 28.6963 33.3486 28.5465 34.0653C28.3966 34.7818 28.6164 35.5187 29.1342 36.0362C29.4725 36.3743 29.9239 36.5936 30.4054 36.6535C32.0142 36.8539 33.2326 38.2112 33.27 39.8268C32.5487 40.0155 31.7704 40.1185 30.959 40.1185C30.2255 40.1185 29.504 40.0341 28.8146 39.8676C27.6143 39.5778 26.3432 40.1222 25.7236 41.192ZM28.7273 44.2352C28.4299 44.1919 28.1348 44.1409 27.8432 44.0804C27.3649 43.981 26.976 43.6677 26.7759 43.2207C26.5747 42.7709 26.6008 42.2685 26.8476 41.8424C27.1809 41.2668 27.8643 40.9739 28.5096 41.1296C28.7346 41.184 28.9628 41.2298 29.1931 41.2688L28.7273 44.2352Z" fill="#BDBDBD"/>
  <path d="M42.9538 37.8967C42.6224 37.7589 42.2426 37.9159 42.1049 38.2468C40.5747 41.9253 36.0955 44.3967 30.9591 44.3967C30.6453 44.3967 30.3326 44.3862 30.0211 44.3675L30.4862 41.4054C30.6433 41.4122 30.8009 41.4169 30.9591 41.4169C33.0748 41.4169 35.0712 40.801 36.5804 39.6826C38.148 38.5211 39.0113 36.9585 39.0113 35.2826C39.0113 34.9242 38.7206 34.6336 38.362 34.6336C38.0034 34.6336 37.7126 34.9242 37.7126 35.2826C37.7126 37.0081 36.4439 38.5252 34.5396 39.3813C34.3023 37.3119 32.6741 35.6281 30.566 35.3655C30.3698 35.3412 30.1876 35.2534 30.0526 35.1185C29.8427 34.9086 29.757 34.6216 29.8178 34.3309C29.8786 34.0403 30.072 33.8115 30.3487 33.7032L31.543 33.2356C33.157 32.6036 34.4616 31.4302 35.2162 29.9314C35.5702 29.2284 35.7921 28.4898 35.8798 27.7279C38.8132 28.7577 41.1019 30.6937 42.0863 33.0161C42.1912 33.2636 42.4316 33.4122 42.6846 33.4122C42.769 33.4122 42.8549 33.3956 42.9375 33.3606C43.2677 33.2207 43.422 32.8398 43.2822 32.5097C42.6725 31.0716 41.627 29.7361 40.2585 28.6477C39.5474 28.0821 38.7464 27.5825 37.8834 27.1606C38.8296 25.6347 39.1979 23.7524 38.9228 21.7786C38.6124 19.5515 37.5012 17.3852 35.7941 15.6789C33.961 13.8467 31.6364 12.7179 29.2483 12.5006C26.8161 12.2793 24.608 13.0252 23.0315 14.601C20.8399 16.7916 20.2961 20.1891 21.5515 23.4515C19.1212 23.7412 17.2302 25.8128 17.2302 28.3188C17.2302 30.1027 18.1885 31.6666 19.6173 32.5246C19.5253 33.8707 19.6359 35.1596 19.9468 36.3675C19.1373 36.8556 18.5947 37.743 18.5947 38.7548C18.5947 40.291 19.845 41.5408 21.3819 41.5408C21.8927 41.5408 22.3715 41.4021 22.7836 41.1613C23.5388 41.8516 24.4 42.4131 25.3527 42.8361C25.3795 43.1461 25.4578 43.4546 25.5903 43.7507C25.9626 44.5826 26.6873 45.1661 27.5787 45.3514C28.6752 45.5792 29.8125 45.6948 30.959 45.6948C33.7403 45.6948 36.3906 45.0255 38.6237 43.7596C40.8448 42.5005 42.4631 40.7665 43.304 38.7453C43.4418 38.4142 43.2849 38.0343 42.9538 37.8967ZM23.9499 15.519C25.249 14.2204 27.0889 13.6079 29.1306 13.7933C31.2168 13.9832 33.2571 14.9788 34.8758 16.5967C37.8434 19.5628 38.5761 23.7982 36.6762 26.6371C36.3927 26.5291 36.1045 26.4289 35.812 26.3376C35.5579 25.5828 34.8924 24.9974 34.1004 24.8761C34.7316 23.1634 34.3616 21.1624 32.988 19.7893L32.8113 19.6127C31.7283 18.5303 30.0366 18.293 28.6974 19.0357C28.3789 19.2124 28.018 19.3057 27.6536 19.3057H26.1113C25.9096 19.3057 25.7193 19.3994 25.5964 19.5593C25.4735 19.7191 25.4319 19.927 25.4838 20.1217C25.8206 21.3861 25.4543 22.7458 24.5278 23.6701C24.5278 23.6701 24.3015 23.8974 24.288 23.9137C23.8785 23.713 23.4369 23.5684 22.9733 23.4883C21.646 20.5545 22.0183 17.4496 23.9499 15.519ZM26.9182 27.2322C27.7206 27.7607 28.6473 28.0251 29.574 28.0251C30.2579 28.0251 30.9415 27.8805 31.5754 27.5926C31.2144 28.8271 29.7924 29.9131 27.8711 30.3499C27.4167 30.4531 26.9199 30.5806 26.4082 30.7235C26.8104 30.0124 27.0412 29.1923 27.0412 28.3188C27.0411 27.9453 26.9978 27.582 26.9182 27.2322ZM27.0785 25.696L25.6984 24.3166C26.583 23.2898 27.0079 21.9422 26.884 20.604H27.6535C28.2378 20.604 28.8167 20.4542 29.3276 20.1709C30.1626 19.7076 31.2175 19.8557 31.8929 20.5307L32.0696 20.7073C32.7362 21.3736 33.1032 22.2594 33.1032 23.2017C33.1032 24.144 32.7362 25.0298 32.0696 25.6961C30.6936 27.0715 28.4546 27.0715 27.0785 25.696ZM18.5289 28.3188C18.5289 26.3309 20.1469 24.7136 22.1357 24.7136C24.101 24.7136 25.703 26.2931 25.7407 28.2486C25.6613 28.3996 25.4836 28.4792 25.314 28.4296C24.9698 28.3292 24.6092 28.5264 24.5085 28.8704C24.4078 29.2145 24.6053 29.5749 24.9495 29.6756C25.1044 29.7207 25.2621 29.7432 25.419 29.7432C25.4289 29.7432 25.4389 29.7424 25.4488 29.7423C24.8954 31.0242 23.6189 31.9239 22.1357 31.9239C20.1469 31.9239 18.5289 30.3067 18.5289 28.3188ZM21.382 40.2427C20.5612 40.2427 19.8935 39.5752 19.8935 38.7548C19.8935 37.9343 20.5612 37.2669 21.382 37.2669C22.2027 37.2669 22.8705 37.9343 22.8705 38.7548C22.8705 39.5752 22.2027 40.2427 21.382 40.2427ZM25.7236 41.192C25.6648 41.2936 25.613 41.3976 25.5677 41.5032C24.8934 41.1707 24.2763 40.7554 23.7243 40.2618C24.0053 39.827 24.1691 39.3098 24.1691 38.7548C24.1691 37.2186 22.9188 35.9688 21.382 35.9688C21.3163 35.9688 21.2514 35.9719 21.1868 35.9764C20.9572 35.0566 20.8581 34.0805 20.8901 33.0614C21.2881 33.1659 21.7054 33.222 22.1357 33.222C22.7656 33.222 23.3675 33.1014 23.9213 32.8842C25.2479 32.3958 26.8891 31.9042 28.159 31.6157C29.4761 31.3163 30.6726 30.7206 31.528 29.9384C32.4679 29.0792 32.9645 28.0561 32.9645 26.9799C32.9645 26.7561 33.0524 26.5462 33.2119 26.389C33.3714 26.2319 33.5797 26.1484 33.8069 26.1505C34.2451 26.1569 34.6269 26.5595 34.6241 27.0122C34.6192 27.8234 34.428 28.6091 34.0561 29.3476C33.4455 30.5602 32.3847 31.5117 31.0692 32.0267L29.8748 32.4944C29.1929 32.7614 28.6963 33.3486 28.5465 34.0653C28.3966 34.7818 28.6164 35.5187 29.1342 36.0362C29.4725 36.3743 29.9239 36.5936 30.4054 36.6535C32.0142 36.8539 33.2326 38.2112 33.27 39.8268C32.5487 40.0155 31.7704 40.1185 30.959 40.1185C30.2255 40.1185 29.504 40.0341 28.8146 39.8676C27.6143 39.5778 26.3432 40.1222 25.7236 41.192ZM28.7273 44.2352C28.4299 44.1919 28.1348 44.1409 27.8432 44.0804C27.3649 43.981 26.976 43.6677 26.7759 43.2207C26.5747 42.7709 26.6008 42.2685 26.8476 41.8424C27.1809 41.2668 27.8643 40.9739 28.5096 41.1296C28.7346 41.184 28.9628 41.2298 29.1931 41.2688L28.7273 44.2352Z" stroke="#BDBDBD" stroke-width="0.1" mask="url(#path-3-outside-1)"/>
  <mask id="path-4-outside-2" maskUnits="userSpaceOnUse" x="22.9187" y="31.8833" width="2" height="2" fill="black">
  <rect fill="white" x="22.9187" y="31.8833" width="2" height="2"/>
  <path d="M23.9214 32.8841C23.9121 32.8875 23.9308 32.8811 23.9214 32.8841V32.8841Z"/>
  </mask>
  <path d="M23.9214 32.8841C23.9121 32.8875 23.9308 32.8811 23.9214 32.8841V32.8841Z" fill="#BDBDBD"/>
  <path d="M23.9041 32.8372C23.9029 32.8376 23.9017 32.8381 23.9006 32.8385C23.9003 32.8386 23.8998 32.8388 23.8992 32.8391C23.8991 32.8392 23.8973 32.8399 23.8952 32.841C23.8946 32.8413 23.8935 32.8419 23.8922 32.8427C23.8913 32.8433 23.8884 32.8451 23.8851 32.8481C23.8836 32.8495 23.8803 32.8526 23.8772 32.8573C23.8758 32.8595 23.873 32.8649 23.8717 32.8681C23.8704 32.8723 23.8688 32.882 23.8688 32.8874C23.8694 32.8936 23.8731 32.9057 23.8761 32.9113C23.8794 32.916 23.8867 32.9235 23.8904 32.9264C23.8936 32.9284 23.8995 32.9313 23.9021 32.9323C23.9043 32.933 23.9081 32.934 23.9098 32.9344C23.9136 32.935 23.9167 32.9351 23.9184 32.9352C23.9202 32.9352 23.9218 32.9351 23.9228 32.935C23.9248 32.9348 23.9263 32.9346 23.9271 32.9344C23.9288 32.9342 23.9301 32.9339 23.9305 32.9337C23.9323 32.9333 23.9338 32.9328 23.9339 32.9328C23.9344 32.9326 23.9349 32.9325 23.9353 32.9324C23.9361 32.9321 23.9369 32.9318 23.9376 32.9316C23.9383 32.9313 23.9392 32.9311 23.9399 32.9308C23.9403 32.9307 23.9408 32.9305 23.9412 32.9303C23.9414 32.9303 23.9428 32.9297 23.9444 32.929C23.9448 32.9288 23.9459 32.9283 23.9472 32.9276C23.9479 32.9273 23.9491 32.9266 23.9505 32.9258C23.9513 32.9253 23.9523 32.9246 23.9535 32.9237C23.9546 32.9229 23.9565 32.9215 23.9586 32.9195C23.9603 32.9178 23.9642 32.9139 23.9676 32.9079C23.9709 32.9021 23.9769 32.8886 23.9726 32.8713C23.9707 32.8652 23.965 32.8545 23.9613 32.8499C23.9579 32.8464 23.9509 32.8411 23.9476 32.8392C23.9449 32.8378 23.94 32.8359 23.9378 32.8352C23.936 32.8347 23.9328 32.8341 23.9313 32.8338C23.9281 32.8334 23.9255 32.8333 23.924 32.8333C23.9224 32.8333 23.921 32.8334 23.9201 32.8335C23.9183 32.8336 23.9168 32.8338 23.9161 32.8339C23.9135 32.8344 23.9115 32.8349 23.9114 32.8349C23.9107 32.8351 23.9102 32.8353 23.9099 32.8353C23.9088 32.8357 23.9075 32.8361 23.9063 32.8365L23.9365 32.9318C23.9377 32.9314 23.9378 32.9314 23.9375 32.9315C23.9374 32.9315 23.937 32.9316 23.9365 32.9317C23.9365 32.9317 23.9346 32.9323 23.9321 32.9327C23.9313 32.9328 23.9299 32.933 23.9281 32.9331C23.9272 32.9332 23.9258 32.9333 23.9242 32.9333C23.9227 32.9333 23.9201 32.9332 23.9169 32.9328C23.9154 32.9325 23.9122 32.9319 23.9104 32.9314C23.9082 32.9307 23.9033 32.9288 23.9006 32.9274C23.8973 32.9255 23.8903 32.9202 23.8869 32.9167C23.8833 32.9121 23.8775 32.9014 23.8756 32.8953C23.8713 32.878 23.8773 32.8645 23.8806 32.8587C23.884 32.8527 23.8879 32.8488 23.8896 32.8471C23.8917 32.8451 23.8936 32.8437 23.8947 32.8429C23.8959 32.842 23.8969 32.8413 23.8977 32.8409C23.8991 32.84 23.9003 32.8393 23.9009 32.839C23.9022 32.8383 23.9033 32.8379 23.9037 32.8377C23.9046 32.8373 23.9053 32.837 23.9055 32.8369C23.9058 32.8368 23.906 32.8367 23.9061 32.8367C23.9063 32.8366 23.9063 32.8366 23.9062 32.8366C23.906 32.8367 23.9056 32.8368 23.9052 32.837C23.9048 32.8371 23.9044 32.8372 23.9042 32.8373C23.9041 32.8373 23.9042 32.8373 23.9044 32.8373C23.9044 32.8372 23.9047 32.8372 23.905 32.8371C23.9052 32.837 23.9059 32.8368 23.907 32.8365C23.9075 32.8364 23.9087 32.8361 23.9103 32.8359C23.9111 32.8357 23.9127 32.8355 23.9146 32.8353C23.9156 32.8352 23.9172 32.8351 23.919 32.8352C23.9207 32.8352 23.9238 32.8353 23.9276 32.8359C23.9293 32.8363 23.9332 32.8373 23.9353 32.838C23.9379 32.839 23.9438 32.8419 23.947 32.8439C23.9507 32.8468 23.958 32.8543 23.9613 32.859C23.9643 32.8646 23.968 32.8767 23.9686 32.8829C23.9686 32.8883 23.967 32.898 23.9657 32.9022C23.9644 32.9054 23.9616 32.9108 23.9602 32.913C23.9571 32.9177 23.9539 32.9208 23.9523 32.9222C23.949 32.9252 23.9461 32.927 23.9452 32.9276C23.9439 32.9284 23.9428 32.929 23.9422 32.9293C23.9402 32.9303 23.9385 32.931 23.9385 32.9311C23.938 32.9313 23.9377 32.9314 23.9376 32.9314C23.9373 32.9315 23.9375 32.9315 23.9387 32.931L23.9041 32.8372Z" fill="#BDBDBD" mask="url(#path-4-outside-2)"/>
  <path d="M43.2751 34.9799C42.9027 34.9799 42.6007 35.2817 42.6007 35.654C42.6007 36.0262 42.9027 36.328 43.2751 36.328H43.2785C43.651 36.328 43.9512 36.0261 43.9512 35.654C43.9512 35.2816 43.6474 34.9799 43.2751 34.9799Z" fill="#BDBDBD" stroke="#BDBDBD" stroke-width="0.05"/>
  </g>
  <defs>
  <clipPath id="clip0">
  <rect width="33.2472" height="33.2323" fill="white" transform="translate(13.9546 12.4624)"/>
  </clipPath>
  </defs>
  </svg>
