<svg width="59" height="59" viewBox="0 0 59 59" fill="none" xmlns="http://www.w3.org/2000/svg">
  <ellipse cx="29.4316" cy="29.4332" rx="29.3913" ry="29.301" fill="#E9E9E9"/>
  <path d="M31.3819 31.3783C31.53 31.3545 31.53 31.3544 31.53 31.3543L31.5299 31.354L31.5298 31.3533L31.5295 31.3516L31.5287 31.347L31.5258 31.3332C31.5233 31.3219 31.5196 31.3067 31.5141 31.288C31.5032 31.2507 31.4855 31.1996 31.4573 31.1394C31.4008 31.0187 31.3026 30.862 31.1347 30.707C30.7966 30.3949 30.1941 30.1062 29.1308 30.1062C27.3861 30.1062 26.3018 29.557 25.6535 28.8894C25.0027 28.2191 24.7794 27.4175 24.7786 26.8928C24.8027 26.2778 25.0194 25.6858 25.3983 25.1998C26.0538 24.4094 26.996 23.9089 28.02 23.8076L28.1553 23.7942V23.6583V22.4015C28.1553 22.1439 28.2579 21.8967 28.4408 21.7143C28.6237 21.532 28.8719 21.4294 29.1308 21.4294C29.3897 21.4294 29.6379 21.532 29.8208 21.7143C30.0037 21.8967 30.1064 22.1439 30.1064 22.4015V23.6583V23.7942L30.2416 23.8076C31.2656 23.9089 32.2078 24.4094 32.8633 25.1998C33.2422 25.6858 33.4589 26.2778 33.483 26.8927C33.4823 27.1494 33.3797 27.3955 33.1975 27.5771C33.0146 27.7595 32.7664 27.862 32.5075 27.862C32.2486 27.862 32.0004 27.7595 31.8175 27.5771C31.6346 27.3948 31.5319 27.1476 31.5319 26.8899C31.5319 26.7489 31.4648 26.4244 31.1205 26.1378C30.7774 25.8522 30.1754 25.6178 29.1308 25.6178C28.0755 25.6178 27.473 25.852 27.1321 26.1383C26.7893 26.4262 26.7297 26.7516 26.7297 26.8899C26.7297 27.0283 26.7893 27.3536 27.1321 27.6416C27.473 27.9279 28.0755 28.162 29.1308 28.162C30.8756 28.162 31.9599 28.7113 32.6081 29.3789C33.2601 30.0503 33.483 30.8536 33.483 31.3783C33.483 31.9084 33.3071 32.5891 32.8165 33.1865C32.3278 33.7815 31.5185 34.304 30.233 34.5067L30.1064 34.5266V34.6548V35.8667C30.1064 36.1244 30.0037 36.3716 29.8208 36.5539C29.6379 36.7363 29.3897 36.8388 29.1308 36.8388C28.8719 36.8388 28.6237 36.7363 28.4408 36.5539C28.2579 36.3716 28.1553 36.1244 28.1553 35.8667V34.6548V34.5193L28.0205 34.5056C27.5102 34.4536 27.0156 34.3008 26.5654 34.056C26.1155 33.8114 25.7192 33.4799 25.3993 33.0809C25.0203 32.5901 24.8034 31.9942 24.7786 31.3754C24.7794 31.1188 24.8819 30.8728 25.0642 30.6911C25.2471 30.5087 25.4953 30.4062 25.7541 30.4062C26.013 30.4062 26.2612 30.5087 26.4441 30.6911C26.627 30.8734 26.7297 31.1206 26.7297 31.3783C26.7297 31.4965 26.7908 31.8201 27.1309 32.1121C27.4712 32.4042 28.0737 32.6504 29.1308 32.6504C30.2794 32.6504 30.887 32.3641 31.2064 32.0456C31.3655 31.887 31.4473 31.7259 31.489 31.6012C31.5098 31.5391 31.5205 31.4864 31.526 31.4478C31.5288 31.4285 31.5303 31.4127 31.531 31.4009L31.5318 31.3864L31.5319 31.3815L31.5319 31.3797L31.5319 31.3789L31.5319 31.3786C31.5319 31.3785 31.5319 31.3783 31.3819 31.3783ZM31.3819 31.3783L31.53 31.3545L31.5319 31.3663V31.3783H31.3819ZM34.3883 23.2953L34.3895 23.2958C34.5066 23.3455 34.6323 23.372 34.7595 23.3736H39.2608C39.5197 23.3736 39.7679 23.2711 39.9508 23.0887C40.1337 22.9064 40.2364 22.6592 40.2364 22.4015C40.2364 22.1439 40.1337 21.8967 39.9508 21.7143C39.7679 21.532 39.5197 21.4294 39.2608 21.4294H37.4712H37.1075L37.3654 21.173L41.0796 17.4815L41.0798 17.4814M34.3883 23.2953L39.5872 15.9944C39.7992 15.7831 40.0866 15.6644 40.3864 15.6644C40.6861 15.6644 40.9736 15.7831 41.1855 15.9944C41.3975 16.2057 41.5165 16.4922 41.5165 16.7911C41.5165 17.0899 41.3975 17.3764 41.1855 17.5877L41.0798 17.4814M34.3883 23.2953C34.1498 23.1966 33.9605 23.0077 33.8616 22.7702L33.861 22.769C33.8112 22.6524 33.7847 22.5273 33.783 22.4006V17.9132C33.783 17.6555 33.8857 17.4083 34.0686 17.2259C34.2515 17.0436 34.4997 16.9411 34.7586 16.9411C35.0175 16.9411 35.2657 17.0436 35.4486 17.2259C35.6315 17.4083 35.7342 17.6555 35.7342 17.9132V19.6973V20.0594M34.3883 23.2953L35.7342 20.0594M41.0798 17.4814C41.2634 17.2982 41.3665 17.0499 41.3665 16.7911C41.3665 16.5322 41.2634 16.2838 41.0796 16.1006C40.8958 15.9174 40.6465 15.8144 40.3864 15.8144C40.1263 15.8144 39.8771 15.9173 39.6933 16.1004L41.0798 17.4814ZM35.7342 20.0594L35.9902 19.8034M35.7342 20.0594L35.9902 19.8034M35.9902 19.8034L39.6931 16.1006L35.9902 19.8034ZM40.5364 29.1341H40.5364L40.5363 29.1303C40.5187 28.4364 40.4425 27.7453 40.3087 27.0642C40.2624 26.8062 40.3206 26.5404 40.4707 26.3251C40.621 26.1094 40.8512 25.962 41.1107 25.9155C41.3702 25.8689 41.6376 25.927 41.854 26.077C42.0669 26.2244 42.2132 26.4487 42.2624 26.7019V26.744V26.7578L42.2649 26.7714C42.7637 29.4629 42.4183 32.2423 41.2757 34.7311C40.1331 37.22 38.2489 39.2974 35.8794 40.6805C33.51 42.0636 30.7705 42.6851 28.0339 42.4604C25.2974 42.2357 22.6969 41.1757 20.5864 39.4247C18.4759 37.6738 16.9581 35.317 16.2394 32.6754C15.5208 30.0337 15.6362 27.2355 16.57 24.6616C17.5039 22.0876 19.2107 19.8631 21.4583 18.2908C23.7059 16.7185 26.385 15.875 29.1308 15.8751H29.1333H29.1357H29.1381H29.1406H29.143H29.1455H29.1479H29.1503H29.1528H29.1552H29.1576H29.1601H29.1625H29.165H29.1674H29.1698H29.1723H29.1747H29.1771H29.1796H29.182H29.1844H29.1869H29.1893H29.1917H29.1942H29.1966H29.199H29.2015H29.2039H29.2063H29.2088H29.2112H29.2136H29.2161H29.2185H29.2209H29.2234H29.2258H29.2282H29.2307H29.2331H29.2355H29.2379H29.2404H29.2428H29.2452H29.2477H29.2501H29.2525H29.2549H29.2574H29.2598H29.2622H29.2646H29.2671H29.2695H29.2719H29.2744H29.2768H29.2792H29.2816H29.2841H29.2865H29.2889H29.2913H29.2938H29.2962H29.2986H29.301H29.3034H29.3059H29.3083H29.3107H29.3131H29.3156H29.318H29.3204H29.3228H29.3252H29.3277H29.3301H29.3325H29.3349H29.3373H29.3398H29.3422H29.3446H29.347H29.3494H29.3519H29.3543H29.3567H29.3591H29.3615H29.364H29.3664H29.3688H29.3712H29.3736H29.376H29.3785H29.3809H29.3833H29.3857H29.3881H29.3905H29.393H29.3954H29.3978H29.4002H29.4026H29.405H29.4074H29.4099H29.4123H29.4147H29.4171H29.4195H29.4219H29.4243H29.4268H29.4292H29.4316H29.434H29.4364H29.4388H29.4412H29.4436H29.446H29.4485H29.4509H29.4533H29.4557H29.4581H29.4605H29.4629H29.4653H29.4677H29.4701H29.4726H29.475H29.4774H29.4798H29.4822H29.4846H29.487H29.4894H29.4918H29.4942H29.4966H29.499H29.5014H29.5039H29.5063H29.5087H29.5111H29.5135H29.5159H29.5183H29.5207H29.5231H29.5255H29.5279H29.5303H29.5327H29.5351H29.5375H29.5399H29.5423H29.5447H29.5471H29.5495H29.5519H29.5543H29.5568H29.5592H29.5616H29.564H29.5664H29.5688H29.5712H29.5736H29.576H29.5784H29.5808H29.5832H29.5856H29.588H29.5904H29.5928H29.5952H29.5976H29.6H29.6024H29.6048H29.6072H29.6096H29.612H29.6144H29.6168H29.6192H29.6216H29.624H29.6264H29.6288H29.6312H29.6336H29.6359H29.6383H29.6407H29.6431H29.6455H29.6479H29.6503H29.6527H29.6551H29.6575H29.6599H29.6623H29.6647H29.6671H29.6695H29.6719H29.6743H29.6767H29.6791H29.6815H29.6839H29.6863H29.6887H29.691H29.6934H29.6958H29.6982H29.7006H29.703H29.7054H29.7078H29.7102H29.7126H29.715H29.7174H29.7198H29.7222H29.7246H29.7269H29.7293H29.7317H29.7341H29.7365H29.7389H29.7413H29.7437H29.7461H29.7485H29.7509H29.7532H29.7556H29.758H29.7604H29.7628H29.7652H29.7676H29.77H29.7724H29.7748H29.7771H29.7795H29.7819H29.7843H29.7867H29.7891H29.7915H29.7939H29.7963H29.7986H29.801H29.8034H29.8058H29.8082H29.8106H29.813H29.8154H29.8177H29.8201H29.8225H29.8249H29.8273H29.8297H29.8321H29.8344H29.8368H29.8392H29.8416H29.844H29.8464H29.8488H29.8512H29.8535H29.8559H29.8583H29.8607H29.8631H29.8655H29.8678H29.8702H29.8726H29.875H29.8774H29.8798H29.8822H29.8845H29.8869H29.8893H29.8917H29.8941H29.8965H29.8988H29.9012H29.9036H29.906H29.9084H29.9108H29.9131H29.9155H29.9179H29.9203H29.9227H29.9251H29.9274H29.9298H29.9322H29.9346H29.937H29.9394H29.9417H29.9441H29.9465H29.9489H29.9513H29.9536H29.956H29.9584H29.9608H29.9632H29.9655H29.9679H29.9703H29.9727H29.9751H29.9775H29.9798H29.9822H29.9846H29.987H29.9894H29.9917H29.9941H29.9965H29.9989H30.0013H30.0036H30.006H30.0084H30.0108H30.0132H30.0155H30.0179H30.0203H30.0227H30.0251H30.0274H30.0298H30.0322H30.0346H30.0369H30.0393H30.0417H30.0441H30.0465H30.0488H30.0512H30.0536H30.056H30.0584H30.0607H30.0631H30.0655H30.0679H30.0702H30.0726H30.075H30.0774H30.0798H30.0821H30.0845H30.0869H30.0893H30.0916H30.094H30.0964H30.0988H30.1011H30.1035H30.1059H30.1083H30.1107H30.113H30.1154H30.1178H30.1202H30.1225H30.1249H30.1273H30.1297H30.132H30.1344H30.1368H30.1392H30.1416H30.1439H30.1463H30.1487H30.1511H30.1534H30.1558H30.1582H30.1606H30.1629H30.1653H30.1677H30.1701H30.1724H30.1748H30.1772H30.1796H30.1819H30.1843H30.1867H30.1891H30.1914H30.1938H30.1962H30.1986H30.2009H30.2033H30.2057H30.2081H30.2104H30.2128H30.2152H30.2176H30.2199H30.2223H30.2247H30.2271H30.2295H30.2318H30.2342H30.2366H30.2389H30.2413H30.2437H30.2461H30.2484H30.2508H30.2532H30.2556H30.2579H30.2603H30.2627H30.2651H30.2674H30.2698H30.2722H30.2746H30.2769H30.2793H30.2817H30.2841H30.2864H30.2888H30.2912H30.2936H30.2959H30.2983H30.3007H30.3031H30.3054H30.3078H30.3102H30.3126H30.3149H30.3173H30.3197H30.3221H30.3244H30.3268H30.3292H30.3316H30.3339H30.3363H30.3387H30.3411H30.3434H30.3458H30.3482H30.3505H30.351C30.4772 15.8867 30.6 15.9227 30.7124 15.9811C30.8266 16.0404 30.9278 16.1217 31.0103 16.2202C31.0928 16.3187 31.1549 16.4325 31.1931 16.555C31.2309 16.6766 31.2444 16.8043 31.2329 16.9309C31.1981 17.179 31.0686 17.4043 30.8711 17.5596C30.6728 17.7156 30.4214 17.7889 30.1699 17.7639L30.1699 17.7637L30.1626 17.7633C29.8176 17.7461 29.472 17.746 29.1271 17.7632C26.8727 17.7639 24.669 18.4307 22.7944 19.6794C20.9188 20.9288 19.4568 22.7047 18.5935 24.7825C17.7302 26.8603 17.5043 29.1467 17.9444 31.3526C18.3845 33.5584 19.4709 35.5845 21.066 37.1748C22.6612 38.765 24.6934 39.8479 26.9058 40.2866C29.1182 40.7253 31.4113 40.5002 33.4954 39.6396C35.5794 38.779 37.3608 37.3216 38.6141 35.4517C39.8674 33.5817 40.5364 31.3832 40.5364 29.1341Z" fill="#BDBDBD" stroke="#E9E9E9" stroke-width="0.3"/>
</svg>
