<svg width="59" height="59" viewBox="0 0 59 59" fill="none" xmlns="http://www.w3.org/2000/svg">
  <path d="M57.8231 29.3781C57.8231 45.0505 45.1123 57.7563 29.4318 57.7563C13.7513 57.7563 1.04053 45.0505 1.04053 29.3781C1.04053 13.7058 13.7513 1 29.4318 1C45.1123 1 57.8231 13.7058 57.8231 29.3781Z" fill="#31C5A1" stroke="#31C5A1" stroke-width="2"/>
  <path d="M31.3822 31.3281C31.5303 31.3044 31.5303 31.3042 31.5302 31.3041L31.5302 31.3038L31.5301 31.3031L31.5298 31.3014L31.529 31.2969L31.5261 31.283C31.5236 31.2717 31.5198 31.2564 31.5144 31.2377C31.5035 31.2004 31.4858 31.1492 31.4576 31.0888C31.4011 30.9679 31.303 30.8108 31.1351 30.6555C30.797 30.3425 30.1945 30.053 29.1311 30.053C27.3864 30.053 26.3022 29.5024 25.6539 28.833C25.003 28.1609 24.7796 27.357 24.7788 26.8307C24.803 26.214 25.0197 25.6203 25.3987 25.1329C26.0542 24.3404 26.9965 23.8386 28.0203 23.737L28.1555 23.7236V23.5877V22.3277C28.1555 22.0691 28.2583 21.8211 28.4412 21.6382C28.6242 21.4554 28.8723 21.3526 29.1311 21.3526C29.3898 21.3526 29.638 21.4554 29.8209 21.6382C30.0038 21.8211 30.1066 22.0691 30.1066 22.3277V23.5877V23.7236L30.2418 23.737C31.2657 23.8386 32.2079 24.3404 32.8634 25.1329C33.2424 25.6202 33.4591 26.214 33.4833 26.8307C33.4825 27.0882 33.3799 27.3351 33.1976 27.5173C33.0146 27.7002 32.7665 27.8029 32.5077 27.8029C32.249 27.8029 32.0008 27.7002 31.8179 27.5173C31.6349 27.3345 31.5322 27.0864 31.5322 26.8279C31.5322 26.6867 31.4651 26.3615 31.1209 26.0742C30.7778 25.7879 30.1757 25.5528 29.1311 25.5528C28.0757 25.5528 27.4731 25.7876 27.1322 26.0747C26.7895 26.3633 26.7299 26.6894 26.7299 26.8279C26.7299 26.9664 26.7895 27.2924 27.1322 27.5811C27.4731 27.8681 28.0757 28.1029 29.1311 28.1029C30.8757 28.1029 31.9599 28.6536 32.6082 29.323C33.2603 29.9963 33.4833 30.8018 33.4833 31.3281C33.4833 31.8598 33.3073 32.5424 32.8166 33.1414C32.3279 33.738 31.5185 34.2619 30.2332 34.4651L30.1066 34.4851V34.6132V35.8283C30.1066 36.0869 30.0038 36.3349 29.8209 36.5177C29.638 36.7006 29.3898 36.8033 29.1311 36.8033C28.8723 36.8033 28.6242 36.7006 28.4412 36.5177C28.2583 36.3349 28.1555 36.0869 28.1555 35.8283V34.6132V34.4778L28.0207 34.464C27.5106 34.4119 27.0159 34.2587 26.5657 34.0132C26.1159 33.768 25.7195 33.4356 25.3996 33.0355C25.0206 32.5434 24.8037 31.9458 24.7788 31.3252C24.7796 31.0677 24.8823 30.8208 25.0645 30.6386C25.2475 30.4558 25.4956 30.353 25.7544 30.353C26.0131 30.353 26.2613 30.4558 26.4442 30.6386C26.6272 30.8215 26.7299 31.0695 26.7299 31.3281C26.7299 31.4463 26.791 31.7707 27.131 32.0634C27.4713 32.3562 28.0739 32.6031 29.1311 32.6031C30.2797 32.6031 30.8874 32.316 31.2068 31.9967C31.3658 31.8377 31.4476 31.6763 31.4893 31.5513C31.51 31.4891 31.5207 31.4363 31.5263 31.3976C31.529 31.3783 31.5305 31.3625 31.5313 31.3507L31.532 31.3361L31.5321 31.3313L31.5322 31.3295L31.5322 31.3287L31.5322 31.3284C31.5322 31.3282 31.5322 31.3281 31.3822 31.3281ZM31.3822 31.3281L31.5303 31.3044L31.5322 31.3161V31.3281H31.3822ZM34.3311 23.3627C34.4664 23.4204 34.6118 23.4509 34.7588 23.4527L34.3311 23.3627ZM34.3311 23.3627C34.0561 23.2485 33.8375 23.0301 33.7233 22.7552L34.3311 23.3627ZM34.3899 23.2247L34.3886 23.2242C34.1502 23.1252 33.9608 22.9359 33.8619 22.6976L33.8613 22.6963C33.8114 22.5794 33.7849 22.4539 33.7833 22.3268V17.8275C33.7833 17.5689 33.886 17.3209 34.069 17.138C34.2519 16.9552 34.5001 16.8524 34.7588 16.8524C35.0176 16.8524 35.2657 16.9552 35.4487 17.138C35.6316 17.3209 35.7344 17.5689 35.7344 17.8275V19.6163V19.9791L35.9906 19.7222L39.6935 16.0097C39.8773 15.826 40.1266 15.7228 40.3866 15.7228C40.6466 15.7228 40.8959 15.826 41.0797 16.0097C41.2635 16.1934 41.3668 16.4426 41.3668 16.7024C41.3668 16.9622 41.2635 17.2114 41.0797 17.3951L37.3655 21.0964L37.1084 21.3526H37.4714H39.2611C39.5198 21.3526 39.768 21.4554 39.9509 21.6382C40.1339 21.8211 40.2366 22.0691 40.2366 22.3277C40.2366 22.5862 40.1339 22.8342 39.9509 23.0171C39.768 23.2 39.5198 23.3027 39.2611 23.3027H34.7598C34.6326 23.3011 34.5069 23.2746 34.3899 23.2247ZM40.5366 29.078H40.5367L40.5366 29.0742C40.5189 28.3785 40.4428 27.6855 40.3089 27.0026C40.2626 26.7438 40.3209 26.4771 40.4711 26.2612C40.6214 26.0449 40.8516 25.8971 41.111 25.8504C41.3704 25.8038 41.6377 25.862 41.8541 26.0123C42.067 26.1602 42.2135 26.3852 42.2626 26.6392V26.6816V26.6954L42.2651 26.7089C42.7639 29.4077 42.4185 32.1945 41.2759 34.6901C40.1333 37.1856 38.249 39.2685 35.8795 40.6552C33.5101 42.0419 30.7707 42.6651 28.0342 42.4398C25.2978 42.2145 22.6973 41.1517 20.5868 39.3961C18.4763 37.6406 16.9584 35.2775 16.2397 32.6288C15.521 29.98 15.6365 27.1742 16.5703 24.5934C17.5042 22.0125 19.2111 19.7821 21.4587 18.2057C23.7063 16.6293 26.3853 15.7835 29.1311 15.7836H29.1335H29.1359H29.1384H29.1408H29.1433H29.1457H29.1481H29.1506H29.153H29.1554H29.1579H29.1603H29.1628H29.1652H29.1676H29.1701H29.1725H29.1749H29.1774H29.1798H29.1822H29.1847H29.1871H29.1895H29.192H29.1944H29.1968H29.1993H29.2017H29.2041H29.2066H29.209H29.2114H29.2139H29.2163H29.2187H29.2212H29.2236H29.226H29.2285H29.2309H29.2333H29.2358H29.2382H29.2406H29.243H29.2455H29.2479H29.2503H29.2528H29.2552H29.2576H29.26H29.2625H29.2649H29.2673H29.2697H29.2722H29.2746H29.277H29.2794H29.2819H29.2843H29.2867H29.2891H29.2916H29.294H29.2964H29.2988H29.3013H29.3037H29.3061H29.3085H29.311H29.3134H29.3158H29.3182H29.3206H29.3231H29.3255H29.3279H29.3303H29.3328H29.3352H29.3376H29.34H29.3424H29.3449H29.3473H29.3497H29.3521H29.3545H29.3569H29.3594H29.3618H29.3642H29.3666H29.369H29.3715H29.3739H29.3763H29.3787H29.3811H29.3835H29.386H29.3884H29.3908H29.3932H29.3956H29.398H29.4004H29.4029H29.4053H29.4077H29.4101H29.4125H29.4149H29.4173H29.4198H29.4222H29.4246H29.427H29.4294H29.4318H29.4342H29.4366H29.4391H29.4415H29.4439H29.4463H29.4487H29.4511H29.4535H29.4559H29.4583H29.4607H29.4632H29.4656H29.468H29.4704H29.4728H29.4752H29.4776H29.48H29.4824H29.4848H29.4872H29.4897H29.4921H29.4945H29.4969H29.4993H29.5017H29.5041H29.5065H29.5089H29.5113H29.5137H29.5161H29.5185H29.5209H29.5233H29.5257H29.5281H29.5306H29.533H29.5354H29.5378H29.5402H29.5426H29.545H29.5474H29.5498H29.5522H29.5546H29.557H29.5594H29.5618H29.5642H29.5666H29.569H29.5714H29.5738H29.5762H29.5786H29.581H29.5834H29.5858H29.5882H29.5906H29.593H29.5954H29.5978H29.6002H29.6026H29.605H29.6074H29.6098H29.6122H29.6146H29.617H29.6194H29.6218H29.6242H29.6266H29.629H29.6314H29.6338H29.6362H29.6386H29.641H29.6434H29.6458H29.6482H29.6506H29.653H29.6554H29.6578H29.6602H29.6626H29.6649H29.6673H29.6697H29.6721H29.6745H29.6769H29.6793H29.6817H29.6841H29.6865H29.6889H29.6913H29.6937H29.6961H29.6985H29.7009H29.7033H29.7057H29.708H29.7104H29.7128H29.7152H29.7176H29.72H29.7224H29.7248H29.7272H29.7296H29.732H29.7344H29.7367H29.7391H29.7415H29.7439H29.7463H29.7487H29.7511H29.7535H29.7559H29.7583H29.7607H29.763H29.7654H29.7678H29.7702H29.7726H29.775H29.7774H29.7798H29.7822H29.7846H29.7869H29.7893H29.7917H29.7941H29.7965H29.7989H29.8013H29.8037H29.806H29.8084H29.8108H29.8132H29.8156H29.818H29.8204H29.8228H29.8251H29.8275H29.8299H29.8323H29.8347H29.8371H29.8395H29.8418H29.8442H29.8466H29.849H29.8514H29.8538H29.8562H29.8585H29.8609H29.8633H29.8657H29.8681H29.8705H29.8729H29.8752H29.8776H29.88H29.8824H29.8848H29.8872H29.8896H29.8919H29.8943H29.8967H29.8991H29.9015H29.9039H29.9062H29.9086H29.911H29.9134H29.9158H29.9182H29.9205H29.9229H29.9253H29.9277H29.9301H29.9324H29.9348H29.9372H29.9396H29.942H29.9444H29.9467H29.9491H29.9515H29.9539H29.9563H29.9586H29.961H29.9634H29.9658H29.9682H29.9706H29.9729H29.9753H29.9777H29.9801H29.9825H29.9848H29.9872H29.9896H29.992H29.9944H29.9967H29.9991H30.0015H30.0039H30.0063H30.0086H30.011H30.0134H30.0158H30.0182H30.0205H30.0229H30.0253H30.0277H30.03H30.0324H30.0348H30.0372H30.0396H30.0419H30.0443H30.0467H30.0491H30.0515H30.0538H30.0562H30.0586H30.061H30.0633H30.0657H30.0681H30.0705H30.0729H30.0752H30.0776H30.08H30.0824H30.0847H30.0871H30.0895H30.0919H30.0943H30.0966H30.099H30.1014H30.1038H30.1061H30.1085H30.1109H30.1133H30.1157H30.118H30.1204H30.1228H30.1252H30.1275H30.1299H30.1323H30.1347H30.137H30.1394H30.1418H30.1442H30.1465H30.1489H30.1513H30.1537H30.1561H30.1584H30.1608H30.1632H30.1656H30.1679H30.1703H30.1727H30.1751H30.1774H30.1798H30.1822H30.1846H30.1869H30.1893H30.1917H30.1941H30.1964H30.1988H30.2012H30.2036H30.2059H30.2083H30.2107H30.2131H30.2154H30.2178H30.2202H30.2226H30.2249H30.2273H30.2297H30.2321H30.2344H30.2368H30.2392H30.2416H30.2439H30.2463H30.2487H30.2511H30.2534H30.2558H30.2582H30.2606H30.2629H30.2653H30.2677H30.2701H30.2724H30.2748H30.2772H30.2796H30.2819H30.2843H30.2867H30.2891H30.2914H30.2938H30.2962H30.2986H30.3009H30.3033H30.3057H30.3081H30.3104H30.3128H30.3152H30.3175H30.3199H30.3223H30.3247H30.327H30.3294H30.3318H30.3342H30.3365H30.3389H30.3413H30.3437H30.346H30.3484H30.3508H30.3513C30.4774 15.7953 30.6001 15.8313 30.7125 15.8899C30.8267 15.9494 30.9279 16.0309 31.0105 16.1297C31.093 16.2285 31.1551 16.3426 31.1933 16.4655C31.2311 16.5875 31.2447 16.7156 31.2331 16.8427C31.1984 17.0917 31.0687 17.3177 30.8712 17.4734C30.6729 17.6298 30.4216 17.7032 30.1702 17.6782L30.1702 17.678L30.1628 17.6776C29.8179 17.6603 29.4723 17.6603 29.1273 17.6775C26.8728 17.6782 24.6691 18.3468 22.7945 19.5988C20.9189 20.8515 19.457 22.632 18.5937 24.7152C17.7304 26.7983 17.5046 29.0906 17.9447 31.3021C18.3847 33.5136 19.471 35.545 21.0661 37.1394C22.6612 38.7338 24.6935 39.8195 26.906 40.2594C29.1184 40.6993 31.4117 40.4736 33.4958 39.6107C35.5798 38.7478 37.3611 37.2866 38.6144 35.4118C39.8677 33.537 40.5366 31.3328 40.5366 29.078Z" fill="white" stroke="#31C5A1" stroke-width="0.3"/>
</svg>
