<svg width="60" height="59" viewBox="0 0 60 59" fill="none" xmlns="http://www.w3.org/2000/svg">
  <ellipse cx="30.2678" cy="29.3781" rx="29.3913" ry="29.3781" fill="#E9E9E9"/>
  <g clip-path="url(#clip0)">
  <path d="M17.6588 38.6495V38.5495H17.5588H12.8915C12.5406 38.5495 12.2273 38.3298 12.1078 38.0001C11.9884 37.6702 12.0884 37.3011 12.3579 37.0766L12.3587 37.0759C14.7909 35.0081 17.6588 29.6879 17.6588 22.7879V17.1897C17.6588 16.7297 18.0319 16.3567 18.4923 16.3567H23.2217H23.3217V16.2567V15.3237C23.3217 14.8636 23.6949 14.4906 24.1552 14.4906C24.6155 14.4906 24.9886 14.8636 24.9886 15.3237V16.2567V16.3567H25.0886H29.7559H29.8559V16.2567V15.3237C29.8559 14.8636 30.229 14.4906 30.6894 14.4906C31.1497 14.4906 31.5228 14.8636 31.5228 15.3237V16.2567V16.3567H31.6228H36.3523H36.4523V16.2567V15.3237C36.4523 14.8636 36.8254 14.4906 37.2858 14.4906C37.7461 14.4906 38.1192 14.8636 38.1192 15.3237V16.2567V16.3567H38.2192H42.8865C43.3468 16.3567 43.7199 16.7297 43.7199 17.1897V41.4486C43.7199 41.9086 43.3468 42.2816 42.8865 42.2816H18.4923C18.0319 42.2816 17.6588 41.9086 17.6588 41.4486V38.6495ZM41.953 40.6156H42.053V40.5156V32.426L41.861 32.387C40.6564 35.2243 38.9268 37.4344 37.8194 38.3564L37.8193 38.3564C37.6696 38.4812 37.4807 38.5495 37.2858 38.5495H19.4257H19.3257V38.6495V40.5156V40.6156H19.4257H41.953ZM19.4257 18.0228H19.3257V18.1228V21.8549V21.9549H19.4257H41.953H42.053V21.8549V18.1228V18.0228H41.953H38.2192H38.1192V18.1228V19.0558C38.1192 19.5158 37.7461 19.8888 37.2858 19.8888C36.8254 19.8888 36.4523 19.5158 36.4523 19.0558V18.1228V18.0228H36.3523H31.6228H31.5228V18.1228V19.0558C31.5228 19.5158 31.1497 19.8888 30.6894 19.8888C30.229 19.8888 29.8559 19.5158 29.8559 19.0558V18.1228V18.0228H29.7559H25.0886H24.9886V18.1228V19.0558C24.9886 19.5158 24.6155 19.8888 24.1552 19.8888C23.6949 19.8888 23.3217 19.5158 23.3217 19.0558V18.1228V18.0228H23.2217H19.4257ZM19.4097 23.6203H19.313L19.3098 23.717C19.1563 28.3472 17.7909 33.0859 14.9361 36.7217L14.8091 36.8834H15.0148H36.9197H36.9606L36.9898 36.8548C39.5442 34.3472 41.8253 29.6647 42.0364 23.7239L42.0401 23.6203H41.9365H19.4097Z" fill="#BDBDBD" stroke="#E0F7F1" stroke-width="0.2"/>
  </g>
  <defs>
  <clipPath id="clip0">
  <rect width="31.8619" height="31.8476" fill="white" transform="translate(11.958 12.4624)"/>
  </clipPath>
  </defs>
  </svg>
