<svg width="100%" height="100%" viewBox="0 0 71 85" fill="none" xmlns="http://www.w3.org/2000/svg">
<path d="M5.03108 82.3936V71.7436H7.17608V80.5186H11.8861V82.3936H5.03108ZM17.0129 82.5286C15.8529 82.5286 14.9129 82.1736 14.1929 81.4636C13.4729 80.7536 13.1129 79.8436 13.1129 78.7336C13.1129 77.6336 13.4729 76.7286 14.1929 76.0186C14.9129 75.3086 15.8529 74.9536 17.0129 74.9536C18.1529 74.9536 19.0829 75.3036 19.8029 76.0036C20.5329 76.7036 20.8979 77.6136 20.8979 78.7336C20.8979 79.8536 20.5329 80.7686 19.8029 81.4786C19.0829 82.1786 18.1529 82.5286 17.0129 82.5286ZM17.0129 80.7586C17.5429 80.7586 17.9879 80.5686 18.3479 80.1886C18.7179 79.8086 18.9029 79.3236 18.9029 78.7336C18.9029 78.1336 18.7229 77.6486 18.3629 77.2786C18.0029 76.8986 17.5529 76.7086 17.0129 76.7086C16.4529 76.7086 15.9929 76.9036 15.6329 77.2936C15.2829 77.6736 15.1079 78.1536 15.1079 78.7336C15.1079 79.3136 15.2829 79.7986 15.6329 80.1886C15.9929 80.5686 16.4529 80.7586 17.0129 80.7586ZM26.0138 82.5286C24.9138 82.5286 24.0088 82.1786 23.2988 81.4786C22.5888 80.7786 22.2338 79.8686 22.2338 78.7486C22.2338 77.6186 22.5888 76.7036 23.2988 76.0036C24.0088 75.3036 24.9338 74.9536 26.0738 74.9536C26.6738 74.9536 27.2488 75.0686 27.7988 75.2986C28.3488 75.5186 28.8088 75.8436 29.1788 76.2736L27.8888 77.4886C27.4688 76.9686 26.9088 76.7086 26.2088 76.7086C25.6188 76.7086 25.1388 76.8986 24.7688 77.2786C24.4088 77.6486 24.2288 78.1336 24.2288 78.7336C24.2288 79.3436 24.4088 79.8336 24.7688 80.2036C25.1388 80.5736 25.6188 80.7586 26.2088 80.7586C26.9288 80.7586 27.5038 80.4936 27.9338 79.9636L29.2088 81.1936C28.4888 82.0836 27.4238 82.5286 26.0138 82.5286ZM33.8386 82.5286C32.8186 82.5286 31.9786 82.1786 31.3186 81.4786C30.6686 80.7786 30.3436 79.8686 30.3436 78.7486C30.3436 77.6486 30.6686 76.7436 31.3186 76.0336C31.9786 75.3136 32.8036 74.9536 33.7936 74.9536C34.7036 74.9536 35.4236 75.2736 35.9536 75.9136L35.9836 75.8986V75.0586H37.9486V82.3936H36.0736V81.5236L36.0436 81.5086C35.5136 82.1886 34.7786 82.5286 33.8386 82.5286ZM34.2136 80.7586C34.7336 80.7586 35.1736 80.5736 35.5336 80.2036C35.8936 79.8336 36.0736 79.3536 36.0736 78.7636C36.0736 78.1736 35.8936 77.6836 35.5336 77.2936C35.1836 76.9036 34.7436 76.7086 34.2136 76.7086C33.6736 76.7086 33.2236 76.8986 32.8636 77.2786C32.5136 77.6486 32.3386 78.1436 32.3386 78.7636C32.3386 79.3536 32.5136 79.8336 32.8636 80.2036C33.2136 80.5736 33.6636 80.7586 34.2136 80.7586ZM42.2813 82.5286C41.6313 82.5286 41.1213 82.3236 40.7513 81.9136C40.3813 81.4936 40.1963 80.8836 40.1963 80.0836V76.6936H39.3263V75.0586H40.1963V72.6736L42.1613 72.4636V75.0586H44.1413V76.6936H42.1613V79.7986C42.1613 80.1286 42.2063 80.3686 42.2963 80.5186C42.3963 80.6686 42.5613 80.7436 42.7913 80.7436C43.0713 80.7436 43.3813 80.6586 43.7213 80.4886L44.2163 82.0636C43.6463 82.3736 43.0013 82.5286 42.2813 82.5286ZM46.8045 74.0686C46.4445 74.0686 46.1445 73.9536 45.9045 73.7236C45.6745 73.4836 45.5595 73.1936 45.5595 72.8536C45.5595 72.5236 45.6745 72.2436 45.9045 72.0136C46.1445 71.7736 46.4445 71.6536 46.8045 71.6536C47.1545 71.6536 47.4495 71.7736 47.6895 72.0136C47.9295 72.2436 48.0495 72.5236 48.0495 72.8536C48.0495 73.1936 47.9295 73.4836 47.6895 73.7236C47.4495 73.9536 47.1545 74.0686 46.8045 74.0686ZM45.7995 82.3936V75.0586H47.7645V82.3936H45.7995ZM53.506 82.5286C52.346 82.5286 51.406 82.1736 50.686 81.4636C49.966 80.7536 49.606 79.8436 49.606 78.7336C49.606 77.6336 49.966 76.7286 50.686 76.0186C51.406 75.3086 52.346 74.9536 53.506 74.9536C54.646 74.9536 55.576 75.3036 56.296 76.0036C57.026 76.7036 57.391 77.6136 57.391 78.7336C57.391 79.8536 57.026 80.7686 56.296 81.4786C55.576 82.1786 54.646 82.5286 53.506 82.5286ZM53.506 80.7586C54.036 80.7586 54.481 80.5686 54.841 80.1886C55.211 79.8086 55.396 79.3236 55.396 78.7336C55.396 78.1336 55.216 77.6486 54.856 77.2786C54.496 76.8986 54.046 76.7086 53.506 76.7086C52.946 76.7086 52.486 76.9036 52.126 77.2936C51.776 77.6736 51.601 78.1536 51.601 78.7336C51.601 79.3136 51.776 79.7986 52.126 80.1886C52.486 80.5686 52.946 80.7586 53.506 80.7586ZM59.1319 82.3936V75.0586H61.0969V76.0036H61.1269C61.7169 75.3036 62.4969 74.9536 63.4669 74.9536C65.2369 74.9536 66.1219 75.9836 66.1219 78.0436V82.3936H64.1569V78.5386C64.1569 77.8686 64.0419 77.3986 63.8119 77.1286C63.5819 76.8486 63.2269 76.7086 62.7469 76.7086C62.2369 76.7086 61.8319 76.8836 61.5319 77.2336C61.2419 77.5736 61.0969 78.0686 61.0969 78.7186V82.3936H59.1319Z" fill="#BDBDBD"/>
<path d="M62.4608 29.3781C62.4608 45.1887 49.638 58.0063 33.8195 58.0063C18.0011 58.0063 5.17822 45.1887 5.17822 29.3781C5.17822 13.5676 18.0011 0.75 33.8195 0.75C49.638 0.75 62.4608 13.5676 62.4608 29.3781Z" fill="#E9E9E9" stroke="#E9E9E9" stroke-width="1.5"/>
<path d="M33.2719 17.1253L33.2718 17.1253C32.9094 17.1227 32.6138 17.4142 32.6112 17.7759C32.6085 18.1375 32.8996 18.433 33.262 18.4356C33.6237 18.4382 33.9194 18.1474 33.922 17.7857C33.9246 17.424 33.6336 17.1286 33.2719 17.1253Z" fill="#BDBDBD" stroke="#BDBDBD" stroke-width="0.1"/>
<path d="M33.2438 20.7558L33.2438 20.7558C30.8786 20.739 28.9416 22.6462 28.9238 25.0096L28.9738 25.01L28.9238 25.0096C28.9059 27.3729 30.815 29.3099 33.1795 29.3277L33.1796 29.3277L33.2123 29.3279C35.5617 29.3279 37.4817 27.4264 37.4995 25.0739C37.5173 22.7107 35.6083 20.7736 33.2438 20.7558ZM33.1893 28.0175L33.1893 28.0175C31.5477 28.0051 30.2221 26.6601 30.2345 25.0194C30.2469 23.3861 31.5799 22.0659 33.2111 22.0659L33.2339 22.066L33.234 22.066C34.8756 22.0784 36.2011 23.4234 36.1887 25.0641C36.1764 26.6974 34.8434 28.0176 33.2122 28.0176L33.1893 28.0175Z" fill="#BDBDBD" stroke="#BDBDBD" stroke-width="0.1"/>
<path d="M35.0327 17.9856L35.0327 17.9856C34.9118 18.3267 35.0904 18.7011 35.4316 18.822L35.4316 18.822C38.0781 19.7596 39.842 22.2792 39.8209 25.0916C39.8182 25.4534 40.1094 25.7489 40.4714 25.7517H40.4717H40.4718H40.4718H40.4718H40.4718H40.4718H40.4718H40.4718H40.4718H40.4718H40.4718H40.4718H40.4719H40.4719H40.4719H40.4719H40.4719H40.4719H40.4719H40.4719H40.4719H40.4719H40.4719H40.472H40.472H40.472H40.472H40.472H40.472H40.472H40.472H40.472H40.472H40.472H40.4721H40.4721H40.4721H40.4721H40.4721H40.4721H40.4721H40.4721H40.4721H40.4721H40.4721H40.4721H40.4722H40.4722H40.4722H40.4722H40.4722H40.4722H40.4722H40.4722H40.4722H40.4722H40.4722H40.4723H40.4723H40.4723H40.4723H40.4723H40.4723H40.4723H40.4723H40.4723H40.4723H40.4723H40.4724H40.4724H40.4724H40.4724H40.4724H40.4724H40.4724H40.4724H40.4724H40.4724H40.4724H40.4725H40.4725H40.4725H40.4725H40.4725H40.4725H40.4725H40.4725H40.4725H40.4725H40.4725H40.4726H40.4726H40.4726H40.4726H40.4726H40.4726H40.4726H40.4726H40.4726H40.4726H40.4726H40.4727H40.4727H40.4727H40.4727H40.4727H40.4727H40.4727H40.4727H40.4727H40.4727H40.4727H40.4728H40.4728H40.4728H40.4728H40.4728H40.4728H40.4728H40.4728H40.4728H40.4728H40.4728H40.4728H40.4729H40.4729H40.4729H40.4729H40.4729H40.4729H40.4729H40.4729H40.4729H40.4729H40.4729H40.473H40.473H40.473H40.473H40.473H40.473H40.473H40.473H40.473H40.473H40.473H40.4731H40.4731H40.4731H40.4731H40.4731H40.4731H40.4731H40.4731H40.4731H40.4731H40.4731H40.4732H40.4732H40.4732H40.4732H40.4732H40.4732H40.4732H40.4732H40.4732H40.4732H40.4732H40.4733H40.4733H40.4733H40.4733H40.4733H40.4733H40.4733H40.4733H40.4733H40.4733H40.4733H40.4734H40.4734H40.4734H40.4734H40.4734H40.4734H40.4734H40.4734H40.4734H40.4734H40.4734H40.4735H40.4735H40.4735H40.4735H40.4735H40.4735H40.4735H40.4735H40.4735H40.4735H40.4735H40.4736H40.4736H40.4736H40.4736H40.4736H40.4736H40.4736H40.4736H40.4736H40.4736H40.4736H40.4737H40.4737H40.4737H40.4737H40.4737H40.4737H40.4737H40.4737H40.4737H40.4737H40.4737H40.4738H40.4738H40.4738H40.4738H40.4738H40.4738H40.4738H40.4738H40.4738H40.4738H40.4738H40.4739H40.4739H40.4739H40.4739H40.4739H40.4739H40.4739H40.4739H40.4739H40.4739H40.4739H40.474H40.474H40.474H40.474H40.474H40.474H40.474H40.474H40.474H40.474H40.474H40.4741H40.4741H40.4741H40.4741H40.4741H40.4741H40.4741H40.4741H40.4741H40.4741H40.4741H40.4742H40.4742H40.4742H40.4742H40.4742H40.4742H40.4742H40.4742H40.4742H40.4742H40.4742H40.4743H40.4743H40.4743H40.4743H40.4743H40.4743H40.4743H40.4743H40.4743H40.4743H40.4743H40.4744H40.4744H40.4744H40.4744H40.4744H40.4744H40.4744H40.4744H40.4744H40.4744H40.4745H40.4745H40.4745H40.4745H40.4745H40.4745H40.4745H40.4745H40.4745H40.4745H40.4745H40.4746H40.4746H40.4746H40.4746H40.4746H40.4746H40.4746H40.4746H40.4746H40.4746H40.4746H40.4747H40.4747H40.4747H40.4747H40.4747H40.4747H40.4747H40.4747H40.4747H40.4747H40.4747H40.4748H40.4748H40.4748H40.4748H40.4748H40.4748H40.4748H40.4748H40.4748H40.4748H40.4748H40.4749H40.4749H40.4749H40.4749H40.4749H40.4749H40.4749H40.4749H40.4749H40.4749H40.4749H40.475H40.475H40.475H40.475H40.475H40.475H40.475H40.475H40.475H40.475H40.475H40.4751H40.4751H40.4751H40.4751H40.4751H40.4751H40.4751H40.4751H40.4751H40.4751H40.4751H40.4752H40.4752H40.4752H40.4752H40.4752H40.4752H40.4752H40.4752H40.4752H40.4752H40.4752H40.4753H40.4753H40.4753H40.4753H40.4753H40.4753H40.4753H40.4753H40.4753H40.4753H40.4754H40.4754H40.4754H40.4754H40.4754H40.4754H40.4754H40.4754H40.4754H40.4754H40.4754H40.4755H40.4755H40.4755H40.4755H40.4755H40.4755H40.4755H40.4755H40.4755H40.4755H40.4755H40.4756H40.4756H40.4756H40.4756H40.4756H40.4756H40.4756H40.4756H40.4756H40.4756H40.4756H40.4757H40.4757H40.4757H40.4757H40.4757H40.4757H40.4757H40.4757H40.4757H40.4757H40.4757H40.4758H40.4758H40.4758H40.4758H40.4758H40.4758H40.4758H40.4758H40.4758H40.4758H40.4758H40.4759H40.4759H40.4759H40.4759H40.4759H40.4759H40.4759H40.4759H40.4759H40.4759H40.4759H40.476H40.476H40.476H40.476H40.476H40.476H40.476H40.476H40.476H40.476H40.4761H40.4761H40.4761H40.4761H40.4761H40.4761H40.4761H40.4761H40.4761H40.4761H40.4761H40.4762H40.4762H40.4762H40.4762H40.4762H40.4762H40.4762H40.4762H40.4762H40.4762H40.4762H40.4763H40.4763H40.4763H40.4763H40.4763H40.4763H40.4763H40.4763H40.4763H40.4763H40.4763H40.4764H40.4764H40.4764H40.4764H40.4764H40.4764H40.4764C40.836 25.7517 41.129 25.4616 41.1317 25.1015C41.1571 21.7309 39.0424 18.711 35.8695 17.587C35.5286 17.466 35.1537 17.6445 35.0327 17.9856Z" fill="#BDBDBD" stroke="#BDBDBD" stroke-width="0.1"/>
<path d="M22.8698 24.9641L22.8698 24.9641C22.8387 29.1448 24.8959 31.757 28.2248 35.9841C28.6042 36.4658 29 36.9684 29.4112 37.4968C27.429 37.8006 25.8062 38.326 24.6731 39.0062C23.5249 39.6953 22.8698 40.55 22.8698 41.5015C22.8698 42.1385 23.1647 42.7391 23.7188 43.2768C24.2725 43.8141 25.0868 44.2906 26.1321 44.6824C28.0349 45.3956 30.5493 45.7875 33.2118 45.7875C35.8744 45.7875 38.3887 45.3956 40.2915 44.6824C41.3369 44.2906 42.1511 43.8141 42.7048 43.2768C43.2589 42.7391 43.5538 42.1385 43.5538 41.5015C43.5538 40.5505 42.8993 39.6961 41.7522 39.0071C40.62 38.3271 38.9987 37.8017 37.0183 37.4976C37.4043 37.0015 37.7764 36.5279 38.1338 36.0731C41.4722 31.8248 43.5232 29.2148 43.5538 25.1192C43.5967 19.3883 38.9438 14.7039 33.2108 14.7039C27.5448 14.7039 22.9129 19.2905 22.8698 24.9641ZM35.2916 37.5886C34.5469 38.5585 33.8617 39.4766 33.2128 40.3746C32.5662 39.4768 31.8942 38.5744 31.1383 37.5883L31.1383 37.5883C30.4566 36.6996 29.8196 35.8901 29.2297 35.1404C27.8976 33.4476 26.8054 32.0597 25.9807 30.7536C24.7929 28.8722 24.1642 27.1663 24.1806 24.974C24.2181 20.0194 28.2627 16.0142 33.211 16.0142C38.2178 16.0142 42.2804 20.1059 42.2431 25.1094C42.227 27.2496 41.5562 28.9799 40.3557 30.8699C39.5108 32.2001 38.4056 33.6066 37.083 35.2896C36.5237 36.0014 35.9255 36.7627 35.2916 37.5886ZM32.6765 41.8795L32.7173 41.8507L32.6765 41.8796C32.7992 42.0532 32.9985 42.1565 33.2112 42.1567H33.2113H33.2113H33.2113H33.2113H33.2113H33.2113H33.2114H33.2114H33.2114H33.2114H33.2114H33.2114H33.2114H33.2115H33.2115H33.2115H33.2115H33.2115H33.2115H33.2115H33.2116H33.2116H33.2116H33.2116H33.2116H33.2116H33.2116H33.2117H33.2117H33.2117H33.2117H33.2117H33.2117H33.2117H33.2118H33.2118H33.2118H33.2118C33.4243 42.1567 33.6236 42.0537 33.7465 41.8804C34.4761 40.8516 35.2475 39.8058 36.0959 38.6945C38.0286 38.9269 39.5679 39.3743 40.6237 39.8934C41.1543 40.1542 41.5609 40.4322 41.8341 40.7085C42.1079 40.9853 42.2431 41.2555 42.2431 41.5016C42.243 41.8355 42.0152 42.1903 41.5741 42.5376C41.1345 42.8837 40.4921 43.215 39.6847 43.5029C38.0704 44.0786 35.806 44.4773 33.2118 44.4773C30.6176 44.4773 28.3532 44.0786 26.7389 43.5029C25.9315 43.215 25.2891 42.8837 24.8495 42.5376C24.4084 42.1902 24.1806 41.8355 24.1806 41.5015C24.1806 41.2553 24.3158 40.985 24.5899 40.708C24.8633 40.4316 25.2703 40.1535 25.8014 39.8926C26.8582 39.3734 28.3988 38.926 30.3334 38.6938C31.1888 39.8161 31.9398 40.8371 32.6765 41.8795Z" fill="#BDBDBD" stroke="#BDBDBD" stroke-width="0.1"/>
</svg>

