<svg width="60" height="59" viewBox="0 0 60 59" fill="none" xmlns="http://www.w3.org/2000/svg">
  <path d="M58.2108 29.4332C58.2108 45.0605 45.5025 57.7342 29.8195 57.7342C14.1365 57.7342 1.42822 45.0605 1.42822 29.4332C1.42822 13.8059 14.1365 1.13226 29.8195 1.13226C45.5025 1.13226 58.2108 13.8059 58.2108 29.4332Z" fill="#E0F7F1" stroke="#31C5A1" stroke-width="2"/>
  <path d="M29.2716 17.2124L29.2715 17.2124C28.9093 17.2098 28.6135 17.5005 28.6109 17.8614C28.6083 18.2223 28.8995 18.5169 29.2617 18.5195C29.6233 18.5221 29.9191 18.2321 29.9217 17.8712C29.9244 17.5103 29.6332 17.2157 29.2716 17.2124Z" fill="#31C5A1" stroke="#31C5A1" stroke-width="0.1"/>
  <path d="M29.2438 20.8333L29.2438 20.8333C26.8787 20.8166 24.9416 22.7187 24.9238 25.0761L24.9738 25.0765L24.9238 25.0761C24.9059 27.4335 26.8151 29.3653 29.1795 29.3831L29.1796 29.3831L29.2123 29.3832C31.5616 29.3832 33.4817 27.4868 33.4995 25.1403C33.5173 22.7831 31.6082 20.8511 29.2438 20.8333ZM29.1893 28.076L29.1893 28.076C27.5476 28.0637 26.2221 26.7221 26.2345 25.086C26.2469 23.4571 27.5798 22.1403 29.2111 22.1403L29.2339 22.1404L29.234 22.1404C30.8757 22.1528 32.2011 23.4943 32.1887 25.1305C32.1764 26.7593 30.8435 28.0761 29.2122 28.0761L29.1893 28.076Z" fill="#31C5A1" stroke="#31C5A1" stroke-width="0.1"/>
  <path d="M31.033 18.0705L31.033 18.0705C31.154 17.7302 31.5289 17.5523 31.8697 17.6728L31.033 18.0705ZM31.033 18.0705C30.912 18.4109 31.0908 18.7844 31.4318 18.905L31.4318 18.905M31.033 18.0705L31.4318 18.905M31.4318 18.905C34.0785 19.8401 35.8423 22.353 35.8211 25.1579C35.8184 25.519 36.1098 25.8137 36.4716 25.8164H36.472M31.4318 18.905L36.472 25.8164M36.472 25.8164H36.472M36.472 25.8164H36.472M36.472 25.8164H36.472M36.472 25.8164H36.472M36.472 25.8164H36.472M36.472 25.8164H36.472M36.472 25.8164H36.472M36.472 25.8164H36.472M36.472 25.8164H36.472M36.472 25.8164H36.472M36.472 25.8164H36.472M36.472 25.8164H36.472M36.472 25.8164H36.4721M36.472 25.8164H36.4721M36.4721 25.8164H36.4721M36.4721 25.8164H36.4721M36.4721 25.8164H36.4721M36.4721 25.8164H36.4721M36.4721 25.8164H36.4721M36.4721 25.8164H36.4721M36.4721 25.8164H36.4721M36.4721 25.8164H36.4721M36.4721 25.8164H36.4721M36.4721 25.8164H36.4721M36.4721 25.8164H36.4721M36.4721 25.8164H36.4721M36.4721 25.8164H36.4721M36.4721 25.8164H36.4721M36.4721 25.8164H36.4721M36.4721 25.8164H36.4721M36.4721 25.8164H36.4721M36.4721 25.8164H36.4721M36.4721 25.8164H36.4721M36.4721 25.8164H36.4721M36.4721 25.8164H36.4722M36.4721 25.8164H36.4722M36.4722 25.8164H36.4722M36.4722 25.8164H36.4722M36.4722 25.8164H36.4722M36.4722 25.8164H36.4722M36.4722 25.8164H36.4722M36.4722 25.8164H36.4722M36.4722 25.8164H36.4722M36.4722 25.8164H36.4722M36.4722 25.8164H36.4722M36.4722 25.8164H36.4722M36.4722 25.8164H36.4722M36.4722 25.8164H36.4722M36.4722 25.8164H36.4722M36.4722 25.8164H36.4722M36.4722 25.8164H36.4722M36.4722 25.8164H36.4722M36.4722 25.8164H36.4722M36.4722 25.8164H36.4722M36.4722 25.8164H36.4722M36.4722 25.8164H36.4722M36.4722 25.8164H36.4722M36.4722 25.8164H36.4722M36.4722 25.8164H36.4723M36.4722 25.8164H36.4723M36.4723 25.8164H36.4723M36.4723 25.8164H36.4723M36.4723 25.8164H36.4723M36.4723 25.8164H36.4723M36.4723 25.8164H36.4723M36.4723 25.8164H36.4723M36.4723 25.8164H36.4723M36.4723 25.8164H36.4723M36.4723 25.8164H36.4723M36.4723 25.8164H36.4723M36.4723 25.8164H36.4723M36.4723 25.8164H36.4723M36.4723 25.8164H36.4723M36.4723 25.8164H36.4723M36.4723 25.8164H36.4723M36.4723 25.8164H36.4723M36.4723 25.8164H36.4723M36.4723 25.8164H36.4723M36.4723 25.8164H36.4723M36.4723 25.8164H36.4723M36.4723 25.8164H36.4724M36.4723 25.8164H36.4724M36.4724 25.8164H36.4724M36.4724 25.8164H36.4724M36.4724 25.8164H36.4724M36.4724 25.8164H36.4724M36.4724 25.8164H36.4724M36.4724 25.8164H36.4724M36.4724 25.8164H36.4724M36.4724 25.8164H36.4724M36.4724 25.8164H36.4724M36.4724 25.8164H36.4724M36.4724 25.8164H36.4724M36.4724 25.8164H36.4724M36.4724 25.8164H36.4724M36.4724 25.8164H36.4724M36.4724 25.8164H36.4724M36.4724 25.8164H36.4724M36.4724 25.8164H36.4724M36.4724 25.8164H36.4724M36.4724 25.8164H36.4724M36.4724 25.8164H36.4724M36.4724 25.8164H36.4725M36.4724 25.8164H36.4725M36.4725 25.8164H36.4725M36.4725 25.8164H36.4725M36.4725 25.8164H36.4725M36.4725 25.8164H36.4725M36.4725 25.8164H36.4725M36.4725 25.8164H36.4725M36.4725 25.8164H36.4725M36.4725 25.8164H36.4725M36.4725 25.8164H36.4725M36.4725 25.8164H36.4725M36.4725 25.8164H36.4725M36.4725 25.8164H36.4725M36.4725 25.8164H36.4725M36.4725 25.8164H36.4725M36.4725 25.8164H36.4725M36.4725 25.8164H36.4725M36.4725 25.8164H36.4725M36.4725 25.8164H36.4725M36.4725 25.8164H36.4725M36.4725 25.8164H36.4725M36.4725 25.8164H36.4726M36.4725 25.8164H36.4726M36.4726 25.8164H36.4726M36.4726 25.8164H36.4726M36.4726 25.8164H36.4726M36.4726 25.8164H36.4726M36.4726 25.8164H36.4726M36.4726 25.8164H36.4726M36.4726 25.8164H36.4726M36.4726 25.8164H36.4726M36.4726 25.8164H36.4726M36.4726 25.8164H36.4726M36.4726 25.8164H36.4726M36.4726 25.8164H36.4726M36.4726 25.8164H36.4726M36.4726 25.8164H36.4726M36.4726 25.8164H36.4726M36.4726 25.8164H36.4726M36.4726 25.8164H36.4726M36.4726 25.8164H36.4726M36.4726 25.8164H36.4726M36.4726 25.8164H36.4726M36.4726 25.8164H36.4727M36.4726 25.8164H36.4727M36.4727 25.8164H36.4727M36.4727 25.8164H36.4727M36.4727 25.8164H36.4727M36.4727 25.8164H36.4727M36.4727 25.8164H36.4727M36.4727 25.8164H36.4727M36.4727 25.8164H36.4727M36.4727 25.8164H36.4727M36.4727 25.8164H36.4727M36.4727 25.8164H36.4727M36.4727 25.8164H36.4727M36.4727 25.8164H36.4727M36.4727 25.8164H36.4727M36.4727 25.8164H36.4727M36.4727 25.8164H36.4727M36.4727 25.8164H36.4727M36.4727 25.8164H36.4727M36.4727 25.8164H36.4727M36.4727 25.8164H36.4727M36.4727 25.8164H36.4727M36.4727 25.8164H36.4728M36.4727 25.8164H36.4728M36.4728 25.8164H36.4728M36.4728 25.8164H36.4728M36.4728 25.8164H36.4728M36.4728 25.8164H36.4728M36.4728 25.8164H36.4728M36.4728 25.8164H36.4728M36.4728 25.8164H36.4728M36.4728 25.8164H36.4728M36.4728 25.8164H36.4728M36.4728 25.8164H36.4728M36.4728 25.8164H36.4728M36.4728 25.8164H36.4728M36.4728 25.8164H36.4728M36.4728 25.8164H36.4728M36.4728 25.8164H36.4728M36.4728 25.8164H36.4728M36.4728 25.8164H36.4728M36.4728 25.8164H36.4728M36.4728 25.8164H36.4728M36.4728 25.8164H36.4728M36.4728 25.8164H36.4728M36.4728 25.8164H36.4728M36.4728 25.8164H36.4729M36.4728 25.8164H36.4729M36.4729 25.8164H36.4729M36.4729 25.8164H36.4729M36.4729 25.8164H36.4729M36.4729 25.8164H36.4729M36.4729 25.8164H36.4729M36.4729 25.8164H36.4729M36.4729 25.8164H36.4729M36.4729 25.8164H36.4729M36.4729 25.8164H36.4729M36.4729 25.8164H36.4729M36.4729 25.8164H36.4729M36.4729 25.8164H36.4729M36.4729 25.8164H36.4729M36.4729 25.8164H36.4729M36.4729 25.8164H36.4729M36.4729 25.8164H36.4729M36.4729 25.8164H36.4729M36.4729 25.8164H36.4729M36.4729 25.8164H36.4729M36.4729 25.8164H36.4729M36.4729 25.8164H36.473M36.4729 25.8164H36.473M36.473 25.8164H36.473M36.473 25.8164H36.473M36.473 25.8164H36.473M36.473 25.8164H36.473M36.473 25.8164H36.473M36.473 25.8164H36.473M36.473 25.8164H36.473M36.473 25.8164H36.473M36.473 25.8164H36.473M36.473 25.8164H36.473M36.473 25.8164H36.473M36.473 25.8164H36.473M36.473 25.8164H36.473M36.473 25.8164H36.473M36.473 25.8164H36.473M36.473 25.8164H36.473M36.473 25.8164H36.473M36.473 25.8164H36.473M36.473 25.8164H36.473M36.473 25.8164H36.473M36.473 25.8164H36.4731M36.473 25.8164H36.4731M36.4731 25.8164H36.4731M36.4731 25.8164H36.4731M36.4731 25.8164H36.4731M36.4731 25.8164H36.4731M36.4731 25.8164H36.4731M36.4731 25.8164H36.4731M36.4731 25.8164H36.4731M36.4731 25.8164H36.4731M36.4731 25.8164H36.4731M36.4731 25.8164H36.4731M36.4731 25.8164H36.4731M36.4731 25.8164H36.4731M36.4731 25.8164H36.4731M36.4731 25.8164H36.4731M36.4731 25.8164H36.4731M36.4731 25.8164H36.4731M36.4731 25.8164H36.4731M36.4731 25.8164H36.4731M36.4731 25.8164H36.4731M36.4731 25.8164H36.4731M36.4731 25.8164H36.4732M36.4731 25.8164H36.4732M36.4732 25.8164H36.4732M36.4732 25.8164H36.4732M36.4732 25.8164H36.4732M36.4732 25.8164H36.4732M36.4732 25.8164H36.4732M36.4732 25.8164H36.4732M36.4732 25.8164H36.4732M36.4732 25.8164H36.4732M36.4732 25.8164H36.4732M36.4732 25.8164H36.4732M36.4732 25.8164H36.4732M36.4732 25.8164H36.4732M36.4732 25.8164H36.4732M36.4732 25.8164H36.4732M36.4732 25.8164H36.4732M36.4732 25.8164H36.4732M36.4732 25.8164H36.4732M36.4732 25.8164H36.4732M36.4732 25.8164H36.4732M36.4732 25.8164H36.4732M36.4732 25.8164H36.4733M36.4732 25.8164H36.4733M36.4733 25.8164H36.4733M36.4733 25.8164H36.4733M36.4733 25.8164H36.4733M36.4733 25.8164H36.4733M36.4733 25.8164H36.4733M36.4733 25.8164H36.4733M36.4733 25.8164H36.4733M36.4733 25.8164H36.4733M36.4733 25.8164H36.4733M36.4733 25.8164H36.4733M36.4733 25.8164H36.4733M36.4733 25.8164H36.4733M36.4733 25.8164H36.4733M36.4733 25.8164H36.4733M36.4733 25.8164H36.4733M36.4733 25.8164H36.4733M36.4733 25.8164H36.4733M36.4733 25.8164H36.4733M36.4733 25.8164H36.4733M36.4733 25.8164H36.4733M36.4733 25.8164H36.4734M36.4733 25.8164H36.4734M36.4734 25.8164H36.4734M36.4734 25.8164H36.4734M36.4734 25.8164H36.4734M36.4734 25.8164H36.4734M36.4734 25.8164H36.4734M36.4734 25.8164H36.4734M36.4734 25.8164H36.4734M36.4734 25.8164H36.4734M36.4734 25.8164H36.4734M36.4734 25.8164H36.4734M36.4734 25.8164H36.4734M36.4734 25.8164H36.4734M36.4734 25.8164H36.4734M36.4734 25.8164H36.4734M36.4734 25.8164H36.4734M36.4734 25.8164H36.4734M36.4734 25.8164H36.4734M36.4734 25.8164H36.4734M36.4734 25.8164H36.4734M36.4734 25.8164H36.4734M36.4734 25.8164H36.4735M36.4734 25.8164H36.4735M36.4735 25.8164H36.4735M36.4735 25.8164H36.4735M36.4735 25.8164H36.4735M36.4735 25.8164H36.4735M36.4735 25.8164H36.4735M36.4735 25.8164H36.4735M36.4735 25.8164H36.4735M36.4735 25.8164H36.4735M36.4735 25.8164H36.4735M36.4735 25.8164H36.4735M36.4735 25.8164H36.4735M36.4735 25.8164H36.4735M36.4735 25.8164H36.4735M36.4735 25.8164H36.4735M36.4735 25.8164H36.4735M36.4735 25.8164H36.4735M36.4735 25.8164H36.4735M36.4735 25.8164H36.4735M36.4735 25.8164H36.4735M36.4735 25.8164H36.4735M36.4735 25.8164H36.4736M36.4735 25.8164H36.4736M36.4736 25.8164H36.4736M36.4736 25.8164H36.4736M36.4736 25.8164H36.4736M36.4736 25.8164H36.4736M36.4736 25.8164H36.4736M36.4736 25.8164H36.4736M36.4736 25.8164H36.4736M36.4736 25.8164H36.4736M36.4736 25.8164H36.4736M36.4736 25.8164H36.4736M36.4736 25.8164H36.4736M36.4736 25.8164H36.4736M36.4736 25.8164H36.4736M36.4736 25.8164H36.4736M36.4736 25.8164H36.4736M36.4736 25.8164H36.4736M36.4736 25.8164H36.4736M36.4736 25.8164H36.4736M36.4736 25.8164H36.4736M36.4736 25.8164H36.4736M36.4736 25.8164H36.4737M36.4736 25.8164H36.4737M36.4737 25.8164H36.4737M36.4737 25.8164H36.4737M36.4737 25.8164H36.4737M36.4737 25.8164H36.4737M36.4737 25.8164H36.4737M36.4737 25.8164H36.4737M36.4737 25.8164H36.4737M36.4737 25.8164H36.4737M36.4737 25.8164H36.4737M36.4737 25.8164H36.4737M36.4737 25.8164H36.4737M36.4737 25.8164H36.4737M36.4737 25.8164H36.4737M36.4737 25.8164H36.4737M36.4737 25.8164H36.4737M36.4737 25.8164H36.4737M36.4737 25.8164H36.4737M36.4737 25.8164H36.4737M36.4737 25.8164H36.4737M36.4737 25.8164H36.4737M36.4737 25.8164H36.4738M36.4737 25.8164H36.4738M36.4738 25.8164H36.4738M36.4738 25.8164H36.4738M36.4738 25.8164H36.4738M36.4738 25.8164H36.4738M36.4738 25.8164H36.4738M36.4738 25.8164H36.4738M36.4738 25.8164H36.4738M36.4738 25.8164H36.4738M36.4738 25.8164H36.4738M36.4738 25.8164H36.4738M36.4738 25.8164H36.4738M36.4738 25.8164H36.4738M36.4738 25.8164H36.4738M36.4738 25.8164H36.4738M36.4738 25.8164H36.4738M36.4738 25.8164H36.4738M36.4738 25.8164H36.4738M36.4738 25.8164H36.4738M36.4738 25.8164H36.4738M36.4738 25.8164H36.4738M36.4738 25.8164H36.4739M36.4738 25.8164H36.4739M36.4739 25.8164H36.4739M36.4739 25.8164H36.4739M36.4739 25.8164H36.4739M36.4739 25.8164H36.4739M36.4739 25.8164H36.4739M36.4739 25.8164H36.4739M36.4739 25.8164H36.4739M36.4739 25.8164H36.4739M36.4739 25.8164H36.4739M36.4739 25.8164H36.4739M36.4739 25.8164H36.4739M36.4739 25.8164H36.4739M36.4739 25.8164H36.4739M36.4739 25.8164H36.4739M36.4739 25.8164H36.4739M36.4739 25.8164H36.4739M36.4739 25.8164H36.4739M36.4739 25.8164H36.4739M36.4739 25.8164H36.4739M36.4739 25.8164H36.4739M36.4739 25.8164H36.474M36.4739 25.8164H36.474M36.474 25.8164H36.474M36.474 25.8164H36.474M36.474 25.8164H36.474M36.474 25.8164H36.474M36.474 25.8164H36.474M36.474 25.8164H36.474M36.474 25.8164H36.474M36.474 25.8164H36.474M36.474 25.8164H36.474M36.474 25.8164H36.474M36.474 25.8164H36.474M36.474 25.8164H36.474M36.474 25.8164H36.474M36.474 25.8164H36.474M36.474 25.8164H36.474M36.474 25.8164H36.474M36.474 25.8164H36.474M36.474 25.8164H36.474M36.474 25.8164H36.474M36.474 25.8164H36.474M36.474 25.8164H36.4741M36.474 25.8164H36.4741M36.4741 25.8164H36.4741M36.4741 25.8164H36.4741M36.4741 25.8164H36.4741M36.4741 25.8164H36.4741M36.4741 25.8164H36.4741M36.4741 25.8164H36.4741M36.4741 25.8164H36.4741M36.4741 25.8164H36.4741M36.4741 25.8164H36.4741M36.4741 25.8164H36.4741M36.4741 25.8164H36.4741M36.4741 25.8164H36.4741M36.4741 25.8164H36.4741M36.4741 25.8164H36.4741M36.4741 25.8164H36.4741M36.4741 25.8164H36.4741M36.4741 25.8164H36.4741M36.4741 25.8164H36.4741M36.4741 25.8164H36.4741M36.4741 25.8164H36.4741M36.4741 25.8164H36.4742M36.4741 25.8164H36.4742M36.4742 25.8164H36.4742M36.4742 25.8164H36.4742M36.4742 25.8164H36.4742M36.4742 25.8164H36.4742M36.4742 25.8164H36.4742M36.4742 25.8164H36.4742M36.4742 25.8164H36.4742M36.4742 25.8164H36.4742M36.4742 25.8164H36.4742M36.4742 25.8164H36.4742M36.4742 25.8164H36.4742M36.4742 25.8164H36.4742M36.4742 25.8164H36.4742M36.4742 25.8164H36.4742M36.4742 25.8164H36.4742M36.4742 25.8164H36.4742M36.4742 25.8164H36.4742M36.4742 25.8164H36.4742M36.4742 25.8164H36.4742M36.4742 25.8164H36.4742M36.4742 25.8164H36.4743M36.4742 25.8164H36.4743M36.4743 25.8164H36.4743M36.4743 25.8164H36.4743M36.4743 25.8164H36.4743M36.4743 25.8164H36.4743M36.4743 25.8164H36.4743M36.4743 25.8164H36.4743M36.4743 25.8164H36.4743M36.4743 25.8164H36.4743M36.4743 25.8164H36.4743M36.4743 25.8164H36.4743M36.4743 25.8164H36.4743M36.4743 25.8164H36.4743M36.4743 25.8164H36.4743M36.4743 25.8164H36.4743M36.4743 25.8164H36.4743M36.4743 25.8164H36.4743M36.4743 25.8164H36.4743M36.4743 25.8164H36.4743M36.4743 25.8164H36.4743M36.4743 25.8164H36.4743M36.4743 25.8164H36.4744M36.4743 25.8164H36.4744M36.4744 25.8164H36.4744M36.4744 25.8164H36.4744M36.4744 25.8164H36.4744M36.4744 25.8164H36.4744M36.4744 25.8164H36.4744M36.4744 25.8164H36.4744M36.4744 25.8164H36.4744M36.4744 25.8164H36.4744M36.4744 25.8164H36.4744M36.4744 25.8164H36.4744M36.4744 25.8164H36.4744M36.4744 25.8164H36.4744M36.4744 25.8164H36.4744M36.4744 25.8164H36.4744M36.4744 25.8164H36.4744M36.4744 25.8164H36.4744M36.4744 25.8164H36.4744M36.4744 25.8164H36.4744M36.4744 25.8164H36.4744M36.4744 25.8164H36.4744M36.4744 25.8164H36.4745M36.4744 25.8164H36.4745M36.4745 25.8164H36.4745M36.4745 25.8164H36.4745M36.4745 25.8164H36.4745M36.4745 25.8164H36.4745M36.4745 25.8164H36.4745M36.4745 25.8164H36.4745M36.4745 25.8164H36.4745M36.4745 25.8164H36.4745M36.4745 25.8164H36.4745M36.4745 25.8164H36.4745M36.4745 25.8164H36.4745M36.4745 25.8164H36.4745M36.4745 25.8164H36.4745M36.4745 25.8164H36.4745M36.4745 25.8164H36.4745M36.4745 25.8164H36.4745M36.4745 25.8164H36.4745M36.4745 25.8164H36.4745M36.4745 25.8164H36.4745M36.4745 25.8164H36.4745M36.4745 25.8164H36.4746M36.4745 25.8164H36.4746M36.4746 25.8164H36.4746M36.4746 25.8164H36.4746M36.4746 25.8164H36.4746M36.4746 25.8164H36.4746M36.4746 25.8164H36.4746M36.4746 25.8164H36.4746M36.4746 25.8164H36.4746M36.4746 25.8164H36.4746M36.4746 25.8164H36.4746M36.4746 25.8164H36.4746M36.4746 25.8164H36.4746M36.4746 25.8164H36.4746M36.4746 25.8164H36.4746M36.4746 25.8164H36.4746M36.4746 25.8164H36.4746M36.4746 25.8164H36.4746M36.4746 25.8164H36.4746M36.4746 25.8164H36.4746M36.4746 25.8164H36.4746M36.4746 25.8164H36.4746M36.4746 25.8164H36.4747M36.4746 25.8164H36.4747M36.4747 25.8164H36.4747M36.4747 25.8164H36.4747M36.4747 25.8164H36.4747M36.4747 25.8164H36.4747M36.4747 25.8164H36.4747M36.4747 25.8164H36.4747M36.4747 25.8164H36.4747M36.4747 25.8164H36.4747M36.4747 25.8164H36.4747M36.4747 25.8164H36.4747M36.4747 25.8164H36.4747M36.4747 25.8164H36.4747M36.4747 25.8164H36.4747M36.4747 25.8164H36.4747M36.4747 25.8164H36.4747M36.4747 25.8164H36.4747M36.4747 25.8164H36.4747M36.4747 25.8164H36.4747M36.4747 25.8164H36.4747M36.4747 25.8164H36.4747M36.4747 25.8164H36.4748M36.4747 25.8164H36.4748M36.4748 25.8164H36.4748M36.4748 25.8164H36.4748M36.4748 25.8164H36.4748M36.4748 25.8164H36.4748M36.4748 25.8164H36.4748M36.4748 25.8164H36.4748M36.4748 25.8164H36.4748M36.4748 25.8164H36.4748M36.4748 25.8164H36.4748M36.4748 25.8164H36.4748M36.4748 25.8164H36.4748M36.4748 25.8164H36.4748M36.4748 25.8164H36.4748M36.4748 25.8164H36.4748M36.4748 25.8164H36.4748M36.4748 25.8164H36.4748M36.4748 25.8164H36.4748M36.4748 25.8164H36.4748M36.4748 25.8164H36.4748M36.4748 25.8164H36.4748M36.4748 25.8164H36.4749M36.4748 25.8164H36.4749M36.4749 25.8164H36.4749M36.4749 25.8164H36.4749M36.4749 25.8164H36.4749M36.4749 25.8164H36.4749M36.4749 25.8164H36.4749M36.4749 25.8164H36.4749M36.4749 25.8164H36.4749M36.4749 25.8164H36.4749M36.4749 25.8164H36.4749M36.4749 25.8164H36.4749M36.4749 25.8164H36.4749M36.4749 25.8164H36.4749M36.4749 25.8164H36.4749M36.4749 25.8164H36.4749M36.4749 25.8164H36.4749M36.4749 25.8164H36.4749M36.4749 25.8164H36.4749M36.4749 25.8164H36.4749M36.4749 25.8164H36.4749M36.4749 25.8164H36.4749M36.4749 25.8164H36.475M36.4749 25.8164H36.475M36.475 25.8164H36.475M36.475 25.8164H36.475M36.475 25.8164H36.475M36.475 25.8164H36.475M36.475 25.8164H36.475M36.475 25.8164H36.475M36.475 25.8164H36.475M36.475 25.8164H36.475M36.475 25.8164H36.475M36.475 25.8164H36.475M36.475 25.8164H36.475M36.475 25.8164H36.475M36.475 25.8164H36.475M36.475 25.8164H36.475M36.475 25.8164H36.475M36.475 25.8164H36.475M36.475 25.8164H36.475M36.475 25.8164H36.475M36.475 25.8164H36.4751M36.475 25.8164H36.4751M36.4751 25.8164H36.4751M36.4751 25.8164H36.4751M36.4751 25.8164H36.4751M36.4751 25.8164H36.4751M36.4751 25.8164H36.4751M36.4751 25.8164H36.4751M36.4751 25.8164H36.4751M36.4751 25.8164H36.4751M36.4751 25.8164H36.4751M36.4751 25.8164H36.4751M36.4751 25.8164H36.4751M36.4751 25.8164H36.4751M36.4751 25.8164H36.4751M36.4751 25.8164H36.4751M36.4751 25.8164H36.4751M36.4751 25.8164H36.4751M36.4751 25.8164H36.4751M36.4751 25.8164H36.4751M36.4751 25.8164H36.4751M36.4751 25.8164H36.4751M36.4751 25.8164H36.4752M36.4751 25.8164H36.4752M36.4752 25.8164H36.4752M36.4752 25.8164H36.4752M36.4752 25.8164H36.4752M36.4752 25.8164H36.4752M36.4752 25.8164H36.4752M36.4752 25.8164H36.4752M36.4752 25.8164H36.4752M36.4752 25.8164H36.4752M36.4752 25.8164H36.4752M36.4752 25.8164H36.4752M36.4752 25.8164H36.4752M36.4752 25.8164H36.4752M36.4752 25.8164H36.4752M36.4752 25.8164H36.4752M36.4752 25.8164H36.4752M36.4752 25.8164H36.4752M36.4752 25.8164H36.4752M36.4752 25.8164H36.4752M36.4752 25.8164H36.4752M36.4752 25.8164H36.4752M36.4752 25.8164H36.4753M36.4752 25.8164H36.4753M36.4753 25.8164H36.4753M36.4753 25.8164H36.4753M36.4753 25.8164H36.4753M36.4753 25.8164H36.4753M36.4753 25.8164H36.4753M36.4753 25.8164H36.4753M36.4753 25.8164H36.4753M36.4753 25.8164H36.4753M36.4753 25.8164H36.4753M36.4753 25.8164H36.4753M36.4753 25.8164H36.4753M36.4753 25.8164H36.4753M36.4753 25.8164H36.4753M36.4753 25.8164H36.4753M36.4753 25.8164H36.4753M36.4753 25.8164H36.4753M36.4753 25.8164H36.4753M36.4753 25.8164H36.4753M36.4753 25.8164H36.4753M36.4753 25.8164H36.4753M36.4753 25.8164H36.4754M36.4753 25.8164H36.4754M36.4754 25.8164H36.4754M36.4754 25.8164H36.4754M36.4754 25.8164H36.4754M36.4754 25.8164H36.4754M36.4754 25.8164H36.4754M36.4754 25.8164H36.4754M36.4754 25.8164H36.4754M36.4754 25.8164H36.4754M36.4754 25.8164H36.4754M36.4754 25.8164H36.4754M36.4754 25.8164H36.4754M36.4754 25.8164H36.4754M36.4754 25.8164H36.4754M36.4754 25.8164H36.4754M36.4754 25.8164H36.4754M36.4754 25.8164H36.4754M36.4754 25.8164H36.4754M36.4754 25.8164H36.4754M36.4754 25.8164H36.4754M36.4754 25.8164H36.4754M36.4754 25.8164H36.4755M36.4754 25.8164H36.4755M36.4755 25.8164H36.4755M36.4755 25.8164H36.4755M36.4755 25.8164H36.4755M36.4755 25.8164H36.4755M36.4755 25.8164H36.4755M36.4755 25.8164H36.4755M36.4755 25.8164H36.4755M36.4755 25.8164H36.4755M36.4755 25.8164H36.4755M36.4755 25.8164H36.4755M36.4755 25.8164H36.4755M36.4755 25.8164H36.4755M36.4755 25.8164H36.4755M36.4755 25.8164H36.4755M36.4755 25.8164H36.4755M36.4755 25.8164H36.4755M36.4755 25.8164H36.4755M36.4755 25.8164H36.4755M36.4755 25.8164H36.4755M36.4755 25.8164H36.4755M36.4755 25.8164H36.4756M36.4755 25.8164H36.4756M36.4756 25.8164H36.4756M36.4756 25.8164H36.4756M36.4756 25.8164H36.4756M36.4756 25.8164H36.4756M36.4756 25.8164H36.4756M36.4756 25.8164H36.4756M36.4756 25.8164H36.4756M36.4756 25.8164H36.4756M36.4756 25.8164H36.4756M36.4756 25.8164H36.4756M36.4756 25.8164H36.4756M36.4756 25.8164H36.4756M36.4756 25.8164H36.4756M36.4756 25.8164H36.4756M36.4756 25.8164H36.4756M36.4756 25.8164H36.4756M36.4756 25.8164H36.4756M36.4756 25.8164H36.4756M36.4756 25.8164H36.4756M36.4756 25.8164H36.4756M36.4756 25.8164H36.4757M36.4756 25.8164H36.4757M36.4757 25.8164H36.4757M36.4757 25.8164H36.4757M36.4757 25.8164H36.4757M36.4757 25.8164H36.4757M36.4757 25.8164H36.4757M36.4757 25.8164H36.4757M36.4757 25.8164H36.4757M36.4757 25.8164H36.4757M36.4757 25.8164H36.4757M36.4757 25.8164H36.4757M36.4757 25.8164H36.4757M36.4757 25.8164H36.4757M36.4757 25.8164H36.4757M36.4757 25.8164H36.4757M36.4757 25.8164H36.4757M36.4757 25.8164H36.4757M36.4757 25.8164H36.4757M36.4757 25.8164H36.4757M36.4757 25.8164H36.4757M36.4757 25.8164H36.4757M36.4757 25.8164H36.4758M36.4757 25.8164H36.4758M36.4758 25.8164H36.4758M36.4758 25.8164H36.4758M36.4758 25.8164H36.4758M36.4758 25.8164H36.4758M36.4758 25.8164H36.4758M36.4758 25.8164H36.4758M36.4758 25.8164H36.4758M36.4758 25.8164H36.4758M36.4758 25.8164H36.4758M36.4758 25.8164H36.4758M36.4758 25.8164H36.4758M36.4758 25.8164H36.4758M36.4758 25.8164H36.4758M36.4758 25.8164H36.4758M36.4758 25.8164H36.4758M36.4758 25.8164H36.4758M36.4758 25.8164H36.4758M36.4758 25.8164H36.4758M36.4758 25.8164H36.4759M36.4758 25.8164H36.4759M36.4759 25.8164H36.4759M36.4759 25.8164H36.4759M36.4759 25.8164H36.4759M36.4759 25.8164H36.4759M36.4759 25.8164H36.4759M36.4759 25.8164H36.4759M36.4759 25.8164H36.4759M36.4759 25.8164H36.4759M36.4759 25.8164H36.4759M36.4759 25.8164H36.4759M36.4759 25.8164H36.4759M36.4759 25.8164H36.4759M36.4759 25.8164H36.4759M36.4759 25.8164H36.4759M36.4759 25.8164H36.4759M36.4759 25.8164H36.4759M36.4759 25.8164H36.4759M36.4759 25.8164H36.4759M36.4759 25.8164H36.4759M36.4759 25.8164H36.4759M36.4759 25.8164H36.476M36.4759 25.8164H36.476M36.476 25.8164H36.476M36.476 25.8164H36.476M36.476 25.8164H36.476M36.476 25.8164H36.476M36.476 25.8164H36.476M36.476 25.8164H36.476M36.476 25.8164H36.476M36.476 25.8164H36.476M36.476 25.8164H36.476M36.476 25.8164H36.476M36.476 25.8164H36.476M36.476 25.8164H36.476M36.476 25.8164H36.476M36.476 25.8164H36.476M36.476 25.8164H36.476M36.476 25.8164H36.476M36.476 25.8164H36.476M36.476 25.8164H36.476M36.476 25.8164H36.476M36.476 25.8164H36.476M36.476 25.8164H36.4761M36.476 25.8164H36.4761M36.4761 25.8164H36.4761M36.4761 25.8164H36.4761M36.4761 25.8164H36.4761M36.4761 25.8164H36.4761M36.4761 25.8164H36.4761M36.4761 25.8164H36.4761M36.4761 25.8164H36.4761M36.4761 25.8164H36.4761M36.4761 25.8164H36.4761M36.4761 25.8164H36.4761M36.4761 25.8164H36.4761M36.4761 25.8164H36.4761M36.4761 25.8164H36.4761M36.4761 25.8164H36.4761M36.4761 25.8164H36.4761M36.4761 25.8164H36.4761M36.4761 25.8164H36.4761M36.4761 25.8164H36.4761M36.4761 25.8164H36.4761M36.4761 25.8164H36.4761M36.4761 25.8164H36.4762M36.4761 25.8164H36.4762M36.4762 25.8164H36.4762M36.4762 25.8164H36.4762M36.4762 25.8164H36.4762M36.4762 25.8164H36.4762M36.4762 25.8164H36.4762M36.4762 25.8164H36.4762M36.4762 25.8164H36.4762M36.4762 25.8164H36.4762M36.4762 25.8164H36.4762M36.4762 25.8164H36.4762M36.4762 25.8164H36.4762M36.4762 25.8164H36.4762M36.4762 25.8164H36.4762M36.4762 25.8164H36.4762M36.4762 25.8164H36.4762M36.4762 25.8164H36.4762M36.4762 25.8164H36.4762M36.4762 25.8164H36.4762M36.4762 25.8164H36.4762M36.4762 25.8164H36.4762M36.4762 25.8164H36.4763M36.4762 25.8164H36.4763M36.4763 25.8164H36.4763M36.4763 25.8164H36.4763M36.4763 25.8164H36.4763M36.4763 25.8164H36.4763M36.4763 25.8164H36.4763M36.4763 25.8164H36.4763M36.4763 25.8164H36.4763M36.4763 25.8164H36.4763M36.4763 25.8164H36.4763M36.4763 25.8164H36.4763M36.4763 25.8164H36.4763M36.4763 25.8164H36.4763M36.4763 25.8164H36.4763M36.4763 25.8164H36.4763M36.4763 25.8164H36.4763M36.4763 25.8164H36.4763M36.4763 25.8164H36.4763M36.4763 25.8164H36.4763M36.4763 25.8164H36.4763M36.4763 25.8164H36.4763M36.4763 25.8164H36.4764M36.4763 25.8164H36.4764M36.4764 25.8164H36.4764M36.4764 25.8164H36.4764M36.4764 25.8164H36.4764M36.4764 25.8164H36.4764M36.4764 25.8164H36.4764M36.4764 25.8164H36.4764M36.4764 25.8164H36.4764M36.4764 25.8164H36.4764M36.4764 25.8164H36.4764M36.4764 25.8164H36.4764M36.4764 25.8164H36.4764M36.4764 25.8164H36.4764M36.4764 25.8164H36.4764M36.4764 25.8164H36.4764M36.4764 25.8164H36.4764M36.4764 25.8164H36.4764M36.4764 25.8164H36.4764M36.4764 25.8164H36.4764M36.4764 25.8164H36.4764M36.4764 25.8164H36.4764M36.4764 25.8164H36.4765M36.4764 25.8164H36.4765M36.4765 25.8164H36.4765M36.4765 25.8164H36.4765M36.4765 25.8164H36.4765M36.4765 25.8164H36.4765M36.4765 25.8164H36.4765M36.4765 25.8164H36.4765M36.4765 25.8164H36.4765M36.4765 25.8164H36.4765M36.4765 25.8164H36.4765M36.4765 25.8164H36.4765M36.4765 25.8164H36.4765M36.4765 25.8164H36.4765M36.4765 25.8164H36.4765M36.4765 25.8164H36.4765M36.4765 25.8164H36.4765M36.4765 25.8164H36.4765M36.4765 25.8164H36.4765M36.4765 25.8164H36.4765M36.4765 25.8164H36.4766M36.4765 25.8164H36.4766M36.4766 25.8164H36.4766M36.4766 25.8164H36.4766M36.4766 25.8164H36.4766M36.4766 25.8164H36.4766M36.4766 25.8164H36.4766M36.4766 25.8164H36.4766M36.4766 25.8164H36.4766M36.4766 25.8164H36.4766M36.4766 25.8164H36.4766M36.4766 25.8164H36.4766M36.4766 25.8164H36.4766M36.4766 25.8164H36.4766M36.4766 25.8164H36.4766M36.4766 25.8164H36.4766M36.4766 25.8164H36.4766M36.4766 25.8164H36.4766M36.4766 25.8164H36.4766M36.4766 25.8164H36.4766M36.4766 25.8164H36.4766M36.4766 25.8164H36.4766M36.4766 25.8164H36.4767M36.4766 25.8164H36.4767M36.4767 25.8164C36.8361 25.8164 37.1292 25.5272 37.132 25.1678M36.4767 25.8164L37.132 25.1678M37.132 25.1678C37.1573 21.8059 35.0425 18.7939 31.8697 17.6728L37.132 25.1678Z" fill="#31C5A1" stroke="#31C5A1" stroke-width="0.1"/>
  <path d="M18.8698 25.031L18.8698 25.031C18.8387 29.2008 20.8959 31.8062 24.2249 36.0222C24.6042 36.5025 25 37.0038 25.4111 37.5307C23.429 37.8337 21.8063 38.3577 20.6731 39.0361C19.525 39.7234 18.8698 40.5759 18.8698 41.525C18.8698 42.1604 19.1647 42.7595 19.7189 43.2958C20.2726 43.8317 21.0868 44.3069 22.1321 44.6977C24.0349 45.409 26.5493 45.7999 29.2118 45.7999C31.8744 45.7999 34.3887 45.409 36.2915 44.6977C37.3368 44.3069 38.1511 43.8316 38.7047 43.2958C39.2589 42.7594 39.5538 42.1604 39.5538 41.525C39.5538 40.5764 38.8992 39.7242 37.7521 39.037C36.62 38.3588 34.9988 37.8348 33.0185 37.5315C33.4044 37.0367 33.7765 36.5645 34.1338 36.111C37.4721 31.8739 39.5232 29.2706 39.5538 25.1857C39.5967 19.4696 34.9437 14.7977 29.2108 14.7977C23.5449 14.7977 18.9129 19.3722 18.8698 25.031ZM31.2916 37.6223C30.5469 38.5896 29.8617 39.5053 29.2128 40.4009C28.5662 39.5055 27.8941 38.6054 27.1383 37.6219L27.1383 37.6219C26.4566 36.7355 25.8196 35.9282 25.2296 35.1804C23.8975 33.4921 22.8054 32.1079 21.9807 30.8052C20.7929 28.9288 20.1642 27.2274 20.1806 25.0409C20.2181 20.0995 24.2626 16.1048 29.211 16.1048C34.218 16.1048 38.2804 20.1858 38.2431 25.1759C38.2271 27.3105 37.5562 29.0362 36.3557 30.9212C35.5108 32.2479 34.4056 33.6507 33.0831 35.3293C32.5237 36.0392 31.9255 36.7985 31.2916 37.6223ZM29.2112 42.1786H29.2113H29.2113H29.2113H29.2113H29.2113H29.2113H29.2114H29.2114H29.2114H29.2114H29.2114H29.2114H29.2114H29.2115H29.2115H29.2115H29.2115H29.2115H29.2115H29.2115H29.2116H29.2116H29.2116H29.2116H29.2116H29.2116H29.2116H29.2117H29.2117H29.2117H29.2117H29.2117H29.2117H29.2117H29.2118H29.2118H29.2118H29.2118C29.4242 42.1786 29.6235 42.0759 29.7465 41.903C30.4761 40.8769 31.2475 39.8338 32.0958 38.7255C34.0286 38.9573 35.5679 39.4035 36.6237 39.9212C37.1544 40.1814 37.561 40.4587 37.8342 40.7342C38.108 41.0103 38.2431 41.2797 38.2431 41.5251C38.243 41.858 38.0153 42.2118 37.5741 42.5582C37.1346 42.9034 36.4922 43.2339 35.6848 43.521C34.0705 44.0952 31.806 44.4928 29.2118 44.4928C26.6176 44.4928 24.3531 44.0952 22.7388 43.521C21.9314 43.2339 21.289 42.9034 20.8495 42.5582C20.4083 42.2118 20.1806 41.8579 20.1806 41.525C20.1806 41.2795 20.3158 41.01 20.5898 40.7337C20.8633 40.458 21.2702 40.1807 21.8013 39.9204C22.8582 39.4026 24.3988 38.9564 26.3335 38.7248C27.1888 39.8442 27.9399 40.8624 28.6765 41.9022C28.7992 42.0754 28.9986 42.1784 29.2112 42.1786Z" fill="#31C5A1" stroke="#31C5A1" stroke-width="0.1"/>
</svg>
