<svg width="60" height="59" viewBox="0 0 60 59" fill="none" xmlns="http://www.w3.org/2000/svg">
  <path d="M58.2108 29.3781C58.2108 45.0505 45.5 57.7563 29.8195 57.7563C14.139 57.7563 1.42822 45.0505 1.42822 29.3781C1.42822 13.7058 14.139 1 29.8195 1C45.5 1 58.2108 13.7058 58.2108 29.3781Z" fill="#31C5A1" stroke="#31C5A1" stroke-width="2"/>
  <path d="M29.2719 17.1253L29.2718 17.1253C28.9094 17.1227 28.6138 17.4142 28.6112 17.7759C28.6085 18.1375 28.8996 18.433 29.262 18.4356C29.6237 18.4382 29.9194 18.1474 29.922 17.7857C29.9246 17.424 29.6336 17.1286 29.2719 17.1253Z" fill="white" stroke="white" stroke-width="0.1"/>
  <path d="M29.2438 20.7558L29.2438 20.7558C26.8786 20.739 24.9416 22.6462 24.9238 25.0096L24.9738 25.01L24.9238 25.0096C24.9059 27.3729 26.815 29.3099 29.1795 29.3277L29.1796 29.3277L29.2123 29.3279C31.5617 29.3279 33.4817 27.4264 33.4995 25.0739C33.5173 22.7107 31.6083 20.7736 29.2438 20.7558ZM29.1893 28.0175L29.1893 28.0175C27.5477 28.0051 26.2221 26.6601 26.2345 25.0194C26.2469 23.3861 27.5799 22.0659 29.2111 22.0659L29.2339 22.066L29.234 22.066C30.8756 22.0784 32.2011 23.4234 32.1887 25.0641C32.1764 26.6974 30.8434 28.0176 29.2122 28.0176L29.1893 28.0175Z" fill="white" stroke="white" stroke-width="0.1"/>
  <path d="M31.0327 17.9856L31.0327 17.9856C30.9118 18.3267 31.0904 18.7011 31.4316 18.822L31.4316 18.822C34.0781 19.7596 35.842 22.2792 35.8209 25.0916C35.8182 25.4534 36.1094 25.7489 36.4714 25.7517H36.4717H36.4718H36.4718H36.4718H36.4718H36.4718H36.4718H36.4718H36.4718H36.4718H36.4718H36.4718H36.4719H36.4719H36.4719H36.4719H36.4719H36.4719H36.4719H36.4719H36.4719H36.4719H36.4719H36.472H36.472H36.472H36.472H36.472H36.472H36.472H36.472H36.472H36.472H36.472H36.4721H36.4721H36.4721H36.4721H36.4721H36.4721H36.4721H36.4721H36.4721H36.4721H36.4721H36.4721H36.4722H36.4722H36.4722H36.4722H36.4722H36.4722H36.4722H36.4722H36.4722H36.4722H36.4722H36.4723H36.4723H36.4723H36.4723H36.4723H36.4723H36.4723H36.4723H36.4723H36.4723H36.4723H36.4724H36.4724H36.4724H36.4724H36.4724H36.4724H36.4724H36.4724H36.4724H36.4724H36.4724H36.4725H36.4725H36.4725H36.4725H36.4725H36.4725H36.4725H36.4725H36.4725H36.4725H36.4725H36.4726H36.4726H36.4726H36.4726H36.4726H36.4726H36.4726H36.4726H36.4726H36.4726H36.4726H36.4727H36.4727H36.4727H36.4727H36.4727H36.4727H36.4727H36.4727H36.4727H36.4727H36.4727H36.4728H36.4728H36.4728H36.4728H36.4728H36.4728H36.4728H36.4728H36.4728H36.4728H36.4728H36.4728H36.4729H36.4729H36.4729H36.4729H36.4729H36.4729H36.4729H36.4729H36.4729H36.4729H36.4729H36.473H36.473H36.473H36.473H36.473H36.473H36.473H36.473H36.473H36.473H36.473H36.4731H36.4731H36.4731H36.4731H36.4731H36.4731H36.4731H36.4731H36.4731H36.4731H36.4731H36.4732H36.4732H36.4732H36.4732H36.4732H36.4732H36.4732H36.4732H36.4732H36.4732H36.4732H36.4733H36.4733H36.4733H36.4733H36.4733H36.4733H36.4733H36.4733H36.4733H36.4733H36.4733H36.4734H36.4734H36.4734H36.4734H36.4734H36.4734H36.4734H36.4734H36.4734H36.4734H36.4734H36.4735H36.4735H36.4735H36.4735H36.4735H36.4735H36.4735H36.4735H36.4735H36.4735H36.4735H36.4736H36.4736H36.4736H36.4736H36.4736H36.4736H36.4736H36.4736H36.4736H36.4736H36.4736H36.4737H36.4737H36.4737H36.4737H36.4737H36.4737H36.4737H36.4737H36.4737H36.4737H36.4737H36.4738H36.4738H36.4738H36.4738H36.4738H36.4738H36.4738H36.4738H36.4738H36.4738H36.4738H36.4739H36.4739H36.4739H36.4739H36.4739H36.4739H36.4739H36.4739H36.4739H36.4739H36.4739H36.474H36.474H36.474H36.474H36.474H36.474H36.474H36.474H36.474H36.474H36.474H36.4741H36.4741H36.4741H36.4741H36.4741H36.4741H36.4741H36.4741H36.4741H36.4741H36.4741H36.4742H36.4742H36.4742H36.4742H36.4742H36.4742H36.4742H36.4742H36.4742H36.4742H36.4742H36.4743H36.4743H36.4743H36.4743H36.4743H36.4743H36.4743H36.4743H36.4743H36.4743H36.4743H36.4744H36.4744H36.4744H36.4744H36.4744H36.4744H36.4744H36.4744H36.4744H36.4744H36.4745H36.4745H36.4745H36.4745H36.4745H36.4745H36.4745H36.4745H36.4745H36.4745H36.4745H36.4746H36.4746H36.4746H36.4746H36.4746H36.4746H36.4746H36.4746H36.4746H36.4746H36.4746H36.4747H36.4747H36.4747H36.4747H36.4747H36.4747H36.4747H36.4747H36.4747H36.4747H36.4747H36.4748H36.4748H36.4748H36.4748H36.4748H36.4748H36.4748H36.4748H36.4748H36.4748H36.4748H36.4749H36.4749H36.4749H36.4749H36.4749H36.4749H36.4749H36.4749H36.4749H36.4749H36.4749H36.475H36.475H36.475H36.475H36.475H36.475H36.475H36.475H36.475H36.475H36.475H36.4751H36.4751H36.4751H36.4751H36.4751H36.4751H36.4751H36.4751H36.4751H36.4751H36.4751H36.4752H36.4752H36.4752H36.4752H36.4752H36.4752H36.4752H36.4752H36.4752H36.4752H36.4752H36.4753H36.4753H36.4753H36.4753H36.4753H36.4753H36.4753H36.4753H36.4753H36.4753H36.4754H36.4754H36.4754H36.4754H36.4754H36.4754H36.4754H36.4754H36.4754H36.4754H36.4754H36.4755H36.4755H36.4755H36.4755H36.4755H36.4755H36.4755H36.4755H36.4755H36.4755H36.4755H36.4756H36.4756H36.4756H36.4756H36.4756H36.4756H36.4756H36.4756H36.4756H36.4756H36.4756H36.4757H36.4757H36.4757H36.4757H36.4757H36.4757H36.4757H36.4757H36.4757H36.4757H36.4757H36.4758H36.4758H36.4758H36.4758H36.4758H36.4758H36.4758H36.4758H36.4758H36.4758H36.4758H36.4759H36.4759H36.4759H36.4759H36.4759H36.4759H36.4759H36.4759H36.4759H36.4759H36.4759H36.476H36.476H36.476H36.476H36.476H36.476H36.476H36.476H36.476H36.476H36.4761H36.4761H36.4761H36.4761H36.4761H36.4761H36.4761H36.4761H36.4761H36.4761H36.4761H36.4762H36.4762H36.4762H36.4762H36.4762H36.4762H36.4762H36.4762H36.4762H36.4762H36.4762H36.4763H36.4763H36.4763H36.4763H36.4763H36.4763H36.4763H36.4763H36.4763H36.4763H36.4763H36.4764H36.4764H36.4764H36.4764H36.4764H36.4764H36.4764C36.836 25.7517 37.129 25.4616 37.1317 25.1015C37.1571 21.7309 35.0424 18.711 31.8695 17.587C31.5286 17.466 31.1537 17.6445 31.0327 17.9856Z" fill="white" stroke="white" stroke-width="0.1"/>
  <path d="M18.8698 24.9641L18.8698 24.9641C18.8387 29.1448 20.8959 31.757 24.2248 35.9841C24.6042 36.4658 25 36.9684 25.4112 37.4968C23.429 37.8006 21.8062 38.326 20.6731 39.0062C19.5249 39.6953 18.8698 40.55 18.8698 41.5015C18.8698 42.1385 19.1647 42.7391 19.7188 43.2768C20.2725 43.8141 21.0868 44.2906 22.1321 44.6824C24.0349 45.3956 26.5493 45.7875 29.2118 45.7875C31.8744 45.7875 34.3887 45.3956 36.2915 44.6824C37.3369 44.2906 38.1511 43.8141 38.7048 43.2768C39.2589 42.7391 39.5538 42.1385 39.5538 41.5015C39.5538 40.5505 38.8993 39.6961 37.7522 39.0071C36.62 38.3271 34.9987 37.8017 33.0183 37.4976C33.4043 37.0015 33.7764 36.5279 34.1338 36.0731C37.4722 31.8248 39.5232 29.2148 39.5538 25.1192C39.5967 19.3883 34.9438 14.7039 29.2108 14.7039C23.5448 14.7039 18.9129 19.2905 18.8698 24.9641ZM31.2916 37.5886C30.5469 38.5585 29.8617 39.4766 29.2128 40.3746C28.5662 39.4768 27.8942 38.5744 27.1383 37.5883L27.1383 37.5883C26.4566 36.6996 25.8196 35.8901 25.2297 35.1404C23.8976 33.4476 22.8054 32.0597 21.9807 30.7536C20.7929 28.8722 20.1642 27.1663 20.1806 24.974C20.2181 20.0194 24.2627 16.0142 29.211 16.0142C34.2178 16.0142 38.2804 20.1059 38.2431 25.1094C38.227 27.2496 37.5562 28.9799 36.3557 30.8699C35.5108 32.2001 34.4056 33.6066 33.083 35.2896C32.5237 36.0014 31.9255 36.7627 31.2916 37.5886ZM28.6765 41.8795L28.7173 41.8507L28.6765 41.8796C28.7992 42.0532 28.9985 42.1565 29.2112 42.1567H29.2113H29.2113H29.2113H29.2113H29.2113H29.2113H29.2114H29.2114H29.2114H29.2114H29.2114H29.2114H29.2114H29.2115H29.2115H29.2115H29.2115H29.2115H29.2115H29.2115H29.2116H29.2116H29.2116H29.2116H29.2116H29.2116H29.2116H29.2117H29.2117H29.2117H29.2117H29.2117H29.2117H29.2117H29.2118H29.2118H29.2118H29.2118C29.4243 42.1567 29.6236 42.0537 29.7465 41.8804C30.4761 40.8516 31.2475 39.8058 32.0959 38.6945C34.0286 38.9269 35.5679 39.3743 36.6237 39.8934C37.1543 40.1542 37.5609 40.4322 37.8341 40.7085C38.1079 40.9853 38.2431 41.2555 38.2431 41.5016C38.243 41.8355 38.0152 42.1903 37.5741 42.5376C37.1345 42.8837 36.4921 43.215 35.6847 43.5029C34.0704 44.0786 31.806 44.4773 29.2118 44.4773C26.6176 44.4773 24.3532 44.0786 22.7389 43.5029C21.9315 43.215 21.2891 42.8837 20.8495 42.5376C20.4084 42.1902 20.1806 41.8355 20.1806 41.5015C20.1806 41.2553 20.3158 40.985 20.5899 40.708C20.8633 40.4316 21.2703 40.1535 21.8014 39.8926C22.8582 39.3734 24.3988 38.926 26.3334 38.6938C27.1888 39.8161 27.9398 40.8371 28.6765 41.8795Z" fill="white" stroke="white" stroke-width="0.1"/>
  </svg>
