<svg width="58" height="59" viewBox="0 0 58 59" fill="none" xmlns="http://www.w3.org/2000/svg">
  <ellipse cx="28.7524" cy="29.3781" rx="28.7524" ry="29.3781" fill="#31C5A1"/>
  <g clip-path="url(#clip0)">
  <path d="M30.6581 28.3277V28.4277H30.7581H36.8189C37.4339 28.4277 37.9309 28.9255 37.9309 29.5392C37.9309 30.1529 37.4339 30.6507 36.8189 30.6507H29.546C28.931 30.6507 28.434 30.1529 28.434 29.5392V22.2696C28.434 21.656 28.931 21.1581 29.546 21.1581C30.1611 21.1581 30.6581 21.656 30.6581 22.2696V28.3277Z" fill="white" stroke="#31C5A1" stroke-width="0.2"/>
  <path d="M19.1137 19.1792L19.1818 19.2472L19.2524 19.1818C22.0079 16.6285 25.7173 15.1 29.5456 15.1C37.5112 15.1 43.9913 21.5772 43.9913 29.5391C43.9913 37.5011 37.5112 43.9783 29.5456 43.9783C25.6812 43.9783 22.0559 42.4742 19.3352 39.7429C18.9015 39.3071 18.9036 38.6035 19.3397 38.1699L19.3399 38.1697C19.7734 37.7364 20.4784 37.7374 20.9122 38.1733L20.9122 38.1733C23.2111 40.4821 26.2778 41.755 29.5456 41.755C36.2846 41.755 41.7669 36.2752 41.7669 29.5391C41.7669 22.8031 36.2846 17.3233 29.5456 17.3233C26.3059 17.3233 23.1802 18.6179 20.8416 20.7589L20.7646 20.8295L20.8385 20.9034L24.3597 24.4241L24.3598 24.4243C24.5916 24.6549 24.6608 25.0031 24.5356 25.305L24.5355 25.305C24.4105 25.6071 24.116 25.8043 23.7881 25.8043H15.9091C15.4625 25.8043 15.1 25.442 15.1 24.9957V17.1202C15.1 16.7937 15.2974 16.4981 15.5995 16.3731L15.5996 16.3731C15.9015 16.248 16.2487 16.317 16.481 16.5489C16.481 16.5489 16.481 16.5489 16.481 16.5489L19.1137 19.1792Z" fill="white" stroke="#31C5A1" stroke-width="0.2"/>
  </g>
  <defs>
  <clipPath id="clip0">
  <rect width="29.0913" height="29.0783" fill="white" transform="translate(15 15)"/>
  </clipPath>
  </defs>
  </svg>
