<svg width="228" height="230" viewBox="0 0 228 230" fill="none" xmlns="http://www.w3.org/2000/svg">
  <path d="M106.055 164.022H91.834V192.772H106.055V164.022Z" fill="#1F444D"/>
  <path d="M173.993 162.27C173.993 164.34 172.356 166.019 170.337 166.019H33.4629C31.4444 166.019 29.8066 164.34 29.8066 162.27V67.3349C29.8066 65.2649 31.4444 63.5859 33.4629 63.5859H170.337C172.356 63.5859 173.993 65.2649 173.993 67.3349V162.27Z" fill="#1F444D"/>
  <path d="M168.02 162.27C168.02 164.34 166.373 166.019 164.345 166.019H26.8153C24.7876 166.019 23.1406 164.34 23.1406 162.27V67.3349C23.1406 65.2649 24.7876 63.5859 26.8153 63.5859H164.345C166.373 63.5859 168.02 65.2649 168.02 67.3349V162.27Z" fill="#2E5B66"/>
  <path d="M163.882 67.8037H27.2734V161.8H163.882V67.8037Z" fill="white"/>
  <path d="M43.9414 139.105L57.8325 131.285L71.7191 116.095L85.6056 122.126L99.4921 99.9862L113.379 111.334L127.265 123.179L141.152 85.418" stroke="#1F444D" stroke-miterlimit="10"/>
  <path d="M140.482 198.214C139.376 193.554 135.201 190.086 130.219 190.086H67.6725C62.6858 190.086 58.5112 193.554 57.4102 198.214H140.482Z" fill="#2E5B66"/>
  <path d="M34.2285 80.3024C34.2285 89.392 34.2285 98.477 34.2285 107.567C34.2285 121.316 34.2285 135.065 34.2285 148.815C34.2285 151.124 34.2285 153.433 34.2285 155.742C34.2285 155.867 34.334 155.972 34.4579 155.972C41.0502 155.972 47.6471 155.972 54.2394 155.972C68.4516 155.972 82.6685 155.972 96.8807 155.972C110.364 155.972 123.846 155.972 137.329 155.972C141.981 155.972 146.637 155.972 151.289 155.972C151.583 155.972 151.583 155.512 151.289 155.512C144.697 155.512 138.1 155.512 131.508 155.512C117.295 155.512 103.083 155.512 88.8662 155.512C75.3834 155.512 61.9006 155.512 48.4178 155.512C43.766 155.512 39.1097 155.512 34.4579 155.512C34.5359 155.591 34.6093 155.664 34.6873 155.742C34.6873 146.653 34.6873 137.568 34.6873 128.478C34.6873 114.729 34.6873 100.979 34.6873 87.23C34.6873 84.9208 34.6873 82.6116 34.6873 80.3024C34.6873 80.0034 34.2285 80.0034 34.2285 80.3024Z" fill="black"/>
  <path d="M142.853 91.9541H139.449V152.062H142.853V91.9541Z" fill="#31C5A1"/>
  <path d="M128.966 129.674H125.562V152.062H128.966V129.674Z" fill="#31C5A1"/>
  <path d="M115.08 117.82H111.676V152.063H115.08V117.82Z" fill="#31C5A1"/>
  <path d="M101.193 106.601H97.7891V152.062H101.193V106.601Z" fill="#31C5A1"/>
  <path d="M87.3063 128.437H83.9023V152.062H87.3063V128.437Z" fill="#31C5A1"/>
  <path d="M73.4157 122.622H70.0117V152.062H73.4157V122.622Z" fill="#31C5A1"/>
  <path d="M59.529 137.917H56.125V152.062H59.529V137.917Z" fill="#31C5A1"/>
  <path d="M45.6422 145.622H42.2383V152.062H45.6422V145.622Z" fill="#31C5A1"/>
  <path d="M43.9396 140.714C44.8264 140.714 45.5452 139.993 45.5452 139.104C45.5452 138.215 44.8264 137.494 43.9396 137.494C43.0528 137.494 42.334 138.215 42.334 139.104C42.334 139.993 43.0528 140.714 43.9396 140.714Z" fill="#582EFF"/>
  <path d="M57.8322 132.894C58.719 132.894 59.4379 132.173 59.4379 131.284C59.4379 130.395 58.719 129.674 57.8322 129.674C56.9454 129.674 56.2266 130.395 56.2266 131.284C56.2266 132.173 56.9454 132.894 57.8322 132.894Z" fill="#582EFF"/>
  <path d="M71.7189 117.705C72.6057 117.705 73.3246 116.985 73.3246 116.095C73.3246 115.206 72.6057 114.485 71.7189 114.485C70.8322 114.485 70.1133 115.206 70.1133 116.095C70.1133 116.985 70.8322 117.705 71.7189 117.705Z" fill="#582EFF"/>
  <path d="M85.6037 123.736C86.4905 123.736 87.2093 123.015 87.2093 122.126C87.2093 121.236 86.4905 120.516 85.6037 120.516C84.7169 120.516 83.998 121.236 83.998 122.126C83.998 123.015 84.7169 123.736 85.6037 123.736Z" fill="#582EFF"/>
  <path d="M99.4904 101.596C100.377 101.596 101.096 100.875 101.096 99.986C101.096 99.0968 100.377 98.376 99.4904 98.376C98.6036 98.376 97.8848 99.0968 97.8848 99.986C97.8848 100.875 98.6036 101.596 99.4904 101.596Z" fill="#582EFF"/>
  <path d="M113.377 112.944C114.264 112.944 114.983 112.223 114.983 111.334C114.983 110.444 114.264 109.724 113.377 109.724C112.49 109.724 111.771 110.444 111.771 111.334C111.771 112.223 112.49 112.944 113.377 112.944Z" fill="#582EFF"/>
  <path d="M127.264 124.789C128.151 124.789 128.87 124.069 128.87 123.179C128.87 122.29 128.151 121.569 127.264 121.569C126.377 121.569 125.658 122.29 125.658 123.179C125.658 124.069 126.377 124.789 127.264 124.789Z" fill="#582EFF"/>
  <path d="M141.151 87.0276C142.037 87.0276 142.756 86.3068 142.756 85.4176C142.756 84.5284 142.037 83.8076 141.151 83.8076C140.264 83.8076 139.545 84.5284 139.545 85.4176C139.545 86.3068 140.264 87.0276 141.151 87.0276Z" fill="#582EFF"/>
  <path d="M163.882 67.8037H27.2734V72.8085H163.882V67.8037Z" fill="#B1E0DC"/>
  <path d="M31.6651 70.3066C31.6651 70.7896 31.2752 71.1806 30.7935 71.1806C30.3118 71.1806 29.9219 70.7896 29.9219 70.3066C29.9219 69.8236 30.3118 69.4326 30.7935 69.4326C31.2752 69.4372 31.6651 69.8236 31.6651 70.3066Z" fill="white"/>
  <path d="M35.7647 70.3066C35.7647 70.7896 35.3748 71.1806 34.8931 71.1806C34.4114 71.1806 34.0215 70.7896 34.0215 70.3066C34.0215 69.8236 34.4114 69.4326 34.8931 69.4326C35.3748 69.4372 35.7647 69.8236 35.7647 70.3066Z" fill="#31C5A1"/>
  <path d="M39.8722 70.3066C39.8722 70.7896 39.4822 71.1806 39.0005 71.1806C38.5188 71.1806 38.1289 70.7896 38.1289 70.3066C38.1289 69.8236 38.5188 69.4326 39.0005 69.4326C39.4822 69.4372 39.8722 69.8236 39.8722 70.3066Z" fill="#2E5B66"/>
  <path d="M188.328 182.574C188.52 184.492 189.855 192.694 190.126 196.411C190.392 200.128 188.791 201.204 186.305 202.929C190.011 204.539 194.792 201.701 194.714 201.586C194.406 199.249 194.104 193.881 194.484 190.049C194.865 186.217 194.828 181.617 194.828 181.617L188.328 182.574Z" fill="#A66537"/>
  <path d="M204.578 180.545C205.074 182.077 208.707 192.698 208.858 196.452C209.01 200.21 208.936 201.742 208.629 202.165C208.322 202.588 207.101 203.89 207.101 203.89L209.891 202.588L213.868 195.918C213.868 195.918 212.226 193.351 211.996 190.628C211.767 187.905 209.969 177.826 209.969 177.826L204.578 180.545Z" fill="#A66537"/>
  <path d="M185.081 126.302C183.704 130.787 181.755 140.562 183.59 154.592C185.425 168.622 188.063 181.272 188.063 183.112C192.879 183.457 194.944 182.652 194.944 182.652C196.091 177.592 195.403 169.427 194.026 164.827C192.65 160.227 194.6 152.062 194.6 152.062C196.779 164.367 203.775 179.432 204.692 181.387C207.367 179.929 210.427 178.972 210.427 178.972C211.115 172.877 205.037 164.712 205.037 157.352C205.037 149.992 207.33 137.802 201.366 128.257C200.793 126.992 200.678 124.462 200.678 124.462L185.081 126.302Z" fill="#1F444D"/>
  <path d="M194.512 97.0049C195.834 96.9773 197.265 97.5201 197.467 100.455C189.842 104.107 187.145 99.7097 187.658 98.9875C188.172 98.2653 191.962 97.5247 194.512 97.0049Z" fill="#F7CABC"/>
  <path d="M180.456 79.9566C179.08 82.1784 179.502 84.4416 181.452 85.0948C181.988 81.9116 181.718 79.2666 181.718 79.2666L180.456 79.9566Z" fill="black"/>
  <path d="M193.568 91.8017C193.568 91.8017 200.192 84.0737 193.884 78.4341C191.26 74.5839 182.447 75.4349 181.14 79.9199C179.837 84.4049 182.103 85.7113 181.034 86.1805C179.654 86.7831 179.277 87.0315 179.277 87.0315L181.291 88.3103C181.291 88.3103 182.819 95.8681 187.865 94.2949C188.177 95.7347 188.787 98.5913 189.205 100.486C186.883 102.469 185.246 106.95 185.562 106.982C185.883 107.018 194.774 103.118 195.059 99.6723L195.205 99.5849L193.568 91.8017Z" fill="#A66537"/>
  <path d="M207.101 129.637C207.33 131.247 207.903 136.652 207.734 137.512C207.564 138.372 205.614 141.367 205.784 141.422C205.954 141.477 210.83 141.767 210.83 141.767C210.83 141.767 211.289 133.082 211.174 129.862C210.367 129.292 207.101 129.637 207.101 129.637Z" fill="#A66537"/>
  <path d="M206.49 127.3C206.527 127.99 206.683 130.29 206.683 130.29C207.637 130.713 211.348 130.865 211.651 130.253C211.881 129.103 211.651 127.686 211.651 127.686L206.49 127.3Z" fill="#582EFF"/>
  <path d="M206.26 127.3C206.315 128.298 206.384 129.292 206.453 130.29C206.462 130.401 206.522 130.474 206.623 130.511C207.912 131.017 209.6 130.985 210.944 130.796C212.44 130.585 212.05 128.768 211.875 127.622C211.857 127.516 211.747 127.461 211.655 127.452C209.935 127.323 208.215 127.194 206.494 127.07C206.201 127.047 206.201 127.507 206.494 127.53C207.49 127.604 208.485 127.677 209.481 127.751C210.054 127.792 210.623 127.834 211.197 127.88C211.334 127.889 211.476 127.898 211.614 127.912C211.522 127.907 211.417 127.576 211.463 127.967C211.49 128.202 211.504 128.441 211.518 128.676C211.541 129.103 211.637 130.134 211.137 130.286C210.802 130.387 210.435 130.401 210.091 130.419C209.224 130.465 208.338 130.405 207.485 130.267C207.201 130.221 206.893 130 206.912 130.267C206.898 130.046 206.884 129.826 206.866 129.6C206.815 128.832 206.765 128.064 206.719 127.3C206.701 127.001 206.242 127.001 206.26 127.3Z" fill="#582EFF"/>
  <path d="M188.655 98.4717C187.508 98.8167 185.081 99.8149 184.315 100.39C183.549 100.965 170.245 100.583 169.405 100.542C167.763 104.107 167.648 107.175 167.648 107.175C170.25 108.247 178.81 111.545 180.952 111.697C181.03 115.455 181.718 117.253 181.907 119.862C182.099 122.47 182.287 125.993 183.017 126.38C183.746 126.766 188.026 126.495 190.664 127.148C193.302 127.801 198.137 126.233 200.069 125.538C200.605 125.345 201.064 125.345 201.138 125.041C201.211 124.738 201.596 117.221 201.596 117.221C201.596 117.221 204.271 123.008 204.615 127.074C205.381 128.188 211.189 128.188 212.07 127.843C212.95 127.498 212.758 120.253 212.148 118.031C211.537 115.809 207.065 111.821 205.037 108.753C203.546 106.499 200.936 102.129 197.325 100.519C196.188 100.013 196.087 98.7799 195.288 98.6511C191.962 102.216 190.66 101.931 186.113 105.993C186.471 104.401 188.669 100.85 189.054 100.505C189.013 99.3871 188.655 98.4717 188.655 98.4717Z" fill="#F7CABC"/>
  <path d="M183.874 86.4756C184.121 86.1766 184.098 85.5924 183.759 85.3578C183.461 85.1508 183.108 85.2842 183.025 85.6384C182.961 85.9282 183.053 86.3238 183.291 86.517C183.575 86.747 183.961 86.5998 184.034 86.241C184.103 85.9098 183.965 85.505 183.727 85.2704C183.442 84.999 183.025 85.1508 182.929 85.5142C182.837 85.8638 183.039 86.2778 183.319 86.4756C183.663 86.724 184.011 86.3698 184.043 86.0294C184.075 85.689 183.8 85.114 183.378 85.3716C182.956 85.6292 183.254 86.2042 183.621 86.3376C183.727 86.379 183.887 86.2962 183.906 86.1766C183.933 85.9696 183.92 85.8086 183.773 85.6522C183.571 85.436 183.245 85.7626 183.447 85.9788C183.452 86.0064 183.456 86.0294 183.461 86.057C183.557 86.0018 183.649 85.9512 183.745 85.896C183.69 85.8776 183.635 85.781 183.631 85.7212C183.64 85.8316 183.516 85.735 183.539 85.7718C183.562 85.8086 183.575 85.8592 183.58 85.9006C183.589 85.9742 183.589 86.0432 183.557 86.0846C183.539 86.103 183.53 86.08 183.58 86.0892C183.553 86.0846 183.534 86.057 183.516 86.0432C183.41 85.9374 183.342 85.7396 183.378 85.597C183.392 85.551 183.378 85.5786 183.397 85.5878C183.456 85.62 183.502 85.7166 183.525 85.7764C183.562 85.8592 183.64 86.0984 183.575 86.1766C183.585 86.1674 183.488 85.9926 183.479 85.942C183.465 85.8822 183.456 85.8132 183.47 85.7534C183.479 85.6844 183.502 85.7074 183.447 85.7074C183.589 85.6982 183.612 86.0616 183.548 86.1398C183.36 86.379 183.686 86.7056 183.874 86.4756Z" fill="black"/>
  <path d="M184.292 81.6868C183.723 81.4154 183.14 81.0888 182.493 81.1072C182.2 81.1164 182.195 81.5764 182.493 81.5672C183.053 81.5534 183.567 81.8478 184.062 82.0824C184.324 82.2112 184.558 81.811 184.292 81.6868Z" fill="black"/>
  <path d="M181.731 90.413C182.915 90.62 183.988 90.1968 184.965 89.5483C185.213 89.3873 184.983 88.9871 184.736 89.1527C183.869 89.7277 182.91 90.16 181.855 89.9715C181.566 89.9209 181.442 90.3625 181.731 90.413Z" fill="black"/>
  <path d="M184.658 89.2677C184.304 90.1693 183.566 90.8133 182.91 91.4941C182.731 91.6781 182.96 91.9955 183.19 91.8575C183.249 91.8207 183.286 91.7747 183.327 91.7195C183.501 91.4803 183.102 91.2503 182.933 91.4895C182.942 91.4803 182.951 91.4711 182.956 91.4665C183.047 91.5861 183.139 91.7057 183.235 91.8299C183.956 91.0847 184.717 90.3855 185.103 89.4011C185.208 89.1159 184.763 88.9963 184.658 89.2677Z" fill="black"/>
  <path d="M187.461 94.6491C188.695 94.5985 190.176 93.9499 191.062 93.0851C191.273 92.8781 190.952 92.5515 190.736 92.7585C189.938 93.5313 188.562 94.1385 187.456 94.1845C187.162 94.1983 187.162 94.6583 187.461 94.6491Z" fill="black"/>
  <path d="M183.437 78.462C183.932 80.302 184.735 85.2837 186.19 85.7437C187.644 86.2037 187.144 84.1705 186.726 82.5238C187.988 85.247 188.869 86.3969 189.479 86.1255C188.905 87.9655 189.171 91.8755 190.74 89.4237C191.162 91.9905 191.851 93.1037 192.919 93.0255C193.988 92.9473 194.374 91.3787 194.374 91.3787C195.062 94.0605 196.475 94.447 197.434 93.9869C198.388 93.527 198.2 91.3788 197.7 90.077C200.186 92.7588 202.824 92.4552 200.833 87.6252C204.274 90.6152 207.063 88.007 201.751 84.672C205.228 84.7502 206.145 83.9038 203.319 82.027C205.994 82.2202 205.691 79.6902 203.241 79.2302C205.572 79.0784 204.425 76.8152 202.553 76.7784C205.765 76.7002 202.131 74.2116 198.31 74.4416C201.714 73.7884 201.751 73.7148 201.521 73.1766C201.292 72.6384 198.961 71.1434 195.291 72.7534C196.094 69.4552 194.337 67.1552 193.722 72.0266C191.543 68.4248 188.561 67.5048 190.13 70.7984C186.612 68.8066 183.286 69.4966 183.822 70.7984C179.928 69.9014 179.593 72.919 182.997 73.0616C177.758 72.7948 175.335 74.6716 175.753 76.0102C176.175 77.3534 179.96 76.047 179.96 76.047C174.762 78.0388 174.913 80.187 175.221 80.647C175.528 81.107 178.088 79.6488 178.088 79.6488C175.143 82.2156 176.574 83.5266 177.4 83.292C179.538 82.6802 181.143 78.9588 183.437 78.462Z" fill="black"/>
  <path d="M183.905 103.79C183.859 103.192 183.997 102.511 184.332 102.01C184.212 102.023 184.093 102.042 183.969 102.056C184.304 102.401 184.451 102.87 184.676 103.284C184.905 103.716 185.249 104.107 185.607 104.443C185.823 104.645 186.148 104.323 185.933 104.116C185.534 103.739 185.199 103.316 184.956 102.819C184.763 102.433 184.602 102.046 184.3 101.729C184.19 101.619 184.02 101.655 183.937 101.775C183.561 102.341 183.396 103.114 183.446 103.79C183.465 104.084 183.923 104.084 183.905 103.79Z" fill="black"/>
  <path d="M183.783 104.153C184.04 103.849 184.416 103.688 184.742 103.472C184.985 103.306 184.755 102.906 184.512 103.076C184.159 103.32 183.746 103.5 183.462 103.831C183.264 104.052 183.59 104.378 183.783 104.153Z" fill="black"/>
  <path d="M184.098 101.839C184.387 101.071 185.218 100.735 185.883 100.367C186.667 99.9345 187.323 99.1479 188.181 98.8673C188.461 98.7753 188.342 98.3291 188.057 98.4257C187.044 98.7569 186.236 99.6585 185.3 100.165C184.603 100.542 183.947 100.947 183.658 101.719C183.548 101.995 183.993 102.115 184.098 101.839Z" fill="black"/>
  <path d="M186.388 106.08C187.126 105.34 187.952 104.755 188.81 104.162C189.333 103.803 189.897 103.329 190.622 103.955C190.984 104.268 191.218 104.843 191.448 105.261C191.507 105.367 191.659 105.409 191.76 105.344C192.948 104.571 194.104 103.817 195.177 102.888C195.921 102.244 197.223 101.324 197.485 100.321C197.558 100.036 197.118 99.9116 197.045 100.197C196.916 100.698 196.361 101.094 196.017 101.453C195.549 101.936 195.058 102.386 194.549 102.828C193.613 103.642 192.563 104.277 191.53 104.949C191.636 104.976 191.741 105.004 191.842 105.031C191.471 104.355 190.833 102.934 189.819 103.164C188.443 103.477 187.035 104.783 186.062 105.758C185.856 105.965 186.181 106.292 186.388 106.08Z" fill="black"/>
  <path d="M195.2 97.7778C195.374 97.8606 195.269 98.27 195.214 98.385C195.103 98.615 194.897 98.7944 194.723 98.9692C194.512 99.1808 194.837 99.5028 195.048 99.2958C195.342 99.0014 195.677 98.6794 195.736 98.247C195.778 97.948 195.741 97.5248 195.434 97.3822C195.163 97.258 194.934 97.6536 195.2 97.7778Z" fill="black"/>
  <path d="M185.654 106.232C185.452 107.998 184.718 109.659 184.319 111.388C183.971 112.893 183.975 114.42 184.282 115.929C184.617 117.571 185.053 119.176 185.351 120.828C185.663 122.562 186.021 124.287 186.581 125.961C186.677 126.242 187.118 126.122 187.021 125.837C185.971 122.714 185.608 119.392 184.815 116.2C184.351 114.342 184.475 112.557 184.957 110.717C185.351 109.217 185.934 107.782 186.113 106.232C186.145 105.937 185.686 105.942 185.654 106.232Z" fill="black"/>
  <path d="M190.099 104.797C188.521 107.999 187.392 111.292 187.36 114.899C187.342 116.826 187.855 118.675 188.319 120.529C188.553 121.463 188.722 122.42 188.933 123.363C189.135 124.264 189.447 125.207 189.443 126.132C189.443 126.431 189.901 126.426 189.901 126.132C189.911 124.669 189.355 123.119 189.034 121.702C188.585 119.738 188.002 117.765 187.851 115.745C187.566 111.978 188.865 108.353 190.502 105.032C190.626 104.76 190.232 104.53 190.099 104.797Z" fill="#582EFF"/>
  <path d="M194.057 103.703C193.259 105.299 192.722 107.019 192.154 108.707C191.516 110.603 190.952 112.516 190.892 114.522C190.837 116.284 191.218 118.05 191.566 119.766C191.988 121.822 192.663 124.021 192.649 126.128C192.649 126.422 193.108 126.422 193.108 126.128C193.117 124.481 192.631 122.889 192.337 121.279C191.975 119.297 191.479 117.351 191.365 115.331C191.25 113.363 191.759 111.495 192.337 109.637C192.934 107.718 193.557 105.736 194.457 103.937C194.585 103.67 194.191 103.436 194.057 103.703Z" fill="#582EFF"/>
  <path d="M198.128 101.863C197.091 103.643 196.481 105.612 195.783 107.539C195.022 109.641 194.453 111.835 194.136 114.048C193.843 116.109 194.127 118.087 194.618 120.092C195.123 122.149 195.462 124.329 196.173 126.325C196.274 126.601 196.715 126.482 196.614 126.201C195.99 124.453 195.76 122.595 195.279 120.805C194.641 118.455 194.292 116.182 194.641 113.754C194.916 111.812 195.476 109.913 196.091 108.059C196.76 106.035 197.449 103.946 198.522 102.097C198.673 101.84 198.279 101.605 198.128 101.863Z" fill="#582EFF"/>
  <path d="M197.475 111.982C197.044 114.116 196.92 116.232 197.324 118.385C197.576 119.747 197.718 121.131 197.865 122.511C197.98 123.592 198.255 124.765 198.232 125.846C198.228 126.145 198.686 126.141 198.691 125.846C198.709 124.876 198.466 123.896 198.365 122.93C198.26 121.932 198.159 120.929 198.021 119.935C197.851 118.707 197.585 117.493 197.517 116.251C197.443 114.861 197.64 113.463 197.911 112.106C197.975 111.812 197.535 111.687 197.475 111.982Z" fill="#582EFF"/>
  <path d="M199.358 114.512C199.803 118.049 199.614 121.619 199.789 125.17C199.803 125.465 200.261 125.465 200.248 125.17C200.069 121.614 200.257 118.049 199.816 114.512C199.784 114.222 199.321 114.218 199.358 114.512Z" fill="#582EFF"/>
  <path d="M196.926 107.731C198.839 110.763 201.702 112.985 203.486 116.122C204.491 117.884 205.248 119.751 205.826 121.697C206.083 122.566 206.317 123.436 206.587 124.301C206.808 125.004 207.34 126.081 207.276 126.821C207.248 127.116 207.707 127.116 207.734 126.821C207.78 126.269 207.514 125.768 207.326 125.267C206.977 124.342 206.743 123.307 206.487 122.35C205.991 120.501 205.34 118.698 204.477 116.987C203.638 115.321 202.642 113.803 201.417 112.4C200.013 110.79 198.472 109.323 197.321 107.501C197.165 107.248 196.765 107.478 196.926 107.731Z" fill="#582EFF"/>
  <path d="M197.613 105.317C198.802 106.922 200.091 108.445 201.238 110.087C202.485 111.881 203.6 113.712 204.756 115.566C205.908 117.41 207 119.14 207.697 121.219C208.046 122.263 208.344 123.326 208.692 124.375C208.803 124.701 209.647 126.44 209.491 126.762C209.362 127.029 209.757 127.259 209.885 126.992C210.069 126.615 209.94 126.311 209.78 125.943C209.321 124.881 208.981 123.781 208.633 122.677C207.954 120.529 207.215 118.593 206.013 116.674C204.793 114.738 203.687 112.732 202.357 110.865C200.958 108.896 199.453 107.024 198.013 105.082C197.834 104.848 197.435 105.078 197.613 105.317Z" fill="#582EFF"/>
  <path d="M198.967 103.578C201.899 107.097 204.394 110.957 207.138 114.618C208.5 116.44 209.39 118.192 209.931 120.414C210.464 122.595 211.009 124.821 211.289 127.047C211.432 127.011 211.574 126.969 211.716 126.932C211.624 126.804 211.56 126.776 211.404 126.762C211.11 126.735 211.11 127.195 211.404 127.222C211.376 127.204 211.349 127.185 211.321 127.167C211.436 127.328 211.78 127.3 211.748 127.052C211.477 124.904 210.936 122.802 210.468 120.69C209.964 118.413 209.156 116.559 207.766 114.692C204.936 110.892 202.334 106.899 199.297 103.261C199.1 103.026 198.779 103.353 198.967 103.578Z" fill="#582EFF"/>
  <path d="M184.823 104.852C183.085 107.874 182.337 111.435 182.36 114.889C182.374 116.807 182.663 118.721 182.975 120.607C183.254 122.318 183.291 124.223 183.938 125.842C184.025 126.063 184.415 126.058 184.388 125.782C184.374 125.626 184.346 125.561 184.218 125.469C183.975 125.294 183.75 125.695 183.988 125.865C183.97 125.837 183.952 125.81 183.933 125.782C184.085 125.764 184.232 125.741 184.383 125.722C183.828 124.333 183.819 122.797 183.562 121.334C183.236 119.489 182.961 117.635 182.851 115.763C182.631 112.12 183.387 108.265 185.218 105.082C185.369 104.829 184.975 104.594 184.823 104.852Z" fill="#582EFF"/>
  <path d="M169.308 102.602C171.68 103.081 174.231 103.159 176.644 103.338C177.901 103.435 179.153 103.522 180.41 103.665C180.814 103.711 181.631 103.913 181.979 103.633C182.209 103.449 181.883 103.122 181.654 103.306C181.443 103.476 180.039 103.159 179.75 103.122C178.575 102.975 177.383 102.929 176.199 102.842C173.979 102.676 171.611 102.598 169.432 102.156C169.139 102.101 169.019 102.543 169.308 102.602Z" fill="#582EFF"/>
  <path d="M168.679 104.245C170.468 105.041 172.477 105.151 174.381 105.505C175.514 105.717 176.661 105.791 177.794 106.007C178.721 106.182 179.726 106.324 180.666 106.292C180.96 106.283 180.964 105.823 180.666 105.832C178.79 105.896 176.739 105.432 174.89 105.133C172.927 104.815 170.748 104.664 168.913 103.849C168.642 103.73 168.408 104.125 168.679 104.245Z" fill="#582EFF"/>
  <path d="M168.217 105.938C170.066 106.66 171.988 107.239 173.901 107.778C174.869 108.054 175.814 108.412 176.768 108.73C177.695 109.038 178.695 109.162 179.576 109.595C179.842 109.723 180.071 109.328 179.805 109.199C179.135 108.868 178.438 108.739 177.722 108.541C176.608 108.238 175.525 107.814 174.429 107.46C172.396 106.802 170.332 106.273 168.341 105.496C168.066 105.386 167.946 105.832 168.217 105.938Z" fill="#582EFF"/>
  <path d="M182.154 105.602C182.118 106.734 181.664 107.925 181.475 109.048C181.283 110.193 181.104 111.362 180.842 112.498C180.778 112.788 181.218 112.907 181.283 112.622C181.572 111.352 181.764 110.046 181.985 108.763C182.164 107.714 182.576 106.66 182.613 105.602C182.627 105.303 182.168 105.308 182.154 105.602Z" fill="black"/>
  <path d="M198.623 103.137C196.829 105.248 195.926 108.39 196.917 111.058C198.137 114.347 201.399 116.431 202.752 119.692C202.862 119.963 203.307 119.844 203.192 119.568C202.101 116.932 199.999 115.014 198.371 112.732C196.316 109.853 196.678 106.131 198.949 103.459C199.137 103.238 198.816 102.911 198.623 103.137Z" fill="black"/>
  <path d="M182.043 115.087C183.3 115.165 184.369 115.86 185.484 116.38C186.833 117.01 188.209 117.576 189.558 118.22C189.824 118.348 190.058 117.948 189.787 117.824C188.347 117.134 186.874 116.522 185.429 115.851C184.319 115.331 183.3 114.71 182.048 114.632C181.745 114.609 181.745 115.069 182.043 115.087Z" fill="black"/>
  <path d="M184.044 116.748C184.989 117.056 185.742 117.727 186.627 118.16C186.893 118.289 187.123 117.893 186.856 117.764C185.934 117.313 185.154 116.623 184.164 116.301C183.884 116.214 183.764 116.656 184.044 116.748Z" fill="black"/>
  <path d="M186.512 107.842C186.493 107.842 186.475 107.842 186.457 107.842C186.163 107.842 186.163 108.302 186.457 108.302C186.475 108.302 186.493 108.302 186.512 108.302C186.81 108.302 186.81 107.842 186.512 107.842Z" fill="#582EFF"/>
  <path d="M185.539 111.237C185.832 111.237 185.832 110.777 185.539 110.777C185.245 110.777 185.245 111.237 185.539 111.237Z" fill="#582EFF"/>
  <path d="M185.255 114.687C185.548 114.687 185.548 114.227 185.255 114.227C184.957 114.227 184.957 114.687 185.255 114.687Z" fill="#582EFF"/>
  <path d="M186.228 120.092C186.522 120.092 186.522 119.632 186.228 119.632C185.934 119.632 185.934 120.092 186.228 120.092Z" fill="#582EFF"/>
  <path d="M186.97 123.367C187.264 123.367 187.264 122.907 186.97 122.907C186.677 122.907 186.677 123.367 186.97 123.367Z" fill="#582EFF"/>
  <path d="M187.603 125.667C187.897 125.667 187.897 125.207 187.603 125.207C187.309 125.207 187.309 125.667 187.603 125.667Z" fill="#582EFF"/>
  <path d="M165.547 105.372C164.629 104.374 156.564 93.182 155.913 92.3402C155.261 91.4984 153.045 90.5002 152.435 89.7734C151.825 89.0466 151.554 87.6666 151.669 87.4734C151.784 87.2802 152.165 86.4384 152.165 86.4384C151.009 84.833 149.421 83.0114 149.495 82.2064C149.545 81.6728 151.935 83.6784 153.004 85.017C154.495 85.017 156.179 85.362 156.752 86.627C157.326 87.892 157.555 89.3502 158.436 90.3852C159.317 91.4202 168.836 100.427 168.873 100.542C168.909 100.657 165.547 105.372 165.547 105.372Z" fill="#A66537"/>
  <path d="M169.828 100.427C169.561 100.234 169.217 100.16 168.988 99.9668C168.08 100.542 167.144 102.313 166.3 103.504C165.956 104.001 165.208 104.921 165.327 105.574C165.497 106.416 166.249 106.743 166.428 107.097C166.809 107.75 167.231 108.21 167.919 108.555C167.919 108.288 167.997 108.017 168.034 107.75C168.071 107.52 167.997 107.253 168.034 107.023C168.071 106.448 168.185 105.91 168.226 105.298C168.304 104.226 168.571 102.998 169.029 102C169.259 101.577 169.681 100.965 169.754 100.62" fill="#582EFF"/>
  <path d="M169.941 100.229C169.662 100.068 169.373 99.9393 169.102 99.7691C169.038 99.7277 168.932 99.7231 168.873 99.7691C168.088 100.335 167.561 101.172 167.038 101.973C166.473 102.837 165.657 103.744 165.276 104.705C164.964 105.492 165.147 106.071 165.716 106.683C166.404 107.428 166.895 108.247 167.808 108.753C167.973 108.845 168.134 108.725 168.152 108.555C168.304 107.125 168.359 105.676 168.593 104.25C168.712 103.514 168.941 102.801 169.23 102.12C169.446 101.623 169.799 101.204 169.978 100.685C170.074 100.404 169.634 100.284 169.538 100.56C169.322 101.172 168.891 101.674 168.666 102.281C168.395 103.008 168.212 103.739 168.088 104.503C167.872 105.841 167.84 107.207 167.694 108.555C167.808 108.491 167.923 108.422 168.038 108.357C167.294 107.943 167.056 107.378 166.501 106.803C166.244 106.536 165.969 106.306 165.748 106.002C165.253 105.321 165.831 104.595 166.193 104.061C166.68 103.348 167.157 102.63 167.629 101.908C167.918 101.467 168.226 101.043 168.57 100.643C168.969 100.183 169.272 100.367 169.721 100.62C169.969 100.772 170.198 100.372 169.941 100.229Z" fill="#582EFF"/>
  <path d="M151.638 86.0751C151.987 86.9031 152.808 87.4689 153.051 88.3383C153.133 88.6235 153.574 88.5039 153.491 88.2141C153.239 87.3263 152.427 86.7881 152.078 85.9509C151.968 85.6841 151.523 85.7991 151.638 86.0751Z" fill="black"/>
  <path d="M152.821 88.6967C152.926 88.4667 152.995 88.2229 153.128 88.0067C153.284 87.7537 152.889 87.5237 152.733 87.7767C152.6 87.9929 152.536 88.2367 152.426 88.4667C152.302 88.7335 152.697 88.9635 152.821 88.6967Z" fill="black"/>
  <path d="M152.692 85.0947C153.105 85.6513 153.71 86.0239 154.105 86.5897C154.275 86.8289 154.669 86.6035 154.499 86.3597C154.1 85.7893 153.499 85.4213 153.086 84.8647C152.912 84.6255 152.518 84.8555 152.692 85.0947Z" fill="black"/>
  <path d="M154.343 85.3668C154.898 85.629 155.192 86.25 155.559 86.71C155.742 86.94 156.068 86.6134 155.884 86.3834C155.485 85.8866 155.178 85.2518 154.577 84.9666C154.306 84.847 154.072 85.2426 154.343 85.3668Z" fill="black"/>
  <path d="M155.752 85.859C155.867 86.089 155.963 86.3236 156.073 86.5536C156.174 86.7606 156.279 87.0366 156.481 87.1654C156.729 87.3263 156.958 86.9262 156.711 86.7698C156.637 86.7238 156.504 86.3972 156.44 86.2684C156.339 86.0568 156.247 85.836 156.142 85.6244C156.018 85.3622 155.624 85.5968 155.752 85.859Z" fill="black"/>
  <path d="M198.93 129.062C200.068 130.824 200.65 132.898 201.288 134.876C201.646 135.976 201.976 137.084 202.238 138.211C202.439 139.09 202.728 140.295 202.462 141.188C202.38 141.473 202.82 141.592 202.903 141.312C203.128 140.562 202.944 139.766 202.852 139.007C202.696 137.701 202.256 136.408 201.861 135.162C201.182 133.013 200.554 130.736 199.324 128.827C199.169 128.584 198.769 128.814 198.93 129.062Z" fill="black"/>
  <path d="M218.62 155.457C218.845 153.893 219.455 149.168 219.455 146.27C219.45 143.372 219.409 142.176 219.106 142.084C218.804 141.997 211.032 141.408 206.963 141.394C202.899 141.376 200.238 141.054 200.109 141.477C199.985 141.9 199.802 146.983 199.673 148.989C199.545 150.99 199.352 153.437 199.348 153.897C199.343 154.357 199.215 154.583 200.192 154.606C201.169 154.629 206.078 155.355 209.495 155.576C212.913 155.797 216.221 155.802 216.877 155.797C217.537 155.797 218.556 155.898 218.62 155.457Z" fill="#31C5A1"/>
  <path d="M217.413 153.888C217.542 152.857 217.652 147.54 217.803 145.98C217.955 144.421 217.812 143.395 217.62 143.294C217.432 143.193 210.858 142.963 207.642 142.862C204.426 142.76 202.944 142.618 202.885 142.825C202.825 143.027 202.238 151.592 202.288 152.319C202.339 153.046 202.233 153.106 202.944 153.225C203.655 153.35 214 154.132 215.055 154.132C216.115 154.127 217.345 154.27 217.413 153.888Z" fill="white"/>
  <path d="M201.206 151.054C201.991 151.114 203.5 151.731 203.886 149.642C204.271 147.549 204.285 146.27 203.679 145.764C203.074 145.258 201.5 145.355 201.372 145.576C201.239 145.801 201.055 148.216 201.005 148.727C200.954 149.233 200.757 151.018 201.206 151.054Z" fill="#4C8491"/>
  <path d="M201.292 149.684C200.925 149.969 199.489 150.599 199.306 150.631C199.122 150.663 198.916 150.47 199.017 149.757C199.118 149.04 199.228 147.034 199.278 146.629C199.329 146.229 199.361 145.599 199.966 146.087C200.567 146.574 201.499 146.979 201.499 146.979L201.256 149.582" fill="#4C8491"/>
  <path d="M206.986 141.058C207.138 141.978 206.872 145.332 207.041 147.144C208.133 150.019 209.202 146.703 209.62 145.129C209.647 146.394 209.675 147.245 210.023 147.172C210.367 147.094 211.037 142.057 210.844 141.022C210.39 139.412 206.986 141.058 206.986 141.058Z" fill="#A66537"/>
  <path d="M207.991 142.567C208.001 143.478 207.826 144.371 207.675 145.263C207.569 145.879 207.519 146.68 207.143 147.195C206.968 147.434 207.368 147.664 207.537 147.425C207.946 146.864 208.001 146.045 208.115 145.383C208.276 144.449 208.459 143.515 208.45 142.567C208.446 142.273 207.987 142.273 207.991 142.567Z" fill="black"/>
  <path d="M208.858 142.977C208.817 144.453 208.326 145.838 208.101 147.287C208.055 147.577 208.5 147.701 208.541 147.411C208.771 145.925 209.271 144.495 209.312 142.981C209.326 142.678 208.867 142.678 208.858 142.977Z" fill="black"/>
  <path d="M209.803 142.945C209.565 143.764 209.656 144.675 209.344 145.475C209.239 145.751 209.679 145.871 209.785 145.599C210.097 144.799 210.005 143.884 210.244 143.069C210.331 142.78 209.886 142.66 209.803 142.945Z" fill="black"/>
  <path d="M206.725 140.392C206.803 140.769 206.835 141.201 206.725 141.574C206.643 141.859 207.083 141.979 207.166 141.698C207.299 141.243 207.262 140.732 207.166 140.272C207.11 139.978 206.665 140.102 206.725 140.392Z" fill="black"/>
  <path d="M188.414 126.932C188.034 128.413 188.116 129.954 188.103 131.472C188.089 133.266 188.226 135.093 188.346 136.882C188.359 137.071 188.529 137.153 188.69 137.08C189.226 136.845 189.58 136.284 190.052 135.93C190.355 135.704 190.355 135.254 190.392 134.918C190.493 134.035 190.35 133.092 190.355 132.199C190.364 131.238 190.534 130.304 190.58 129.347C190.594 129.053 190.135 129.053 190.121 129.347C190.057 130.709 189.869 132.029 189.901 133.404C189.915 133.97 190.176 135.263 189.635 135.668C189.236 135.967 188.915 136.477 188.456 136.68C188.57 136.744 188.685 136.813 188.8 136.877C188.694 135.346 188.625 133.809 188.57 132.277C188.506 130.575 188.424 128.703 188.85 127.047C188.928 126.767 188.488 126.642 188.414 126.932Z" fill="black"/>
  <path d="M185.135 129.168C187.626 129.858 190.241 129.67 192.792 129.532C194.219 129.458 195.646 129.338 197.063 129.15C198.265 128.989 199.384 128.602 200.568 128.363C200.857 128.303 200.733 127.862 200.444 127.922C199.16 128.184 197.948 128.575 196.636 128.75C195.361 128.92 194.077 129.003 192.792 129.076C190.287 129.219 187.704 129.407 185.255 128.727C184.97 128.644 184.851 129.09 185.135 129.168Z" fill="black"/>
  <path d="M185.942 127.365C185.956 127.36 185.965 127.356 185.979 127.351C185.901 127.351 185.823 127.351 185.75 127.351C185.686 127.213 185.649 127.204 185.644 127.314C185.63 127.365 185.617 127.42 185.603 127.47C185.575 127.581 185.553 127.687 185.543 127.797C185.507 128.239 185.488 128.676 185.488 129.122C185.488 129.416 185.947 129.416 185.947 129.122C185.947 128.552 185.952 127.99 186.089 127.438C186.158 127.158 186.071 126.817 185.718 126.969C185.438 127.079 185.672 127.48 185.942 127.365Z" fill="black"/>
  <path d="M194.201 127.452C194.201 127.99 194.201 128.524 194.201 129.062C194.201 129.356 194.66 129.356 194.66 129.062C194.66 128.524 194.66 127.99 194.66 127.452C194.66 127.153 194.201 127.153 194.201 127.452Z" fill="black"/>
  <path d="M195.582 129.582C196.095 132.062 197.733 136.202 200.963 134.72C201.096 134.661 201.114 134.449 201.009 134.357C200.912 134.274 200.857 134.247 200.733 134.233C200.44 134.196 200.444 134.656 200.733 134.693C200.72 134.688 200.701 134.688 200.688 134.684C200.701 134.564 200.72 134.444 200.733 134.32C197.852 135.64 196.462 131.574 196.022 129.453C195.967 129.168 195.522 129.292 195.582 129.582Z" fill="black"/>
  <path d="M195.059 129.752C195.109 131.293 195.577 133.087 196.577 134.301C197.697 135.663 199.316 135.852 200.967 135.493C201.256 135.428 201.133 134.987 200.844 135.051C199.114 135.424 197.605 135.106 196.628 133.57C195.926 132.466 195.559 131.054 195.517 129.757C195.508 129.453 195.05 129.453 195.059 129.752Z" fill="black"/>
  <path d="M187.379 141.473C187.957 141.39 188.521 141.477 189.095 141.537C189.811 141.615 190.508 141.496 191.214 141.703C191.499 141.785 191.618 141.339 191.338 141.261C190.696 141.072 190.045 141.105 189.379 141.095C188.659 141.086 187.98 140.925 187.26 141.031C186.966 141.072 187.09 141.514 187.379 141.473Z" fill="black"/>
  <path d="M187.837 142.623C188.594 142.458 189.356 142.407 190.126 142.402C190.42 142.402 190.42 141.942 190.126 141.942C189.314 141.947 188.507 142.007 187.713 142.182C187.424 142.241 187.548 142.688 187.837 142.623Z" fill="black"/>
  <path d="M191.961 143.207C192.044 144.716 192.773 146.11 193.228 147.536C193.792 149.307 194.127 151.137 194.609 152.931C194.687 153.217 195.127 153.097 195.049 152.807C194.604 151.147 194.278 149.458 193.792 147.812C193.347 146.303 192.507 144.794 192.42 143.207C192.402 142.913 191.943 142.908 191.961 143.207Z" fill="black"/>
  <path d="M203.316 155.167C203.311 157.112 203.174 159.1 203.568 161.013C204.013 163.166 205.073 165.268 205.88 167.306C207.215 170.673 208.371 174.008 208.945 177.596C208.991 177.891 209.436 177.766 209.385 177.472C208.835 174.027 207.748 170.82 206.477 167.577C205.711 165.627 204.853 163.686 204.22 161.685C203.559 159.601 203.766 157.324 203.775 155.167C203.775 154.868 203.316 154.868 203.316 155.167Z" fill="black"/>
  <path d="M193.108 147.862C193.104 148.524 192.897 149.154 192.856 149.812C192.81 150.53 192.81 151.243 192.746 151.965C192.622 153.423 192.548 154.881 192.461 156.344C192.287 159.205 192.03 162.039 192.434 164.891C192.856 167.876 193.787 170.756 194.039 173.764C194.163 175.223 194.094 176.713 194.049 178.176C194.012 179.284 193.631 180.402 193.865 181.506C193.925 181.796 194.37 181.672 194.305 181.382C194.062 180.223 194.48 178.903 194.516 177.72C194.562 176.267 194.581 174.804 194.461 173.355C194.241 170.728 193.48 168.171 193.007 165.581C192.475 162.651 192.7 159.725 192.892 156.777C192.989 155.318 193.053 153.86 193.168 152.407C193.227 151.68 193.301 150.958 193.31 150.231C193.315 149.426 193.562 148.667 193.567 147.866C193.571 147.567 193.113 147.567 193.108 147.862Z" fill="black"/>
  <path d="M188.025 200.937C188.714 200.9 189.86 201.82 189.897 202.625C192.269 201.36 194.563 200.288 194.563 200.288C194.985 202.013 195.205 203.209 193.953 203.545C192.072 204.051 186.19 204.847 184.777 205.04C183.364 205.233 180.153 205.463 182.484 204.35C184.814 203.237 186.117 202.97 186.764 202.395C187.411 201.82 188.025 200.937 188.025 200.937Z" fill="#582EFF"/>
  <path d="M208.487 199.198C209.01 198.748 210.478 198.784 210.996 199.401C212.115 196.954 213.29 194.704 213.29 194.704C214.666 195.817 215.565 196.636 214.776 197.667C213.583 199.212 211.079 203.104 209.817 203.775C206.642 205.463 203.413 205.151 205.688 203.927C207.831 202.777 208.198 201.977 208.367 201.121C208.532 200.27 208.487 199.198 208.487 199.198Z" fill="#582EFF"/>
  <path d="M187.576 182.509C188.645 182.739 194.132 182.5 195.32 181.962C195.513 182.615 195.504 184.11 195.462 184.377C195.426 184.644 190.131 185.297 188.026 185.104C187.567 185.03 187.576 182.509 187.576 182.509Z" fill="#4C8491"/>
  <path d="M203.838 180.094C204.93 180.035 209.715 178.535 210.719 177.707C211.072 178.287 211.453 179.69 211.485 179.961C211.517 180.228 206.847 182.137 204.765 182.505C204.306 182.551 203.838 180.094 203.838 180.094Z" fill="#4C8491"/>
  <path d="M189.204 127.755C189.094 127.99 189.002 128.293 189.222 128.491C189.397 128.648 189.617 128.569 189.732 128.39C189.938 128.059 189.723 127.488 189.282 127.751C189.03 127.902 189.259 128.298 189.511 128.146C189.626 128.077 189.365 128.132 189.355 128.036C189.36 128.082 189.355 128.096 189.342 128.142C189.337 128.151 189.323 128.165 189.355 128.142C189.42 128.165 189.484 128.165 189.544 128.142C189.553 128.091 189.571 128.036 189.594 127.99C189.723 127.723 189.328 127.488 189.204 127.755Z" fill="black"/>
  <path d="M185.737 129.421C185.342 130.493 185.172 131.62 184.915 132.733C184.791 133.267 184.599 133.966 184.236 134.38C184.177 134.449 183.626 135.074 183.704 135.111C183.434 134.996 183.2 135.392 183.475 135.507C183.92 135.695 184.493 134.918 184.668 134.582C185.498 132.991 185.571 131.215 186.182 129.545C186.282 129.265 185.842 129.145 185.737 129.421Z" fill="black"/>
  <path d="M193.339 198.407C193.33 198.982 193.164 199.502 192.912 200.017C192.784 200.284 193.178 200.514 193.307 200.247C193.596 199.658 193.784 199.065 193.797 198.407C193.802 198.108 193.343 198.108 193.339 198.407Z" fill="black"/>
  <path d="M211.752 194.042C211.912 194.433 211.967 194.828 211.972 195.247C211.977 195.541 212.435 195.546 212.431 195.247C212.426 194.792 212.366 194.345 212.192 193.922C212.087 193.646 211.642 193.766 211.752 194.042Z" fill="black"/>
  <path d="M186.511 202.943C186.878 203.067 187.139 203.403 187.506 203.541C187.8 203.651 188.231 203.573 188.424 203.315C188.607 203.067 188.506 202.773 188.327 202.556C188.061 202.239 187.603 202.156 187.259 201.949C187.006 201.797 186.772 202.193 187.029 202.345C187.13 202.405 188.277 202.883 188.038 203.062C187.804 203.242 187.493 203.044 187.3 202.906C187.084 202.75 186.892 202.589 186.635 202.501C186.35 202.4 186.231 202.846 186.511 202.943Z" fill="black"/>
  <path d="M208.421 200.615C208.912 200.38 209.504 200.624 210.027 200.587C209.949 200.509 209.875 200.436 209.797 200.357C209.825 200.587 209.705 200.813 209.683 201.047C209.761 200.969 209.834 200.896 209.912 200.817C209.38 200.882 208.866 200.988 208.361 201.172C208.435 201.3 208.508 201.429 208.586 201.558C208.572 201.563 208.554 201.563 208.54 201.567C208.829 201.53 208.834 201.07 208.54 201.107C208.416 201.121 208.357 201.149 208.265 201.231C208.095 201.379 208.274 201.691 208.49 201.618C208.953 201.448 209.43 201.342 209.921 201.282C210.054 201.264 210.137 201.19 210.15 201.052C210.173 200.808 210.293 200.61 210.265 200.362C210.251 200.242 210.169 200.123 210.036 200.132C209.403 200.173 208.802 199.93 208.201 200.219C207.921 200.348 208.155 200.744 208.421 200.615Z" fill="black"/>
  <path d="M201.178 146.8C201.04 147.77 201.178 148.828 200.898 149.767C200.811 150.052 201.256 150.172 201.338 149.891C201.623 148.943 201.485 147.899 201.618 146.924C201.659 146.634 201.215 146.51 201.178 146.8Z" fill="black"/>
  <path d="M84.7461 86.4522C85.3195 87.9472 86.0077 90.537 86.0077 90.537L90.4209 89.6722L89.7328 85.707L84.7461 86.4522Z" fill="#31C5A1"/>
  <path d="M97.2484 86.7969C97.1933 86.9717 96.9043 93.4669 96.9043 93.4669L101.088 91.8017L102.749 86.7969H97.2484Z" fill="#31C5A1"/>
  <path d="M81.939 88.1997C84.2328 88.1215 90.348 86.5115 90.348 86.5115C89.5085 82.9833 83.9254 64.8133 83.6961 64.0497C86.9853 63.2815 94.0961 63.7415 94.0961 63.7415C93.1006 67.3433 93.7887 86.0515 93.2565 88.1997C96.5458 88.2779 102.968 87.9697 102.968 87.9697C104.345 83.7515 106.102 68.2679 108.244 65.7379C110.386 63.2079 116.194 63.5897 116.194 63.5897C117.034 57.4579 116.882 50.7879 116.882 50.7879C116.882 50.7879 100.904 49.8679 96.0871 49.7161C91.2701 49.5643 77.5855 51.5561 73.1493 54.8543C68.7131 58.1525 71.3143 64.8225 74.8329 71.9525C78.3424 79.0733 81.939 88.1997 81.939 88.1997Z" fill="#582EFF"/>
  <path d="M82.2832 58.5673C83.6044 60.2371 85.4394 63.3421 86.0083 65.0671C86.5772 66.7921 88.0727 71.6819 88.7058 71.2771C88.9902 73.9221 89.5683 73.4621 89.738 73.3471C90.4261 73.8623 91.0592 73.6553 90.9996 71.9487C91.1693 70.8769 91.7657 69.6487 91.6097 67.7305C91.4583 65.8123 88.1324 57.1873 85.8386 54.1973C84.4623 54.8873 82.2832 58.5673 82.2832 58.5673Z" fill="#F7CFB2"/>
  <path d="M116.347 58.7191C116.347 60.9041 116.117 63.7423 116.117 64.1609C116.117 64.5841 120.783 65.0809 122.691 65.4627C124.604 65.8445 125.751 65.0027 122.769 64.2759C127.508 64.0091 128.504 64.0459 128.504 63.8159C128.504 63.5859 126.82 62.8591 124.067 62.8591C121.315 62.8591 121.774 61.9759 121.774 58.6041C121.774 55.2323 116.347 58.7191 116.347 58.7191Z" fill="#F7CFB2"/>
  <path d="M81.553 58.2222C81.553 58.2222 86.37 54.924 86.9067 54.8504C85.8378 52.0122 83.388 48.9486 83.466 48.1022C83.544 47.2558 89.0491 39.1322 90.118 38.2122C92.2604 44.0404 94.3248 49.0222 96.9993 49.7122C101.665 49.864 113.056 52.394 115.96 50.7104C115.96 55.3104 116.038 59.6022 116.038 59.6022L122.538 58.834C122.538 58.834 123.075 42.8122 122.69 36.2158C122.309 29.624 120.625 16.0539 103.041 19.1176C93.4853 21.1876 84.3835 23.7958 79.4932 34.1458C74.5983 44.4958 72.9926 48.4058 74.9836 50.3976C76.9655 52.394 81.553 58.2222 81.553 58.2222Z" fill="#31C5A1"/>
  <path d="M96.9039 32.1721C96.8947 32.7931 96.6791 33.9201 97.4085 34.2237C97.7526 34.3663 98.1288 33.9339 98.3352 33.7315C98.7756 33.2991 99.1518 32.8253 99.5326 32.3377C99.7115 32.1077 99.3904 31.7811 99.2069 32.0111C98.7435 32.6045 98.2526 33.3037 97.6287 33.7407C97.2984 33.9753 97.3581 32.3699 97.3627 32.1721C97.3672 31.8777 96.9085 31.8777 96.9039 32.1721Z" fill="black"/>
  <path d="M101.607 31.3949C102.244 31.8043 102.731 32.3885 103.387 32.7749C103.478 32.8301 103.588 32.8117 103.666 32.7381C104.566 31.8687 105.208 30.8521 105.809 29.7619C106.483 28.5337 107.158 27.3423 107.511 25.9761C107.873 24.5915 108.401 21.5371 106.373 21.1967C106.084 21.1507 105.96 21.5923 106.249 21.6383C107.754 21.8913 107.359 24.0625 107.208 25.1159C107.034 26.3625 106.52 27.4665 105.923 28.5567C105.355 29.6055 104.818 30.6589 104.084 31.6019C103.63 32.1907 103.492 32.3701 102.868 31.8273C102.529 31.5283 102.217 31.2339 101.836 30.9901C101.588 30.8383 101.359 31.2339 101.607 31.3949Z" fill="black"/>
  <path d="M86.6005 20.9623C86.6005 24.3341 88.0548 27.4023 90.4219 29.0123C92.7937 30.6223 93.7846 32.3841 97.0739 32.3841C100.363 32.3841 104.565 28.8559 104.565 24.4123C106.859 23.9523 107.625 19.4305 105.253 19.7341C103.34 14.5223 98.9823 9.76588 91.3395 12.7559C86.7565 15.5159 86.4491 18.1241 86.6005 20.9623Z" fill="#F7C9A8"/>
  <path d="M86.5809 22.8019C88.3013 25.1019 94.2055 25.1019 96.3295 22.7467C98.4535 20.3915 99.8252 20.1017 100.403 21.0815C100.981 22.0613 101.587 23.7863 102.848 24.3015C103.078 24.4165 103.766 23.3815 103.766 23.3815C103.023 21.8267 104.321 19.7797 105.257 19.7383C103.784 14.9865 101.091 10.6717 93.2925 11.9965C85.5487 13.3719 85.8928 20.3271 86.5809 22.8019Z" fill="black"/>
  <path d="M90.692 28.4044C91.0957 28.1652 91.5774 28.156 92.0132 28.0042C92.2931 27.9076 92.1738 27.466 91.8894 27.5626C91.4123 27.7236 90.903 27.7466 90.458 28.0088C90.2057 28.1606 90.4397 28.5562 90.692 28.4044Z" fill="black"/>
  <path d="M96.4274 26.9874C97.0192 26.7206 97.6522 26.5688 98.2991 26.5596C98.5927 26.555 98.5973 26.095 98.2991 26.0996C97.5651 26.1134 96.8632 26.2882 96.1934 26.5918C95.9273 26.7114 96.1613 27.107 96.4274 26.9874Z" fill="black"/>
  <path d="M94.559 28.3078C94.8985 29.1726 95.0637 30.0926 95.4628 30.9298C95.527 31.0678 95.7243 31.0724 95.8252 30.9758C96.2335 30.5756 96.4537 30.0558 96.7015 29.5498C96.8299 29.283 96.4354 29.053 96.3069 29.3198C96.0775 29.789 95.8803 30.2812 95.5041 30.6538C95.6234 30.6676 95.7426 30.686 95.8665 30.6998C95.4857 29.8994 95.3343 29.0116 95.0086 28.1882C94.8985 27.9122 94.4535 28.0272 94.559 28.3078Z" fill="black"/>
  <path d="M93.2618 29.4622C93.193 29.3932 93.1242 29.3196 93.0691 29.2414C93.0416 29.3472 93.0141 29.453 92.9865 29.5542C93.037 29.5312 93.2526 29.6784 93.2526 29.7014C93.3306 29.6232 93.404 29.5496 93.482 29.4714C93.3031 29.4852 93.1609 29.3426 93.0691 29.2C93.0554 29.292 93.0462 29.384 93.0324 29.4806C93.0095 29.5036 92.9865 29.476 93.06 29.499C93.0921 29.5082 93.1379 29.5358 93.1563 29.5634C93.2985 29.4944 93.3352 29.43 93.2572 29.3794C93.2343 29.361 93.2159 29.338 93.1976 29.3104C93.1792 29.2874 93.1379 29.2322 93.1334 29.2046C93.0554 29.2828 92.982 29.3564 92.904 29.4346C92.9544 29.43 92.9774 29.4438 93.0187 29.4714C93.0416 29.4852 93.0599 29.499 93.0737 29.5174C93.1563 29.5956 92.959 29.4622 93.1609 29.3932C93.1058 29.4116 92.9957 29.3012 92.9636 29.2598C92.8994 29.1724 92.826 29.3748 92.9086 29.3932C92.9728 29.4116 93.0324 29.4714 93.0783 29.5174C93.0967 29.5358 93.115 29.5588 93.1242 29.5818C93.1425 29.6416 93.1655 29.6094 93.2068 29.4806C93.1425 29.4714 93.0875 29.407 93.0645 29.3518C92.9407 29.085 92.5461 29.315 92.67 29.5818C92.7663 29.7888 93.0141 29.9544 93.2435 29.936C93.4958 29.913 93.6426 29.6738 93.5646 29.4392C93.4958 29.223 93.2802 29.0436 93.0737 28.9654C92.8948 28.8964 92.5507 28.9332 92.5094 29.177C92.4452 29.5818 92.9544 29.9498 93.326 29.821C93.8995 29.6278 93.3031 28.9424 92.9086 28.97C92.7939 28.9792 92.6654 29.0712 92.6792 29.2C92.7159 29.5542 93.2985 30.2028 93.5784 29.6738C93.8169 29.223 93.0187 28.8458 92.7067 29.154C92.6379 29.223 92.615 29.3472 92.67 29.4346C92.8489 29.706 93.1379 29.9544 93.482 29.9314C93.5967 29.9222 93.7297 29.8302 93.7114 29.7014C93.6609 29.2828 93.1379 28.9838 92.7526 29.1586C92.6471 29.2092 92.6012 29.3794 92.67 29.4714C92.748 29.5864 92.8398 29.6876 92.9361 29.7842C93.1471 29.9958 93.4728 29.6738 93.2618 29.4622Z" fill="black"/>
  <path d="M98.2345 28.1195C98.1656 28.0505 98.0968 27.9769 98.0418 27.8987C98.0142 28.0045 97.9867 28.1103 97.9592 28.2115C98.0097 28.1885 98.2253 28.3357 98.2253 28.3587C98.3033 28.2805 98.3767 28.2069 98.4547 28.1287C98.2757 28.1425 98.1335 27.9999 98.0418 27.8573C98.028 27.9493 98.0188 28.0413 98.0051 28.1379C97.9821 28.1609 97.9592 28.1333 98.0326 28.1563C98.0647 28.1655 98.1106 28.1931 98.1289 28.2207C98.2711 28.1517 98.3078 28.0873 98.2299 28.0367C98.2069 28.0183 98.1886 27.9953 98.1702 27.9677C98.1519 27.9447 98.1106 27.8895 98.106 27.8619C98.028 27.9401 97.9546 28.0137 97.8766 28.0919C97.9271 28.0873 97.95 28.1011 97.9913 28.1287C98.0143 28.1425 98.0326 28.1563 98.0464 28.1747C98.1289 28.2529 97.9317 28.1195 98.1335 28.0505C98.0785 28.0689 97.9684 27.9585 97.9363 27.9171C97.872 27.8297 97.7986 28.0321 97.8812 28.0505C97.9454 28.0689 98.0051 28.1287 98.051 28.1747C98.0693 28.1931 98.0877 28.2161 98.0968 28.2391C98.1152 28.2989 98.1381 28.2667 98.1794 28.1379C98.1152 28.1287 98.0601 28.0643 98.0372 28.0091C97.9133 27.7423 97.5188 27.9723 97.6427 28.2391C97.739 28.4461 97.9867 28.6117 98.2161 28.5933C98.4684 28.5703 98.6152 28.3311 98.5372 28.0965C98.4684 27.8803 98.2528 27.7009 98.0464 27.6227C97.8674 27.5537 97.5234 27.5905 97.4821 27.8343C97.4179 28.2391 97.9271 28.6071 98.2987 28.4783C98.8721 28.2851 98.2757 27.5997 97.8766 27.6273C97.7619 27.6365 97.6335 27.7285 97.6472 27.8573C97.6839 28.2115 98.2666 28.8601 98.5464 28.3311C98.785 27.8803 97.9867 27.5031 97.6748 27.8113C97.606 27.8803 97.583 28.0045 97.6381 28.0919C97.817 28.3633 98.106 28.6117 98.4501 28.5887C98.5648 28.5795 98.6978 28.4875 98.6794 28.3587C98.629 27.9401 98.106 27.6411 97.7207 27.8159C97.6151 27.8665 97.5693 28.0367 97.6381 28.1287C97.7161 28.2437 97.8078 28.3449 97.9041 28.4415C98.1152 28.6577 98.4409 28.3311 98.2345 28.1195Z" fill="black"/>
  <path d="M99.3708 34.3568C99.513 35.6402 100.041 36.6844 100.573 37.8344C101.311 39.426 102.018 41.0314 102.775 42.6184C103.954 45.0886 105.027 48.1476 107.28 49.8496C107.518 50.029 107.743 49.6288 107.509 49.454C105.353 47.8302 104.307 44.7482 103.169 42.3884C102.591 41.1924 102.032 39.9826 101.486 38.7682C100.843 37.3422 99.9992 35.9346 99.8249 34.3568C99.7974 34.067 99.3386 34.0624 99.3708 34.3568Z" fill="black"/>
  <path d="M89.3655 36.5464C89.6821 37.0386 89.8105 37.7056 89.9894 38.2622C90.173 38.8418 90.3473 39.4214 90.5445 39.9964C90.6409 40.2724 91.0859 40.1528 90.985 39.8722C90.7556 39.2144 90.5583 38.552 90.3473 37.8896C90.1775 37.3606 90.0583 36.781 89.7555 36.3118C89.6041 36.0634 89.205 36.2934 89.3655 36.5464Z" fill="black"/>
  <path d="M113.992 33.2067C114.047 36.8591 114.543 40.4793 115.359 44.0305C116.222 47.7703 115.465 51.5883 116.176 55.3465C116.231 55.6363 116.671 55.5121 116.616 55.2223C115.933 51.6067 116.667 47.9313 115.891 44.3295C115.098 40.6495 114.501 36.9833 114.442 33.2021C114.446 32.9123 113.988 32.9123 113.992 33.2067Z" fill="black"/>
  <path d="M94.087 64.4918C94.4999 61.9204 95.0595 59.7032 97.413 58.245C99.6471 56.8604 102.395 56.704 104.932 56.4372C105.221 56.405 105.226 55.945 104.932 55.9772C102.138 56.2716 99.3397 56.5108 96.89 58.0288C94.5962 59.4456 94.0457 61.8744 93.642 64.3722C93.5961 64.662 94.0411 64.7862 94.087 64.4918Z" fill="black"/>
  <path d="M86.8615 66.2715C87.8937 67.6147 88.38 69.5559 88.5498 71.2165C88.5819 71.5063 89.0406 71.5109 89.0085 71.2165C88.8296 69.4869 88.3387 67.4491 87.2561 66.0415C87.0817 65.8069 86.6826 66.0369 86.8615 66.2715Z" fill="black"/>
  <path d="M88.6001 66.9063C89.0589 69.0315 89.5864 71.1337 89.6231 73.3233C89.6277 73.5901 89.9947 73.6269 90.0727 73.3831C90.0864 73.3463 90.0956 73.3049 90.1094 73.2681C90.2011 72.9875 89.7607 72.8679 89.669 73.1439C89.6552 73.1807 89.6461 73.2221 89.6323 73.2589C89.7837 73.2773 89.9351 73.3003 90.0819 73.3187C90.0452 71.0923 89.5084 68.9441 89.0405 66.7775C88.9763 66.4969 88.5359 66.6165 88.6001 66.9063Z" fill="black"/>
  <path d="M89.7837 66.5983C90.0498 67.7989 90.4443 68.8615 90.5774 70.1035C90.6737 71.0051 91.004 72.2195 90.7747 73.1073C90.7013 73.3925 91.1417 73.5167 91.2151 73.2315C91.4628 72.2563 91.105 71.0971 91.0316 70.1035C90.9352 68.8155 90.4948 67.7207 90.2196 66.4787C90.1599 66.1889 89.7195 66.3131 89.7837 66.5983Z" fill="black"/>
  <path d="M90.7006 65.1446C90.8887 65.9266 91.1869 66.6442 91.3291 67.4446C91.4897 68.337 91.4943 69.2386 91.4943 70.1448C91.4943 70.4438 91.953 70.4438 91.953 70.1448C91.953 69.3214 91.9668 68.4842 91.8292 67.67C91.6732 66.75 91.3567 65.922 91.141 65.025C91.0722 64.7352 90.6318 64.8548 90.7006 65.1446Z" fill="black"/>
  <path d="M80.8652 57.9142C81.402 56.4974 84.4206 54.3492 87.4805 53.6592C88.32 54.9242 88.9347 55.651 89.2375 55.7292C85.7602 57.376 82.9663 58.986 82.0901 59.7542C81.9387 59.7956 80.8652 57.9142 80.8652 57.9142Z" fill="#0FA896"/>
  <path d="M115.658 58.3919C117.208 58.3919 122.025 58.1619 123.741 57.5869C123.97 58.2217 123.796 59.7719 123.686 60.0019C123.576 60.2319 118.41 61.2669 115.543 60.8667C115.543 60.2917 115.658 58.3919 115.658 58.3919Z" fill="#0FA896"/>
  <path d="M96.8858 89.9617C95.6242 90.0767 95.5875 90.4217 95.5462 92.2617C95.5095 94.1017 94.0186 96.1717 91.7982 98.4349C89.5824 100.698 91.5688 100.887 93.8993 99.2031C96.2298 97.5149 99.441 94.3731 99.441 94.3731C99.441 94.3731 99.4043 95.2931 99.6337 95.2563C99.8631 95.2195 101.813 93.7613 102.042 93.3013C102.272 92.8413 102.386 90.6563 102.235 89.9663C102.083 89.2763 100.248 90.2745 98.3354 91.5763C97.6886 90.2699 97.4592 89.9617 96.8858 89.9617Z" fill="#1F444D"/>
  <path d="M86.2239 88.1772C84.9715 87.9978 84.8522 88.3244 84.3935 90.1092C83.9347 91.8894 82.0079 93.5638 79.3334 95.252C76.6589 96.9402 78.5489 97.5888 81.2051 96.4802C83.8613 95.3762 87.7057 93.0578 87.7057 93.0578C87.7057 93.0578 87.458 93.9456 87.6919 93.9594C87.9213 93.9732 90.1554 93.0072 90.4857 92.6116C90.816 92.216 90.761 89.939 90.7702 89.2352C90.7793 88.5268 89.4306 89.2536 87.2699 90.0816C86.935 88.6602 86.7836 88.306 86.2239 88.1772Z" fill="#1F444D"/>
  <path d="M105.162 37.0623C106.203 37.0991 107.217 37.0071 108.24 36.8001C109.208 36.6023 110.038 36.0089 111.015 35.8479C111.309 35.8019 111.185 35.3557 110.891 35.4063C110.043 35.5443 109.286 35.9905 108.483 36.2711C107.451 36.6299 106.24 36.6437 105.162 36.6069C104.868 36.5931 104.868 37.0531 105.162 37.0623Z" fill="black"/>
  <path d="M104.94 36.9513C105.055 37.7701 105.413 38.5567 105.725 39.3157C106.009 40.0103 106.294 40.7049 106.739 41.3167C106.913 41.5513 107.312 41.3259 107.133 41.0867C106.661 40.4381 106.372 39.6975 106.069 38.9569C105.789 38.2715 105.482 37.5631 105.381 36.8317C105.339 36.5327 104.899 36.6615 104.94 36.9513Z" fill="black"/>
  <path d="M106.712 41.4001C107.428 41.8693 108.125 42.1545 108.955 42.3385C109.474 42.4535 110.18 42.6651 110.671 42.3799C110.928 42.2327 110.694 41.8325 110.442 41.9843C110.006 42.2373 109.23 41.9337 108.776 41.8325C108.102 41.6853 107.519 41.3817 106.946 41.0091C106.694 40.8389 106.464 41.2391 106.712 41.4001Z" fill="black"/>
  <path d="M110.79 35.7413C110.964 36.5371 111.244 37.2823 111.597 38.0137C111.886 38.6071 112.34 39.4259 112.455 40.0929C112.57 40.0055 112.68 39.9181 112.794 39.8353C112.776 39.8215 112.753 39.8077 112.735 39.7939C112.492 39.6237 112.262 40.0239 112.505 40.1895C112.524 40.2033 112.547 40.2171 112.565 40.2309C112.748 40.3597 112.932 40.1481 112.9 39.9733C112.813 39.4443 112.473 38.8325 112.262 38.3403C111.872 37.4341 111.45 36.5923 111.235 35.6171C111.166 35.3319 110.725 35.4515 110.79 35.7413Z" fill="black"/>
  <path d="M112.648 39.7073C112.245 40.2823 111.827 40.8113 111.327 41.3081C111.199 41.4369 111.061 41.5611 110.923 41.6807C110.836 41.7589 110.552 42.0763 110.437 42.0671C110.143 42.0441 110.143 42.5041 110.437 42.5271C110.795 42.5547 111.249 42.0119 111.478 41.7957C112.084 41.2391 112.57 40.6135 113.043 39.9419C113.213 39.6935 112.818 39.4635 112.648 39.7073Z" fill="black"/>
  <path d="M105.965 38.1246C106.653 38.6398 107.442 39.27 108.328 39.385C108.901 39.4586 109.263 39.1734 109.676 38.7962C109.997 38.5018 111.351 37.131 110.612 36.694C110.355 36.5422 110.126 36.9424 110.383 37.0896C110.52 37.1724 109.351 38.4742 109.227 38.5846C108.277 39.454 107.011 38.3362 106.199 37.7244C105.96 37.545 105.731 37.9452 105.965 38.1246Z" fill="black"/>
  <path d="M97.935 49.9971C99.2654 50.0293 100.55 50.3237 101.853 50.5629C103.192 50.8113 104.555 50.9171 105.899 51.1379C107.188 51.3495 108.491 51.6071 109.739 51.9981C110.62 52.2741 111.468 52.5501 112.395 52.4029C112.689 52.3569 112.565 51.9153 112.271 51.9613C111.129 52.1453 109.982 51.5565 108.895 51.2851C107.674 50.9769 106.44 50.7561 105.197 50.5629C103.995 50.3743 102.779 50.2731 101.582 50.0477C100.366 49.8223 99.1783 49.5647 97.935 49.5371C97.6414 49.5325 97.6414 49.9925 97.935 49.9971Z" fill="black"/>
  <path d="M105.565 51.0319C106.24 51.0549 106.85 51.3447 107.515 51.4275C108.327 51.5241 109.157 51.5333 109.979 51.5655C110.745 51.5931 111.515 51.4551 112.282 51.4183C112.906 51.3907 113.502 51.4275 114.117 51.3125C114.406 51.2573 114.282 50.8157 113.993 50.8709C112.731 51.1055 111.263 51.0871 109.979 51.1101C109.295 51.1239 108.602 51.0457 107.919 51.0043C107.107 50.9537 106.373 50.6041 105.565 50.5765C105.267 50.5627 105.267 51.0227 105.565 51.0319Z" fill="black"/>
  <path d="M98.157 63.9853C97.6753 67.5733 97.478 71.1981 97.2303 74.8045C96.9872 78.3097 96.5422 81.8517 96.4688 85.3615C96.4642 85.6605 96.923 85.6559 96.9275 85.3615C97.0009 82.0035 97.423 78.6087 97.657 75.2553C97.9139 71.5385 98.1065 67.8033 98.602 64.1095C98.6387 63.8197 98.1937 63.6955 98.157 63.9853Z" fill="black"/>
  <path d="M82.9391 61.1983C83.1823 62.3575 83.5401 63.4891 83.7787 64.6483C83.8383 64.9381 84.2833 64.8139 84.2191 64.5241C83.9759 63.3649 83.6181 62.2333 83.3795 61.0741C83.3199 60.7843 82.8795 60.9085 82.9391 61.1983Z" fill="black"/>
  <path d="M74.6306 67.2286C76.1216 70.444 77.7639 73.5858 79.2411 76.8104C79.9981 78.4618 80.6862 80.1454 81.2963 81.8566C81.5303 82.519 81.7413 83.1814 82.0212 83.8254C82.2689 84.3958 82.6588 85.026 82.7552 85.6562C82.8515 85.5596 82.9432 85.4676 83.035 85.371C83.0212 85.3664 83.0075 85.3664 82.9937 85.3618C82.7047 85.3112 82.5808 85.7574 82.8699 85.8034C82.8836 85.808 82.8974 85.808 82.9111 85.8126C83.0946 85.8448 83.2231 85.7114 83.1956 85.5274C83.1359 85.1318 82.9203 84.7408 82.7643 84.3774C82.3973 83.4988 82.0441 82.634 81.7321 81.7278C81.1725 80.104 80.5073 78.5216 79.8054 76.9576C78.3052 73.5904 76.5758 70.3336 75.0206 66.9894C74.9013 66.7318 74.5022 66.9618 74.6306 67.2286Z" fill="black"/>
  <path d="M81.1821 57.7069C81.4023 56.7915 82.8336 56.1659 83.5722 55.6829C84.6503 54.9791 85.8476 54.6663 86.9854 54.1051C87.2514 53.9763 87.0175 53.5761 86.756 53.7095C86.0908 54.0361 85.343 54.1741 84.6916 54.5145C83.9942 54.8779 83.3428 55.2919 82.6914 55.7243C81.9849 56.1935 80.9619 56.6811 80.7416 57.5827C80.6728 57.8725 81.1132 57.9967 81.1821 57.7069Z" fill="black"/>
  <path d="M83.4304 48.2487C82.0312 47.4253 80.5219 46.9285 78.8979 46.8365C78.6043 46.8181 78.6043 47.2781 78.8979 47.2965C80.4394 47.3839 81.8707 47.8623 83.1965 48.6443C83.4534 48.7961 83.6828 48.3959 83.4304 48.2487Z" fill="black"/>
  </svg>
