<svg width="100%" height="100%"  viewBox="0 0 445 291" fill="none" xmlns="http://www.w3.org/2000/svg">
<g opacity="0.4">
<g opacity="0.8">
<rect x="51.6631" y="133.647" width="28" height="94" rx="0.564382" fill="#CDCDCD"/>
</g>
</g>
<g opacity="0.4">
<g opacity="0.8">
<rect x="84.3184" y="122.519" width="28" height="105" rx="0.564382" fill="#CDCDCD"/>
</g>
</g>
<g opacity="0.4">
<g opacity="0.8">
<rect x="116.978" y="128.659" width="28" height="99" rx="0.564382" fill="#CDCDCD"/>
</g>
</g>
<rect x="149.636" y="107.938" width="28" height="120" rx="0.564382" fill="#2AA79F"/>
<rect x="182.297" y="84.5293" width="28" height="143" rx="0.564382" fill="#2AA79F"/>
<g opacity="0.4">
<g opacity="0.8">
<rect x="214.955" y="57.2852" width="28" height="170" rx="0.564382" fill="#CDCDCD"/>
</g>
</g>
<rect x="410.893" y="29.9434" width="26.6709" height="156.398" fill="white"/>
<rect x="411.143" y="30.1934" width="26" height="156" rx="0.564382" fill="white"/>
<rect x="411.143" y="30.1934" width="26" height="156" rx="0.564382" fill="white"/>
<rect x="410.893" y="29.9434" width="26.6709" height="156.398" stroke="black" stroke-width="0.5" stroke-dasharray="2 2"/>
<rect x="248.009" y="52.458" width="25.9593" height="175.207" fill="white"/>
<rect width="25" height="175" transform="translate(248.259 52.708)" fill="white"/>
<rect x="248.259" y="52.708" width="25" height="175" rx="0.564382" fill="white"/>
<rect x="248.009" y="52.458" width="25.9593" height="175.207" stroke="black" stroke-width="0.5" stroke-dasharray="2 2"/>
<rect x="280.109" y="48.0068" width="28.1732" height="165.192" fill="white"/>
<rect x="280.359" y="48.2568" width="28" height="165" rx="0.564382" fill="white"/>
<rect x="280.109" y="48.0068" width="28.1732" height="165.192" stroke="black" stroke-width="0.5" stroke-dasharray="2 2"/>
<rect x="312.21" y="48.0068" width="28.1732" height="165.192" fill="white"/>
<rect x="314.46" y="48.2568" width="26" height="165" rx="0.564382" fill="white"/>
<rect x="312.21" y="48.0068" width="28.1732" height="165.192" stroke="black" stroke-width="0.5" stroke-dasharray="2 2"/>
<rect x="346.525" y="48.0068" width="25.9593" height="165.192" fill="white"/>
<rect x="346.775" y="48.2568" width="25" height="165" rx="0.564382" fill="white"/>
<rect x="346.525" y="48.0068" width="25.9593" height="165.192" stroke="black" stroke-width="0.5" stroke-dasharray="2 2"/>
<rect x="378.625" y="39.1045" width="27.0662" height="165.192" fill="white"/>
<rect x="378.875" y="39.3545" width="27" height="165" rx="0.564382" fill="white"/>
<rect x="378.625" y="39.1045" width="27.0662" height="165.192" stroke="black" stroke-width="0.5" stroke-dasharray="2 2"/>
<rect x="51.5811" y="133.358" width="28" height="94" rx="0.564382" fill="#2AA79F"/>
<rect x="83.9287" y="122.663" width="28" height="105" rx="0.564382" fill="#2AA79F"/>
<rect x="117.126" y="115.856" width="28" height="112" rx="0.564382" fill="#2AA79F"/>
<rect x="215.021" y="57.5186" width="28" height="170" rx="0.564382" fill="#2AA79F"/>
<rect width="28" height="145" transform="translate(345.66 82.0674)" fill="#2AA79F"/>
<rect x="345.66" y="82.0674" width="28" height="145" rx="0.564382" fill="#2AA79F"/>
<rect width="27.9929" height="155.301" transform="translate(378.242 72.3701)" fill="#2AA79F"/>
<rect x="378.242" y="72.3701" width="28" height="155" rx="0.564382" fill="#2AA79F"/>
<rect width="27.9929" height="164.319" transform="translate(410.9 63.3525)" fill="#2AA79F"/>
<g opacity="0.8">
<rect x="410.9" y="63.3525" width="28" height="164" rx="0.564382" fill="#2AA79F"/>
</g>
<g opacity="0.8">
<rect x="247.367" y="115.856" width="28" height="112" rx="0.564382" fill="#2AA79F"/>
</g>
<rect x="280.359" y="87.2041" width="29" height="140" rx="0.564382" fill="#2AA79F"/>
<rect width="28.7801" height="145.775" transform="translate(312.46 81.6406)" fill="#2AA79F"/>
<rect x="312.46" y="81.6406" width="29" height="146" rx="0.564382" fill="#2AA79F"/>
<rect x="51.5547" y="152.229" width="28" height="77" rx="0.564382" fill="#70305E"/>
<rect x="83.8096" y="151.178" width="28" height="77" rx="0.564382" fill="#70305E"/>
<rect x="117.123" y="152.562" width="28" height="76" rx="0.564382" fill="#70305E"/>
<rect x="149.473" y="152.562" width="28" height="76" rx="0.564382" fill="#70305E"/>
<rect x="182.95" y="146.114" width="28" height="84" rx="0.564382" fill="#70305E"/>
<rect x="215.051" y="131.724" width="28" height="97" rx="0.564382" fill="#70305E"/>
<rect x="345.668" y="96.3027" width="28" height="133" rx="0.564382" fill="#70305E"/>
<rect x="377.77" y="86.3398" width="29" height="142" rx="0.564382" fill="#70305E"/>
<rect x="410.977" y="80.8057" width="28" height="148" rx="0.564382" fill="#70305E"/>
<rect x="247.151" y="118.441" width="28" height="110" rx="0.564382" fill="#70305E"/>
<rect x="280.359" y="107.372" width="28" height="121" rx="0.564382" fill="#70305E"/>
<rect x="312.46" y="101.837" width="29" height="127" rx="0.564382" fill="#70305E"/>
<path d="M52.418 250L52.407 249.362L54.992 246.722C55.3733 246.333 55.6593 245.989 55.85 245.688C56.0407 245.38 56.136 245.054 56.136 244.709C56.136 244.291 56.004 243.946 55.74 243.675C55.476 243.396 55.135 243.257 54.717 243.257C53.9983 243.257 53.4593 243.602 53.1 244.291L52.418 243.818C52.8947 242.865 53.6793 242.388 54.772 242.388C55.41 242.388 55.9527 242.59 56.4 242.993C56.8547 243.396 57.082 243.935 57.082 244.61C57.082 245.035 56.9793 245.446 56.774 245.842C56.576 246.238 56.246 246.671 55.784 247.14L53.815 249.12L53.826 249.153H57.17V250H52.418ZM61.3039 250.066C60.4605 250.066 59.7749 249.729 59.2469 249.054C58.7262 248.372 58.4659 247.43 58.4659 246.227C58.4659 245.083 58.7189 244.155 59.2249 243.444C59.7309 242.733 60.4239 242.377 61.3039 242.377C62.1472 242.377 62.8292 242.718 63.3499 243.4C63.8779 244.075 64.1419 245.017 64.1419 246.227C64.1419 247.371 63.8889 248.299 63.3829 249.01C62.8842 249.714 62.1912 250.066 61.3039 250.066ZM61.3039 249.208C61.8979 249.208 62.3599 248.94 62.6899 248.405C63.0272 247.87 63.1959 247.144 63.1959 246.227C63.1959 245.281 63.0235 244.548 62.6789 244.027C62.3342 243.499 61.8759 243.235 61.3039 243.235C60.7099 243.235 60.2442 243.506 59.9069 244.049C59.5769 244.584 59.4119 245.31 59.4119 246.227C59.4119 247.166 59.5842 247.899 59.9289 248.427C60.2809 248.948 60.7392 249.208 61.3039 249.208ZM65.3219 250L65.3109 249.362L67.8959 246.722C68.2772 246.333 68.5632 245.989 68.7539 245.688C68.9446 245.38 69.0399 245.054 69.0399 244.709C69.0399 244.291 68.9079 243.946 68.6439 243.675C68.3799 243.396 68.0389 243.257 67.6209 243.257C66.9022 243.257 66.3632 243.602 66.0039 244.291L65.3219 243.818C65.7986 242.865 66.5832 242.388 67.6759 242.388C68.3139 242.388 68.8566 242.59 69.3039 242.993C69.7586 243.396 69.9859 243.935 69.9859 244.61C69.9859 245.035 69.8832 245.446 69.6779 245.842C69.4799 246.238 69.1499 246.671 68.6879 247.14L66.7189 249.12L66.7299 249.153H70.0739V250H65.3219ZM72.9538 250V243.554L71.4468 244.698L70.9958 244.005L73.1078 242.443H73.8778V250H72.9538Z" fill="black" fill-opacity="0.7"/>
<path d="M84.8399 250.431L84.8289 249.793L87.4139 247.153C87.7952 246.764 88.0812 246.419 88.2719 246.119C88.4625 245.811 88.5579 245.484 88.5579 245.14C88.5579 244.722 88.4259 244.377 88.1619 244.106C87.8979 243.827 87.5569 243.688 87.1389 243.688C86.4202 243.688 85.8812 244.032 85.5219 244.722L84.8399 244.249C85.3165 243.295 86.1012 242.819 87.1939 242.819C87.8319 242.819 88.3745 243.02 88.8219 243.424C89.2765 243.827 89.5039 244.366 89.5039 245.041C89.5039 245.466 89.4012 245.877 89.1959 246.273C88.9979 246.669 88.6679 247.101 88.2059 247.571L86.2369 249.551L86.2479 249.584H89.5919V250.431H84.8399ZM93.7257 250.497C92.8824 250.497 92.1967 250.159 91.6687 249.485C91.1481 248.803 90.8877 247.86 90.8877 246.658C90.8877 245.514 91.1407 244.586 91.6467 243.875C92.1527 243.163 92.8457 242.808 93.7257 242.808C94.5691 242.808 95.2511 243.149 95.7718 243.831C96.2998 244.505 96.5638 245.448 96.5638 246.658C96.5638 247.802 96.3108 248.729 95.8048 249.441C95.3061 250.145 94.6131 250.497 93.7257 250.497ZM93.7257 249.639C94.3197 249.639 94.7817 249.371 95.1118 248.836C95.4491 248.3 95.6178 247.574 95.6178 246.658C95.6178 245.712 95.4454 244.978 95.1007 244.458C94.7561 243.93 94.2977 243.666 93.7257 243.666C93.1317 243.666 92.6661 243.937 92.3287 244.48C91.9987 245.015 91.8337 245.741 91.8337 246.658C91.8337 247.596 92.0061 248.33 92.3507 248.858C92.7027 249.378 93.1611 249.639 93.7257 249.639ZM97.7438 250.431L97.7328 249.793L100.318 247.153C100.699 246.764 100.985 246.419 101.176 246.119C101.366 245.811 101.462 245.484 101.462 245.14C101.462 244.722 101.33 244.377 101.066 244.106C100.802 243.827 100.461 243.688 100.043 243.688C99.3241 243.688 98.7851 244.032 98.4258 244.722L97.7438 244.249C98.2204 243.295 99.0051 242.819 100.098 242.819C100.736 242.819 101.278 243.02 101.726 243.424C102.18 243.827 102.408 244.366 102.408 245.041C102.408 245.466 102.305 245.877 102.1 246.273C101.902 246.669 101.572 247.101 101.11 247.571L99.1408 249.551L99.1518 249.584H102.496V250.431H97.7438ZM103.616 250.431L103.605 249.793L106.19 247.153C106.571 246.764 106.857 246.419 107.048 246.119C107.238 245.811 107.334 245.484 107.334 245.14C107.334 244.722 107.202 244.377 106.938 244.106C106.674 243.827 106.333 243.688 105.915 243.688C105.196 243.688 104.657 244.032 104.298 244.722L103.616 244.249C104.092 243.295 104.877 242.819 105.97 242.819C106.608 242.819 107.15 243.02 107.598 243.424C108.052 243.827 108.28 244.366 108.28 245.041C108.28 245.466 108.177 245.877 107.972 246.273C107.774 246.669 107.444 247.101 106.982 247.571L105.013 249.551L105.024 249.584H108.368V250.431H103.616Z" fill="black" fill-opacity="0.7"/>
<path d="M117.62 250.431L117.609 249.793L120.194 247.153C120.575 246.764 120.861 246.419 121.052 246.119C121.243 245.811 121.338 245.484 121.338 245.14C121.338 244.722 121.206 244.377 120.942 244.106C120.678 243.827 120.337 243.688 119.919 243.688C119.2 243.688 118.661 244.032 118.302 244.722L117.62 244.249C118.097 243.295 118.881 242.819 119.974 242.819C120.612 242.819 121.155 243.02 121.602 243.424C122.057 243.827 122.284 244.366 122.284 245.041C122.284 245.466 122.181 245.877 121.976 246.273C121.778 246.669 121.448 247.101 120.986 247.571L119.017 249.551L119.028 249.584H122.372V250.431H117.62ZM126.506 250.497C125.663 250.497 124.977 250.159 124.449 249.485C123.928 248.803 123.668 247.86 123.668 246.658C123.668 245.514 123.921 244.586 124.427 243.875C124.933 243.163 125.626 242.808 126.506 242.808C127.349 242.808 128.031 243.149 128.552 243.831C129.08 244.505 129.344 245.448 129.344 246.658C129.344 247.802 129.091 248.729 128.585 249.441C128.086 250.145 127.393 250.497 126.506 250.497ZM126.506 249.639C127.1 249.639 127.562 249.371 127.892 248.836C128.229 248.3 128.398 247.574 128.398 246.658C128.398 245.712 128.226 244.978 127.881 244.458C127.536 243.93 127.078 243.666 126.506 243.666C125.912 243.666 125.446 243.937 125.109 244.48C124.779 245.015 124.614 245.741 124.614 246.658C124.614 247.596 124.786 248.33 125.131 248.858C125.483 249.378 125.941 249.639 126.506 249.639ZM130.524 250.431L130.513 249.793L133.098 247.153C133.479 246.764 133.765 246.419 133.956 246.119C134.147 245.811 134.242 245.484 134.242 245.14C134.242 244.722 134.11 244.377 133.846 244.106C133.582 243.827 133.241 243.688 132.823 243.688C132.104 243.688 131.565 244.032 131.206 244.722L130.524 244.249C131.001 243.295 131.785 242.819 132.878 242.819C133.516 242.819 134.059 243.02 134.506 243.424C134.961 243.827 135.188 244.366 135.188 245.041C135.188 245.466 135.085 245.877 134.88 246.273C134.682 246.669 134.352 247.101 133.89 247.571L131.921 249.551L131.932 249.584H135.276V250.431H130.524ZM138.849 250.497C138.226 250.497 137.687 250.361 137.232 250.09C136.777 249.811 136.455 249.448 136.264 249.001L137.067 248.638C137.36 249.305 137.932 249.639 138.783 249.639C139.23 249.639 139.601 249.514 139.894 249.265C140.195 249.008 140.345 248.678 140.345 248.275C140.345 247.886 140.202 247.563 139.916 247.307C139.63 247.043 139.219 246.911 138.684 246.911H138.057V246.119H138.794C139.249 246.119 139.59 246.001 139.817 245.767C140.044 245.532 140.158 245.246 140.158 244.909C140.158 244.542 140.022 244.245 139.751 244.018C139.487 243.783 139.153 243.666 138.75 243.666C138.105 243.666 137.61 243.919 137.265 244.425L136.517 244.007C136.722 243.64 137.019 243.35 137.408 243.138C137.797 242.918 138.251 242.808 138.772 242.808C139.439 242.808 139.993 242.987 140.433 243.347C140.873 243.699 141.093 244.179 141.093 244.788C141.093 245.147 140.994 245.481 140.796 245.789C140.605 246.097 140.334 246.328 139.982 246.482V246.515C140.393 246.669 140.712 246.911 140.939 247.241C141.174 247.571 141.291 247.959 141.291 248.407C141.291 249.03 141.06 249.536 140.598 249.925C140.136 250.306 139.553 250.497 138.849 250.497Z" fill="black" fill-opacity="0.7"/>
<path d="M150.4 250.431L150.389 249.793L152.974 247.153C153.356 246.764 153.642 246.419 153.832 246.119C154.023 245.811 154.118 245.484 154.118 245.14C154.118 244.722 153.986 244.377 153.722 244.106C153.458 243.827 153.117 243.688 152.699 243.688C151.981 243.688 151.442 244.032 151.082 244.722L150.4 244.249C150.877 243.295 151.662 242.819 152.754 242.819C153.392 242.819 153.935 243.02 154.382 243.424C154.837 243.827 155.064 244.366 155.064 245.041C155.064 245.466 154.962 245.877 154.756 246.273C154.558 246.669 154.228 247.101 153.766 247.571L151.797 249.551L151.808 249.584H155.152V250.431H150.4ZM159.286 250.497C158.443 250.497 157.757 250.159 157.229 249.485C156.709 248.803 156.448 247.86 156.448 246.658C156.448 245.514 156.701 244.586 157.207 243.875C157.713 243.163 158.406 242.808 159.286 242.808C160.13 242.808 160.812 243.149 161.332 243.831C161.86 244.505 162.124 245.448 162.124 246.658C162.124 247.802 161.871 248.729 161.365 249.441C160.867 250.145 160.174 250.497 159.286 250.497ZM159.286 249.639C159.88 249.639 160.342 249.371 160.672 248.836C161.01 248.3 161.178 247.574 161.178 246.658C161.178 245.712 161.006 244.978 160.661 244.458C160.317 243.93 159.858 243.666 159.286 243.666C158.692 243.666 158.227 243.937 157.889 244.48C157.559 245.015 157.394 245.741 157.394 246.658C157.394 247.596 157.567 248.33 157.911 248.858C158.263 249.378 158.722 249.639 159.286 249.639ZM163.304 250.431L163.293 249.793L165.878 247.153C166.26 246.764 166.546 246.419 166.736 246.119C166.927 245.811 167.022 245.484 167.022 245.14C167.022 244.722 166.89 244.377 166.626 244.106C166.362 243.827 166.021 243.688 165.603 243.688C164.885 243.688 164.346 244.032 163.986 244.722L163.304 244.249C163.781 243.295 164.566 242.819 165.658 242.819C166.296 242.819 166.839 243.02 167.286 243.424C167.741 243.827 167.968 244.366 167.968 245.041C167.968 245.466 167.866 245.877 167.66 246.273C167.462 246.669 167.132 247.101 166.67 247.571L164.701 249.551L164.712 249.584H168.056V250.431H163.304ZM172.371 250.431V249.1H168.862V248.44L172.514 242.874H173.295V248.264H174.395V249.1H173.295V250.431H172.371ZM169.94 248.286H172.404V244.447L169.94 248.286Z" fill="black" fill-opacity="0.7"/>
<path d="M183.179 250.431L183.168 249.793L185.753 247.153C186.134 246.764 186.42 246.419 186.611 246.119C186.801 245.811 186.897 245.484 186.897 245.14C186.897 244.722 186.765 244.377 186.501 244.106C186.237 243.827 185.896 243.688 185.478 243.688C184.759 243.688 184.22 244.032 183.861 244.722L183.179 244.249C183.655 243.295 184.44 242.819 185.533 242.819C186.171 242.819 186.713 243.02 187.161 243.424C187.615 243.827 187.843 244.366 187.843 245.041C187.843 245.466 187.74 245.877 187.535 246.273C187.337 246.669 187.007 247.101 186.545 247.571L184.576 249.551L184.587 249.584H187.931V250.431H183.179ZM192.065 250.497C191.221 250.497 190.536 250.159 190.008 249.485C189.487 248.803 189.227 247.86 189.227 246.658C189.227 245.514 189.48 244.586 189.986 243.875C190.492 243.163 191.185 242.808 192.065 242.808C192.908 242.808 193.59 243.149 194.111 243.831C194.639 244.505 194.903 245.448 194.903 246.658C194.903 247.802 194.65 248.729 194.144 249.441C193.645 250.145 192.952 250.497 192.065 250.497ZM192.065 249.639C192.659 249.639 193.121 249.371 193.451 248.836C193.788 248.3 193.957 247.574 193.957 246.658C193.957 245.712 193.784 244.978 193.44 244.458C193.095 243.93 192.637 243.666 192.065 243.666C191.471 243.666 191.005 243.937 190.668 244.48C190.338 245.015 190.173 245.741 190.173 246.658C190.173 247.596 190.345 248.33 190.69 248.858C191.042 249.378 191.5 249.639 192.065 249.639ZM196.083 250.431L196.072 249.793L198.657 247.153C199.038 246.764 199.324 246.419 199.515 246.119C199.705 245.811 199.801 245.484 199.801 245.14C199.801 244.722 199.669 244.377 199.405 244.106C199.141 243.827 198.8 243.688 198.382 243.688C197.663 243.688 197.124 244.032 196.765 244.722L196.083 244.249C196.559 243.295 197.344 242.819 198.437 242.819C199.075 242.819 199.617 243.02 200.065 243.424C200.519 243.827 200.747 244.366 200.747 245.041C200.747 245.466 200.644 245.877 200.439 246.273C200.241 246.669 199.911 247.101 199.449 247.571L197.48 249.551L197.491 249.584H200.835V250.431H196.083ZM204.617 245.635C205.314 245.635 205.893 245.855 206.355 246.295C206.825 246.727 207.059 247.31 207.059 248.044C207.059 248.77 206.814 249.36 206.322 249.815C205.831 250.269 205.2 250.497 204.43 250.497C203.902 250.497 203.415 250.387 202.967 250.167C202.527 249.947 202.175 249.639 201.911 249.243L202.604 248.726C202.78 249.004 203.019 249.228 203.319 249.397C203.627 249.558 203.972 249.639 204.353 249.639C204.874 249.639 205.296 249.488 205.618 249.188C205.948 248.887 206.113 248.502 206.113 248.033C206.113 247.541 205.941 247.153 205.596 246.867C205.259 246.581 204.848 246.438 204.364 246.438C203.836 246.438 203.393 246.577 203.033 246.856L202.494 246.691L202.714 242.874H206.707V243.732H203.583L203.462 245.855C203.866 245.708 204.251 245.635 204.617 245.635Z" fill="black" fill-opacity="0.7"/>
<path d="M215.961 250.431L215.95 249.793L218.535 247.153C218.916 246.764 219.202 246.419 219.393 246.119C219.584 245.811 219.679 245.484 219.679 245.14C219.679 244.722 219.547 244.377 219.283 244.106C219.019 243.827 218.678 243.688 218.26 243.688C217.541 243.688 217.002 244.032 216.643 244.722L215.961 244.249C216.438 243.295 217.222 242.819 218.315 242.819C218.953 242.819 219.496 243.02 219.943 243.424C220.398 243.827 220.625 244.366 220.625 245.041C220.625 245.466 220.522 245.877 220.317 246.273C220.119 246.669 219.789 247.101 219.327 247.571L217.358 249.551L217.369 249.584H220.713V250.431H215.961ZM224.847 250.497C224.004 250.497 223.318 250.159 222.79 249.485C222.269 248.803 222.009 247.86 222.009 246.658C222.009 245.514 222.262 244.586 222.768 243.875C223.274 243.163 223.967 242.808 224.847 242.808C225.69 242.808 226.372 243.149 226.893 243.831C227.421 244.505 227.685 245.448 227.685 246.658C227.685 247.802 227.432 248.729 226.926 249.441C226.427 250.145 225.734 250.497 224.847 250.497ZM224.847 249.639C225.441 249.639 225.903 249.371 226.233 248.836C226.57 248.3 226.739 247.574 226.739 246.658C226.739 245.712 226.567 244.978 226.222 244.458C225.877 243.93 225.419 243.666 224.847 243.666C224.253 243.666 223.787 243.937 223.45 244.48C223.12 245.015 222.955 245.741 222.955 246.658C222.955 247.596 223.127 248.33 223.472 248.858C223.824 249.378 224.282 249.639 224.847 249.639ZM228.865 250.431L228.854 249.793L231.439 247.153C231.82 246.764 232.106 246.419 232.297 246.119C232.488 245.811 232.583 245.484 232.583 245.14C232.583 244.722 232.451 244.377 232.187 244.106C231.923 243.827 231.582 243.688 231.164 243.688C230.445 243.688 229.906 244.032 229.547 244.722L228.865 244.249C229.342 243.295 230.126 242.819 231.219 242.819C231.857 242.819 232.4 243.02 232.847 243.424C233.302 243.827 233.529 244.366 233.529 245.041C233.529 245.466 233.426 245.877 233.221 246.273C233.023 246.669 232.693 247.101 232.231 247.571L230.262 249.551L230.273 249.584H233.617V250.431H228.865ZM237.4 245.635C238.096 245.635 238.676 245.855 239.138 246.295C239.607 246.727 239.842 247.31 239.842 248.044C239.842 248.77 239.596 249.36 239.105 249.815C238.613 250.269 237.983 250.497 237.213 250.497C236.685 250.497 236.197 250.387 235.75 250.167C235.31 249.947 234.958 249.639 234.694 249.243L235.387 248.726C235.563 249.004 235.801 249.228 236.102 249.397C236.41 249.558 236.754 249.639 237.136 249.639C237.656 249.639 238.078 249.488 238.401 249.188C238.731 248.887 238.896 248.502 238.896 248.033C238.896 247.541 238.723 247.153 238.379 246.867C238.041 246.581 237.631 246.438 237.147 246.438C236.619 246.438 236.175 246.577 235.816 246.856L235.277 246.691L235.497 242.874H239.49V243.732H236.366L236.245 245.855C236.648 245.708 237.033 245.635 237.4 245.635Z" fill="black" fill-opacity="0.7"/>
<path d="M248.739 250.431L248.728 249.793L251.313 247.153C251.695 246.764 251.981 246.419 252.171 246.119C252.362 245.811 252.457 245.484 252.457 245.14C252.457 244.722 252.325 244.377 252.061 244.106C251.797 243.827 251.456 243.688 251.038 243.688C250.32 243.688 249.781 244.032 249.421 244.722L248.739 244.249C249.216 243.295 250.001 242.819 251.093 242.819C251.731 242.819 252.274 243.02 252.721 243.424C253.176 243.827 253.403 244.366 253.403 245.041C253.403 245.466 253.301 245.877 253.095 246.273C252.897 246.669 252.567 247.101 252.105 247.571L250.136 249.551L250.147 249.584H253.491V250.431H248.739ZM257.625 250.497C256.782 250.497 256.096 250.159 255.568 249.485C255.047 248.803 254.787 247.86 254.787 246.658C254.787 245.514 255.04 244.586 255.546 243.875C256.052 243.163 256.745 242.808 257.625 242.808C258.468 242.808 259.15 243.149 259.671 243.831C260.199 244.505 260.463 245.448 260.463 246.658C260.463 247.802 260.21 248.729 259.704 249.441C259.205 250.145 258.512 250.497 257.625 250.497ZM257.625 249.639C258.219 249.639 258.681 249.371 259.011 248.836C259.348 248.3 259.517 247.574 259.517 246.658C259.517 245.712 259.345 244.978 259 244.458C258.655 243.93 258.197 243.666 257.625 243.666C257.031 243.666 256.565 243.937 256.228 244.48C255.898 245.015 255.733 245.741 255.733 246.658C255.733 247.596 255.905 248.33 256.25 248.858C256.602 249.378 257.06 249.639 257.625 249.639ZM261.643 250.431L261.632 249.793L264.217 247.153C264.599 246.764 264.885 246.419 265.075 246.119C265.266 245.811 265.361 245.484 265.361 245.14C265.361 244.722 265.229 244.377 264.965 244.106C264.701 243.827 264.36 243.688 263.942 243.688C263.224 243.688 262.685 244.032 262.325 244.722L261.643 244.249C262.12 243.295 262.905 242.819 263.997 242.819C264.635 242.819 265.178 243.02 265.625 243.424C266.08 243.827 266.307 244.366 266.307 245.041C266.307 245.466 266.205 245.877 265.999 246.273C265.801 246.669 265.471 247.101 265.009 247.571L263.04 249.551L263.051 249.584H266.395V250.431H261.643ZM270.531 245.668C271.227 245.668 271.792 245.884 272.225 246.317C272.665 246.742 272.885 247.325 272.885 248.066C272.885 248.762 272.635 249.342 272.137 249.804C271.645 250.266 271.022 250.497 270.267 250.497C269.504 250.497 268.87 250.225 268.364 249.683C267.865 249.133 267.616 248.418 267.616 247.538C267.616 246.254 267.99 245.165 268.738 244.271C269.493 243.376 270.399 242.833 271.455 242.643L271.73 243.424C270.989 243.614 270.344 243.952 269.794 244.436C269.251 244.92 268.877 245.554 268.672 246.339C269.178 245.891 269.797 245.668 270.531 245.668ZM270.322 249.639C270.806 249.639 271.198 249.485 271.499 249.177C271.807 248.869 271.961 248.495 271.961 248.055C271.961 247.593 271.81 247.222 271.51 246.944C271.209 246.658 270.813 246.515 270.322 246.515C269.933 246.515 269.581 246.617 269.266 246.823C268.958 247.021 268.708 247.27 268.518 247.571V247.637C268.518 248.223 268.69 248.704 269.035 249.078C269.387 249.452 269.816 249.639 270.322 249.639Z" fill="black" fill-opacity="0.7"/>
<path d="M280.633 250.431L280.622 249.793L283.207 247.153C283.588 246.764 283.874 246.419 284.065 246.119C284.256 245.811 284.351 245.484 284.351 245.14C284.351 244.722 284.219 244.377 283.955 244.106C283.691 243.827 283.35 243.688 282.932 243.688C282.213 243.688 281.674 244.032 281.315 244.722L280.633 244.249C281.11 243.295 281.894 242.819 282.987 242.819C283.625 242.819 284.168 243.02 284.615 243.424C285.07 243.827 285.297 244.366 285.297 245.041C285.297 245.466 285.194 245.877 284.989 246.273C284.791 246.669 284.461 247.101 283.999 247.571L282.03 249.551L282.041 249.584H285.385V250.431H280.633ZM289.519 250.497C288.675 250.497 287.99 250.159 287.462 249.485C286.941 248.803 286.681 247.86 286.681 246.658C286.681 245.514 286.934 244.586 287.44 243.875C287.946 243.163 288.639 242.808 289.519 242.808C290.362 242.808 291.044 243.149 291.565 243.831C292.093 244.505 292.357 245.448 292.357 246.658C292.357 247.802 292.104 248.729 291.598 249.441C291.099 250.145 290.406 250.497 289.519 250.497ZM289.519 249.639C290.113 249.639 290.575 249.371 290.905 248.836C291.242 248.3 291.411 247.574 291.411 246.658C291.411 245.712 291.238 244.978 290.894 244.458C290.549 243.93 290.091 243.666 289.519 243.666C288.925 243.666 288.459 243.937 288.122 244.48C287.792 245.015 287.627 245.741 287.627 246.658C287.627 247.596 287.799 248.33 288.144 248.858C288.496 249.378 288.954 249.639 289.519 249.639ZM293.537 250.431L293.526 249.793L296.111 247.153C296.492 246.764 296.778 246.419 296.969 246.119C297.159 245.811 297.255 245.484 297.255 245.14C297.255 244.722 297.123 244.377 296.859 244.106C296.595 243.827 296.254 243.688 295.836 243.688C295.117 243.688 294.578 244.032 294.219 244.722L293.537 244.249C294.013 243.295 294.798 242.819 295.891 242.819C296.529 242.819 297.071 243.02 297.519 243.424C297.973 243.827 298.201 244.366 298.201 245.041C298.201 245.466 298.098 245.877 297.893 246.273C297.695 246.669 297.365 247.101 296.903 247.571L294.934 249.551L294.945 249.584H298.289V250.431H293.537ZM299.266 242.874H303.952V243.523L300.96 250.563L300.036 250.376L302.918 243.721H299.266V242.874Z" fill="black" fill-opacity="0.7"/>
<path d="M313.414 250.431L313.403 249.793L315.988 247.153C316.369 246.764 316.655 246.419 316.846 246.119C317.037 245.811 317.132 245.484 317.132 245.14C317.132 244.722 317 244.377 316.736 244.106C316.472 243.827 316.131 243.688 315.713 243.688C314.994 243.688 314.455 244.032 314.096 244.722L313.414 244.249C313.891 243.295 314.675 242.819 315.768 242.819C316.406 242.819 316.949 243.02 317.396 243.424C317.851 243.827 318.078 244.366 318.078 245.041C318.078 245.466 317.975 245.877 317.77 246.273C317.572 246.669 317.242 247.101 316.78 247.571L314.811 249.551L314.822 249.584H318.166V250.431H313.414ZM322.3 250.497C321.457 250.497 320.771 250.159 320.243 249.485C319.722 248.803 319.462 247.86 319.462 246.658C319.462 245.514 319.715 244.586 320.221 243.875C320.727 243.163 321.42 242.808 322.3 242.808C323.143 242.808 323.825 243.149 324.346 243.831C324.874 244.505 325.138 245.448 325.138 246.658C325.138 247.802 324.885 248.729 324.379 249.441C323.88 250.145 323.187 250.497 322.3 250.497ZM322.3 249.639C322.894 249.639 323.356 249.371 323.686 248.836C324.023 248.3 324.192 247.574 324.192 246.658C324.192 245.712 324.02 244.978 323.675 244.458C323.33 243.93 322.872 243.666 322.3 243.666C321.706 243.666 321.24 243.937 320.903 244.48C320.573 245.015 320.408 245.741 320.408 246.658C320.408 247.596 320.58 248.33 320.925 248.858C321.277 249.378 321.735 249.639 322.3 249.639ZM326.318 250.431L326.307 249.793L328.892 247.153C329.273 246.764 329.559 246.419 329.75 246.119C329.941 245.811 330.036 245.484 330.036 245.14C330.036 244.722 329.904 244.377 329.64 244.106C329.376 243.827 329.035 243.688 328.617 243.688C327.898 243.688 327.359 244.032 327 244.722L326.318 244.249C326.795 243.295 327.579 242.819 328.672 242.819C329.31 242.819 329.853 243.02 330.3 243.424C330.755 243.827 330.982 244.366 330.982 245.041C330.982 245.466 330.879 245.877 330.674 246.273C330.476 246.669 330.146 247.101 329.684 247.571L327.715 249.551L327.726 249.584H331.07V250.431H326.318ZM334.907 250.497C334.13 250.497 333.492 250.295 332.993 249.892C332.502 249.488 332.256 248.975 332.256 248.352C332.256 247.86 332.388 247.439 332.652 247.087C332.923 246.735 333.272 246.489 333.697 246.35V246.328C333.411 246.218 333.162 246.02 332.949 245.734C332.736 245.448 332.63 245.114 332.63 244.733C332.63 244.139 332.843 243.669 333.268 243.325C333.701 242.98 334.247 242.808 334.907 242.808C335.589 242.808 336.139 242.984 336.557 243.336C336.982 243.688 337.195 244.153 337.195 244.733C337.195 245.114 337.085 245.451 336.865 245.745C336.652 246.038 336.403 246.232 336.117 246.328V246.35C336.55 246.482 336.898 246.724 337.162 247.076C337.433 247.428 337.569 247.853 337.569 248.352C337.569 248.99 337.316 249.507 336.81 249.903C336.304 250.299 335.67 250.497 334.907 250.497ZM334.907 245.943C335.325 245.943 335.662 245.84 335.919 245.635C336.176 245.429 336.304 245.154 336.304 244.81C336.304 244.465 336.172 244.183 335.908 243.963C335.644 243.743 335.31 243.633 334.907 243.633C334.496 243.633 334.163 243.746 333.906 243.974C333.649 244.201 333.521 244.48 333.521 244.81C333.521 245.154 333.649 245.429 333.906 245.635C334.163 245.84 334.496 245.943 334.907 245.943ZM334.907 249.661C335.413 249.661 335.824 249.525 336.139 249.254C336.462 248.975 336.623 248.641 336.623 248.253C336.623 247.82 336.465 247.472 336.15 247.208C335.835 246.936 335.42 246.801 334.907 246.801C334.394 246.801 333.979 246.936 333.664 247.208C333.356 247.472 333.202 247.82 333.202 248.253C333.202 248.656 333.363 248.993 333.686 249.265C334.016 249.529 334.423 249.661 334.907 249.661Z" fill="black" fill-opacity="0.7"/>
<path d="M346.195 250.431L346.184 249.793L348.769 247.153C349.151 246.764 349.437 246.419 349.627 246.119C349.818 245.811 349.913 245.484 349.913 245.14C349.913 244.722 349.781 244.377 349.517 244.106C349.253 243.827 348.912 243.688 348.494 243.688C347.776 243.688 347.237 244.032 346.877 244.722L346.195 244.249C346.672 243.295 347.457 242.819 348.549 242.819C349.187 242.819 349.73 243.02 350.177 243.424C350.632 243.827 350.859 244.366 350.859 245.041C350.859 245.466 350.757 245.877 350.551 246.273C350.353 246.669 350.023 247.101 349.561 247.571L347.592 249.551L347.603 249.584H350.947V250.431H346.195ZM355.081 250.497C354.238 250.497 353.552 250.159 353.024 249.485C352.504 248.803 352.243 247.86 352.243 246.658C352.243 245.514 352.496 244.586 353.002 243.875C353.508 243.163 354.201 242.808 355.081 242.808C355.925 242.808 356.607 243.149 357.127 243.831C357.655 244.505 357.919 245.448 357.919 246.658C357.919 247.802 357.666 248.729 357.16 249.441C356.662 250.145 355.969 250.497 355.081 250.497ZM355.081 249.639C355.675 249.639 356.137 249.371 356.467 248.836C356.805 248.3 356.973 247.574 356.973 246.658C356.973 245.712 356.801 244.978 356.456 244.458C356.112 243.93 355.653 243.666 355.081 243.666C354.487 243.666 354.022 243.937 353.684 244.48C353.354 245.015 353.189 245.741 353.189 246.658C353.189 247.596 353.362 248.33 353.706 248.858C354.058 249.378 354.517 249.639 355.081 249.639ZM359.099 250.431L359.088 249.793L361.673 247.153C362.055 246.764 362.341 246.419 362.531 246.119C362.722 245.811 362.817 245.484 362.817 245.14C362.817 244.722 362.685 244.377 362.421 244.106C362.157 243.827 361.816 243.688 361.398 243.688C360.68 243.688 360.141 244.032 359.781 244.722L359.099 244.249C359.576 243.295 360.361 242.819 361.453 242.819C362.091 242.819 362.634 243.02 363.081 243.424C363.536 243.827 363.763 244.366 363.763 245.041C363.763 245.466 363.661 245.877 363.455 246.273C363.257 246.669 362.927 247.101 362.465 247.571L360.496 249.551L360.507 249.584H363.851V250.431H359.099ZM367.699 242.808C368.454 242.808 369.085 243.083 369.591 243.633C370.097 244.183 370.346 244.898 370.339 245.778C370.339 247.076 369.947 248.172 369.162 249.067C368.377 249.954 367.457 250.497 366.401 250.695L366.126 249.914C366.881 249.723 367.541 249.382 368.106 248.891C368.678 248.399 369.07 247.758 369.283 246.966C368.762 247.428 368.124 247.659 367.369 247.659C366.694 247.659 366.137 247.442 365.697 247.01C365.264 246.577 365.048 246.001 365.048 245.283C365.048 244.571 365.297 243.981 365.796 243.512C366.302 243.042 366.936 242.808 367.699 242.808ZM367.578 246.801C367.952 246.801 368.304 246.709 368.634 246.526C368.971 246.335 369.239 246.082 369.437 245.767V245.701C369.437 245.092 369.272 244.601 368.942 244.227C368.619 243.853 368.209 243.666 367.71 243.666C367.197 243.666 366.779 243.823 366.456 244.139C366.141 244.447 365.983 244.828 365.983 245.283C365.983 245.737 366.126 246.104 366.412 246.383C366.705 246.661 367.094 246.801 367.578 246.801Z" fill="black" fill-opacity="0.7"/>
<path d="M378.973 250.431L378.962 249.793L381.547 247.153C381.928 246.764 382.214 246.419 382.405 246.119C382.595 245.811 382.691 245.484 382.691 245.14C382.691 244.722 382.559 244.377 382.295 244.106C382.031 243.827 381.69 243.688 381.272 243.688C380.553 243.688 380.014 244.032 379.655 244.722L378.973 244.249C379.449 243.295 380.234 242.819 381.327 242.819C381.965 242.819 382.507 243.02 382.955 243.424C383.409 243.827 383.637 244.366 383.637 245.041C383.637 245.466 383.534 245.877 383.329 246.273C383.131 246.669 382.801 247.101 382.339 247.571L380.37 249.551L380.381 249.584H383.725V250.431H378.973ZM387.859 250.497C387.015 250.497 386.33 250.159 385.802 249.485C385.281 248.803 385.021 247.86 385.021 246.658C385.021 245.514 385.274 244.586 385.78 243.875C386.286 243.163 386.979 242.808 387.859 242.808C388.702 242.808 389.384 243.149 389.905 243.831C390.433 244.505 390.697 245.448 390.697 246.658C390.697 247.802 390.444 248.729 389.938 249.441C389.439 250.145 388.746 250.497 387.859 250.497ZM387.859 249.639C388.453 249.639 388.915 249.371 389.245 248.836C389.582 248.3 389.751 247.574 389.751 246.658C389.751 245.712 389.578 244.978 389.234 244.458C388.889 243.93 388.431 243.666 387.859 243.666C387.265 243.666 386.799 243.937 386.462 244.48C386.132 245.015 385.967 245.741 385.967 246.658C385.967 247.596 386.139 248.33 386.484 248.858C386.836 249.378 387.294 249.639 387.859 249.639ZM394.297 250.497C393.674 250.497 393.135 250.361 392.68 250.09C392.226 249.811 391.903 249.448 391.712 249.001L392.515 248.638C392.809 249.305 393.381 249.639 394.231 249.639C394.679 249.639 395.049 249.514 395.342 249.265C395.643 249.008 395.793 248.678 395.793 248.275C395.793 247.886 395.65 247.563 395.364 247.307C395.078 247.043 394.668 246.911 394.132 246.911H393.505V246.119H394.242C394.697 246.119 395.038 246.001 395.265 245.767C395.493 245.532 395.606 245.246 395.606 244.909C395.606 244.542 395.471 244.245 395.199 244.018C394.935 243.783 394.602 243.666 394.198 243.666C393.553 243.666 393.058 243.919 392.713 244.425L391.965 244.007C392.171 243.64 392.468 243.35 392.856 243.138C393.245 242.918 393.7 242.808 394.22 242.808C394.888 242.808 395.441 242.987 395.881 243.347C396.321 243.699 396.541 244.179 396.541 244.788C396.541 245.147 396.442 245.481 396.244 245.789C396.054 246.097 395.782 246.328 395.43 246.482V246.515C395.841 246.669 396.16 246.911 396.387 247.241C396.622 247.571 396.739 247.959 396.739 248.407C396.739 249.03 396.508 249.536 396.046 249.925C395.584 250.306 395.001 250.497 394.297 250.497ZM400.924 250.497C400.08 250.497 399.395 250.159 398.867 249.485C398.346 248.803 398.086 247.86 398.086 246.658C398.086 245.514 398.339 244.586 398.845 243.875C399.351 243.163 400.044 242.808 400.924 242.808C401.767 242.808 402.449 243.149 402.97 243.831C403.498 244.505 403.762 245.448 403.762 246.658C403.762 247.802 403.509 248.729 403.003 249.441C402.504 250.145 401.811 250.497 400.924 250.497ZM400.924 249.639C401.518 249.639 401.98 249.371 402.31 248.836C402.647 248.3 402.816 247.574 402.816 246.658C402.816 245.712 402.643 244.978 402.299 244.458C401.954 243.93 401.496 243.666 400.924 243.666C400.33 243.666 399.864 243.937 399.527 244.48C399.197 245.015 399.032 245.741 399.032 246.658C399.032 247.596 399.204 248.33 399.549 248.858C399.901 249.378 400.359 249.639 400.924 249.639Z" fill="black" fill-opacity="0.7"/>
<path d="M411.752 250.431L411.741 249.793L414.326 247.153C414.707 246.764 414.993 246.419 415.184 246.119C415.375 245.811 415.47 245.484 415.47 245.14C415.47 244.722 415.338 244.377 415.074 244.106C414.81 243.827 414.469 243.688 414.051 243.688C413.332 243.688 412.793 244.032 412.434 244.722L411.752 244.249C412.229 243.295 413.013 242.819 414.106 242.819C414.744 242.819 415.287 243.02 415.734 243.424C416.189 243.827 416.416 244.366 416.416 245.041C416.416 245.466 416.313 245.877 416.108 246.273C415.91 246.669 415.58 247.101 415.118 247.571L413.149 249.551L413.16 249.584H416.504V250.431H411.752ZM420.638 250.497C419.795 250.497 419.109 250.159 418.581 249.485C418.06 248.803 417.8 247.86 417.8 246.658C417.8 245.514 418.053 244.586 418.559 243.875C419.065 243.163 419.758 242.808 420.638 242.808C421.481 242.808 422.163 243.149 422.684 243.831C423.212 244.505 423.476 245.448 423.476 246.658C423.476 247.802 423.223 248.729 422.717 249.441C422.218 250.145 421.525 250.497 420.638 250.497ZM420.638 249.639C421.232 249.639 421.694 249.371 422.024 248.836C422.361 248.3 422.53 247.574 422.53 246.658C422.53 245.712 422.358 244.978 422.013 244.458C421.668 243.93 421.21 243.666 420.638 243.666C420.044 243.666 419.578 243.937 419.241 244.48C418.911 245.015 418.746 245.741 418.746 246.658C418.746 247.596 418.918 248.33 419.263 248.858C419.615 249.378 420.073 249.639 420.638 249.639ZM427.077 250.497C426.453 250.497 425.914 250.361 425.46 250.09C425.005 249.811 424.682 249.448 424.492 249.001L425.295 248.638C425.588 249.305 426.16 249.639 427.011 249.639C427.458 249.639 427.828 249.514 428.122 249.265C428.422 249.008 428.573 248.678 428.573 248.275C428.573 247.886 428.43 247.563 428.144 247.307C427.858 247.043 427.447 246.911 426.912 246.911H426.285V246.119H427.022C427.476 246.119 427.817 246.001 428.045 245.767C428.272 245.532 428.386 245.246 428.386 244.909C428.386 244.542 428.25 244.245 427.979 244.018C427.715 243.783 427.381 243.666 426.978 243.666C426.332 243.666 425.837 243.919 425.493 244.425L424.745 244.007C424.95 243.64 425.247 243.35 425.636 243.138C426.024 242.918 426.479 242.808 427 242.808C427.667 242.808 428.221 242.987 428.661 243.347C429.101 243.699 429.321 244.179 429.321 244.788C429.321 245.147 429.222 245.481 429.024 245.789C428.833 246.097 428.562 246.328 428.21 246.482V246.515C428.62 246.669 428.939 246.911 429.167 247.241C429.401 247.571 429.519 247.959 429.519 248.407C429.519 249.03 429.288 249.536 428.826 249.925C428.364 250.306 427.781 250.497 427.077 250.497ZM432.449 250.431V243.985L430.942 245.129L430.491 244.436L432.603 242.874H433.373V250.431H432.449Z" fill="black" fill-opacity="0.7"/>
<path d="M243.978 16.3348C243.092 16.3348 242.402 16.0348 241.908 15.4348C241.415 14.8282 241.168 13.9382 241.168 12.7648C241.168 11.5915 241.415 10.6915 241.908 10.0648C242.402 9.43151 243.092 9.11484 243.978 9.11484C244.565 9.11484 245.055 9.24818 245.448 9.51484C245.848 9.78151 246.158 10.1582 246.378 10.6448L245.698 11.0548C245.558 10.6948 245.345 10.4082 245.058 10.1948C244.772 9.97484 244.412 9.86484 243.978 9.86484C243.678 9.86484 243.408 9.92151 243.168 10.0348C242.935 10.1482 242.735 10.3115 242.568 10.5248C242.408 10.7315 242.285 10.9815 242.198 11.2748C242.112 11.5615 242.068 11.8848 242.068 12.2448V13.2848C242.068 14.0048 242.235 14.5682 242.568 14.9748C242.902 15.3815 243.372 15.5848 243.978 15.5848C244.425 15.5848 244.798 15.4715 245.098 15.2448C245.398 15.0115 245.618 14.7048 245.758 14.3248L246.428 14.7448C246.208 15.2382 245.892 15.6282 245.478 15.9148C245.065 16.1948 244.565 16.3348 243.978 16.3348ZM247.649 8.81484H248.449V11.8948H248.489C248.616 11.6015 248.792 11.3682 249.019 11.1948C249.252 11.0215 249.562 10.9348 249.949 10.9348C250.482 10.9348 250.902 11.1082 251.209 11.4548C251.522 11.7948 251.679 12.2782 251.679 12.9048V16.2148H250.879V13.0448C250.879 12.1182 250.489 11.6548 249.709 11.6548C249.549 11.6548 249.392 11.6748 249.239 11.7148C249.092 11.7548 248.959 11.8148 248.839 11.8948C248.719 11.9748 248.622 12.0782 248.549 12.2048C248.482 12.3248 248.449 12.4682 248.449 12.6348V16.2148H247.649V8.81484ZM253.733 9.84484C253.559 9.84484 253.433 9.80484 253.353 9.72484C253.279 9.63818 253.243 9.52818 253.243 9.39484V9.26484C253.243 9.13151 253.279 9.02484 253.353 8.94484C253.433 8.85818 253.559 8.81484 253.733 8.81484C253.906 8.81484 254.029 8.85818 254.103 8.94484C254.183 9.02484 254.223 9.13151 254.223 9.26484V9.39484C254.223 9.52818 254.183 9.63818 254.103 9.72484C254.029 9.80484 253.906 9.84484 253.733 9.84484ZM253.333 11.0548H254.133V16.2148H253.333V11.0548ZM256.683 16.2148C256.403 16.2148 256.189 16.1382 256.043 15.9848C255.903 15.8248 255.833 15.6248 255.833 15.3848V8.81484H256.633V15.5148H257.393V16.2148H256.683ZM261.857 15.3748H261.817C261.504 16.0148 261.001 16.3348 260.307 16.3348C259.987 16.3348 259.697 16.2715 259.437 16.1448C259.177 16.0182 258.954 15.8382 258.767 15.6048C258.587 15.3715 258.447 15.0882 258.347 14.7548C258.254 14.4215 258.207 14.0482 258.207 13.6348C258.207 13.2215 258.254 12.8482 258.347 12.5148C258.447 12.1815 258.587 11.8982 258.767 11.6648C258.954 11.4315 259.177 11.2515 259.437 11.1248C259.697 10.9982 259.987 10.9348 260.307 10.9348C260.667 10.9348 260.974 11.0148 261.227 11.1748C261.487 11.3282 261.684 11.5682 261.817 11.8948H261.857V8.81484H262.657V16.2148H261.857V15.3748ZM260.527 15.6148C260.707 15.6148 260.877 15.5915 261.037 15.5448C261.204 15.4982 261.347 15.4315 261.467 15.3448C261.587 15.2515 261.681 15.1415 261.747 15.0148C261.821 14.8815 261.857 14.7315 261.857 14.5648V12.6448C261.857 12.5048 261.821 12.3748 261.747 12.2548C261.681 12.1282 261.587 12.0215 261.467 11.9348C261.347 11.8482 261.204 11.7815 261.037 11.7348C260.877 11.6815 260.707 11.6548 260.527 11.6548C260.074 11.6548 259.717 11.7982 259.457 12.0848C259.197 12.3648 259.067 12.7348 259.067 13.1948V14.0748C259.067 14.5348 259.197 14.9082 259.457 15.1948C259.717 15.4748 260.074 15.6148 260.527 15.6148ZM264.358 8.81484H265.158V11.8948H265.198C265.331 11.5682 265.525 11.3282 265.778 11.1748C266.038 11.0148 266.348 10.9348 266.708 10.9348C267.028 10.9348 267.318 10.9982 267.578 11.1248C267.838 11.2515 268.058 11.4315 268.238 11.6648C268.425 11.8982 268.565 12.1815 268.658 12.5148C268.758 12.8482 268.808 13.2215 268.808 13.6348C268.808 14.0482 268.758 14.4215 268.658 14.7548C268.565 15.0882 268.425 15.3715 268.238 15.6048C268.058 15.8382 267.838 16.0182 267.578 16.1448C267.318 16.2715 267.028 16.3348 266.708 16.3348C266.008 16.3348 265.505 16.0148 265.198 15.3748H265.158V16.2148H264.358V8.81484ZM266.488 15.6148C266.941 15.6148 267.298 15.4748 267.558 15.1948C267.818 14.9082 267.948 14.5348 267.948 14.0748V13.1948C267.948 12.7348 267.818 12.3648 267.558 12.0848C267.298 11.7982 266.941 11.6548 266.488 11.6548C266.308 11.6548 266.135 11.6815 265.968 11.7348C265.808 11.7815 265.668 11.8482 265.548 11.9348C265.428 12.0215 265.331 12.1282 265.258 12.2548C265.191 12.3748 265.158 12.5048 265.158 12.6448V14.5648C265.158 14.7315 265.191 14.8815 265.258 15.0148C265.331 15.1415 265.428 15.2515 265.548 15.3448C265.668 15.4315 265.808 15.4982 265.968 15.5448C266.135 15.5915 266.308 15.6148 266.488 15.6148ZM270.559 9.84484C270.386 9.84484 270.259 9.80484 270.179 9.72484C270.106 9.63818 270.069 9.52818 270.069 9.39484V9.26484C270.069 9.13151 270.106 9.02484 270.179 8.94484C270.259 8.85818 270.386 8.81484 270.559 8.81484C270.732 8.81484 270.856 8.85818 270.929 8.94484C271.009 9.02484 271.049 9.13151 271.049 9.26484V9.39484C271.049 9.52818 271.009 9.63818 270.929 9.72484C270.856 9.80484 270.732 9.84484 270.559 9.84484ZM270.159 11.0548H270.959V16.2148H270.159V11.0548ZM272.659 16.2148V11.0548H273.459V12.0048H273.509C273.602 11.7582 273.769 11.5382 274.009 11.3448C274.249 11.1515 274.579 11.0548 274.999 11.0548H275.309V11.8548H274.839C274.406 11.8548 274.066 11.9382 273.819 12.1048C273.579 12.2648 273.459 12.4682 273.459 12.7148V16.2148H272.659ZM277.51 16.2148C277.23 16.2148 277.016 16.1382 276.87 15.9848C276.73 15.8248 276.66 15.6182 276.66 15.3648V11.7548H275.81V11.0548H276.29C276.463 11.0548 276.58 11.0215 276.64 10.9548C276.706 10.8815 276.74 10.7582 276.74 10.5848V9.62484H277.46V11.0548H278.59V11.7548H277.46V15.5148H278.51V16.2148H277.51ZM279.876 8.81484H280.676V11.8948H280.716C280.842 11.6015 281.019 11.3682 281.246 11.1948C281.479 11.0215 281.789 10.9348 282.176 10.9348C282.709 10.9348 283.129 11.1082 283.436 11.4548C283.749 11.7948 283.906 12.2782 283.906 12.9048V16.2148H283.106V13.0448C283.106 12.1182 282.716 11.6548 281.936 11.6548C281.776 11.6548 281.619 11.6748 281.466 11.7148C281.319 11.7548 281.186 11.8148 281.066 11.8948C280.946 11.9748 280.849 12.0782 280.776 12.2048C280.709 12.3248 280.676 12.4682 280.676 12.6348V16.2148H279.876V8.81484Z" fill="black"/>
<path d="M261.075 35.8486L261.075 226.626" stroke="black" stroke-linecap="round" stroke-linejoin="round" stroke-dasharray="5 5"/>
<ellipse cx="261.466" cy="29.0236" rx="6.38362" ry="6.45231" fill="black"/>
<path d="M34.9565 236.708C34.1132 236.708 33.4275 236.37 32.8995 235.696C32.3789 235.014 32.1185 234.071 32.1185 232.869C32.1185 231.725 32.3715 230.797 32.8775 230.086C33.3835 229.374 34.0765 229.019 34.9565 229.019C35.7999 229.019 36.4819 229.36 37.0025 230.042C37.5305 230.716 37.7945 231.659 37.7945 232.869C37.7945 234.013 37.5415 234.94 37.0355 235.652C36.5369 236.356 35.8439 236.708 34.9565 236.708ZM34.9565 235.85C35.5505 235.85 36.0125 235.582 36.3425 235.047C36.6799 234.511 36.8485 233.785 36.8485 232.869C36.8485 231.923 36.6762 231.189 36.3315 230.669C35.9869 230.141 35.5285 229.877 34.9565 229.877C34.3625 229.877 33.8969 230.148 33.5595 230.691C33.2295 231.226 33.0645 231.952 33.0645 232.869C33.0645 233.807 33.2369 234.541 33.5815 235.069C33.9335 235.589 34.3919 235.85 34.9565 235.85Z" fill="black" fill-opacity="0.7"/>
<path d="M18.7593 199.271L18.7483 198.633L21.3333 195.993C21.7147 195.604 22.0007 195.259 22.1913 194.959C22.382 194.651 22.4773 194.324 22.4773 193.98C22.4773 193.562 22.3453 193.217 22.0813 192.946C21.8173 192.667 21.4763 192.528 21.0583 192.528C20.3397 192.528 19.8007 192.872 19.4413 193.562L18.7593 193.089C19.236 192.135 20.0207 191.659 21.1133 191.659C21.7513 191.659 22.294 191.86 22.7413 192.264C23.196 192.667 23.4233 193.206 23.4233 193.881C23.4233 194.306 23.3207 194.717 23.1153 195.113C22.9173 195.509 22.5873 195.941 22.1253 196.411L20.1563 198.391L20.1673 198.424H23.5113V199.271H18.7593ZM27.6452 199.337C26.8019 199.337 26.1162 198.999 25.5882 198.325C25.0675 197.643 24.8072 196.7 24.8072 195.498C24.8072 194.354 25.0602 193.426 25.5662 192.715C26.0722 192.003 26.7652 191.648 27.6452 191.648C28.4885 191.648 29.1705 191.989 29.6912 192.671C30.2192 193.345 30.4832 194.288 30.4832 195.498C30.4832 196.642 30.2302 197.569 29.7242 198.281C29.2255 198.985 28.5325 199.337 27.6452 199.337ZM27.6452 198.479C28.2392 198.479 28.7012 198.211 29.0312 197.676C29.3685 197.14 29.5372 196.414 29.5372 195.498C29.5372 194.552 29.3649 193.818 29.0202 193.298C28.6755 192.77 28.2172 192.506 27.6452 192.506C27.0512 192.506 26.5855 192.777 26.2482 193.32C25.9182 193.855 25.7532 194.581 25.7532 195.498C25.7532 196.436 25.9255 197.17 26.2702 197.698C26.6222 198.218 27.0805 198.479 27.6452 198.479ZM32.2455 199.271V191.461H33.2025V195.74H33.2245L36.7665 191.461H37.9985L34.9735 195.025L38.0755 199.271H36.8765L34.3355 195.773L33.2025 197.104V199.271H32.2455Z" fill="black" fill-opacity="0.7"/>
<path d="M21.643 162.897V161.566H18.134V160.906L21.786 155.34H22.567V160.73H23.667V161.566H22.567V162.897H21.643ZM19.212 160.752H21.676V156.913L19.212 160.752ZM27.6452 162.963C26.8019 162.963 26.1162 162.626 25.5882 161.951C25.0675 161.269 24.8072 160.327 24.8072 159.124C24.8072 157.98 25.0602 157.053 25.5662 156.341C26.0722 155.63 26.7652 155.274 27.6452 155.274C28.4885 155.274 29.1705 155.615 29.6912 156.297C30.2192 156.972 30.4832 157.914 30.4832 159.124C30.4832 160.268 30.2302 161.196 29.7242 161.907C29.2255 162.611 28.5325 162.963 27.6452 162.963ZM27.6452 162.105C28.2392 162.105 28.7012 161.838 29.0312 161.302C29.3685 160.767 29.5372 160.041 29.5372 159.124C29.5372 158.178 29.3649 157.445 29.0202 156.924C28.6755 156.396 28.2172 156.132 27.6452 156.132C27.0512 156.132 26.5855 156.404 26.2482 156.946C25.9182 157.482 25.7532 158.208 25.7532 159.124C25.7532 160.063 25.9255 160.796 26.2702 161.324C26.6222 161.845 27.0805 162.105 27.6452 162.105ZM32.2455 162.897V155.087H33.2025V159.366H33.2245L36.7665 155.087H37.9985L34.9735 158.651L38.0755 162.897H36.8765L34.3355 159.399L33.2025 160.73V162.897H32.2455Z" fill="black" fill-opacity="0.7"/>
<path d="M21.1948 120.761C21.8915 120.761 22.4561 120.978 22.8888 121.41C23.3288 121.836 23.5488 122.419 23.5488 123.159C23.5488 123.856 23.2995 124.435 22.8008 124.897C22.3095 125.359 21.6861 125.59 20.9308 125.59C20.1681 125.59 19.5338 125.319 19.0278 124.776C18.5291 124.226 18.2798 123.511 18.2798 122.631C18.2798 121.348 18.6538 120.259 19.4018 119.364C20.1571 118.47 21.0628 117.927 22.1188 117.736L22.3938 118.517C21.6531 118.708 21.0078 119.045 20.4578 119.529C19.9151 120.013 19.5411 120.648 19.3358 121.432C19.8418 120.985 20.4615 120.761 21.1948 120.761ZM20.9858 124.732C21.4698 124.732 21.8621 124.578 22.1628 124.27C22.4708 123.962 22.6248 123.588 22.6248 123.148C22.6248 122.686 22.4745 122.316 22.1738 122.037C21.8731 121.751 21.4771 121.608 20.9858 121.608C20.5971 121.608 20.2451 121.711 19.9298 121.916C19.6218 122.114 19.3725 122.364 19.1818 122.664V122.73C19.1818 123.317 19.3541 123.797 19.6988 124.171C20.0508 124.545 20.4798 124.732 20.9858 124.732ZM27.6452 125.59C26.8019 125.59 26.1162 125.253 25.5882 124.578C25.0675 123.896 24.8072 122.954 24.8072 121.751C24.8072 120.607 25.0602 119.68 25.5662 118.968C26.0722 118.257 26.7652 117.901 27.6452 117.901C28.4885 117.901 29.1705 118.242 29.6912 118.924C30.2192 119.599 30.4832 120.541 30.4832 121.751C30.4832 122.895 30.2302 123.823 29.7242 124.534C29.2255 125.238 28.5325 125.59 27.6452 125.59ZM27.6452 124.732C28.2392 124.732 28.7012 124.465 29.0312 123.929C29.3685 123.394 29.5372 122.668 29.5372 121.751C29.5372 120.805 29.3649 120.072 29.0202 119.551C28.6755 119.023 28.2172 118.759 27.6452 118.759C27.0512 118.759 26.5855 119.031 26.2482 119.573C25.9182 120.109 25.7532 120.835 25.7532 121.751C25.7532 122.69 25.9255 123.423 26.2702 123.951C26.6222 124.472 27.0805 124.732 27.6452 124.732ZM32.2455 125.524V117.714H33.2025V121.993H33.2245L36.7665 117.714H37.9985L34.9735 121.278L38.0755 125.524H36.8765L34.3355 122.026L33.2025 123.357V125.524H32.2455Z" fill="black" fill-opacity="0.7"/>
<path d="M20.8533 88.2183C20.0759 88.2183 19.4379 88.0167 18.9393 87.6133C18.4479 87.21 18.2023 86.6967 18.2023 86.0733C18.2023 85.582 18.3343 85.1603 18.5983 84.8083C18.8696 84.4563 19.2179 84.2107 19.6433 84.0713V84.0493C19.3573 83.9393 19.1079 83.7413 18.8953 83.4553C18.6826 83.1693 18.5763 82.8357 18.5763 82.4543C18.5763 81.8603 18.7889 81.391 19.2143 81.0463C19.6469 80.7017 20.1933 80.5293 20.8533 80.5293C21.5353 80.5293 22.0853 80.7053 22.5033 81.0573C22.9286 81.4093 23.1413 81.875 23.1413 82.4543C23.1413 82.8357 23.0313 83.173 22.8113 83.4663C22.5986 83.7597 22.3493 83.954 22.0633 84.0493V84.0713C22.4959 84.2033 22.8443 84.4453 23.1083 84.7973C23.3796 85.1493 23.5153 85.5747 23.5153 86.0733C23.5153 86.7113 23.2623 87.2283 22.7563 87.6243C22.2503 88.0203 21.6159 88.2183 20.8533 88.2183ZM20.8533 83.6643C21.2713 83.6643 21.6086 83.5617 21.8653 83.3563C22.1219 83.151 22.2503 82.876 22.2503 82.5313C22.2503 82.1867 22.1183 81.9043 21.8543 81.6843C21.5903 81.4643 21.2566 81.3543 20.8533 81.3543C20.4426 81.3543 20.1089 81.468 19.8523 81.6953C19.5956 81.9227 19.4673 82.2013 19.4673 82.5313C19.4673 82.876 19.5956 83.151 19.8523 83.3563C20.1089 83.5617 20.4426 83.6643 20.8533 83.6643ZM20.8533 87.3823C21.3593 87.3823 21.7699 87.2467 22.0853 86.9753C22.4079 86.6967 22.5693 86.363 22.5693 85.9743C22.5693 85.5417 22.4116 85.1933 22.0963 84.9293C21.7809 84.658 21.3666 84.5223 20.8533 84.5223C20.3399 84.5223 19.9256 84.658 19.6103 84.9293C19.3023 85.1933 19.1483 85.5417 19.1483 85.9743C19.1483 86.3777 19.3096 86.715 19.6323 86.9863C19.9623 87.2503 20.3693 87.3823 20.8533 87.3823ZM27.6452 88.2183C26.8019 88.2183 26.1162 87.881 25.5882 87.2063C25.0675 86.5243 24.8072 85.582 24.8072 84.3793C24.8072 83.2353 25.0602 82.3077 25.5662 81.5963C26.0722 80.885 26.7652 80.5293 27.6452 80.5293C28.4885 80.5293 29.1705 80.8703 29.6912 81.5523C30.2192 82.227 30.4832 83.1693 30.4832 84.3793C30.4832 85.5233 30.2302 86.451 29.7242 87.1623C29.2255 87.8663 28.5325 88.2183 27.6452 88.2183ZM27.6452 87.3603C28.2392 87.3603 28.7012 87.0927 29.0312 86.5573C29.3685 86.022 29.5372 85.296 29.5372 84.3793C29.5372 83.4333 29.3649 82.7 29.0202 82.1793C28.6755 81.6513 28.2172 81.3873 27.6452 81.3873C27.0512 81.3873 26.5855 81.6587 26.2482 82.2013C25.9182 82.7367 25.7532 83.4627 25.7532 84.3793C25.7532 85.318 25.9255 86.0513 26.2702 86.5793C26.6222 87.1 27.0805 87.3603 27.6452 87.3603ZM32.2455 88.1523V80.3423H33.2025V84.6213H33.2245L36.7665 80.3423H37.9985L34.9735 83.9063L38.0755 88.1523H36.8765L34.3355 84.6543L33.2025 85.9853V88.1523H32.2455Z" fill="black" fill-opacity="0.7"/>
<path d="M15.0329 49.7803V43.3343L13.5259 44.4783L13.0749 43.7853L15.1869 42.2233H15.9569V49.7803H15.0329ZM20.5796 49.8463C19.7363 49.8463 19.0506 49.5089 18.5226 48.8343C18.002 48.1523 17.7416 47.2099 17.7416 46.0073C17.7416 44.8633 17.9946 43.9356 18.5006 43.2243C19.0066 42.5129 19.6996 42.1573 20.5796 42.1573C21.423 42.1573 22.105 42.4983 22.6256 43.1803C23.1536 43.8549 23.4176 44.7973 23.4176 46.0073C23.4176 47.1513 23.1646 48.0789 22.6586 48.7903C22.16 49.4943 21.467 49.8463 20.5796 49.8463ZM20.5796 48.9883C21.1736 48.9883 21.6356 48.7206 21.9656 48.1853C22.303 47.6499 22.4716 46.9239 22.4716 46.0073C22.4716 45.0613 22.2993 44.3279 21.9546 43.8073C21.61 43.2793 21.1516 43.0153 20.5796 43.0153C19.9856 43.0153 19.52 43.2866 19.1826 43.8293C18.8526 44.3646 18.6876 45.0906 18.6876 46.0073C18.6876 46.9459 18.86 47.6793 19.2046 48.2073C19.5566 48.7279 20.015 48.9883 20.5796 48.9883ZM27.6439 49.8463C26.8006 49.8463 26.1149 49.5089 25.5869 48.8343C25.0662 48.1523 24.8059 47.2099 24.8059 46.0073C24.8059 44.8633 25.0589 43.9356 25.5649 43.2243C26.0709 42.5129 26.7639 42.1573 27.6439 42.1573C28.4872 42.1573 29.1692 42.4983 29.6899 43.1803C30.2179 43.8549 30.4819 44.7973 30.4819 46.0073C30.4819 47.1513 30.2289 48.0789 29.7229 48.7903C29.2242 49.4943 28.5312 49.8463 27.6439 49.8463ZM27.6439 48.9883C28.2379 48.9883 28.6999 48.7206 29.0299 48.1853C29.3672 47.6499 29.5359 46.9239 29.5359 46.0073C29.5359 45.0613 29.3636 44.3279 29.0189 43.8073C28.6742 43.2793 28.2159 43.0153 27.6439 43.0153C27.0499 43.0153 26.5842 43.2866 26.2469 43.8293C25.9169 44.3646 25.7519 45.0906 25.7519 46.0073C25.7519 46.9459 25.9242 47.6793 26.2689 48.2073C26.6209 48.7279 27.0792 48.9883 27.6439 48.9883ZM32.2442 49.7803V41.9703H33.2012V46.2493H33.2232L36.7652 41.9703H37.9972L34.9722 45.5343L38.0742 49.7803H36.8752L34.3342 46.2823L33.2012 47.6133V49.7803H32.2442Z" fill="black" fill-opacity="0.7"/>
<path d="M16.2248 12.4072V5.96123L14.7178 7.10523L14.2668 6.41223L16.3788 4.85023H17.1488V12.4072H16.2248ZM18.7575 12.4072L18.7465 11.7692L21.3315 9.12923C21.7129 8.74056 21.9989 8.39589 22.1895 8.09523C22.3802 7.78723 22.4755 7.46089 22.4755 7.11623C22.4755 6.69823 22.3435 6.35356 22.0795 6.08223C21.8155 5.80356 21.4745 5.66423 21.0565 5.66423C20.3379 5.66423 19.7989 6.00889 19.4395 6.69823L18.7575 6.22523C19.2342 5.27189 20.0189 4.79523 21.1115 4.79523C21.7495 4.79523 22.2922 4.99689 22.7395 5.40023C23.1942 5.80356 23.4215 6.34256 23.4215 7.01723C23.4215 7.44256 23.3189 7.85323 23.1135 8.24923C22.9155 8.64523 22.5855 9.07789 22.1235 9.54723L20.1545 11.5272L20.1655 11.5602H23.5095V12.4072H18.7575ZM27.6434 12.4732C26.8001 12.4732 26.1144 12.1359 25.5864 11.4612C25.0657 10.7792 24.8054 9.83689 24.8054 8.63423C24.8054 7.49023 25.0584 6.56256 25.5644 5.85123C26.0704 5.13989 26.7634 4.78423 27.6434 4.78423C28.4867 4.78423 29.1687 5.12523 29.6894 5.80723C30.2174 6.48189 30.4814 7.42423 30.4814 8.63423C30.4814 9.77823 30.2284 10.7059 29.7224 11.4172C29.2237 12.1212 28.5307 12.4732 27.6434 12.4732ZM27.6434 11.6152C28.2374 11.6152 28.6994 11.3476 29.0294 10.8122C29.3667 10.2769 29.5354 9.55089 29.5354 8.63423C29.5354 7.68823 29.3631 6.95489 29.0184 6.43423C28.6737 5.90623 28.2154 5.64223 27.6434 5.64223C27.0494 5.64223 26.5837 5.91356 26.2464 6.45623C25.9164 6.99156 25.7514 7.71756 25.7514 8.63423C25.7514 9.57289 25.9237 10.3062 26.2684 10.8342C26.6204 11.3549 27.0787 11.6152 27.6434 11.6152ZM32.2437 12.4072V4.59723H33.2007V8.87623H33.2227L36.7647 4.59723H37.9967L34.9717 8.16123L38.0737 12.4072H36.8747L34.3337 8.90923L33.2007 10.2402V12.4072H32.2437Z" fill="black" fill-opacity="0.7"/>
<rect x="44.8535" y="276.142" width="11" height="11" rx="5.5" fill="white" stroke="black" stroke-dasharray="2 2 2 2"/>
<g opacity="0.8">
<rect x="179.761" y="275.643" width="12" height="12" rx="6" fill="#2AA79F"/>
</g>
<path d="M202.609 285.672C202.276 285.672 201.936 285.595 201.589 285.442C201.249 285.282 200.963 285.055 200.729 284.762L201.229 284.122C201.649 284.602 202.096 284.842 202.569 284.842C203.343 284.842 203.729 284.325 203.729 283.292V278.522H204.609V283.312C204.609 284.885 203.943 285.672 202.609 285.672ZM208.793 285.682C208.046 285.682 207.439 285.445 206.973 284.972C206.506 284.499 206.273 283.905 206.273 283.192C206.273 282.479 206.506 281.885 206.973 281.412C207.439 280.932 208.046 280.692 208.793 280.692C209.519 280.692 210.119 280.925 210.593 281.392C211.066 281.859 211.303 282.459 211.303 283.192C211.303 283.925 211.066 284.525 210.593 284.992C210.119 285.452 209.519 285.682 208.793 285.682ZM208.793 284.942C209.266 284.942 209.663 284.779 209.983 284.452C210.309 284.125 210.473 283.705 210.473 283.192C210.473 282.679 210.309 282.259 209.983 281.932C209.663 281.599 209.266 281.432 208.793 281.432C208.293 281.432 207.886 281.602 207.573 281.942C207.259 282.282 207.103 282.699 207.103 283.192C207.103 283.685 207.259 284.102 207.573 284.442C207.893 284.775 208.299 284.942 208.793 284.942ZM215.012 285.682C214.332 285.682 213.765 285.455 213.312 285.002C212.865 284.542 212.642 283.949 212.642 283.222C212.642 282.495 212.865 281.892 213.312 281.412C213.759 280.932 214.325 280.692 215.012 280.692C215.372 280.692 215.702 280.775 216.002 280.942C216.302 281.102 216.539 281.329 216.712 281.622L216.732 281.612V280.752H217.542V285.622H216.762V284.742H216.752C216.372 285.369 215.792 285.682 215.012 285.682ZM215.132 284.942C215.592 284.942 215.979 284.782 216.292 284.462C216.605 284.142 216.762 283.729 216.762 283.222C216.762 282.715 216.609 282.292 216.302 281.952C215.995 281.605 215.605 281.432 215.132 281.432C214.659 281.432 214.262 281.599 213.942 281.932C213.622 282.265 213.462 282.695 213.462 283.222C213.462 283.715 213.615 284.125 213.922 284.452C214.235 284.779 214.639 284.942 215.132 284.942ZM219.449 285.622V280.752H220.259V281.632H220.269C220.675 281.005 221.265 280.692 222.039 280.692C222.579 280.692 223.005 280.865 223.319 281.212C223.632 281.552 223.789 282.059 223.789 282.732V285.622H222.979V282.962C222.979 281.942 222.579 281.432 221.779 281.432C221.312 281.432 220.942 281.589 220.669 281.902C220.395 282.215 220.259 282.645 220.259 283.192V285.622H219.449ZM225.662 285.622V280.752H226.472V281.632H226.482C226.888 281.005 227.478 280.692 228.252 280.692C228.792 280.692 229.218 280.865 229.532 281.212C229.845 281.552 230.002 282.059 230.002 282.732V285.622H229.192V282.962C229.192 281.942 228.792 281.432 227.992 281.432C227.525 281.432 227.155 281.589 226.882 281.902C226.608 282.215 226.472 282.645 226.472 283.192V285.622H225.662ZM233.925 285.682C233.245 285.682 232.678 285.455 232.225 285.002C231.778 284.542 231.555 283.949 231.555 283.222C231.555 282.495 231.778 281.892 232.225 281.412C232.672 280.932 233.238 280.692 233.925 280.692C234.285 280.692 234.615 280.775 234.915 280.942C235.215 281.102 235.452 281.329 235.625 281.622L235.645 281.612V280.752H236.455V285.622H235.675V284.742H235.665C235.285 285.369 234.705 285.682 233.925 285.682ZM234.045 284.942C234.505 284.942 234.892 284.782 235.205 284.462C235.518 284.142 235.675 283.729 235.675 283.222C235.675 282.715 235.522 282.292 235.215 281.952C234.908 281.605 234.518 281.432 234.045 281.432C233.572 281.432 233.175 281.599 232.855 281.932C232.535 282.265 232.375 282.695 232.375 283.222C232.375 283.715 232.528 284.125 232.835 284.452C233.148 284.779 233.552 284.942 234.045 284.942ZM237.982 280.932L238.312 278.522H239.182L238.642 280.932H237.982ZM242.246 285.682C241.506 285.682 240.873 285.452 240.346 284.992L240.756 284.372C241.163 284.765 241.659 284.962 242.246 284.962C242.533 284.962 242.759 284.902 242.926 284.782C243.093 284.655 243.176 284.495 243.176 284.302C243.176 284.082 243.026 283.902 242.726 283.762C242.646 283.729 242.409 283.639 242.016 283.492C241.783 283.412 241.593 283.335 241.446 283.262C241.299 283.189 241.149 283.095 240.996 282.982C240.849 282.869 240.739 282.732 240.666 282.572C240.593 282.405 240.556 282.215 240.556 282.002C240.556 281.629 240.706 281.319 241.006 281.072C241.313 280.819 241.696 280.692 242.156 280.692C242.783 280.692 243.343 280.892 243.836 281.292L243.416 281.932C243.043 281.585 242.613 281.412 242.126 281.412C241.926 281.412 241.749 281.465 241.596 281.572C241.449 281.679 241.376 281.822 241.376 282.002C241.376 282.175 241.453 282.319 241.606 282.432C241.759 282.539 241.989 282.649 242.296 282.762C242.929 283.009 243.323 283.179 243.476 283.272C243.829 283.505 244.003 283.845 243.996 284.292C243.996 284.692 243.843 285.025 243.536 285.292C243.236 285.552 242.806 285.682 242.246 285.682ZM248.889 285.622V278.522H253.239V279.312H249.759V281.692H252.609V282.482H249.759V284.832H253.449V285.622H248.889ZM257.061 285.682C256.381 285.682 255.815 285.455 255.361 285.002C254.915 284.542 254.691 283.949 254.691 283.222C254.691 282.495 254.915 281.892 255.361 281.412C255.808 280.932 256.375 280.692 257.061 280.692C257.421 280.692 257.751 280.775 258.051 280.942C258.351 281.102 258.588 281.329 258.761 281.622L258.781 281.612V280.752H259.591V285.622H258.811V284.742H258.801C258.421 285.369 257.841 285.682 257.061 285.682ZM257.181 284.942C257.641 284.942 258.028 284.782 258.341 284.462C258.655 284.142 258.811 283.729 258.811 283.222C258.811 282.715 258.658 282.292 258.351 281.952C258.045 281.605 257.655 281.432 257.181 281.432C256.708 281.432 256.311 281.599 255.991 281.932C255.671 282.265 255.511 282.695 255.511 283.222C255.511 283.715 255.665 284.125 255.971 284.452C256.285 284.779 256.688 284.942 257.181 284.942ZM261.498 285.622V280.752H262.308V281.642H262.328C262.701 281.009 263.228 280.692 263.908 280.692C263.995 280.692 264.061 280.695 264.108 280.702V281.602C263.948 281.589 263.841 281.582 263.788 281.582C263.335 281.582 262.975 281.739 262.708 282.052C262.441 282.365 262.308 282.772 262.308 283.272V285.622H261.498ZM265.475 285.622V280.752H266.285V281.632H266.295C266.702 281.005 267.292 280.692 268.065 280.692C268.605 280.692 269.032 280.865 269.345 281.212C269.658 281.552 269.815 282.059 269.815 282.732V285.622H269.005V282.962C269.005 281.942 268.605 281.432 267.805 281.432C267.338 281.432 266.968 281.589 266.695 281.902C266.422 282.215 266.285 282.645 266.285 283.192V285.622H265.475ZM272.578 279.692C272.465 279.805 272.325 279.862 272.158 279.862C271.992 279.862 271.852 279.805 271.738 279.692C271.625 279.579 271.568 279.442 271.568 279.282C271.568 279.122 271.625 278.985 271.738 278.872C271.852 278.759 271.992 278.702 272.158 278.702C272.325 278.702 272.465 278.759 272.578 278.872C272.692 278.985 272.748 279.122 272.748 279.282C272.748 279.442 272.692 279.579 272.578 279.692ZM271.748 285.622V280.752H272.558V285.622H271.748ZM274.591 285.622V280.752H275.401V281.632H275.411C275.818 281.005 276.408 280.692 277.181 280.692C277.721 280.692 278.148 280.865 278.461 281.212C278.774 281.552 278.931 282.059 278.931 282.732V285.622H278.121V282.962C278.121 281.942 277.721 281.432 276.921 281.432C276.454 281.432 276.084 281.589 275.811 281.902C275.538 282.215 275.401 282.645 275.401 283.192V285.622H274.591ZM282.954 287.662C282.221 287.662 281.561 287.485 280.974 287.132L281.174 286.412C281.767 286.752 282.351 286.922 282.924 286.922C283.451 286.922 283.854 286.785 284.134 286.512C284.414 286.245 284.554 285.895 284.554 285.462V284.682H284.534C284.141 285.249 283.577 285.532 282.844 285.532C282.171 285.532 281.607 285.309 281.154 284.862C280.707 284.415 280.484 283.835 280.484 283.122C280.484 282.422 280.701 281.842 281.134 281.382C281.574 280.922 282.134 280.692 282.814 280.692C283.541 280.692 284.111 280.972 284.524 281.532H284.544V280.752H285.354V285.262C285.354 286.002 285.157 286.585 284.764 287.012C284.371 287.445 283.767 287.662 282.954 287.662ZM282.944 284.782C283.431 284.782 283.824 284.622 284.124 284.302C284.424 283.982 284.574 283.575 284.574 283.082C284.574 282.602 284.417 282.209 284.104 281.902C283.797 281.595 283.414 281.442 282.954 281.442C282.467 281.442 282.071 281.599 281.764 281.912C281.457 282.225 281.304 282.622 281.304 283.102C281.304 283.609 281.457 284.015 281.764 284.322C282.077 284.629 282.471 284.782 282.944 284.782ZM288.722 285.682C287.982 285.682 287.348 285.452 286.822 284.992L287.232 284.372C287.638 284.765 288.135 284.962 288.722 284.962C289.008 284.962 289.235 284.902 289.402 284.782C289.568 284.655 289.652 284.495 289.652 284.302C289.652 284.082 289.502 283.902 289.202 283.762C289.122 283.729 288.885 283.639 288.492 283.492C288.258 283.412 288.068 283.335 287.922 283.262C287.775 283.189 287.625 283.095 287.472 282.982C287.325 282.869 287.215 282.732 287.142 282.572C287.068 282.405 287.032 282.215 287.032 282.002C287.032 281.629 287.182 281.319 287.482 281.072C287.788 280.819 288.172 280.692 288.632 280.692C289.258 280.692 289.818 280.892 290.312 281.292L289.892 281.932C289.518 281.585 289.088 281.412 288.602 281.412C288.402 281.412 288.225 281.465 288.072 281.572C287.925 281.679 287.852 281.822 287.852 282.002C287.852 282.175 287.928 282.319 288.082 282.432C288.235 282.539 288.465 282.649 288.772 282.762C289.405 283.009 289.798 283.179 289.952 283.272C290.305 283.505 290.478 283.845 290.472 284.292C290.472 284.692 290.318 285.025 290.012 285.292C289.712 285.552 289.282 285.682 288.722 285.682Z" fill="black"/>
<path d="M65.0538 285.622V278.522H67.5338C68.3272 278.522 68.9172 278.722 69.3038 279.122C69.6905 279.522 69.8838 280.055 69.8838 280.722C69.8838 281.449 69.6572 281.995 69.2038 282.362C68.7572 282.729 68.1505 282.912 67.3838 282.912H65.9238V285.622H65.0538ZM65.9238 282.122H67.3038C67.8705 282.122 68.2905 281.995 68.5638 281.742C68.8438 281.482 68.9838 281.135 68.9838 280.702C68.9838 280.255 68.8472 279.912 68.5738 279.672C68.3005 279.432 67.9238 279.312 67.4438 279.312H65.9238V282.122ZM73.49 285.682C72.81 285.682 72.2434 285.455 71.79 285.002C71.3434 284.542 71.12 283.949 71.12 283.222C71.12 282.495 71.3434 281.892 71.79 281.412C72.2367 280.932 72.8034 280.692 73.49 280.692C73.85 280.692 74.18 280.775 74.48 280.942C74.78 281.102 75.0167 281.329 75.19 281.622L75.21 281.612V280.752H76.02V285.622H75.24V284.742H75.23C74.85 285.369 74.27 285.682 73.49 285.682ZM73.61 284.942C74.07 284.942 74.4567 284.782 74.77 284.462C75.0834 284.142 75.24 283.729 75.24 283.222C75.24 282.715 75.0867 282.292 74.78 281.952C74.4734 281.605 74.0834 281.432 73.61 281.432C73.1367 281.432 72.74 281.599 72.42 281.932C72.1 282.265 71.94 282.695 71.94 283.222C71.94 283.715 72.0934 284.125 72.4 284.452C72.7134 284.779 73.1167 284.942 73.61 284.942ZM77.9267 285.622V280.752H78.7367V281.642H78.7567C79.13 281.009 79.6567 280.692 80.3367 280.692C80.4234 280.692 80.49 280.695 80.5367 280.702V281.602C80.3767 281.589 80.27 281.582 80.2167 281.582C79.7634 281.582 79.4034 281.739 79.1367 282.052C78.87 282.365 78.7367 282.772 78.7367 283.272V285.622H77.9267ZM86.0773 283.102C86.0773 283.149 86.074 283.212 86.0673 283.292C86.0607 283.372 86.0573 283.419 86.0573 283.432H82.2573C82.3107 283.892 82.4873 284.259 82.7873 284.532C83.0873 284.805 83.4673 284.942 83.9273 284.942C84.514 284.942 84.984 284.725 85.3373 284.292L85.9073 284.772C85.434 285.379 84.764 285.682 83.8973 285.682C83.1707 285.682 82.5773 285.452 82.1173 284.992C81.664 284.532 81.4373 283.932 81.4373 283.192C81.4373 282.459 81.6607 281.859 82.1073 281.392C82.5607 280.925 83.1373 280.692 83.8373 280.692C84.4973 280.692 85.034 280.919 85.4473 281.372C85.8673 281.825 86.0773 282.402 86.0773 283.102ZM84.7973 281.802C84.544 281.555 84.2207 281.432 83.8273 281.432C83.434 281.432 83.094 281.552 82.8073 281.792C82.5273 282.032 82.3507 282.359 82.2773 282.772H85.2673C85.2073 282.365 85.0507 282.042 84.7973 281.802ZM87.7164 285.622V280.752H88.5264V281.632H88.5364C88.9431 281.005 89.5331 280.692 90.3064 280.692C90.8464 280.692 91.2731 280.865 91.5864 281.212C91.8997 281.552 92.0564 282.059 92.0564 282.732V285.622H91.2464V282.962C91.2464 281.942 90.8464 281.432 90.0464 281.432C89.5797 281.432 89.2097 281.589 88.9364 281.902C88.6631 282.215 88.5264 282.645 88.5264 283.192V285.622H87.7164ZM95.2996 285.682C94.4596 285.682 94.0396 285.179 94.0396 284.172V281.452H93.4096V280.752H94.0396V279.092L94.8496 279.002V280.752H96.4596V281.452H94.8496V284.052C94.8496 284.359 94.893 284.582 94.9796 284.722C95.0663 284.855 95.2196 284.922 95.4396 284.922C95.6863 284.922 95.963 284.839 96.2696 284.672L96.4796 285.382C96.1396 285.582 95.7463 285.682 95.2996 285.682ZM97.9944 285.622V278.262H98.8044V281.602H98.8144C99.2144 280.995 99.8144 280.692 100.614 280.692C101.161 280.692 101.591 280.859 101.904 281.192C102.224 281.525 102.384 282.029 102.384 282.702V285.622H101.574V282.932C101.574 281.932 101.174 281.432 100.374 281.432C99.8878 281.432 99.5044 281.585 99.2244 281.892C98.9444 282.199 98.8044 282.625 98.8044 283.172V285.622H97.9944ZM106.466 285.682C105.72 285.682 105.113 285.445 104.646 284.972C104.18 284.499 103.946 283.905 103.946 283.192C103.946 282.479 104.18 281.885 104.646 281.412C105.113 280.932 105.72 280.692 106.466 280.692C107.193 280.692 107.793 280.925 108.266 281.392C108.74 281.859 108.976 282.459 108.976 283.192C108.976 283.925 108.74 284.525 108.266 284.992C107.793 285.452 107.193 285.682 106.466 285.682ZM106.466 284.942C106.94 284.942 107.336 284.779 107.656 284.452C107.983 284.125 108.146 283.705 108.146 283.192C108.146 282.679 107.983 282.259 107.656 281.932C107.336 281.599 106.94 281.432 106.466 281.432C105.966 281.432 105.56 281.602 105.246 281.942C104.933 282.282 104.776 282.699 104.776 283.192C104.776 283.685 104.933 284.102 105.246 284.442C105.566 284.775 105.973 284.942 106.466 284.942ZM112.846 285.682C112.099 285.682 111.492 285.445 111.026 284.972C110.559 284.499 110.326 283.905 110.326 283.192C110.326 282.479 110.559 281.885 111.026 281.412C111.492 280.932 112.099 280.692 112.846 280.692C113.572 280.692 114.172 280.925 114.646 281.392C115.119 281.859 115.356 282.459 115.356 283.192C115.356 283.925 115.119 284.525 114.646 284.992C114.172 285.452 113.572 285.682 112.846 285.682ZM112.846 284.942C113.319 284.942 113.716 284.779 114.036 284.452C114.362 284.125 114.526 283.705 114.526 283.192C114.526 282.679 114.362 282.259 114.036 281.932C113.716 281.599 113.319 281.432 112.846 281.432C112.346 281.432 111.939 281.602 111.626 281.942C111.312 282.282 111.156 282.699 111.156 283.192C111.156 283.685 111.312 284.102 111.626 284.442C111.946 284.775 112.352 284.942 112.846 284.942ZM119.085 285.682C118.398 285.682 117.828 285.455 117.375 285.002C116.922 284.542 116.695 283.949 116.695 283.222C116.695 282.502 116.922 281.902 117.375 281.422C117.828 280.935 118.395 280.692 119.075 280.692C119.848 280.692 120.428 281.002 120.815 281.622H120.825V278.262H121.635V285.622H120.855V284.722H120.845C120.465 285.362 119.878 285.682 119.085 285.682ZM119.195 284.942C119.662 284.942 120.055 284.782 120.375 284.462C120.695 284.142 120.855 283.729 120.855 283.222C120.855 282.715 120.698 282.292 120.385 281.952C120.078 281.605 119.685 281.432 119.205 281.432C118.732 281.432 118.332 281.599 118.005 281.932C117.685 282.265 117.525 282.695 117.525 283.222C117.525 283.715 117.678 284.125 117.985 284.452C118.298 284.779 118.702 284.942 119.195 284.942ZM126.895 285.622V278.522H129.375C130.169 278.522 130.759 278.722 131.145 279.122C131.532 279.522 131.725 280.055 131.725 280.722C131.725 281.449 131.499 281.995 131.045 282.362C130.599 282.729 129.992 282.912 129.225 282.912H127.765V285.622H126.895ZM127.765 282.122H129.145C129.712 282.122 130.132 281.995 130.405 281.742C130.685 281.482 130.825 281.135 130.825 280.702C130.825 280.255 130.689 279.912 130.415 279.672C130.142 279.432 129.765 279.312 129.285 279.312H127.765V282.122ZM137.612 283.102C137.612 283.149 137.608 283.212 137.602 283.292C137.595 283.372 137.592 283.419 137.592 283.432H133.792C133.845 283.892 134.022 284.259 134.322 284.532C134.622 284.805 135.002 284.942 135.462 284.942C136.048 284.942 136.518 284.725 136.872 284.292L137.442 284.772C136.968 285.379 136.298 285.682 135.432 285.682C134.705 285.682 134.112 285.452 133.652 284.992C133.198 284.532 132.972 283.932 132.972 283.192C132.972 282.459 133.195 281.859 133.642 281.392C134.095 280.925 134.672 280.692 135.372 280.692C136.032 280.692 136.568 280.919 136.982 281.372C137.402 281.825 137.612 282.402 137.612 283.102ZM136.332 281.802C136.078 281.555 135.755 281.432 135.362 281.432C134.968 281.432 134.628 281.552 134.342 281.792C134.062 282.032 133.885 282.359 133.812 282.772H136.802C136.742 282.365 136.585 282.042 136.332 281.802ZM139.251 285.622V280.752H140.061V281.632H140.071C140.477 281.005 141.067 280.692 141.841 280.692C142.381 280.692 142.807 280.865 143.121 281.212C143.434 281.552 143.591 282.059 143.591 282.732V285.622H142.781V282.962C142.781 281.942 142.381 281.432 141.581 281.432C141.114 281.432 140.744 281.589 140.471 281.902C140.197 282.215 140.061 282.645 140.061 283.192V285.622H139.251ZM147.514 285.682C146.834 285.682 146.267 285.455 145.814 285.002C145.367 284.542 145.144 283.949 145.144 283.222C145.144 282.495 145.367 281.892 145.814 281.412C146.261 280.932 146.827 280.692 147.514 280.692C147.874 280.692 148.204 280.775 148.504 280.942C148.804 281.102 149.041 281.329 149.214 281.622L149.234 281.612V280.752H150.044V285.622H149.264V284.742H149.254C148.874 285.369 148.294 285.682 147.514 285.682ZM147.634 284.942C148.094 284.942 148.481 284.782 148.794 284.462C149.107 284.142 149.264 283.729 149.264 283.222C149.264 282.715 149.111 282.292 148.804 281.952C148.497 281.605 148.107 281.432 147.634 281.432C147.161 281.432 146.764 281.599 146.444 281.932C146.124 282.265 145.964 282.695 145.964 283.222C145.964 283.715 146.117 284.125 146.424 284.452C146.737 284.779 147.141 284.942 147.634 284.942ZM152.011 285.622V278.262H152.821V285.622H152.011ZM156.223 285.682C155.383 285.682 154.963 285.179 154.963 284.172V281.452H154.333V280.752H154.963V279.092L155.773 279.002V280.752H157.383V281.452H155.773V284.052C155.773 284.359 155.817 284.582 155.903 284.722C155.99 284.855 156.143 284.922 156.363 284.922C156.61 284.922 156.887 284.839 157.193 284.672L157.403 285.382C157.063 285.582 156.67 285.682 156.223 285.682ZM159.578 287.602L160.448 285.432L158.378 280.752H159.258L160.838 284.452H160.858L162.328 280.752H163.178L160.418 287.602H159.578Z" fill="black"/>
<rect x="313.036" y="275.643" width="12" height="12" rx="6" fill="#70305E"/>
<path d="M336.304 285.622V278.522H338.784C339.577 278.522 340.167 278.722 340.554 279.122C340.94 279.522 341.134 280.055 341.134 280.722C341.134 281.449 340.907 281.995 340.454 282.362C340.007 282.729 339.4 282.912 338.634 282.912H337.174V285.622H336.304ZM337.174 282.122H338.554C339.12 282.122 339.54 281.995 339.814 281.742C340.094 281.482 340.234 281.135 340.234 280.702C340.234 280.255 340.097 279.912 339.824 279.672C339.55 279.432 339.174 279.312 338.694 279.312H337.174V282.122ZM344.74 285.682C344.06 285.682 343.493 285.455 343.04 285.002C342.593 284.542 342.37 283.949 342.37 283.222C342.37 282.495 342.593 281.892 343.04 281.412C343.487 280.932 344.053 280.692 344.74 280.692C345.1 280.692 345.43 280.775 345.73 280.942C346.03 281.102 346.267 281.329 346.44 281.622L346.46 281.612V280.752H347.27V285.622H346.49V284.742H346.48C346.1 285.369 345.52 285.682 344.74 285.682ZM344.86 284.942C345.32 284.942 345.707 284.782 346.02 284.462C346.333 284.142 346.49 283.729 346.49 283.222C346.49 282.715 346.337 282.292 346.03 281.952C345.723 281.605 345.333 281.432 344.86 281.432C344.387 281.432 343.99 281.599 343.67 281.932C343.35 282.265 343.19 282.695 343.19 283.222C343.19 283.715 343.343 284.125 343.65 284.452C343.963 284.779 344.367 284.942 344.86 284.942ZM350.897 285.682C350.317 285.682 349.867 285.515 349.547 285.182C349.227 284.842 349.067 284.332 349.067 283.652V280.752H349.877V283.422C349.877 283.955 349.973 284.342 350.167 284.582C350.367 284.822 350.667 284.942 351.067 284.942C351.473 284.942 351.817 284.779 352.097 284.452C352.377 284.119 352.517 283.672 352.517 283.112V280.752H353.327V285.622H352.517V284.782H352.507C352.327 285.069 352.093 285.292 351.807 285.452C351.527 285.605 351.223 285.682 350.897 285.682ZM355.303 285.622V278.262H356.113V285.622H355.303ZM357.708 280.932L358.038 278.522H358.908L358.368 280.932H357.708ZM361.972 285.682C361.232 285.682 360.599 285.452 360.072 284.992L360.482 284.372C360.889 284.765 361.385 284.962 361.972 284.962C362.259 284.962 362.485 284.902 362.652 284.782C362.819 284.655 362.902 284.495 362.902 284.302C362.902 284.082 362.752 283.902 362.452 283.762C362.372 283.729 362.135 283.639 361.742 283.492C361.509 283.412 361.319 283.335 361.172 283.262C361.025 283.189 360.875 283.095 360.722 282.982C360.575 282.869 360.465 282.732 360.392 282.572C360.319 282.405 360.282 282.215 360.282 282.002C360.282 281.629 360.432 281.319 360.732 281.072C361.039 280.819 361.422 280.692 361.882 280.692C362.509 280.692 363.069 280.892 363.562 281.292L363.142 281.932C362.769 281.585 362.339 281.412 361.852 281.412C361.652 281.412 361.475 281.465 361.322 281.572C361.175 281.679 361.102 281.822 361.102 282.002C361.102 282.175 361.179 282.319 361.332 282.432C361.485 282.539 361.715 282.649 362.022 282.762C362.655 283.009 363.049 283.179 363.202 283.272C363.555 283.505 363.729 283.845 363.722 284.292C363.722 284.692 363.569 285.025 363.262 285.292C362.962 285.552 362.532 285.682 361.972 285.682ZM368.615 285.622V278.522H372.965V279.312H369.485V281.692H372.335V282.482H369.485V284.832H373.175V285.622H368.615ZM376.787 285.682C376.107 285.682 375.541 285.455 375.087 285.002C374.641 284.542 374.417 283.949 374.417 283.222C374.417 282.495 374.641 281.892 375.087 281.412C375.534 280.932 376.101 280.692 376.787 280.692C377.147 280.692 377.477 280.775 377.777 280.942C378.077 281.102 378.314 281.329 378.487 281.622L378.507 281.612V280.752H379.317V285.622H378.537V284.742H378.527C378.147 285.369 377.567 285.682 376.787 285.682ZM376.907 284.942C377.367 284.942 377.754 284.782 378.067 284.462C378.381 284.142 378.537 283.729 378.537 283.222C378.537 282.715 378.384 282.292 378.077 281.952C377.771 281.605 377.381 281.432 376.907 281.432C376.434 281.432 376.037 281.599 375.717 281.932C375.397 282.265 375.237 282.695 375.237 283.222C375.237 283.715 375.391 284.125 375.697 284.452C376.011 284.779 376.414 284.942 376.907 284.942ZM381.224 285.622V280.752H382.034V281.642H382.054C382.427 281.009 382.954 280.692 383.634 280.692C383.721 280.692 383.787 280.695 383.834 280.702V281.602C383.674 281.589 383.567 281.582 383.514 281.582C383.061 281.582 382.701 281.739 382.434 282.052C382.167 282.365 382.034 282.772 382.034 283.272V285.622H381.224ZM385.201 285.622V280.752H386.011V281.632H386.021C386.428 281.005 387.018 280.692 387.791 280.692C388.331 280.692 388.758 280.865 389.071 281.212C389.384 281.552 389.541 282.059 389.541 282.732V285.622H388.731V282.962C388.731 281.942 388.331 281.432 387.531 281.432C387.064 281.432 386.694 281.589 386.421 281.902C386.148 282.215 386.011 282.645 386.011 283.192V285.622H385.201ZM392.304 279.692C392.191 279.805 392.051 279.862 391.884 279.862C391.717 279.862 391.577 279.805 391.464 279.692C391.351 279.579 391.294 279.442 391.294 279.282C391.294 279.122 391.351 278.985 391.464 278.872C391.577 278.759 391.717 278.702 391.884 278.702C392.051 278.702 392.191 278.759 392.304 278.872C392.417 278.985 392.474 279.122 392.474 279.282C392.474 279.442 392.417 279.579 392.304 279.692ZM391.474 285.622V280.752H392.284V285.622H391.474ZM394.317 285.622V280.752H395.127V281.632H395.137C395.543 281.005 396.133 280.692 396.907 280.692C397.447 280.692 397.873 280.865 398.187 281.212C398.5 281.552 398.657 282.059 398.657 282.732V285.622H397.847V282.962C397.847 281.942 397.447 281.432 396.647 281.432C396.18 281.432 395.81 281.589 395.537 281.902C395.263 282.215 395.127 282.645 395.127 283.192V285.622H394.317ZM402.68 287.662C401.947 287.662 401.287 287.485 400.7 287.132L400.9 286.412C401.493 286.752 402.077 286.922 402.65 286.922C403.177 286.922 403.58 286.785 403.86 286.512C404.14 286.245 404.28 285.895 404.28 285.462V284.682H404.26C403.867 285.249 403.303 285.532 402.57 285.532C401.897 285.532 401.333 285.309 400.88 284.862C400.433 284.415 400.21 283.835 400.21 283.122C400.21 282.422 400.427 281.842 400.86 281.382C401.3 280.922 401.86 280.692 402.54 280.692C403.267 280.692 403.837 280.972 404.25 281.532H404.27V280.752H405.08V285.262C405.08 286.002 404.883 286.585 404.49 287.012C404.097 287.445 403.493 287.662 402.68 287.662ZM402.67 284.782C403.157 284.782 403.55 284.622 403.85 284.302C404.15 283.982 404.3 283.575 404.3 283.082C404.3 282.602 404.143 282.209 403.83 281.902C403.523 281.595 403.14 281.442 402.68 281.442C402.193 281.442 401.797 281.599 401.49 281.912C401.183 282.225 401.03 282.622 401.03 283.102C401.03 283.609 401.183 284.015 401.49 284.322C401.803 284.629 402.197 284.782 402.67 284.782ZM408.448 285.682C407.708 285.682 407.074 285.452 406.548 284.992L406.958 284.372C407.364 284.765 407.861 284.962 408.448 284.962C408.734 284.962 408.961 284.902 409.128 284.782C409.294 284.655 409.378 284.495 409.378 284.302C409.378 284.082 409.228 283.902 408.928 283.762C408.848 283.729 408.611 283.639 408.218 283.492C407.984 283.412 407.794 283.335 407.648 283.262C407.501 283.189 407.351 283.095 407.198 282.982C407.051 282.869 406.941 282.732 406.868 282.572C406.794 282.405 406.758 282.215 406.758 282.002C406.758 281.629 406.908 281.319 407.208 281.072C407.514 280.819 407.898 280.692 408.358 280.692C408.984 280.692 409.544 280.892 410.038 281.292L409.618 281.932C409.244 281.585 408.814 281.412 408.328 281.412C408.128 281.412 407.951 281.465 407.798 281.572C407.651 281.679 407.578 281.822 407.578 282.002C407.578 282.175 407.654 282.319 407.808 282.432C407.961 282.539 408.191 282.649 408.498 282.762C409.131 283.009 409.524 283.179 409.678 283.272C410.031 283.505 410.204 283.845 410.198 284.292C410.198 284.692 410.044 285.025 409.738 285.292C409.438 285.552 409.008 285.682 408.448 285.682Z" fill="black"/>
</svg>
