<svg width="100%" height="100%" viewBox="0 0 47 47" fill="none" xmlns="http://www.w3.org/2000/svg">
<ellipse cx="23.3835" cy="23.1775" rx="23.2682" ry="23.1775" fill="#2AA79F"/>
<g clip-path="url(#clip0)">
<path d="M11.2895 30.3154C10.4967 30.3154 9.85156 30.9579 9.85156 31.7477C9.85156 32.5375 10.4967 33.1801 11.2895 33.1801C12.0824 33.1801 12.7275 32.5375 12.7275 31.7477C12.7275 30.9579 12.0824 30.3154 11.2895 30.3154ZM11.2895 32.3534C10.9542 32.3534 10.6815 32.0817 10.6815 31.7477C10.6815 31.4138 10.9542 31.1421 11.2895 31.1421C11.6247 31.1421 11.8975 31.4138 11.8975 31.7477C11.8975 32.0817 11.6248 32.3534 11.2895 32.3534Z" fill="white"/>
<path d="M34.5913 17.7689C34.4254 16.8818 33.9895 16.0809 33.3307 15.4527C33.1651 15.2948 32.9025 15.3005 32.744 15.4654C32.5856 15.6303 32.5913 15.8919 32.7568 16.0498C33.2893 16.5577 33.6415 17.2044 33.7754 17.9202C33.8385 18.2577 34.1088 18.5231 34.4482 18.5805C36.1285 18.8654 37.348 20.3063 37.348 22.0067C37.348 23.7072 36.1285 25.1481 34.4483 25.433C34.1089 25.4905 33.8384 25.7558 33.7754 26.0932C33.4184 28.0031 31.5535 29.2469 29.6464 28.8582C29.3229 28.7922 28.9928 28.9234 28.8052 29.1918C27.8811 30.5147 26.2624 31.1879 24.6534 30.8923C24.4282 30.8506 24.2117 30.9992 24.1701 31.2238C24.1285 31.4482 24.2774 31.6638 24.5028 31.7053C24.8005 31.76 25.1054 31.7878 25.4088 31.7878C27.0312 31.7878 28.5538 30.9957 29.4831 29.6687C31.832 30.1457 34.1479 28.6185 34.5875 26.2479C36.6679 25.8953 38.178 24.1116 38.178 22.0067C38.178 19.9019 36.6679 18.1183 34.5913 17.7689Z" fill="white"/>
<path d="M31.4584 14.4028C30.8174 14.2329 30.1356 14.2121 29.4834 14.3446C27.5115 11.5286 23.3235 11.5179 21.3409 14.3362C18.9892 13.8829 16.7111 15.4239 16.2771 17.7654C14.1966 18.118 12.6865 19.9017 12.6865 22.0066C12.6865 24.1114 14.1966 25.8951 16.2732 26.2444C16.71 28.581 18.9797 30.1316 21.3409 29.677C21.665 30.1377 22.0631 30.5379 22.524 30.8665C22.5972 30.9186 22.6816 30.9437 22.7651 30.9437C23.1664 30.9434 23.3352 30.428 23.0069 30.194C22.6211 29.919 22.2882 29.5841 22.0177 29.1984C21.8318 28.9335 21.5062 28.8021 21.1882 28.8642C20.9685 28.9069 20.7434 28.9285 20.5192 28.9285C18.8388 28.9285 17.3962 27.736 17.089 26.093C17.0259 25.7556 16.7556 25.4903 16.4162 25.4328C14.7359 25.1479 13.5163 23.707 13.5163 22.0065C13.5163 20.306 14.7359 18.8652 16.4162 18.5803C16.7555 18.5228 17.0259 18.2575 17.0891 17.9201C17.4444 16.0191 19.2917 14.7801 21.1882 15.1489C21.5059 15.2108 21.8318 15.0795 22.0177 14.8147C22.792 13.7111 24.0598 13.0522 25.4089 13.0522C26.7617 13.0522 28.0314 13.7137 28.8054 14.8216C28.9931 15.0901 29.3234 15.221 29.6466 15.1551C30.1746 15.0475 30.7264 15.0642 31.2448 15.2017C31.4663 15.2605 31.6936 15.1292 31.7526 14.9086C31.8116 14.688 31.6799 14.4616 31.4584 14.4028Z" fill="white"/>
<path d="M18.5518 31.258C18.513 31.0331 18.2987 30.882 18.0725 30.9207C17.8467 30.9594 17.6951 31.1731 17.7338 31.3981C17.9067 32.4002 17.1289 33.3 16.127 33.3C15.2277 33.3 14.4959 32.5711 14.4959 31.6753C14.4959 30.5077 15.703 29.7199 16.7764 30.1848C16.9865 30.2759 17.231 30.1798 17.3224 29.9705C17.4138 29.7612 17.3175 29.5177 17.1074 29.4267C15.4848 28.7237 13.666 29.9159 13.666 31.6752C13.666 33.0268 14.77 34.1266 16.127 34.1266C17.6404 34.1266 18.812 32.7664 18.5518 31.258Z" fill="white"/>
</g>
<defs>
<clipPath id="clip0">
<rect width="28.3266" height="28.2161" fill="white" transform="translate(9.85156 9.06934)"/>
</clipPath>
</defs>
</svg>
