<svg width="235" height="138" viewBox="0 0 235 138" fill="none" xmlns="http://www.w3.org/2000/svg">
<path d="M9.0241 137.715C9.0241 137.715 -11.6953 103.214 10.9805 65.8608C31.0999 32.7192 62.8442 59.072 80.8313 25.3489C105.361 -20.6398 227.776 -2.6798 212.273 68.0756C204.771 102.316 246.324 103.561 230.866 137.788L9.0241 137.715Z" fill="#F9F7FF"/>
<path d="M50.1833 22.315C50.1371 22.0354 49.5371 19.0422 45.3081 19.5535C45.3081 19.5535 47.4129 19.4949 47.9026 20.4341C47.9026 20.4341 46.3305 19.4275 45.2351 20.0053C44.1397 20.5832 43.7579 22.892 43.8471 23.6163C43.9362 24.3415 44.8832 26.574 45.6381 26.6566C45.9243 26.6876 46.2389 26.6175 46.5202 26.5172C46.3702 26.8794 46.2291 27.2753 46.1018 27.712C44.923 31.7526 47.1437 35.1657 48.5115 34.5319C49.3887 34.1253 49.8719 35.7879 49.8719 35.7879L57.6886 26.5296C57.6894 26.5296 53.4588 19.676 50.1833 22.315Z" fill="#2C3A64"/>
<path d="M60.3666 133.825L58.4653 134.599C58.4653 134.599 50.2076 122.06 49.1908 111.029C49.0092 109.059 49.07 107.15 49.4625 105.388C49.4625 105.388 49.3814 104.883 49.2403 103.991C49.1754 103.575 49.0944 103.073 49.0027 102.499C48.7344 100.815 48.3647 98.5108 47.9422 95.8868C46.9709 89.849 45.7118 82.1308 44.734 76.4569L45.2464 76.2767L50.7889 74.3194L51.9345 70.3364L56.0614 69.147C56.0614 69.147 56.9832 71.122 57.8078 80.4495C57.9602 81.6727 58.098 83.022 58.2018 84.4857C58.5229 88.9516 58.5464 94.4914 57.8094 100.825C57.6197 102.446 57.3813 104.12 57.0846 105.839C56.8673 107.1 56.8348 108.818 56.9265 110.792C57.3432 119.808 60.3666 133.825 60.3666 133.825Z" fill="#2B478B"/>
<path d="M58.2037 84.484L49.2414 103.991C49.1765 103.575 49.0955 103.073 49.0038 102.499C48.7355 100.815 48.3658 98.5108 47.9433 95.8868C46.972 89.849 45.7129 82.1308 44.7351 76.4569L45.2475 76.2767L50.79 74.3194L51.9356 70.3364L56.0625 69.147C56.0625 69.147 56.9843 71.122 57.8089 80.4495C57.9613 81.6719 58.0991 83.0211 58.2037 84.484Z" fill="#233862"/>
<path d="M54.2605 71.6495L54.053 69.702C50.5772 70.713 41.2898 66.8774 41.2898 66.8774C41.2898 66.8774 37.9226 70.1183 38.3645 77.8862C38.5801 81.6774 38.9742 97.7884 39.3861 102.556C39.5352 104.284 39.665 105.514 39.7185 106.005C39.7193 106.007 39.7193 106.008 39.7193 106.009C39.7355 106.159 39.6877 106.3 39.6179 106.432C39.0115 107.558 38.5096 108.731 38.0985 109.93C34.0576 121.719 38.7212 136.236 38.7212 136.236L39.9309 135.703C39.9309 135.703 42.5846 119.547 44.7404 112.409C45.1061 111.198 45.4571 110.247 45.779 109.679C46.7163 108.022 47.5862 105.316 48.3759 102.096C49.8686 96.0095 51.0693 88.0925 51.8696 81.981C51.9806 81.9863 54.2605 71.6495 54.2605 71.6495Z" fill="#2B478B"/>
<path d="M59.8646 56.0363C59.9327 56.1126 59.9984 56.189 60.0787 56.26C63.0493 59.2905 67.0505 61.9703 69.191 62.5606C70.5993 62.9547 73.7037 62.4266 76.2812 61.846C77.9992 61.475 79.4943 61.0649 80.1113 60.9042C80.3083 60.8536 80.4178 60.8163 80.4178 60.8163L80.1486 58.9132C80.1486 58.9132 78.6033 58.7792 76.6833 58.5422C74.0094 58.1978 70.6196 57.6696 69.7512 57.1077C67.7373 55.7975 64.2031 50.302 61.3678 46.8472C61.2194 46.6591 61.0719 46.478 60.9259 46.3004C60.8189 46.1708 60.7127 46.043 60.6065 45.9188C60.5846 45.8939 60.5578 45.8531 60.523 45.8318C60.3924 45.6951 60.2822 45.5672 60.1751 45.4554C60.1711 45.4412 60.1524 45.4314 60.1346 45.4199C59.6303 44.866 58.7474 44.1931 58.7474 44.1931C58.252 43.8842 57.8442 43.8239 57.5572 44.0875C57.5572 44.0875 57.1866 44.4843 56.8234 45.2326C56.7464 45.3888 56.6702 45.561 56.598 45.7492C56.538 45.8522 56.508 45.9614 56.4788 46.0705C56.238 46.762 56.0629 47.6302 56.0945 48.643C56.1164 49.4099 56.2502 50.2559 56.5615 51.1888C57.0553 52.72 58.3071 54.4216 59.8646 56.0363Z" fill="#FFB27D"/>
<path d="M57.2784 48.0083C56.2714 48.7282 55.0163 49.3087 53.4515 49.654C47.5847 50.9483 45.4897 45.4865 44.7462 41.7574C45.5537 41.2843 46.3045 41.1973 46.7383 41.1538C47.1607 41.1121 47.605 41.0899 47.9723 41.081C48.6412 40.552 49.6741 38.3364 49.9798 34.855L50.2522 34.9437L54.8104 36.4616C54.8104 36.4616 54.559 38.0541 54.4163 39.5622C54.3061 40.7419 54.2647 41.8719 54.4617 42.1551C54.8177 42.251 55.0317 42.3131 55.0317 42.3131C55.0317 42.3131 55.0317 42.3149 55.0341 42.3175C55.0925 42.432 56.3638 44.8722 57.2784 48.0083Z" fill="#FFB27D"/>
<path d="M59.3206 52.0213C59.2938 52.158 59.2606 52.2921 59.2241 52.4297C58.1944 56.1996 57.3609 71.2694 57.3609 71.2694C57.9066 73.153 47.9041 73.5391 42.3884 72.6683C40.3825 72.3523 38.9701 71.8703 38.8728 71.2338C37.8861 68.7981 40.3014 64.2488 41.696 61.9365C41.8711 61.6462 42.0219 61.3409 42.1459 61.0249C42.4613 60.2295 42.6129 59.3632 42.5813 58.4897C42.5392 57.2949 42.4459 56.1348 42.3324 55.0474C42.1192 52.9978 41.833 51.2082 41.6838 49.9416C41.6838 49.9416 41.6838 49.9416 41.6838 49.9407C41.974 49.6247 42.2562 49.3317 42.5197 49.053C42.921 48.6234 43.2729 48.2257 43.5194 47.8396C43.791 47.4188 43.9418 47.0078 43.9086 46.5773C43.8826 46.2515 43.8291 45.9213 43.7545 45.5956C43.7196 45.4411 43.6807 45.2884 43.6386 45.1349C43.191 43.5282 42.3665 42.1381 42.3665 42.1381C43.8599 41.1821 46.7374 41.1528 46.7374 41.1528C46.7374 41.1528 46.7568 41.325 46.7933 41.6064C46.9336 42.7364 47.3268 45.6328 47.7297 46.1282C48.2332 46.746 56.1886 48.5364 56.465 47.5458C56.7375 46.572 55.0948 42.4737 55.0332 42.3183C55.0316 42.3157 55.0316 42.313 55.0316 42.313C57.579 42.9761 58.6858 43.7253 58.736 43.7697C58.736 43.7697 58.7344 43.7697 58.7336 43.7688C57.3512 45.0958 60.0462 48.4086 59.3206 52.0213Z" fill="#FF9843"/>
<path d="M54.8095 36.4643C54.8095 36.4643 54.5574 38.055 54.4163 39.564C51.821 39.1983 50.6827 36.4484 50.2513 34.9456L54.8095 36.4643Z" fill="#ED985F"/>
<path d="M55.5481 37.9893C55.5481 37.9893 49.3805 37.4256 49.76 33.2252C50.1394 29.0257 49.5995 26.1239 53.5536 26.3068C57.5078 26.4887 58.1264 28.1744 58.3112 29.6097C58.4961 31.0451 57.1624 38.0274 55.5481 37.9893Z" fill="#FFB27D"/>
<path d="M58.3419 27.2549C57.5052 25.887 56.7609 26.0859 56.323 26.4214C53.1424 24.0265 50.7003 26.7845 50.7003 26.7845C50.0128 29.7528 47.8707 31.2609 47.8707 31.2609C47.8707 31.2609 48.9239 32.1433 51.5776 31.6985C52.3884 31.5627 53.1505 31.0248 53.8186 30.3449C52.5959 32.1521 51.0441 33.3798 51.0441 33.3798C54.2775 32.1548 55.9493 27.5842 56.1187 27.1005C56.4609 27.5114 57.1281 28.3956 57.2822 29.2069C57.4914 30.3102 57.4281 32.5267 58.0208 32.5161C58.02 32.5152 59.5961 29.3054 58.3419 27.2549Z" fill="#2C3A64"/>
<path d="M85.8607 58.662C85.2437 59.3056 84.6202 60.9149 82.7206 60.8838C81.365 60.8714 79.9931 61.0383 79.3283 61.1279C79.0697 61.1777 78.9197 61.1972 78.9197 61.1972L78.8516 58.8413C78.8516 58.8413 78.8791 58.844 78.9408 58.8333C79.3997 58.7579 81.7306 58.3655 82.6533 57.6954C83.6887 56.9355 86.1104 57.6394 86.1104 57.6394C86.1104 57.6394 86.4818 58.0309 85.8607 58.662Z" fill="#FFB27D"/>
<path d="M45.7572 137.319H36.1819C36.1819 137.319 35.9525 135.722 36.4527 134.509C36.9319 133.346 37.6827 132.817 37.5027 131.41C38.1108 132.096 39.1031 132.864 40.4871 132.66C40.6566 132.961 41.5817 134.572 42.1484 135.018C42.7735 135.51 45.5642 135.334 45.7572 137.319Z" fill="#233862"/>
<path d="M66.3168 137.319H56.7415C56.7415 137.319 56.3832 135.647 57.0123 134.509C57.5685 133.502 57.3553 132.929 56.9434 132.096C57.3772 132.291 57.9382 132.467 58.556 132.429C59.0328 132.399 59.5379 132.162 59.9798 131.881C60.3916 132.395 62.1567 134.584 62.708 135.019C63.3339 135.51 66.1238 135.335 66.3168 137.319Z" fill="#233862"/>
<path d="M54.0775 35.5598C54.0775 35.5598 54.1635 36.1155 55.4137 36.1173C55.4137 36.1173 56.4628 36.1182 56.4652 35.5146C56.4652 35.5146 55.4761 35.0157 54.0775 35.5598Z" fill="white"/>
<path d="M43.6953 62.2544C43.3167 64.8809 41.5816 70.1519 42.3884 72.6693C40.3825 72.3533 38.9701 71.8713 38.8728 71.2348C37.8861 68.7991 40.3014 64.2498 41.696 61.9375C41.8711 61.6472 42.0219 61.3418 42.1459 61.0258C42.4613 60.2305 42.6129 59.3641 42.5813 58.4907C42.5392 57.2959 42.4459 56.1357 42.3324 55.0483C42.3324 55.0483 44.0983 59.4627 43.6953 62.2544Z" fill="#ED7D2B"/>
<path d="M57.2491 44.5323C57.3156 46.8669 58.8577 53.2758 59.2242 52.4298C59.6426 51.4649 61.2617 47.7971 62.0222 47.6622C61.9825 47.4927 58.8699 43.7254 58.7337 43.7689C58.7329 43.7698 57.8872 44.0521 57.2491 44.5323Z" fill="#FF9843"/>
<path d="M42.5669 77.6491L40.9786 78.8066C40.9786 78.8066 40.5764 78.2563 39.94 77.3775C39.7495 77.113 39.6481 76.9532 39.6481 76.9532C39.1446 76.2431 38.5592 75.3714 37.9187 74.426L37.9082 74.4154C36.8355 72.7652 35.6567 70.8896 34.7551 69.1933C34.1284 67.9905 33.6403 66.8774 33.4019 66.0021C33.376 65.9143 33.3614 65.8379 33.3451 65.7385C32.879 63.5185 33.7343 59.1112 35.0956 54.8105C35.2829 54.2158 35.4799 53.6308 35.6688 53.0592C36.3929 50.9501 37.2069 48.968 38.0241 47.3666C38.5033 46.4035 38.9808 45.5638 39.4414 44.9371C39.6011 44.7125 39.7511 44.5013 39.9132 44.3211C40.0008 44.2119 40.0884 44.1071 40.1751 44.0068C41.1294 44.0947 43.1312 44.5093 44.6174 46.3875C44.5922 46.4861 44.5655 46.5846 44.5387 46.6858C43.9379 48.8073 43.0104 51.4108 42.0488 53.9628C41.5259 55.3644 40.9908 56.7554 40.5221 58.0638C40.2246 58.8458 39.9562 59.5915 39.713 60.2803C39.2557 61.5985 38.916 62.6956 38.7814 63.4652C38.6898 63.9641 38.8203 64.9023 39.066 66.0563C39.4876 68.0677 40.2902 70.776 41.037 73.075C41.3418 74.0346 41.6426 74.9276 41.894 75.6679C42.2945 76.8662 42.5669 77.6491 42.5669 77.6491Z" fill="#FFB27D"/>
<path d="M43.2614 53.0281C41.6747 50.406 37.1271 49.2778 37.1271 49.2778C39.6932 40.363 46.4307 41.1894 46.4307 41.1894C46.4307 41.1894 43.9798 50.4646 43.2614 53.0281Z" fill="#FF9843"/>
<path d="M40.9785 78.8076C40.9785 78.8076 41.3961 79.4822 41.4423 79.9668C41.4893 80.4524 41.8858 82.0608 42.3982 82.5712C42.9114 83.0816 44.0773 84.1033 44.2403 83.9498C44.4032 83.7962 44.8759 82.5925 44.4381 81.7413C44.2403 81.3569 43.9719 80.2855 43.6184 80.0263C43.1887 79.7112 42.566 77.6492 42.566 77.6492L40.9785 78.8076Z" fill="#FFB27D"/>
<path d="M42.5732 77.9109C42.5732 77.9109 43.8364 78.613 44.0075 79.1749C44.1786 79.7368 44.8848 80.8695 44.8118 81.0008C44.734 81.1411 43.6362 80.375 43.2632 79.6773C42.8903 78.9796 42.5732 77.9109 42.5732 77.9109Z" fill="#FFB27D"/>
<path d="M72.6361 71.3785L118.899 41.056C121.45 39.3837 124.635 39.3837 127.186 41.056L173.449 71.3785V120.8L72.6369 115.266V71.3785H72.6361Z" fill="#ED7D2B"/>
<path d="M164.771 49.4807H81.3138V128.443H164.771V49.4807Z" fill="#FCECDB"/>
<path d="M85.0512 53.7931C85.489 53.595 85.6967 53.046 85.5151 52.5669C85.3334 52.0878 84.8312 51.8601 84.3934 52.0582C83.9555 52.2564 83.7478 52.8054 83.9295 53.2844C84.1111 53.7635 84.6133 53.9912 85.0512 53.7931Z" fill="#EFCBAB"/>
<path d="M160.456 52.9257C160.456 52.4073 160.84 51.9866 161.314 51.9866C161.787 51.9866 162.172 52.4073 162.172 52.9257C162.172 53.4441 161.787 53.8649 161.314 53.8649C160.84 53.8658 160.456 53.445 160.456 52.9257Z" fill="#EFCBAB"/>
<path d="M161.313 52.8237H84.7181V53.0279H161.313V52.8237Z" fill="#EFCBAB"/>
<path d="M84.8113 52.553H84.6248V136.411H84.8113V52.553Z" fill="#EFCBAB"/>
<path d="M161.437 52.553H161.25V136.411H161.437V52.553Z" fill="#EFCBAB"/>
<path d="M173.448 71.2417V137.318H72.6361V71.2417L123.042 104.28L173.448 71.2417Z" fill="#FF9362"/>
<path d="M72.6361 137.319L118.811 101.076C121.34 99.0902 124.744 99.0902 127.273 101.076L173.448 137.319H72.6361Z" fill="#E17442"/>
<path d="M138.431 60.4205H108.002C107.56 60.4205 107.199 60.0246 107.199 59.5408C107.199 59.057 107.56 58.6611 108.002 58.6611H138.431C138.873 58.6611 139.234 59.057 139.234 59.5408C139.234 60.0246 138.873 60.4205 138.431 60.4205Z" fill="#EFCBAB"/>
<path d="M146.268 63.9495H100.163C99.7216 63.9495 99.36 63.5536 99.36 63.0699C99.36 62.5861 99.7216 62.1902 100.163 62.1902H146.268C146.71 62.1902 147.072 62.5861 147.072 63.0699C147.072 63.5536 146.71 63.9495 146.268 63.9495Z" fill="#EFCBAB"/>
<path d="M140.29 74.8945H106.932C106.613 74.8945 106.351 74.6078 106.351 74.258C106.351 73.9083 106.613 73.6216 106.932 73.6216H140.29C140.609 73.6216 140.871 73.9083 140.871 74.258C140.87 74.6087 140.609 74.8945 140.29 74.8945Z" fill="#EFCBAB"/>
<path d="M110.281 78.218H100.875C100.556 78.218 100.294 77.9312 100.294 77.5815C100.294 77.2318 100.556 76.9451 100.875 76.9451H110.281C110.601 76.9451 110.863 77.2318 110.863 77.5815C110.863 77.9321 110.601 78.218 110.281 78.218Z" fill="#EFCBAB"/>
<path d="M124.466 78.218H113.103C112.783 78.218 112.521 77.9312 112.521 77.5815C112.521 77.2318 112.783 76.9451 113.103 76.9451H124.466C124.785 76.9451 125.047 77.2318 125.047 77.5815C125.047 77.9321 124.786 78.218 124.466 78.218Z" fill="#EFCBAB"/>
<path d="M146.345 78.218H126.701C126.381 78.218 126.12 77.9312 126.12 77.5815C126.12 77.2318 126.381 76.9451 126.701 76.9451H146.345C146.665 76.9451 146.926 77.2318 146.926 77.5815C146.926 77.9321 146.665 78.218 146.345 78.218Z" fill="#EFCBAB"/>
<path d="M124.541 82.0827H106.27C105.95 82.0827 105.688 81.796 105.688 81.4463C105.688 81.0965 105.95 80.8098 106.27 80.8098H124.541C124.861 80.8098 125.123 81.0965 125.123 81.4463C125.123 81.796 124.861 82.0827 124.541 82.0827Z" fill="#EFCBAB"/>
<path d="M140.951 82.0827H126.56C126.24 82.0827 125.979 81.796 125.979 81.4463C125.979 81.0965 126.24 80.8098 126.56 80.8098H140.951C141.271 80.8098 141.532 81.0965 141.532 81.4463C141.532 81.796 141.271 82.0827 140.951 82.0827Z" fill="#EFCBAB"/>
<path d="M129.674 89.9396C128.575 90.9382 127.398 91.7708 126.16 92.5307C126.264 92.1712 126.352 91.7975 126.336 91.4655C126.314 91.0075 125.98 90.8068 125.646 90.6169C125.563 90.5698 125.486 90.5201 125.409 90.4704C125.539 90.3311 125.605 90.1384 125.519 89.9281C125.378 89.581 124.982 89.6369 124.849 89.9582C124.823 90.0177 124.81 90.0754 124.803 90.1313C124.75 90.1003 124.708 90.0665 124.673 90.0195C124.876 89.6032 125.068 89.1789 125.245 88.7457C125.285 88.648 125.235 88.5335 125.163 88.4741C124.87 88.2317 124.469 88.3098 124.233 88.6143C123.953 88.9756 124.024 89.5251 124.158 89.9352C124.168 89.9636 124.177 89.9929 124.189 90.0213C123.929 90.5343 123.647 91.0323 123.345 91.517C123.316 91.4859 123.288 91.4548 123.259 91.4247C123.181 91.3403 123.097 91.2329 123.024 91.114C123.162 90.719 123.251 90.3035 123.284 89.8721C123.298 89.6795 123.122 89.5845 122.975 89.644C122.568 89.8091 122.349 90.2618 122.402 90.7278C122.419 90.8876 122.467 91.0403 122.534 91.1823C122.443 91.398 122.335 91.6075 122.208 91.809C122.125 91.9395 122.184 92.0726 122.282 92.1348C122.148 92.6212 121.969 93.1183 121.662 93.4689C121.412 93.7548 120.945 93.9722 120.64 93.6323C120.447 93.4175 120.423 93.058 120.396 92.7739C120.331 92.0735 120.282 91.3465 120.306 90.6417C120.317 90.308 120.35 89.9689 120.453 89.6538C120.518 89.4576 120.609 89.1611 120.696 89.4984C120.739 89.6644 120.68 89.921 120.664 90.0896C120.637 90.3905 121.063 90.4251 121.091 90.126C121.123 89.7727 121.267 89.0324 120.903 88.8114C120.6 88.6276 120.322 88.8913 120.182 89.1664C119.677 90.1571 119.879 91.517 119.954 92.5937C120.015 93.4521 120.307 94.5057 121.309 94.2323C122.251 93.9758 122.597 92.6754 122.814 91.7806C122.827 91.7247 122.822 91.6741 122.807 91.6306C122.81 91.6235 122.814 91.6155 122.818 91.6084C122.857 91.6519 122.896 91.6936 122.936 91.7371C122.992 91.7913 123.045 91.8481 123.096 91.9067C122.997 92.0567 122.896 92.2058 122.792 92.3532C122.734 92.4366 122.751 92.5618 122.809 92.639C123.126 93.0571 123.696 92.7473 123.685 92.2333C123.683 92.1144 123.656 92.0087 123.614 91.912C123.911 91.4433 124.189 90.9604 124.447 90.4651C124.581 90.6089 124.752 90.7012 124.961 90.6906C124.976 90.6897 124.99 90.6879 125.004 90.6861C125.114 90.8131 125.252 90.9187 125.377 90.9968C125.499 91.0714 125.639 91.1184 125.749 91.2161C125.952 91.398 125.891 91.6057 125.847 91.8641C125.787 92.204 125.689 92.5431 125.599 92.8751C125.168 93.1458 124.743 93.4894 124.598 94.0326C124.466 94.5279 124.583 95.049 124.971 95.3561C125.088 95.4484 125.243 95.3739 125.292 95.2398C125.535 94.5856 125.755 93.9208 125.943 93.2453C125.949 93.2239 125.955 93.2018 125.962 93.1805C126.342 92.9434 126.74 92.7348 127.116 92.4916C128.114 91.8445 129.061 91.1069 129.954 90.2955C130.168 90.0994 129.886 89.747 129.674 89.9396ZM124.474 89.3156C124.47 89.1283 124.561 88.7847 124.758 88.7892C124.669 89.0004 124.576 89.2099 124.48 89.4168C124.478 89.383 124.475 89.3484 124.474 89.3156ZM125.018 94.7285C124.838 94.3593 125.096 93.9039 125.39 93.603C125.275 93.982 125.15 94.3566 125.018 94.7285Z" fill="#F99746"/>
<g opacity="0.5">
<path opacity="0.5" d="M121.24 17.054L125.586 27.5514L109.57 35.4986L105.224 25.0012L115.405 26.2767L121.24 17.054Z" fill="#CDE0FB"/>
<path opacity="0.5" d="M105.224 25.0011L121.24 17.053L116.452 25.8887C116.074 26.5856 115.342 26.9539 114.613 26.8128L105.224 25.0011Z" fill="#B1CFF2"/>
</g>
<g opacity="0.5">
<path opacity="0.5" d="M27.0819 85.5999L29.3674 92.3114L19.1273 96.4923L16.8409 89.7798L23.1042 91.0456L27.0819 85.5999Z" fill="#CDE0FB"/>
<path opacity="0.5" d="M16.8409 89.7798L27.0818 85.5989L23.769 90.8547C23.5079 91.2693 23.0393 91.4628 22.5926 91.342L16.8409 89.7798Z" fill="#B1CFF2"/>
</g>
<g opacity="0.5">
<path opacity="0.5" d="M202.451 45.6498L199.239 58.8298L179.131 52.9544L182.343 39.7744L190.79 49.3026L202.451 45.6498Z" fill="#CDE0FB"/>
<path opacity="0.5" d="M182.343 39.7744L202.451 45.6489L192.014 49.8067C191.191 50.1343 190.268 49.8707 189.698 49.1428L182.343 39.7744Z" fill="#B1CFF2"/>
</g>
<path d="M22.6696 115.277C22.6696 115.277 22.6687 115.277 22.6696 115.277C22.1831 115.275 21.712 115.268 21.2677 115.255C21.2158 115.253 21.1753 115.206 21.1769 115.15C21.1785 115.093 21.2199 115.05 21.2726 115.051C21.7153 115.064 22.1855 115.071 22.6696 115.073C22.7214 115.073 22.7628 115.119 22.7628 115.175C22.7628 115.232 22.7206 115.277 22.6696 115.277ZM24.0706 115.265C24.0195 115.265 23.9781 115.221 23.9773 115.165C23.9765 115.109 24.0179 115.062 24.069 115.061C24.5173 115.053 24.9884 115.04 25.4684 115.023C25.5219 115.019 25.5632 115.066 25.5648 115.122C25.5665 115.178 25.5259 115.225 25.4748 115.227C24.9932 115.245 24.5214 115.257 24.0722 115.266C24.0714 115.265 24.0714 115.265 24.0706 115.265ZM19.8716 115.189C19.8699 115.189 19.8675 115.189 19.8659 115.189C19.3721 115.156 18.9019 115.115 18.4673 115.064C18.4162 115.058 18.3789 115.008 18.3846 114.951C18.3903 114.895 18.4365 114.854 18.4876 114.861C18.9197 114.911 19.3875 114.953 19.8781 114.986C19.9291 114.989 19.9689 115.037 19.9656 115.094C19.9616 115.147 19.921 115.189 19.8716 115.189ZM26.8718 115.166C26.8223 115.166 26.781 115.123 26.7786 115.068C26.7761 115.012 26.8159 114.964 26.8677 114.962C27.3169 114.939 27.7872 114.912 28.2663 114.882C28.3174 114.88 28.362 114.922 28.3652 114.978C28.3685 115.034 28.3288 115.083 28.2777 115.085C27.7985 115.115 27.3266 115.142 26.8775 115.165C26.875 115.166 26.8734 115.166 26.8718 115.166ZM29.6698 114.989C29.6211 114.989 29.5798 114.949 29.5765 114.894C29.5733 114.838 29.6122 114.79 29.6633 114.785C30.123 114.751 30.5884 114.714 31.0603 114.675C31.1113 114.671 31.1567 114.713 31.16 114.769C31.164 114.825 31.1251 114.875 31.0741 114.878C30.6022 114.917 30.136 114.955 29.6755 114.988C29.6747 114.989 29.6722 114.989 29.6698 114.989ZM17.0914 114.852C17.0857 114.852 17.0801 114.852 17.0752 114.85C16.5604 114.749 16.099 114.628 15.7034 114.49C15.6539 114.474 15.6272 114.416 15.6426 114.362C15.658 114.308 15.7107 114.278 15.7601 114.295C16.1477 114.43 16.6017 114.549 17.1084 114.648C17.1595 114.658 17.1928 114.712 17.1838 114.767C17.1749 114.817 17.136 114.852 17.0914 114.852ZM32.4645 114.757C32.4167 114.757 32.3753 114.717 32.3713 114.664C32.3672 114.608 32.4053 114.558 32.4564 114.554C32.9169 114.511 33.3823 114.467 33.8518 114.419C33.9037 114.414 33.9483 114.456 33.9531 114.512C33.958 114.568 33.9199 114.617 33.8688 114.623C33.3985 114.67 32.9332 114.714 32.4726 114.757C32.4694 114.757 32.467 114.757 32.4645 114.757ZM35.2552 114.48C35.2074 114.48 35.1668 114.44 35.1628 114.388C35.1579 114.332 35.1952 114.281 35.2463 114.276C35.7076 114.227 36.1722 114.175 36.64 114.123C36.6911 114.119 36.7373 114.158 36.7422 114.214C36.747 114.27 36.7106 114.321 36.6587 114.326C36.1909 114.379 35.7255 114.43 35.2641 114.479C35.2609 114.48 35.2577 114.48 35.2552 114.48ZM38.0419 114.166C37.9948 114.166 37.9543 114.127 37.9494 114.075C37.9438 114.019 37.981 113.969 38.0321 113.962C38.4935 113.908 38.958 113.851 39.4242 113.794C39.4753 113.787 39.5215 113.827 39.5272 113.883C39.5329 113.939 39.4964 113.99 39.4453 113.996C38.9783 114.054 38.5145 114.11 38.0524 114.165C38.0492 114.166 38.0451 114.166 38.0419 114.166ZM14.471 113.847C14.4523 113.847 14.4329 113.841 14.4159 113.827C14.1459 113.612 13.9505 113.368 13.8362 113.102C13.7526 112.909 13.6829 112.714 13.6286 112.524C13.6132 112.47 13.6408 112.413 13.6902 112.396C13.7389 112.38 13.7916 112.41 13.807 112.464C13.858 112.644 13.9245 112.83 14.0048 113.015C14.1061 113.25 14.2813 113.467 14.5261 113.662C14.5675 113.695 14.5772 113.759 14.5464 113.805C14.5277 113.832 14.4994 113.847 14.471 113.847ZM40.8261 113.823C40.779 113.823 40.7393 113.785 40.7336 113.732C40.728 113.676 40.7644 113.626 40.8155 113.619C41.2777 113.559 41.7406 113.499 42.206 113.438C42.2571 113.431 42.3033 113.471 42.3098 113.526C42.3163 113.582 42.2798 113.634 42.2287 113.64C41.7633 113.702 41.2996 113.763 40.8374 113.822C40.8334 113.823 40.8301 113.823 40.8261 113.823ZM43.6078 113.454C43.5616 113.454 43.5211 113.416 43.5154 113.364C43.5089 113.308 43.5454 113.257 43.5965 113.25C44.057 113.187 44.5191 113.123 44.9813 113.058C45.0324 113.052 45.0794 113.091 45.0859 113.147C45.0924 113.202 45.0567 113.254 45.0056 113.261C44.5427 113.326 44.0813 113.391 43.62 113.454C43.6151 113.454 43.6119 113.454 43.6078 113.454ZM46.3799 113.063C46.3337 113.063 46.2939 113.026 46.2874 112.974C46.281 112.918 46.3166 112.867 46.3677 112.86C46.8307 112.793 47.2936 112.725 47.7566 112.657C47.8085 112.649 47.8547 112.689 47.8612 112.744C47.8685 112.8 47.832 112.852 47.7809 112.859C47.3179 112.927 46.8542 112.996 46.3912 113.062C46.388 113.063 46.3839 113.063 46.3799 113.063ZM49.16 112.651C49.1138 112.651 49.0741 112.614 49.0676 112.563C49.0603 112.507 49.096 112.456 49.147 112.448C49.61 112.378 50.0721 112.307 50.5343 112.236C50.5846 112.228 50.6324 112.267 50.6397 112.323C50.647 112.379 50.6113 112.43 50.5602 112.438C50.0981 112.509 49.6351 112.58 49.173 112.65C49.1689 112.651 49.1641 112.651 49.16 112.651ZM51.9345 112.222C51.8891 112.222 51.8494 112.186 51.8421 112.135C51.8348 112.079 51.8704 112.027 51.9215 112.019C52.3845 111.946 52.8466 111.873 53.3079 111.799C53.359 111.79 53.4061 111.829 53.4142 111.885C53.4215 111.941 53.3866 111.993 53.3355 112.001C52.8742 112.074 52.412 112.148 51.9491 112.221C51.9434 112.222 51.9385 112.222 51.9345 112.222ZM54.7065 111.778C54.6611 111.778 54.6214 111.741 54.6141 111.691C54.6068 111.635 54.6417 111.583 54.6928 111.575C55.1565 111.499 55.6178 111.423 56.0776 111.346C56.1286 111.338 56.1757 111.377 56.1838 111.432C56.1919 111.488 56.1562 111.54 56.1059 111.549C55.6462 111.625 55.1841 111.701 54.7203 111.777C54.7155 111.778 54.7106 111.778 54.7065 111.778ZM57.4761 111.319C57.4307 111.319 57.391 111.282 57.3837 111.232C57.3756 111.176 57.4105 111.124 57.4616 111.116C57.9253 111.037 58.3875 110.959 58.8455 110.881C58.8966 110.873 58.9445 110.911 58.9518 110.966C58.9599 111.022 58.925 111.075 58.8739 111.083C58.415 111.161 57.9537 111.239 57.4891 111.317C57.4859 111.318 57.481 111.319 57.4761 111.319ZM13.6262 111.086C13.6197 111.086 13.614 111.085 13.6075 111.085C13.5572 111.073 13.524 111.02 13.5345 110.965C13.6245 110.477 13.8345 110.008 14.1597 109.57C14.1921 109.526 14.2505 109.52 14.291 109.555C14.3307 109.591 14.3372 109.654 14.3048 109.699C13.9991 110.112 13.8013 110.551 13.7178 111.006C13.7081 111.053 13.6691 111.086 13.6262 111.086ZM60.2449 110.846C60.1995 110.846 60.1598 110.81 60.1525 110.76C60.1444 110.704 60.1793 110.651 60.2304 110.642C60.6949 110.562 61.1563 110.482 61.6135 110.401C61.6638 110.392 61.7125 110.43 61.7206 110.485C61.7287 110.541 61.6938 110.594 61.6435 110.603C61.1863 110.682 60.7249 110.763 60.2595 110.844C60.2547 110.846 60.2498 110.846 60.2449 110.846ZM63.0121 110.361C62.9675 110.361 62.9278 110.326 62.9205 110.275C62.9124 110.219 62.9465 110.167 62.9975 110.158C63.4629 110.075 63.9242 109.993 64.3799 109.911C64.431 109.902 64.4788 109.939 64.4869 109.995C64.495 110.051 64.461 110.104 64.4099 110.113C63.9534 110.194 63.4929 110.277 63.0267 110.359C63.0219 110.36 63.017 110.361 63.0121 110.361ZM65.7769 109.864C65.7323 109.864 65.6925 109.828 65.6852 109.779C65.6771 109.723 65.7112 109.67 65.7623 109.662C66.2293 109.576 66.6898 109.492 67.1446 109.409C67.1965 109.399 67.2436 109.437 67.2525 109.493C67.2614 109.549 67.2265 109.601 67.1763 109.61C66.7214 109.694 66.2609 109.778 65.7939 109.863C65.7874 109.864 65.7825 109.864 65.7769 109.864ZM68.5416 109.356C68.497 109.356 68.4573 109.321 68.45 109.271C68.4411 109.215 68.4759 109.163 68.5262 109.153C68.9948 109.066 69.4554 108.98 69.9078 108.895C69.958 108.885 70.0067 108.922 70.0156 108.978C70.0245 109.033 69.9905 109.086 69.9394 109.096C69.487 109.181 69.0265 109.267 68.5578 109.354C68.5513 109.355 68.5465 109.356 68.5416 109.356ZM71.3039 108.837C71.2593 108.837 71.2204 108.802 71.2123 108.753C71.2034 108.697 71.2374 108.644 71.2885 108.635C71.7596 108.545 72.2209 108.457 72.6693 108.371C72.7203 108.361 72.7682 108.398 72.7771 108.453C72.786 108.509 72.752 108.562 72.7017 108.572C72.2525 108.658 71.792 108.746 71.3201 108.835C71.3145 108.836 71.3096 108.837 71.3039 108.837ZM15.2656 108.714C15.2364 108.714 15.2072 108.698 15.1893 108.67C15.1602 108.624 15.1699 108.56 15.2129 108.528C15.5655 108.259 15.9766 107.998 16.4363 107.753C16.4825 107.728 16.5385 107.75 16.5612 107.8C16.5839 107.851 16.5644 107.912 16.5182 107.937C16.0674 108.177 15.6645 108.433 15.3199 108.696C15.302 108.707 15.2834 108.714 15.2656 108.714ZM74.0662 108.307C74.0216 108.307 73.9827 108.272 73.9746 108.223C73.9657 108.167 73.9998 108.114 74.05 108.105C74.5268 108.012 74.9873 107.923 75.4308 107.836C75.481 107.825 75.5297 107.862 75.5386 107.918C75.5475 107.974 75.5143 108.027 75.4632 108.036C75.0197 108.123 74.5592 108.213 74.0825 108.305C74.0768 108.307 74.0711 108.307 74.0662 108.307ZM76.8269 107.766C76.7823 107.766 76.7434 107.732 76.7353 107.682C76.7264 107.627 76.7596 107.574 76.8107 107.563C77.298 107.466 77.7585 107.375 78.1915 107.289C78.2425 107.278 78.2904 107.316 78.3001 107.371C78.309 107.426 78.2758 107.479 78.2247 107.489C77.7918 107.576 77.3312 107.668 76.844 107.765C76.8383 107.766 76.8326 107.766 76.8269 107.766ZM17.766 107.347C17.7279 107.347 17.6922 107.321 17.6784 107.28C17.6606 107.227 17.6849 107.168 17.7336 107.149C18.147 106.98 18.5962 106.816 19.0697 106.661C19.1192 106.645 19.1711 106.676 19.1857 106.73C19.2002 106.784 19.1727 106.841 19.1232 106.857C18.6538 107.01 18.2087 107.173 17.7992 107.339C17.7879 107.344 17.7765 107.347 17.766 107.347ZM79.5892 107.214C79.5455 107.214 79.5057 107.18 79.4976 107.131C79.4879 107.076 79.5219 107.023 79.5722 107.012C80.0984 106.905 80.5614 106.811 80.9538 106.731C81.004 106.72 81.0535 106.756 81.0624 106.812C81.0722 106.867 81.0389 106.921 80.9878 106.931C80.5946 107.012 80.1316 107.106 79.6055 107.213C79.6006 107.213 79.5949 107.214 79.5892 107.214ZM82.3548 106.646C82.311 106.646 82.2721 106.612 82.2632 106.564C82.2534 106.509 82.2867 106.454 82.337 106.444C82.4318 106.424 82.4853 106.413 82.4967 106.41C82.5518 106.396 82.611 106.446 82.611 106.51C82.611 106.594 82.6021 106.596 82.3718 106.644C82.367 106.645 82.3613 106.646 82.3548 106.646ZM20.4496 106.46C20.4075 106.46 20.3694 106.429 20.3588 106.382C20.3467 106.327 20.3775 106.272 20.4269 106.258C20.8631 106.141 21.3245 106.028 21.7996 105.921C21.8499 105.909 21.8993 105.945 21.9099 106.001C21.9204 106.056 21.888 106.11 21.8369 106.122C21.3642 106.227 20.9053 106.34 20.4715 106.457C20.4642 106.459 20.4569 106.46 20.4496 106.46ZM23.1974 105.84C23.1528 105.84 23.113 105.805 23.1058 105.756C23.0968 105.7 23.1309 105.648 23.182 105.638C23.6295 105.553 24.0965 105.473 24.57 105.397C24.6219 105.388 24.6681 105.427 24.6754 105.483C24.6827 105.539 24.647 105.591 24.5968 105.599C24.1249 105.673 23.6595 105.754 23.2136 105.838C23.2079 105.839 23.203 105.84 23.1974 105.84ZM25.9743 105.398C25.9281 105.398 25.8875 105.36 25.8818 105.309C25.8754 105.253 25.9118 105.202 25.9629 105.195C26.4226 105.135 26.8929 105.078 27.3599 105.027C27.411 105.023 27.4572 105.063 27.462 105.119C27.4669 105.174 27.4296 105.225 27.3785 105.23C26.9123 105.281 26.4437 105.337 25.9856 105.398C25.9816 105.398 25.9783 105.398 25.9743 105.398ZM28.7682 105.095C28.7196 105.095 28.679 105.055 28.675 105.001C28.6709 104.945 28.7098 104.896 28.7609 104.891C29.6276 104.819 30.1668 104.793 30.1725 104.793C30.2244 104.788 30.2673 104.834 30.2698 104.89C30.2722 104.946 30.2317 104.994 30.1806 104.997C30.1757 104.997 29.639 105.022 28.7755 105.095C28.7731 105.095 28.7706 105.095 28.7682 105.095Z" fill="#AFCDFB"/>
<path d="M85.4739 112.026L96.9658 104.896L86.4825 105.574L87.2908 107.513L85.1252 110.139L85.4739 112.026Z" fill="#AFCDFB"/>
<path d="M96.9657 104.896L84.9233 107.312L76.1515 113.981L96.9657 104.896Z" fill="white"/>
<path d="M86.4826 105.574L96.9659 104.896L85.9994 101.377L86.4826 105.574Z" fill="white"/>
<path d="M147.639 18.3373L160.686 20.5982L152.099 13.978L151.629 16.0463L148.44 16.6233L147.639 18.3373Z" fill="#AFCDFB"/>
<path d="M160.686 20.5983L149.89 14.2746L139.234 13.5085L160.686 20.5983Z" fill="white"/>
<path d="M152.099 13.9781L160.685 20.5983L154.109 10.3662L152.099 13.9781Z" fill="white"/>
<path d="M187.146 76.2137C187.146 76.2137 184.486 76.4161 182.522 81.6613C180.541 86.9518 184.971 86.8994 183.479 90.2698C181.986 93.6403 185.627 95.6508 186.732 98.4106C187.838 101.17 193.408 107.827 193.849 110.864C194.29 113.899 199.243 107.707 199.243 107.707C199.243 107.707 204.278 101.827 202.473 98.4114C199.497 92.781 202.075 91.5578 201.981 88.4137C201.889 85.2679 196.437 72.877 187.146 76.2137Z" fill="#233862"/>
<path d="M185.702 95.0303C185.702 95.0303 175.403 99.9453 173.446 99.8512C171.49 99.758 159.434 95.8309 159.434 95.8309L159.742 98.1016C159.742 98.1016 169.045 103.96 172.298 104.292C175.501 104.62 186.45 101.145 187.507 100.412C188.563 99.679 188.774 95.7732 185.702 95.0303Z" fill="#FFAD76"/>
<path d="M184.871 100.419C185.817 101.138 187.004 101.731 188.494 102.108C194.08 103.521 196.22 98.352 197.024 94.8049C196.262 94.3273 195.546 94.2226 195.131 94.1685C194.728 94.1161 194.303 94.0815 193.952 94.0628C193.325 93.5373 192.39 91.3848 192.183 88.0427L191.921 88.12L187.519 89.439C187.519 89.439 187.721 90.9711 187.82 92.4189C187.896 93.5524 188.031 94.2093 187.834 94.4747C187.491 94.5564 187.162 95.0348 187.162 95.0348C187.162 95.0348 187.162 95.0366 187.16 95.0393C187.101 95.144 185.824 97.443 184.871 100.419Z" fill="#FFB27D"/>
<path d="M187.518 89.4389C187.518 89.4389 187.721 90.9693 187.819 92.4188C190.313 92.1454 191.47 89.5463 191.921 88.1199L187.518 89.4389Z" fill="#ED985F"/>
<path d="M186.774 90.8769C186.774 90.8769 192.693 90.5192 192.433 86.4866C192.173 82.454 192.761 79.6925 188.971 79.7502C185.181 79.8079 184.547 81.403 184.334 82.7726C184.123 84.1414 185.228 90.8654 186.774 90.8769Z" fill="#FFB27D"/>
<path d="M198.71 113.595C199.244 110.603 200.987 98.6502 199.244 94.8039C198.618 93.4218 196.162 93.2976 193.467 93.4183C192.629 94.0112 189.434 96.2508 188.121 95.9712C188.107 95.9685 188.081 95.9614 188.047 95.9525C187.43 95.783 187.319 94.8829 187.834 94.4728C187.835 94.4719 186.377 94.7569 184.72 95.0986C183.784 95.2912 181.259 96.7222 181.259 96.7222C181.259 96.7222 182.53 99.2369 184.405 100.106C184.087 103.229 184.561 104.606 187.52 111.819C190.02 117.915 187.182 123.404 187.182 123.404C187.182 123.404 201.901 136.361 201.983 129.764C202.043 124.797 198.026 117.419 198.71 113.595Z" fill="#582EFF"/>
<path d="M186.452 137.493C185.652 137.394 184.931 136.914 184.483 136.181C184.412 136.064 184.337 135.939 184.256 135.805C182.58 133.029 181.928 124.525 178.16 115.465C177.242 113.259 173.947 112.864 173.049 110.37C173.049 110.37 170.838 102.289 177.281 102.051C183.725 101.812 194.539 124.536 194.71 126.92C194.875 129.228 198.97 139.039 186.452 137.493Z" fill="#233862"/>
<path d="M160.84 137.307H170.012C170.012 137.307 170.355 135.706 169.752 134.615C169.22 133.651 169.424 133.102 169.818 132.304C169.403 132.49 168.865 132.66 168.273 132.623C167.816 132.594 167.333 132.367 166.91 132.097C166.515 132.59 164.824 134.687 164.297 135.103C163.697 135.574 161.024 135.406 160.84 137.307Z" fill="#172B4C"/>
<path d="M197.743 97.9375C197.743 97.9375 198.936 109.828 191.195 112.319C183.454 114.811 181.256 101.379 187.506 100.413C193.757 99.4465 197.743 97.9375 197.743 97.9375Z" fill="#582EFF"/>
<path d="M172.839 104.386C172.287 108.919 170.13 123.227 166.326 130.206C165.099 132.457 169.416 133.718 169.439 133.712C170.018 133.546 170.983 132.536 171.427 132.096C174.517 129.049 180.786 120.419 180.786 113.501C180.786 110.128 180.841 103.685 178.6 102.047C177.22 101.04 173.059 102.586 172.839 104.386Z" fill="#233862"/>
<path d="M191.92 137.307C191.92 137.307 191.581 136.789 190.988 135.805C190.283 134.635 189.502 132.333 188.555 129.383C187.56 126.286 186.38 122.475 184.905 118.51C184.45 117.286 183.966 116.048 183.452 114.81C182.534 112.604 180.008 112.91 179.11 110.416C179.11 110.416 175.604 101.773 182.048 101.534C188.492 101.296 200.737 124.656 201.441 126.919C202.212 129.395 205.97 139.68 191.92 137.307Z" fill="#2B478B"/>
<path d="M167.573 137.307H176.744C176.744 137.307 177.087 135.706 176.485 134.615C175.952 133.651 176.156 133.102 176.55 132.304C176.135 132.49 175.598 132.66 175.006 132.623C174.549 132.594 174.065 132.367 173.642 132.097C173.247 132.59 171.557 134.687 171.029 135.103C170.43 135.574 167.757 135.406 167.573 137.307Z" fill="#233862"/>
<path d="M188.555 129.384C187.56 126.287 186.38 122.476 184.905 118.511C185.29 115.507 186.121 112.879 187.518 111.82C187.519 111.819 190.908 123.315 188.555 129.384Z" fill="#23407A"/>
<path d="M178.193 104.065C177.64 108.598 176.862 123.227 173.058 130.207C171.831 132.457 176.148 133.718 176.171 133.712C176.75 133.546 177.715 132.536 178.159 132.096C181.248 129.049 187.518 120.419 187.518 113.501C187.518 110.128 183.902 103.956 181.662 102.318C180.282 101.311 178.412 102.265 178.193 104.065Z" fill="#2B478B"/>
<path d="M166.838 92.1764C166.838 92.1764 166.369 90.8698 165.513 90.9541C164.658 91.0393 156.891 92.1764 156.891 92.1764C156.891 92.1764 157.795 92.4134 158.137 93.0623L161.72 104.621H170.909L166.838 92.1764Z" fill="#EBF3FA"/>
<path d="M197.023 94.804C197.023 94.804 184.006 100.053 182.05 99.9453C180.786 99.876 170.278 95.8319 170.278 95.8319L169.335 97.7856C169.335 97.7856 179.563 104.983 182.374 104.947C187.926 104.877 197.293 101.146 198.35 100.413C199.406 99.679 200.095 95.5469 197.023 94.804Z" fill="#FFBF94"/>
<path d="M170.277 95.8319C170.277 95.8319 169.334 94.2421 168.394 94.196C167.455 94.1489 165.832 94.8972 165.278 95.0144C164.722 95.1316 163.143 95.6926 163.612 96.5332C164.082 97.3747 166.26 97.562 167.199 97.3747C168.139 97.1874 169.334 97.7857 169.334 97.7857L170.277 95.8319Z" fill="#FFBF94"/>
<path d="M168.651 94.2447C168.651 94.2447 167.157 93.4946 166.73 93.3543C166.303 93.2141 166.388 93.357 166.517 93.7999C166.645 94.2429 167.413 94.6654 167.413 94.8048C167.412 94.9433 168.651 94.2447 168.651 94.2447Z" fill="#FFBF94"/>
<path d="M185.665 88.5576C185.665 88.5576 186.225 88.3152 187.799 88.4546C187.799 88.4546 187.716 89.1274 186.555 89.194C185.897 89.2322 185.665 88.5576 185.665 88.5576Z" fill="white"/>
<path d="M190.317 97.3924C190.317 97.3924 191.481 101.428 195.48 102.346C195.48 102.346 202.083 100.118 198.795 95.1937C198.795 95.1937 195.545 92.5493 190.317 97.3924Z" fill="#582EFF"/>
<path d="M156.891 92.1765C156.891 92.1765 156.028 92.5378 156.681 93.7636L165.078 92.5378C165.078 92.5378 164.786 91.1166 165.446 90.9622L156.891 92.1765Z" fill="white"/>
<path d="M159.899 95.1937C160.098 94.3203 160.085 94.109 159.635 93.5755C159.336 93.2231 158.88 94.0975 158.644 94.6247C158.557 94.3922 158.409 94.0131 158.359 93.9936C158.286 93.9661 158.46 95.168 158.46 95.168C158.455 95.2177 158.453 95.2683 158.455 95.3189L158.454 95.318C158.454 95.318 158.09 97.0844 159.677 98.0387L159.374 97.0649C159.559 97.0312 159.697 96.0814 159.899 95.1937Z" fill="#FFAD76"/>
<path d="M186.549 80.6414C186.549 80.6414 187.797 80.163 188.402 81.5584C189.006 82.9538 189.198 86.2905 191.62 86.563C194.043 86.8355 194.137 80.9113 194.137 80.9113L188.073 78.29L184.872 80.503L186.549 80.6414Z" fill="#233862"/>
<path d="M186.549 80.6415C186.549 80.6415 185.183 80.6734 184.871 81.933C184.559 83.1926 185.046 85.5423 184.29 85.7118C183.533 85.8822 182.846 81.7963 184.309 80.4684C185.772 79.1404 186.549 80.6415 186.549 80.6415Z" fill="#233862"/>
<path d="M79.3031 58.7701C79.3031 58.7701 80.6709 58.2029 80.8257 57.8115C80.9814 57.42 81.4322 57.2496 81.9762 56.9771C82.5203 56.7046 82.847 56.211 82.9248 56.2794C83.0027 56.3477 83.0181 56.6877 82.8008 56.9433C82.5827 57.199 81.6608 58.9858 81.3138 59.19C80.966 59.3951 79.3031 58.7701 79.3031 58.7701Z" fill="#FFB27D"/>
<path d="M96.644 133.418H79.274C78.3043 133.418 77.5178 132.557 77.5178 131.495V126.31C77.5178 125.248 78.3043 124.387 79.274 124.387H96.644C97.6137 124.387 98.4002 125.248 98.4002 126.31V131.495C98.4002 132.557 97.6137 133.418 96.644 133.418Z" fill="#FCECDB"/>
<path d="M93.1106 126.632H80.0263C79.8804 126.632 79.7604 126.501 79.7604 126.341C79.7604 126.181 79.8796 126.05 80.0263 126.05H93.1106C93.2565 126.05 93.3765 126.18 93.3765 126.341C93.3765 126.5 93.2565 126.632 93.1106 126.632Z" fill="#EFCBAB"/>
<path d="M82.3467 127.886H80.0263C79.8804 127.886 79.7604 127.756 79.7604 127.595C79.7604 127.435 79.8796 127.304 80.0263 127.304H82.3467C82.4927 127.304 82.6127 127.434 82.6127 127.595C82.6127 127.756 82.4927 127.886 82.3467 127.886Z" fill="#EFCBAB"/>
<path d="M89.6568 127.886H83.2639C83.1179 127.886 82.9979 127.756 82.9979 127.595C82.9979 127.435 83.1171 127.304 83.2639 127.304H89.6568C89.8028 127.304 89.9228 127.434 89.9228 127.595C89.9228 127.756 89.8028 127.886 89.6568 127.886Z" fill="#EFCBAB"/>
<path d="M93.1106 130.209H80.0263C79.8804 130.209 79.7604 130.079 79.7604 129.918C79.7604 129.758 79.8796 129.627 80.0263 129.627H93.1106C93.2565 129.627 93.3765 129.757 93.3765 129.918C93.3765 130.079 93.2565 130.209 93.1106 130.209Z" fill="#EFCBAB"/>
<path d="M84.775 131.463H80.0263C79.8804 131.463 79.7604 131.333 79.7604 131.172C79.7604 131.012 79.8796 130.881 80.0263 130.881H84.775C84.921 130.881 85.041 131.012 85.041 131.172C85.041 131.333 84.9218 131.463 84.775 131.463Z" fill="#EFCBAB"/>
<path d="M90.5533 131.463H85.8046C85.6587 131.463 85.5387 131.333 85.5387 131.172C85.5387 131.012 85.6579 130.881 85.8046 130.881H90.5533C90.6993 130.881 90.8193 131.012 90.8193 131.172C90.8193 131.333 90.6993 131.463 90.5533 131.463Z" fill="#EFCBAB"/>
</svg>
