<svg width="45" height="44" viewBox="0 0 45 44" fill="none" xmlns="http://www.w3.org/2000/svg">
<circle cx="22.2203" cy="21.9181" r="21.0925" fill="#E0F7F1" stroke="#31C5A1" stroke-width="1.65113"/>
<path d="M21.8119 12.7587L21.8118 12.7587C21.5318 12.7567 21.3033 12.9821 21.3013 13.2617C21.2993 13.5413 21.5242 13.7697 21.8043 13.7718C22.0838 13.7738 22.3123 13.5489 22.3143 13.2693C22.3164 12.9897 22.0915 12.7613 21.8119 12.7587Z" fill="#31C5A1" stroke="#31C5A1" stroke-width="0.110076"/>
<path d="M21.7912 15.4674L21.7911 15.4674C20.0176 15.4548 18.5651 16.8856 18.5517 18.6587L18.6067 18.6591L18.5517 18.6587C18.5383 20.4317 19.9699 21.8848 21.7429 21.8982L21.743 21.8982L21.7675 21.8982C23.5293 21.8982 24.9691 20.4718 24.9824 18.7069C24.9958 16.934 23.5643 15.4808 21.7912 15.4674ZM21.7506 20.8852H21.7505C20.5361 20.876 19.5555 19.8806 19.5647 18.6663C19.5738 17.4574 20.56 16.4803 21.7666 16.4803L21.7835 16.4804L21.7836 16.4804C22.998 16.4896 23.9786 17.485 23.9694 18.6993C23.9603 19.9081 22.9741 20.8852 21.7675 20.8852L21.7506 20.8852Z" fill="#31C5A1" stroke="#31C5A1" stroke-width="0.110076"/>
<path d="M23.1085 13.4125L23.1085 13.4125C23.0151 13.6762 23.1531 13.9657 23.4167 14.0592L23.4167 14.0592C25.3832 14.7561 26.6939 16.6291 26.6782 18.7198C26.6761 18.9996 26.9011 19.228 27.1809 19.2302H27.1813H27.1813H27.1813H27.1813H27.1813H27.1813H27.1813H27.1814H27.1814H27.1814H27.1814H27.1814H27.1814H27.1814H27.1814H27.1814H27.1814H27.1814H27.1814H27.1814H27.1814H27.1814H27.1815H27.1815H27.1815H27.1815H27.1815H27.1815H27.1815H27.1815H27.1815H27.1815H27.1815H27.1815H27.1815H27.1815H27.1815H27.1816H27.1816H27.1816H27.1816H27.1816H27.1816H27.1816H27.1816H27.1816H27.1816H27.1816H27.1816H27.1816H27.1816H27.1816H27.1817H27.1817H27.1817H27.1817H27.1817H27.1817H27.1817H27.1817H27.1817H27.1817H27.1817H27.1817H27.1817H27.1817H27.1817H27.1818H27.1818H27.1818H27.1818H27.1818H27.1818H27.1818H27.1818H27.1818H27.1818H27.1818H27.1818H27.1818H27.1818H27.1818H27.1819H27.1819H27.1819H27.1819H27.1819H27.1819H27.1819H27.1819H27.1819H27.1819H27.1819H27.1819H27.1819H27.1819H27.1819H27.182H27.182H27.182H27.182H27.182H27.182H27.182H27.182H27.182H27.182H27.182H27.182H27.182H27.182H27.182H27.1821H27.1821H27.1821H27.1821H27.1821H27.1821H27.1821H27.1821H27.1821H27.1821H27.1821H27.1821H27.1821H27.1821H27.1821H27.1822H27.1822H27.1822H27.1822H27.1822H27.1822H27.1822H27.1822H27.1822H27.1822H27.1822H27.1822H27.1822H27.1822H27.1822H27.1823H27.1823H27.1823H27.1823H27.1823H27.1823H27.1823H27.1823H27.1823H27.1823H27.1823H27.1823H27.1823H27.1823H27.1823H27.1824H27.1824H27.1824H27.1824H27.1824H27.1824H27.1824H27.1824H27.1824H27.1824H27.1824H27.1824H27.1824H27.1824H27.1825H27.1825H27.1825H27.1825H27.1825H27.1825H27.1825H27.1825H27.1825H27.1825H27.1825H27.1825H27.1825H27.1825H27.1825H27.1826H27.1826H27.1826H27.1826H27.1826H27.1826H27.1826H27.1826H27.1826H27.1826H27.1826H27.1826H27.1826H27.1826H27.1826H27.1827H27.1827H27.1827H27.1827H27.1827H27.1827H27.1827H27.1827H27.1827H27.1827H27.1827H27.1827H27.1827H27.1827H27.1827H27.1828H27.1828H27.1828H27.1828H27.1828H27.1828H27.1828H27.1828H27.1828H27.1828H27.1828H27.1828H27.1828H27.1828H27.1829H27.1829H27.1829H27.1829H27.1829H27.1829H27.1829H27.1829H27.1829H27.1829H27.1829H27.1829H27.1829H27.1829H27.1829H27.183H27.183H27.183H27.183H27.183H27.183H27.183H27.183H27.183H27.183H27.183H27.183H27.183H27.183H27.183H27.1831H27.1831H27.1831H27.1831H27.1831H27.1831H27.1831H27.1831H27.1831H27.1831H27.1831H27.1831H27.1831H27.1831H27.1832H27.1832H27.1832H27.1832H27.1832H27.1832H27.1832H27.1832H27.1832H27.1832H27.1832H27.1832H27.1832H27.1832H27.1832H27.1833H27.1833H27.1833H27.1833H27.1833H27.1833H27.1833H27.1833H27.1833H27.1833H27.1833H27.1833H27.1833H27.1833H27.1833H27.1834H27.1834H27.1834H27.1834H27.1834H27.1834H27.1834H27.1834H27.1834H27.1834H27.1834H27.1834H27.1834H27.1834H27.1835H27.1835H27.1835H27.1835H27.1835H27.1835H27.1835H27.1835H27.1835H27.1835H27.1835H27.1835H27.1835H27.1835H27.1835H27.1836H27.1836H27.1836H27.1836H27.1836H27.1836H27.1836H27.1836H27.1836H27.1836H27.1836H27.1836H27.1836H27.1836H27.1836H27.1837H27.1837H27.1837H27.1837H27.1837H27.1837H27.1837H27.1837H27.1837H27.1837H27.1837H27.1837H27.1837H27.1837H27.1838H27.1838H27.1838H27.1838H27.1838H27.1838H27.1838H27.1838H27.1838H27.1838H27.1838H27.1838H27.1838H27.1838H27.1838H27.1839H27.1839H27.1839H27.1839H27.1839H27.1839H27.1839H27.1839H27.1839H27.1839H27.1839H27.1839H27.1839H27.1839H27.184H27.184H27.184H27.184H27.184H27.184H27.184H27.184H27.184H27.184H27.184H27.184H27.184H27.184H27.184H27.1841H27.1841H27.1841H27.1841H27.1841H27.1841H27.1841H27.1841H27.1841H27.1841H27.1841H27.1841H27.1841H27.1841H27.1842H27.1842H27.1842H27.1842H27.1842H27.1842H27.1842H27.1842H27.1842H27.1842H27.1842H27.1842H27.1842H27.1842H27.1842H27.1843H27.1843H27.1843H27.1843H27.1843H27.1843H27.1843H27.1843H27.1843H27.1843H27.1843H27.1843H27.1843H27.1843H27.1843H27.1844H27.1844H27.1844H27.1844H27.1844H27.1844H27.1844H27.1844H27.1844H27.1844H27.1844H27.1844H27.1844H27.1844H27.1845H27.1845H27.1845H27.1845H27.1845H27.1845H27.1845H27.1845H27.1845H27.1845H27.1845H27.1845H27.1845H27.1845H27.1845H27.1846H27.1846H27.1846H27.1846H27.1846H27.1846H27.1846H27.1846H27.1846H27.1846H27.1846H27.1846H27.1846H27.1846H27.1847H27.1847H27.1847H27.1847H27.1847H27.1847H27.1847H27.1847H27.1847H27.1847H27.1847H27.1847H27.1847H27.1847H27.1847H27.1848H27.1848H27.1848H27.1848H27.1848C27.4627 19.2302 27.6891 19.0059 27.6912 18.7275C27.7102 16.2052 26.1285 13.9454 23.7552 13.1043C23.4917 13.0108 23.202 13.1488 23.1085 13.4125Z" fill="#31C5A1" stroke="#31C5A1" stroke-width="0.110076"/>
<path d="M21.768 29.998C22.2349 29.3534 22.7272 28.6942 23.2604 27.9995C23.7348 27.3811 24.1819 26.8119 24.5994 26.2803C25.5844 25.0263 26.4051 23.9814 27.0331 22.9922C27.9235 21.5898 28.4175 20.3121 28.4293 18.7329C28.4568 15.0404 25.4599 12.0206 21.7665 12.0206C18.1164 12.0206 15.1328 14.9765 15.105 18.633L21.768 29.998ZM21.768 29.998C21.3034 29.3544 20.8198 28.7056 20.2787 27.9993L20.2787 27.9993C19.7684 27.3337 19.2923 26.7285 18.8519 26.1686C17.86 24.9076 17.0492 23.8767 16.4363 22.9056C15.5559 21.5105 15.093 20.2513 15.105 18.633L21.768 29.998ZM28.1735 29.0397C27.3419 28.54 26.1662 28.1536 24.739 27.9232C25.0004 27.5877 25.2533 27.2658 25.4971 26.9554C27.9832 23.7911 29.5293 21.8231 29.5524 18.7413C29.5846 14.4253 26.0821 10.8975 21.7664 10.8975C17.5011 10.8975 14.0144 14.3517 13.982 18.6245L13.982 18.6245C13.9586 21.7705 15.5098 23.7407 17.9894 26.8899C18.2495 27.2202 18.5198 27.5635 18.7996 27.9226C17.3712 28.1528 16.1944 28.5392 15.3621 29.039C14.4963 29.5589 13.982 30.216 13.982 30.9631C13.982 31.4628 14.2137 31.9287 14.6372 32.3398C15.0597 32.7499 15.6768 33.11 16.462 33.4044C17.8913 33.9404 19.7755 34.2335 21.7672 34.2335C23.7589 34.2335 25.643 33.9404 27.0723 33.4044C27.8576 33.1099 28.4746 32.7499 28.8971 32.3398C29.3206 31.9286 29.5524 31.4628 29.5524 30.9631C29.5524 30.2163 29.0385 29.5595 28.1735 29.0397ZM21.7667 31.5247H21.7668H21.7668H21.7668H21.7668H21.7668H21.7668H21.7668H21.7669H21.7669H21.7669H21.7669H21.7669H21.7669H21.767H21.767H21.767H21.767H21.767H21.767H21.767H21.7671H21.7671H21.7671H21.7671H21.7671H21.7671H21.7671H21.7672H21.7672C21.9492 31.5247 22.12 31.4364 22.2253 31.2879C22.7616 30.5313 23.3282 29.7623 23.9505 28.9462C25.3667 29.1202 26.4917 29.4496 27.2623 29.8286C27.6536 30.021 27.9492 30.2242 28.1454 30.4226C28.3428 30.6223 28.4293 30.8065 28.4293 30.9632C28.4293 31.1786 28.2811 31.4245 27.9581 31.6789C27.6388 31.9305 27.1676 32.1745 26.5698 32.3878C25.3752 32.8139 23.695 33.1104 21.7672 33.1104C19.8394 33.1104 18.1592 32.8139 16.9646 32.3877C16.3667 32.1745 15.8956 31.9305 15.5762 31.6789C15.2532 31.4245 15.1051 31.1786 15.1051 30.9631C15.1051 30.8064 15.1916 30.6221 15.3893 30.4222C15.5856 30.2237 15.8815 30.0205 16.2731 29.828C17.0444 29.4489 18.1705 29.1196 19.588 28.9456C20.215 29.7693 20.767 30.5204 21.3085 31.2871L21.3984 31.2236L21.3085 31.2871C21.4136 31.4359 21.5844 31.5246 21.7667 31.5247Z" fill="#31C5A1" stroke="#31C5A1" stroke-width="0.220151"/>
</svg>
