<svg width="80" height="32" viewBox="0 0 80 32" fill="none" xmlns="http://www.w3.org/2000/svg">
  <path opacity="0.6" d="M33.0176 32.0001C40.7917 32.0001 47.0939 25.7902 47.0939 18.1299C47.0939 10.4696 40.7917 4.25977 33.0176 4.25977C25.2435 4.25977 18.9414 10.4696 18.9414 18.1299C18.9414 25.7902 25.2435 32.0001 33.0176 32.0001Z" fill="#66264A"/>
  <path opacity="0.6" d="M46.9826 27.7406C54.7568 27.7406 61.059 21.5307 61.059 13.8703C61.059 6.20995 54.7568 0 46.9826 0C39.2085 0 32.9062 6.20995 32.9062 13.8703C32.9062 21.5307 39.2085 27.7406 46.9826 27.7406Z" fill="#E9D1C8"/>
  <path fill-rule="evenodd" clip-rule="evenodd" d="M74.3117 22.0881C73.0265 23.9948 70.4272 25.0638 68.3747 24.571C65.8924 23.9748 64.979 20.8864 66.7472 19.0648C67.5269 18.2616 68.5161 17.786 69.561 17.4538C71.143 16.9505 72.7456 16.5072 74.3489 16.0722C74.7266 15.9699 74.8522 15.8141 74.8209 15.4402C74.7376 14.4519 74.7601 13.4488 74.5953 12.4752C74.4231 11.4574 73.8804 10.5943 72.7503 10.4025C71.5307 10.195 70.3719 10.4371 69.5249 11.4027C68.9502 12.0588 68.8397 12.8603 69.1314 13.6963C69.2328 13.9868 69.3612 14.2737 69.4143 14.5735C69.5533 15.3573 69.0813 15.9945 68.2662 16.1722C67.4213 16.3561 66.6351 15.9599 66.4194 15.2179C66.2073 14.4865 66.3875 13.8015 66.7446 13.1547C67.1349 12.4481 67.7154 11.9112 68.3909 11.4802C70.2639 10.2838 72.2968 9.74687 74.5222 10.1573C76.6032 10.5413 77.756 11.9194 77.7682 14.0202C77.7829 16.5001 77.7667 18.9808 77.778 21.4613C77.7796 21.7923 77.8174 22.1375 77.9189 22.4514C78.102 23.0189 78.5693 23.184 79.1039 22.906C79.4103 22.7466 79.7036 22.5633 80.0001 22.3915C79.6129 24.1413 77.8431 25.0774 76.1643 24.4106C75.3567 24.0901 74.9385 23.4587 74.8668 22.6343C74.8042 21.91 74.8209 21.1785 74.8167 20.4506C74.8102 19.2036 74.8149 17.9559 74.8149 16.7089C74.8149 16.5584 74.8149 16.4085 74.8149 16.1845C74.1782 16.3878 73.5947 16.5248 73.0538 16.7583C72.0803 17.1775 71.0996 17.5991 70.184 18.1241C69.3871 18.5815 68.8516 19.3053 68.7314 20.2483C68.5067 22.0139 69.7818 23.2575 71.6321 23.1005C72.4582 23.0299 73.2073 22.7519 73.9091 22.3321C74.0266 22.2622 74.1423 22.1904 74.3117 22.0881Z" fill="#55666B"/>
  <path fill-rule="evenodd" clip-rule="evenodd" d="M62.3022 24.4042C58.0964 24.4042 53.9392 24.4042 49.6875 24.4042C49.8662 24.1461 49.9895 23.965 50.1166 23.7857C52.8605 19.9176 55.6059 16.05 58.3468 12.1795C58.5085 11.9513 58.6595 11.7085 58.7687 11.4534C58.9474 11.0348 58.794 10.7326 58.3355 10.7055C56.7986 10.6149 55.2717 10.5762 53.8409 11.3304C52.4942 12.0407 51.3258 12.9562 50.3084 14.0697C50.2718 14.1103 50.2273 14.1437 50.1041 14.2554C50.1891 13.9186 50.2458 13.6746 50.312 13.4334C50.5548 12.5562 50.8081 11.6813 51.0394 10.8012C51.0988 10.5748 51.1874 10.4761 51.4382 10.4767C55.191 10.4838 58.9443 10.482 62.6975 10.4832C62.7529 10.4832 62.809 10.4961 62.9422 10.5131C62.8318 10.676 62.7468 10.8083 62.6555 10.937C59.9379 14.7545 57.2184 18.5715 54.5047 22.3927C54.3182 22.6549 54.147 22.9342 54.017 23.227C53.7718 23.7803 53.9531 24.106 54.5541 24.1695C57.6342 24.4929 60.2259 23.6128 62.1441 21.125C62.52 20.6371 62.8571 20.1202 63.2725 19.6281C62.9492 21.2181 62.6265 22.8078 62.3022 24.4042Z" fill="#55666B"/>
  <path fill-rule="evenodd" clip-rule="evenodd" d="M43.0668 24.2943C40.9509 24.2943 38.8351 24.2943 36.7194 24.2943C36.715 24.2789 36.71 24.2637 36.7051 24.2484C36.8331 24.2067 36.9631 24.1707 37.0885 24.1226C37.9537 23.7892 38.4054 23.1448 38.4113 22.2488C38.4292 19.433 38.4263 16.6167 38.4123 13.801C38.4084 13.0102 38.144 12.7027 37.3004 12.3998C38.6441 11.6003 39.95 10.8235 41.3179 10.0098C41.3179 11.114 41.3179 12.1528 41.3179 13.1925C41.3508 13.2066 41.3836 13.2201 41.4165 13.2335C41.4941 13.1176 41.571 13.0019 41.6494 12.8866C42.6773 11.3725 44.0224 10.3284 45.9181 10.1261C47.061 10.0039 47.8958 10.5242 48.1265 11.466C48.3144 12.2344 47.9893 13.0629 47.3806 13.3639C46.7158 13.6932 45.8775 13.5009 45.3406 12.8953C45.3218 12.8747 45.2999 12.8553 45.2851 12.8318C44.4631 11.5642 43.2054 11.6746 42.1439 12.6665C41.6086 13.1675 41.299 13.6884 41.3193 14.4851C41.3832 16.9351 41.3422 19.388 41.3425 21.8392C41.343 23.2402 41.7183 23.764 43.0668 24.2943Z" fill="#55666B"/>
  <path fill-rule="evenodd" clip-rule="evenodd" d="M14.4614 12.9583C14.7836 12.6773 15.094 12.3833 15.4293 12.1187C16.6065 11.1897 17.8605 10.3908 19.4056 10.2342C19.9036 10.1837 20.4301 10.2324 20.9224 10.336C21.9798 10.5583 22.5937 11.2755 22.8044 12.285C22.9496 12.9794 23.031 13.6985 23.0388 14.4076C23.0657 16.9146 23.0419 19.4222 23.0511 21.9299C23.0555 23.1469 23.493 23.7573 24.6249 24.2052C24.6583 24.2188 24.689 24.2411 24.7741 24.2894C22.6299 24.2894 20.5465 24.2894 18.4633 24.2894C18.4677 24.2699 18.4671 24.2364 18.4779 24.2323C19.6934 23.7466 20.1028 23.1676 20.1051 21.8663C20.1098 19.611 20.1038 17.3555 20.0931 15.1007C20.0913 14.7239 20.0499 14.347 20.0152 13.9707C19.8969 12.6777 19.1085 12.0738 17.7152 11.954C16.8535 11.8794 16.0659 12.1934 15.3141 12.5808C15.0427 12.7202 14.7813 12.8784 14.5153 13.0277C14.4976 13.0046 14.4798 12.9812 14.4614 12.9583Z" fill="#55666B"/>
  <path fill-rule="evenodd" clip-rule="evenodd" d="M15.6031 24.2941C13.3935 24.2941 11.3063 24.2941 9.09414 24.2941C9.24811 24.2281 9.29134 24.2059 9.33732 24.1905C10.3036 23.8741 10.8351 23.1804 10.8413 22.2126C10.8589 19.4674 10.8629 16.7199 10.7712 13.9766C10.7181 12.3897 9.68789 11.67 8.07924 11.8999C7.19022 12.0275 6.39239 12.3866 5.63244 12.84C5.46334 12.9411 5.29684 13.047 5.0752 13.0935C5.35535 12.8331 5.62587 12.562 5.91687 12.3138C7.09231 11.3126 8.35466 10.4465 9.93612 10.2342C10.5149 10.1566 11.1355 10.1843 11.7087 10.3006C12.8484 10.5329 13.5316 11.4012 13.6741 12.7554C13.7637 13.6033 13.7815 14.4605 13.7863 15.3136C13.7994 17.4854 13.7832 19.6574 13.7863 21.8293C13.7879 23.1393 14.238 23.7731 15.6031 24.2941Z" fill="#55666B"/>
  <path fill-rule="evenodd" clip-rule="evenodd" d="M4.60078 9.99487C4.60078 10.2494 4.60078 10.4123 4.60078 10.5747C4.60078 14.1901 4.60078 17.8054 4.60078 21.4206C4.60078 21.5323 4.60323 21.6446 4.60048 21.7569C4.57359 22.9734 5.02177 23.8817 6.27755 24.2857C4.19568 24.2857 2.11441 24.2857 0 24.2857C0.0501031 24.2516 0.0757659 24.2263 0.106775 24.2145C1.16917 23.8105 1.64622 23.1763 1.66242 22.0539C1.68304 20.6387 1.6699 19.2234 1.67082 17.8082C1.67143 16.6735 1.67143 15.5381 1.67051 14.4034C1.6699 14.2211 1.66929 14.0388 1.6586 13.8571C1.61063 13.0392 1.34988 12.7113 0.509738 12.4619C1.87031 11.6412 3.19438 10.8427 4.60078 9.99487Z" fill="#55666B"/>
  <path fill-rule="evenodd" clip-rule="evenodd" d="M27.8441 12.4586C29.2652 11.6184 30.5981 10.83 31.9911 10.0056C32.0009 10.2178 32.0134 10.3643 32.0134 10.5106C32.0146 14.1518 32.0143 17.7935 32.0143 21.4354C32.0143 21.5754 32.0164 21.7152 32.0143 21.8552C32.0003 23.0017 32.4031 23.8795 33.5964 24.2789C31.5348 24.2789 29.4733 24.2789 27.3682 24.2789C27.4517 24.2348 27.5078 24.1959 27.5698 24.173C28.5919 23.7998 29.1071 23.1218 29.1123 22.0452C29.1248 19.3417 29.1227 16.6389 29.1123 13.9356C29.1088 13.0406 28.7645 12.6309 27.8441 12.4586Z" fill="#55666B"/>
  <path fill-rule="evenodd" clip-rule="evenodd" d="M30.4085 8.50392C29.4403 8.50392 28.6668 7.73598 28.6578 6.7653C28.6488 5.78347 29.4481 4.98618 30.4276 5.00018C31.3924 5.01433 32.1873 5.79807 32.1943 6.74167C32.2015 7.69956 31.387 8.50332 30.4085 8.50392Z" fill="#55666B"/>
  </svg>
