<svg width="81" height="27" viewBox="0 0 81 27" fill="none" xmlns="http://www.w3.org/2000/svg">
  <g clip-path="url(#clip0)">
  <path d="M27.4823 0C26.7622 0.0111086 26.0748 0.303328 25.566 0.814586C25.0573 1.32584 24.7674 2.01586 24.7578 2.73806C24.7578 3.46423 25.0455 4.16067 25.5575 4.67415C26.0695 5.18764 26.764 5.47611 27.4881 5.47611C28.2122 5.47611 28.9067 5.18764 29.4187 4.67415C29.9308 4.16067 30.2184 3.46423 30.2184 2.73806C30.2088 2.01388 29.9173 1.32216 29.4061 0.810583C28.8949 0.299007 28.2045 0.00811079 27.4823 0V0Z" fill="white"/>
  <path d="M30.2126 9.01355H24.752V26.3573H30.2126V9.01355Z" fill="white"/>
  <path d="M59.5634 12.4524V9.01355H43.6767H43.6096C41.5977 9.01355 39.8924 9.65282 38.4636 11.5985L38.4995 9.01123H33.0308V26.3573H38.4914V19.8393C38.4914 17.1337 40.6074 13.8063 44.3095 13.8063H52.2216L45.0649 22.922V26.3596H59.9405V21.5668H52.4079L59.5634 12.4524Z" fill="white"/>
  <path d="M16.2951 9.01587C14.0264 9.1957 12.9574 9.88021 11.5113 12.066L11.0612 12.8921L10.6505 12.1298L10.6123 12.066C9.10836 9.7816 7.07914 9.26647 5.68506 9.07736L5.01984 9.02747L0 9.01355V26.3573H5.29865V14.3864L5.34377 13.8295C7.02361 14.166 9.2981 15.9527 9.94828 17.9598L10.138 18.548H11.9891L12.1788 17.9598C12.7064 16.3297 14.908 14.7832 16.6213 14.1149L16.6433 14.3864V26.3573H21.942V9.01355H16.3657L16.2951 9.01587Z" fill="white"/>
  <path d="M75.5382 9.01356V10.8119L75.3589 10.6216C74.0551 9.22935 72.1959 8.52628 69.8335 8.52628C64.8391 8.52628 60.9253 12.5487 60.9253 17.6918C60.9253 22.8349 64.838 26.8515 69.8335 26.8515C72.1971 26.8515 74.0551 26.1461 75.3601 24.7562L75.5382 24.5648V26.3631H81V9.01356H75.5382ZM70.9638 21.9857C68.2266 21.9857 66.3882 20.257 66.3882 17.686C66.3882 15.115 68.2266 13.3852 70.9638 13.3852C73.7011 13.3852 75.5382 15.1139 75.5382 17.686C75.5382 20.2582 73.6953 21.9857 70.9638 21.9857Z" fill="white"/>
  </g>
  <defs>
  <clipPath id="clip0">
  <rect width="81" height="26.8457" fill="white"/>
  </clipPath>
  </defs>
  </svg>
