<svg width="61" height="61" viewBox="0 0 61 61" fill="none" xmlns="http://www.w3.org/2000/svg">
  <circle cx="30.5" cy="30.5" r="30.5" fill="#582EFF"/>
  <g clip-path="url(#clip0)">
  <path d="M30.4244 28.6554V27.5571C30.4244 27.2576 30.2246 27.0579 29.9251 27.0579C29.6256 27.0579 29.4259 27.2576 29.4259 27.5571V28.7053C28.4274 28.905 27.6786 29.7537 27.6786 30.7521C27.6786 31.7506 28.4275 32.5993 29.4259 32.799V35.0954C29.1264 35.0455 28.727 34.9456 28.2777 34.6461C28.0779 34.4963 27.7285 34.5462 27.5788 34.7459C27.429 34.9956 27.4789 35.2951 27.6786 35.4948C28.3276 35.9441 28.9766 36.0939 29.376 36.1438V37.242C29.376 37.5416 29.5757 37.7413 29.8752 37.7413C30.1747 37.7413 30.3745 37.5416 30.3745 37.242V36.0938C31.3729 35.8941 32.1217 35.0455 32.1217 34.047C32.1217 33.0485 31.3729 32.1999 30.3745 32.0002V29.7038C30.674 29.7537 31.0734 29.8535 31.5227 30.1531C31.6225 30.203 31.7224 30.2529 31.8222 30.2529C31.972 30.2529 32.1217 30.203 32.2216 30.0532C32.3713 29.8535 32.3214 29.5041 32.1217 29.3543C31.4727 28.855 30.8736 28.7053 30.4244 28.6554ZM29.4259 31.8004C28.9766 31.6507 28.677 31.2513 28.677 30.7521C28.677 30.3028 28.9766 29.9034 29.4259 29.7037V31.8004ZM31.1732 34.0469C31.1732 34.4962 30.8737 34.8956 30.4244 35.0953V32.9986C30.8736 33.1982 31.1732 33.5977 31.1732 34.0469Z" fill="white"/>
  <path d="M29.9251 25.3105C26.6801 25.3105 23.8845 27.5071 23.0359 30.6022C22.8861 31.2013 22.7863 31.8003 22.7863 32.3994C22.7863 32.9985 22.8861 33.6474 23.0359 34.2465C23.8845 37.3417 26.7301 39.4883 29.9251 39.4883C33.819 39.4883 37.014 36.2933 37.014 32.3994C37.014 28.5055 33.819 25.3105 29.9251 25.3105ZM29.9251 38.4899C27.1794 38.4899 24.7332 36.6428 24.0343 33.997C23.8845 33.4977 23.8346 32.9486 23.8346 32.3995C23.8346 31.9002 23.8845 31.3511 24.0343 30.8519C24.7332 28.1561 27.1794 26.3089 29.9251 26.3089C33.2698 26.3089 36.0155 29.0547 36.0155 32.3994C36.0155 35.7441 33.2699 38.4899 29.9251 38.4899Z" fill="white"/>
  <path d="M38.8611 26.958C38.5116 26.958 38.1622 27.0079 37.8128 27.0578C36.1154 24.5617 33.2199 22.8644 29.9251 22.8644C25.5819 22.8644 21.7878 25.8097 20.6895 30.0032C20.6396 30.2528 20.5897 30.5523 20.5398 30.8019C17.5445 31.0516 14.9985 33.1982 14.2496 36.0937C14.0999 36.6927 14 37.2918 14 37.8909C14 38.4899 14.0999 39.1389 14.2496 39.738C15.0484 42.8332 17.8939 44.9798 21.0889 44.9798C23.585 44.9798 25.8814 43.6818 27.1794 41.5352C28.078 41.7848 28.9766 41.9346 29.9251 41.9346C31.9719 41.9346 33.8689 41.2856 35.4165 40.1873C36.4649 40.7864 37.663 41.0859 38.9111 41.0859C42.805 41.0859 46 37.8909 46 33.997C45.95 30.1031 42.7551 26.958 38.8611 26.958ZM21.0889 43.9814C18.3432 43.9814 15.897 42.1343 15.1981 39.4884C15.0484 38.9892 14.9984 38.4401 14.9984 37.8909C14.9984 37.3917 15.0483 36.8426 15.1981 36.3433C15.8471 33.8971 17.9438 32.1 20.39 31.8004V32.3495C20.39 33.1982 20.4899 33.997 20.6895 34.8456C21.4883 37.7411 23.5351 40.0375 26.2309 41.1857C25.0827 42.933 23.1856 43.9814 21.0889 43.9814ZM29.9251 40.9361C26.0811 40.9361 22.6864 38.3401 21.6879 34.596C21.4882 33.8971 21.3884 33.1483 21.3884 32.3994C21.3884 31.6506 21.4883 30.9517 21.6381 30.2528C22.5866 26.4587 26.0312 23.8628 29.9251 23.8628C34.6178 23.8628 38.4617 27.7068 38.4617 32.3994C38.4617 37.0921 34.6178 40.9361 29.9251 40.9361ZM38.8611 40.1373C37.9625 40.1373 37.0639 39.9376 36.2652 39.5383C38.2121 37.791 39.5101 35.2449 39.5101 32.3994C39.5101 30.8019 39.1107 29.3042 38.4118 27.9564H38.9111C42.2558 27.9564 45.0015 30.7021 45.0015 34.0468C44.9516 37.3916 42.2059 40.1373 38.8611 40.1373Z" fill="white"/>
  <path d="M30.2747 17.0235C30.1249 16.9236 29.9252 16.8737 29.7256 16.9736L14.2497 25.4104C14.0001 25.5102 13.9502 25.8098 14.05 26.0594C14.1499 26.2091 14.2996 26.309 14.4993 26.309C14.5991 26.309 14.649 26.309 14.7489 26.2591L29.9252 17.9721L33.6694 20.8176C33.8191 20.9175 34.0189 20.9674 34.2185 20.8675L44.7021 15.0766L44.3527 16.3746V16.4744C44.3527 16.6741 44.5024 16.9237 44.752 16.9737C45.0017 17.0236 45.3012 16.8738 45.3511 16.6242L45.9502 14.2279C45.9502 14.1281 45.9502 14.0282 45.9003 13.9284C45.9003 13.8785 45.8504 13.8785 45.8504 13.8286C45.8005 13.7287 45.7007 13.6788 45.6008 13.6788C45.6008 13.6788 45.6008 13.6788 45.5509 13.6788L43.1547 13.0298C42.9051 12.9799 42.6055 13.1297 42.5556 13.3793C42.4557 13.6788 42.6554 13.9284 42.9051 14.0283L44.1032 14.3278L34.0189 19.8691L30.2747 17.0235Z" fill="white"/>
  </g>
  <defs>
  <clipPath id="clip0">
  <rect width="32" height="32" fill="white" transform="translate(14 13)"/>
  </clipPath>
  </defs>
  </svg>
