<svg width="61" height="61" viewBox="0 0 61 61" fill="none" xmlns="http://www.w3.org/2000/svg">
  <circle cx="30.5" cy="30.5" r="30.5" fill="#582EFF"/>
  <path d="M17.1021 32.1299C17.6286 31.8216 18.2425 31.7409 18.8306 31.9025C19.4188 32.0641 19.9051 32.4472 20.2 32.9811L20.6354 33.7696L21.0337 32.2832L19.8484 30.2302C19.1464 29.0144 19.5645 27.4542 20.7803 26.7522C21.2293 26.493 21.7297 26.3877 22.2172 26.4202L21.1099 24.5039C20.7699 23.915 20.6795 23.2288 20.8555 22.5719C21.0315 21.915 21.4528 21.3659 22.0418 21.026C22.4943 20.7647 22.9944 20.6589 23.4803 20.6913L23.3029 20.384C22.6009 19.1683 23.019 17.608 24.2349 16.906C25.4506 16.204 27.0109 16.6223 27.7128 17.838L27.8901 18.145C28.1049 17.7081 28.4469 17.328 28.8993 17.0667C29.4883 16.7267 30.1744 16.6364 30.8313 16.8124C31.4883 16.9884 32.0373 17.4097 32.3773 17.9986L33.1658 19.3645C33.3222 19.6354 33.2294 19.9818 32.9585 20.1382C32.6875 20.2946 32.3411 20.2018 32.1847 19.9309L31.3962 18.5651C31.2075 18.2382 30.9027 18.0043 30.5381 17.9066C30.1735 17.8089 29.7927 17.8591 29.4658 18.0477C29.1389 18.2365 28.9051 18.5412 28.8073 18.9058C28.7102 19.2683 28.7592 19.6468 28.9451 19.9724L34.0617 28.8343C34.2181 29.1052 34.1253 29.4516 33.8544 29.608C33.5835 29.7644 33.2371 29.6716 33.0807 29.4008L26.7319 18.4044C26.3423 17.7295 25.4763 17.4975 24.8014 17.8871C24.1266 18.2767 23.8945 19.1428 24.2841 19.8176L29.4251 28.7219C30.3454 29.0354 30.8794 30.0164 30.6241 30.969L30.5359 31.2983C30.778 31.2634 31.0309 31.2758 31.2817 31.3429C32.275 31.6091 32.8665 32.6337 32.6004 33.6269L31.0788 39.3053C30.7977 40.3544 30.2861 41.3021 29.5872 42.0929C32.5368 43.7312 36.1081 43.7146 39.0601 42.0102C43.2017 39.619 44.9477 34.6492 43.2117 30.1932L41.4046 25.5541C41.1096 24.7971 40.2486 24.4073 39.4852 24.6852C38.7419 24.9557 38.3328 25.7626 38.5538 26.5221L39.7254 30.5482C39.8129 30.8489 39.6617 31.1683 39.3737 31.2912C39.0857 31.4141 38.7504 31.3023 38.5939 31.0311L34.7321 24.3427C34.5756 24.0718 34.6685 23.7254 34.9394 23.5689C35.2102 23.4126 35.5567 23.5053 35.7131 23.7763L37.4516 26.7871C37.0974 25.4717 37.8123 24.0884 39.0977 23.6206C39.7498 23.3833 40.4571 23.4102 41.0892 23.6963C41.7213 23.9826 42.2082 24.4962 42.4601 25.1429L44.2673 29.782C45.199 32.1736 45.2436 34.8243 44.3928 37.2459C43.542 39.6675 41.8493 41.7079 39.6265 42.9912C37.9874 43.9376 36.1399 44.4328 34.2606 44.4328C34.1355 44.4328 34.0101 44.4306 33.8847 44.4262C32.0635 44.3622 30.2907 43.838 28.7321 42.9066C28.4583 43.1259 28.166 43.326 27.8566 43.5047C26.7909 44.12 25.6083 44.4343 24.4098 44.4342C23.8091 44.4342 23.2043 44.3552 22.6085 44.1956C20.4001 43.6039 18.6297 41.9627 17.8726 39.8054L16.1308 34.8421C15.7693 33.8118 16.1778 32.6712 17.1021 32.1299ZM21.3468 27.7333C20.672 28.123 20.44 28.9889 20.8296 29.6638L21.4484 30.7358L22.0048 28.6595C22.1103 28.266 22.336 27.9255 22.6507 27.6782C22.245 27.4903 21.7573 27.4964 21.3468 27.7333ZM22.6083 22.007C22.2814 22.1958 22.0476 22.5005 21.9498 22.8651C21.8521 23.2298 21.9023 23.6106 22.0909 23.9373L24.0285 27.2904C24.1156 27.3011 24.2025 27.3177 24.2887 27.3408C24.5378 27.4075 24.7655 27.5228 24.9619 27.6779C25.1086 27.2551 25.3985 26.9029 25.7899 26.6769C26.099 26.4984 26.4446 26.4144 26.7927 26.4282L24.5386 22.5241C24.149 21.8494 23.2831 21.6174 22.6083 22.007ZM17.1998 34.4669L18.9416 39.4302C19.5746 41.2341 21.0551 42.6066 22.9017 43.1013C24.3939 43.5011 25.9523 43.2959 27.2901 42.5236C28.6279 41.7512 29.5848 40.5041 29.9847 39.0119L31.5062 33.3337C31.6106 32.9438 31.3784 32.5416 30.9886 32.4371C30.5989 32.3328 30.1967 32.5647 30.0921 32.9544L29.1143 36.6037C29.0464 36.8568 28.8176 37.0237 28.5675 37.0237C28.519 37.0237 28.4696 37.0174 28.4205 37.0042C28.1184 36.9233 27.939 36.6127 28.02 36.3105L29.5298 30.6757C29.6342 30.2858 29.4021 29.8837 29.0122 29.7792C28.6224 29.6748 28.2201 29.9069 28.1156 30.2968L26.6058 35.9315C26.5248 36.2337 26.2144 36.413 25.912 36.3321C25.6099 36.2511 25.4305 35.9405 25.5115 35.6383L27.4294 28.4813C27.48 28.2924 27.4541 28.0952 27.3563 27.9259C27.2585 27.7566 27.1007 27.6354 26.9118 27.5848C26.723 27.5342 26.5257 27.5602 26.3564 27.6579C26.1871 27.7557 26.066 27.9136 26.0153 28.1024L24.0976 35.2595C24.0298 35.5126 23.8009 35.6795 23.5508 35.6795C23.5023 35.6795 23.4529 35.6732 23.4038 35.66C23.1017 35.5791 22.9223 35.2685 23.0033 34.9663L24.5131 29.3315C24.5637 29.1427 24.5377 28.9454 24.44 28.7761C24.3422 28.6068 24.1843 28.4857 23.9955 28.435C23.6056 28.3308 23.2035 28.5627 23.099 28.9526L21.3661 35.42C21.3063 35.6432 21.1169 35.8077 20.8876 35.8356C20.6581 35.8638 20.4348 35.7495 20.3232 35.5473L19.2084 33.5289C19.0624 33.2645 18.8216 33.0749 18.5304 32.9948C18.2392 32.9147 17.9353 32.9548 17.6746 33.1075C17.217 33.3755 17.0174 33.9472 17.1998 34.4669Z" fill="white"/>
  <path d="M33.9499 22.4214C33.801 22.4214 33.6549 22.3608 33.5495 22.2554C33.4441 22.1501 33.3835 22.0039 33.3835 21.855C33.3835 21.706 33.4441 21.5599 33.5495 21.4545C33.6549 21.3492 33.801 21.2886 33.9499 21.2886C34.0995 21.2886 34.245 21.3492 34.3504 21.4545C34.4563 21.5599 34.5164 21.706 34.5164 21.855C34.5164 22.0039 34.4563 22.1501 34.3504 22.2554C34.245 22.3608 34.0995 22.4214 33.9499 22.4214Z" fill="white"/>
  </svg>
