<svg width="160" height="37" viewBox="0 0 160 37" fill="none" xmlns="http://www.w3.org/2000/svg">
<path d="M21.92 18.464V22.496C21.56 22.68 21.104 22.828 20.552 22.94C20.008 23.044 19.452 23.096 18.884 23.096C18.02 23.096 17.272 22.924 16.64 22.58C16.008 22.228 15.524 21.724 15.188 21.068C14.86 20.412 14.696 19.628 14.696 18.716C14.696 17.82 14.86 17.044 15.188 16.388C15.524 15.732 16 15.232 16.616 14.888C17.24 14.536 17.972 14.36 18.812 14.36C19.412 14.36 19.964 14.452 20.468 14.636C20.98 14.812 21.416 15.068 21.776 15.404L21.332 16.328C20.924 15.992 20.524 15.752 20.132 15.608C19.74 15.464 19.304 15.392 18.824 15.392C17.896 15.392 17.188 15.676 16.7 16.244C16.22 16.812 15.98 17.636 15.98 18.716C15.98 19.828 16.228 20.672 16.724 21.248C17.22 21.816 17.952 22.1 18.92 22.1C19.568 22.1 20.192 22.004 20.792 21.812V19.412H18.8V18.464H21.92ZM26.5162 23.084C25.9242 23.084 25.4042 22.956 24.9562 22.7C24.5082 22.444 24.1602 22.08 23.9122 21.608C23.6722 21.136 23.5522 20.584 23.5522 19.952C23.5522 19.32 23.6722 18.768 23.9122 18.296C24.1602 17.816 24.5082 17.448 24.9562 17.192C25.4042 16.936 25.9242 16.808 26.5162 16.808C27.1002 16.808 27.6162 16.936 28.0642 17.192C28.5122 17.448 28.8562 17.816 29.0962 18.296C29.3442 18.768 29.4682 19.32 29.4682 19.952C29.4682 20.584 29.3442 21.136 29.0962 21.608C28.8562 22.08 28.5122 22.444 28.0642 22.7C27.6162 22.956 27.1002 23.084 26.5162 23.084ZM26.5042 22.124C27.0642 22.124 27.4922 21.94 27.7882 21.572C28.0842 21.204 28.2322 20.664 28.2322 19.952C28.2322 19.256 28.0802 18.72 27.7762 18.344C27.4802 17.968 27.0602 17.78 26.5162 17.78C25.9642 17.78 25.5362 17.968 25.2322 18.344C24.9282 18.72 24.7762 19.256 24.7762 19.952C24.7762 20.664 24.9242 21.204 25.2202 21.572C25.5242 21.94 25.9522 22.124 26.5042 22.124ZM36.0561 17.888V20.924C36.0561 21.34 36.1441 21.636 36.3201 21.812C36.5041 21.98 36.7561 22.064 37.0761 22.064C37.2841 22.064 37.4961 22.032 37.7121 21.968V22.952C37.4481 23.04 37.1481 23.084 36.8121 23.084C36.1881 23.084 35.7041 22.908 35.3601 22.556C35.0161 22.204 34.8441 21.692 34.8441 21.02V17.888H33.6681V16.952H34.8441V15.44L36.0561 15.02V16.952H37.7241V17.888H36.0561ZM41.6475 23.084C41.0555 23.084 40.5355 22.956 40.0875 22.7C39.6395 22.444 39.2915 22.08 39.0435 21.608C38.8035 21.136 38.6835 20.584 38.6835 19.952C38.6835 19.32 38.8035 18.768 39.0435 18.296C39.2915 17.816 39.6395 17.448 40.0875 17.192C40.5355 16.936 41.0555 16.808 41.6475 16.808C42.2315 16.808 42.7475 16.936 43.1955 17.192C43.6435 17.448 43.9875 17.816 44.2275 18.296C44.4755 18.768 44.5995 19.32 44.5995 19.952C44.5995 20.584 44.4755 21.136 44.2275 21.608C43.9875 22.08 43.6435 22.444 43.1955 22.7C42.7475 22.956 42.2315 23.084 41.6475 23.084ZM41.6355 22.124C42.1955 22.124 42.6235 21.94 42.9195 21.572C43.2155 21.204 43.3635 20.664 43.3635 19.952C43.3635 19.256 43.2115 18.72 42.9075 18.344C42.6115 17.968 42.1915 17.78 41.6475 17.78C41.0955 17.78 40.6675 17.968 40.3635 18.344C40.0595 18.72 39.9075 19.256 39.9075 19.952C39.9075 20.664 40.0555 21.204 40.3515 21.572C40.6555 21.94 41.0835 22.124 41.6355 22.124ZM52.8193 16.808C53.3393 16.808 53.8033 16.94 54.2113 17.204C54.6193 17.468 54.9353 17.84 55.1593 18.32C55.3913 18.8 55.5073 19.352 55.5073 19.976C55.5073 20.6 55.3953 21.148 55.1713 21.62C54.9473 22.084 54.6313 22.444 54.2233 22.7C53.8153 22.956 53.3473 23.084 52.8193 23.084C52.3553 23.084 51.9473 22.988 51.5953 22.796C51.2513 22.596 50.9913 22.312 50.8153 21.944V25.592H49.6153V18.656C49.6153 18.024 49.5833 17.456 49.5193 16.952H50.6473L50.7673 18.068C50.9273 17.668 51.1873 17.36 51.5473 17.144C51.9073 16.92 52.3313 16.808 52.8193 16.808ZM52.5433 22.124C53.0873 22.124 53.5113 21.936 53.8153 21.56C54.1193 21.184 54.2713 20.656 54.2713 19.976C54.2713 19.288 54.1193 18.752 53.8153 18.368C53.5113 17.976 53.0873 17.78 52.5433 17.78C51.9833 17.78 51.5553 17.968 51.2593 18.344C50.9633 18.72 50.8153 19.256 50.8153 19.952C50.8153 20.648 50.9633 21.184 51.2593 21.56C51.5633 21.936 51.9913 22.124 52.5433 22.124ZM57.1278 14.168H58.3278V23H57.1278V14.168ZM65.8364 16.952V23H64.6364V21.968C64.4604 22.328 64.1964 22.604 63.8444 22.796C63.5004 22.988 63.0964 23.084 62.6324 23.084C62.0964 23.084 61.6244 22.956 61.2164 22.7C60.8164 22.444 60.5044 22.084 60.2804 21.62C60.0564 21.148 59.9444 20.6 59.9444 19.976C59.9444 19.352 60.0564 18.8 60.2804 18.32C60.5124 17.84 60.8324 17.468 61.2404 17.204C61.6484 16.94 62.1124 16.808 62.6324 16.808C63.0964 16.808 63.5004 16.908 63.8444 17.108C64.1884 17.3 64.4524 17.576 64.6364 17.936V16.952H65.8364ZM62.9204 22.124C63.4644 22.124 63.8844 21.936 64.1804 21.56C64.4844 21.176 64.6364 20.64 64.6364 19.952C64.6364 19.256 64.4844 18.72 64.1804 18.344C63.8844 17.968 63.4604 17.78 62.9084 17.78C62.3644 17.78 61.9364 17.976 61.6244 18.368C61.3204 18.752 61.1684 19.288 61.1684 19.976C61.1684 20.656 61.3204 21.184 61.6244 21.56C61.9364 21.936 62.3684 22.124 62.9204 22.124ZM71.0329 16.808C72.4809 16.808 73.2049 17.616 73.2049 19.232V23H71.9929V19.304C71.9929 18.776 71.8889 18.392 71.6809 18.152C71.4809 17.912 71.1569 17.792 70.7089 17.792C70.1969 17.792 69.7849 17.952 69.4729 18.272C69.1689 18.592 69.0169 19.02 69.0169 19.556V23H67.8169V18.656C67.8169 18.024 67.7849 17.456 67.7209 16.952H68.8489L68.9569 17.996C69.1489 17.612 69.4249 17.32 69.7849 17.12C70.1529 16.912 70.5689 16.808 71.0329 16.808ZM81.1574 23.084C80.5494 23.084 80.0174 22.956 79.5614 22.7C79.1134 22.444 78.7694 22.084 78.5294 21.62C78.2894 21.148 78.1694 20.6 78.1694 19.976C78.1694 19.352 78.2934 18.8 78.5414 18.32C78.7974 17.84 79.1534 17.468 79.6094 17.204C80.0654 16.94 80.5974 16.808 81.2054 16.808C81.6294 16.808 82.0374 16.88 82.4294 17.024C82.8214 17.16 83.1374 17.348 83.3774 17.588L83.0054 18.464C82.4374 18.016 81.8654 17.792 81.2894 17.792C80.7054 17.792 80.2494 17.984 79.9214 18.368C79.5934 18.744 79.4294 19.276 79.4294 19.964C79.4294 20.652 79.5934 21.184 79.9214 21.56C80.2494 21.928 80.7054 22.112 81.2894 22.112C81.8814 22.112 82.4534 21.888 83.0054 21.44L83.3774 22.316C83.1214 22.556 82.7934 22.744 82.3934 22.88C82.0014 23.016 81.5894 23.084 81.1574 23.084ZM87.7297 16.808C87.9137 16.808 88.1057 16.836 88.3057 16.892L88.2817 17.996C88.0657 17.916 87.8297 17.876 87.5737 17.876C87.0217 17.876 86.6057 18.044 86.3257 18.38C86.0537 18.708 85.9177 19.124 85.9177 19.628V23H84.7177V18.656C84.7177 18.024 84.6857 17.456 84.6217 16.952H85.7497L85.8577 18.044C86.0177 17.644 86.2657 17.34 86.6017 17.132C86.9377 16.916 87.3137 16.808 87.7297 16.808ZM94.4722 20H90.1522C90.1922 21.416 90.8362 22.124 92.0842 22.124C92.7802 22.124 93.4162 21.896 93.9922 21.44L94.3642 22.304C94.0922 22.544 93.7442 22.736 93.3202 22.88C92.9042 23.016 92.4842 23.084 92.0602 23.084C91.0922 23.084 90.3322 22.808 89.7802 22.256C89.2282 21.696 88.9522 20.932 88.9522 19.964C88.9522 19.348 89.0722 18.8 89.3122 18.32C89.5602 17.84 89.9042 17.468 90.3442 17.204C90.7842 16.94 91.2842 16.808 91.8442 16.808C92.6602 16.808 93.3002 17.072 93.7642 17.6C94.2362 18.128 94.4722 18.86 94.4722 19.796V20ZM91.8682 17.708C91.4122 17.708 91.0402 17.844 90.7522 18.116C90.4642 18.388 90.2802 18.776 90.2002 19.28H93.4042C93.3562 18.768 93.2002 18.38 92.9362 18.116C92.6722 17.844 92.3162 17.708 91.8682 17.708ZM101.595 16.952V23H100.395V21.968C100.219 22.328 99.955 22.604 99.603 22.796C99.259 22.988 98.855 23.084 98.391 23.084C97.855 23.084 97.383 22.956 96.975 22.7C96.575 22.444 96.263 22.084 96.039 21.62C95.815 21.148 95.703 20.6 95.703 19.976C95.703 19.352 95.815 18.8 96.039 18.32C96.271 17.84 96.591 17.468 96.999 17.204C97.407 16.94 97.871 16.808 98.391 16.808C98.855 16.808 99.259 16.908 99.603 17.108C99.947 17.3 100.211 17.576 100.395 17.936V16.952H101.595ZM98.679 22.124C99.223 22.124 99.643 21.936 99.939 21.56C100.243 21.176 100.395 20.64 100.395 19.952C100.395 19.256 100.243 18.72 99.939 18.344C99.643 17.968 99.219 17.78 98.667 17.78C98.123 17.78 97.695 17.976 97.383 18.368C97.079 18.752 96.927 19.288 96.927 19.976C96.927 20.656 97.079 21.184 97.383 21.56C97.695 21.936 98.127 22.124 98.679 22.124ZM105.148 17.888V20.924C105.148 21.34 105.236 21.636 105.412 21.812C105.596 21.98 105.848 22.064 106.168 22.064C106.376 22.064 106.588 22.032 106.804 21.968V22.952C106.54 23.04 106.24 23.084 105.904 23.084C105.28 23.084 104.796 22.908 104.451 22.556C104.108 22.204 103.936 21.692 103.936 21.02V17.888H102.76V16.952H103.936V15.44L105.148 15.02V16.952H106.816V17.888H105.148ZM110.739 23.084C110.147 23.084 109.627 22.956 109.179 22.7C108.731 22.444 108.383 22.08 108.135 21.608C107.895 21.136 107.775 20.584 107.775 19.952C107.775 19.32 107.895 18.768 108.135 18.296C108.383 17.816 108.731 17.448 109.179 17.192C109.627 16.936 110.147 16.808 110.739 16.808C111.323 16.808 111.839 16.936 112.287 17.192C112.735 17.448 113.079 17.816 113.319 18.296C113.567 18.768 113.691 19.32 113.691 19.952C113.691 20.584 113.567 21.136 113.319 21.608C113.079 22.08 112.735 22.444 112.287 22.7C111.839 22.956 111.323 23.084 110.739 23.084ZM110.727 22.124C111.287 22.124 111.715 21.94 112.011 21.572C112.307 21.204 112.455 20.664 112.455 19.952C112.455 19.256 112.303 18.72 111.999 18.344C111.703 17.968 111.283 17.78 110.739 17.78C110.187 17.78 109.759 17.968 109.455 18.344C109.151 18.72 108.999 19.256 108.999 19.952C108.999 20.664 109.147 21.204 109.443 21.572C109.747 21.94 110.175 22.124 110.727 22.124ZM118.32 16.808C118.504 16.808 118.696 16.836 118.896 16.892L118.872 17.996C118.656 17.916 118.42 17.876 118.164 17.876C117.612 17.876 117.196 18.044 116.916 18.38C116.644 18.708 116.508 19.124 116.508 19.628V23H115.308V18.656C115.308 18.024 115.276 17.456 115.212 16.952H116.34L116.448 18.044C116.608 17.644 116.856 17.34 117.192 17.132C117.528 16.916 117.904 16.808 118.32 16.808Z" fill="#70305E"/>
<path d="M138.117 24.251L144 18.6253L138.117 12.9996" stroke="#70305E"/>
<line x1="128" y1="18.4766" x2="143.37" y2="18.4766" stroke="#70305E"/>
<rect x="0.5" y="0.5" width="159" height="36" rx="7.5" stroke="#70305E"/>
</svg>
