<svg width="201" height="102" viewBox="0 0 201 102" fill="none" xmlns="http://www.w3.org/2000/svg">
<rect y="0.0322266" width="201" height="101.356" rx="18" fill="white"/>
<path d="M29.7808 72.024C29.7808 73.044 29.4028 73.896 28.6468 74.58C27.8908 75.264 26.8828 75.648 25.6228 75.732V77.442C25.6228 77.694 25.5268 77.82 25.3348 77.82H24.8668C24.6748 77.82 24.5788 77.694 24.5788 77.442V75.732C23.4148 75.636 22.4788 75.318 21.7708 74.778C21.0628 74.226 20.7088 73.656 20.7088 73.068C20.7088 72.648 20.8228 72.324 21.0508 72.096C21.2788 71.868 21.5548 71.754 21.8788 71.754C22.2988 71.754 22.6648 71.916 22.9768 72.24C23.2888 72.552 23.5228 72.9 23.6788 73.284C23.8468 73.656 24.0688 74.004 24.3448 74.328C24.6328 74.64 24.9628 74.796 25.3348 74.796C25.8028 74.796 26.1868 74.628 26.4868 74.292C26.7868 73.956 26.9368 73.506 26.9368 72.942C26.9368 72.534 26.8228 72.174 26.5948 71.862C26.3788 71.55 26.0908 71.298 25.7308 71.106C25.3828 70.902 24.9928 70.71 24.5608 70.53C24.1288 70.35 23.6968 70.158 23.2648 69.954C22.8328 69.738 22.4368 69.492 22.0768 69.216C21.7288 68.928 21.4408 68.556 21.2128 68.1C20.9968 67.632 20.8888 67.092 20.8888 66.48C20.8888 65.496 21.2428 64.674 21.9508 64.014C22.6588 63.354 23.5768 62.982 24.7048 62.898V61.836C24.7048 61.596 24.8068 61.476 25.0108 61.476H25.4608C25.6648 61.476 25.7668 61.596 25.7668 61.836V62.898C26.8828 62.994 27.7768 63.288 28.4488 63.78C29.1208 64.272 29.4568 64.818 29.4568 65.418C29.4568 65.814 29.3488 66.132 29.1328 66.372C28.9168 66.6 28.6168 66.714 28.2328 66.714C27.8608 66.714 27.5428 66.558 27.2788 66.246C27.0268 65.934 26.8408 65.598 26.7208 65.238C26.6128 64.866 26.4328 64.524 26.1808 64.212C25.9288 63.9 25.6168 63.744 25.2448 63.744C24.8008 63.744 24.4468 63.9 24.1828 64.212C23.9308 64.524 23.8048 64.938 23.8048 65.454C23.8048 65.934 23.9128 66.348 24.1288 66.696C24.3568 67.044 24.6448 67.32 24.9928 67.524C25.3408 67.716 25.7248 67.896 26.1448 68.064C26.5768 68.22 27.0028 68.394 27.4228 68.586C27.8548 68.778 28.2448 69.006 28.5928 69.27C28.9408 69.534 29.2228 69.9 29.4388 70.368C29.6668 70.836 29.7808 71.388 29.7808 72.024ZM31.8057 75.624C31.5417 75.624 31.4097 75.522 31.4097 75.318V75.264C31.4097 75.144 31.5717 74.94 31.8957 74.652C32.2197 74.352 32.3817 74.052 32.3817 73.752V65.922C32.3817 65.67 32.3157 65.478 32.1837 65.346C32.0517 65.202 31.9077 65.118 31.7517 65.094C31.6077 65.058 31.4697 65.004 31.3377 64.932C31.2057 64.848 31.1397 64.74 31.1397 64.608V64.518C31.1397 64.338 31.3017 64.176 31.6257 64.032L34.1457 62.934C34.5297 62.79 34.8297 62.772 35.0457 62.88C35.2737 62.976 35.3877 63.144 35.3877 63.384C35.3877 63.516 35.3157 63.714 35.1717 63.978C35.0397 64.242 34.9737 64.554 34.9737 64.914V73.752C34.9737 73.932 35.0277 74.106 35.1357 74.274C35.2437 74.43 35.3577 74.556 35.4777 74.652C35.6097 74.736 35.7297 74.838 35.8377 74.958C35.9457 75.066 35.9997 75.168 35.9997 75.264V75.318C35.9997 75.522 35.8737 75.624 35.6217 75.624H31.8057ZM42.1009 62.664C43.5769 62.664 44.7709 63.246 45.6829 64.41C46.6069 65.574 47.0689 67.098 47.0689 68.982C47.0689 71.058 46.6369 72.714 45.7729 73.95C44.9089 75.186 43.6369 75.804 41.9569 75.804C40.7689 75.804 39.7669 75.516 38.9509 74.94C38.1349 74.364 37.7269 73.698 37.7269 72.942C37.7269 72.546 37.8529 72.234 38.1049 72.006C38.3569 71.778 38.6689 71.664 39.0409 71.664C39.3889 71.664 39.6769 71.772 39.9049 71.988C40.1449 72.192 40.3309 72.444 40.4629 72.744C40.5949 73.044 40.7209 73.344 40.8409 73.644C40.9729 73.944 41.1409 74.202 41.3449 74.418C41.5609 74.622 41.8249 74.724 42.1369 74.724C43.4569 74.724 44.1709 73.14 44.2789 69.972C43.7029 70.644 42.8389 70.98 41.6869 70.98C40.5109 70.98 39.5209 70.626 38.7169 69.918C37.9249 69.21 37.5289 68.16 37.5289 66.768C37.5289 65.556 37.9609 64.572 38.8249 63.816C39.6889 63.048 40.7809 62.664 42.1009 62.664ZM42.4429 69.9C42.9949 69.9 43.4269 69.726 43.7389 69.378C44.0509 69.03 44.2189 68.568 44.2429 67.992C44.1349 66.768 43.8649 65.754 43.4329 64.95C43.0129 64.146 42.4429 63.744 41.7229 63.744C41.2429 63.744 40.8589 63.93 40.5709 64.302C40.2829 64.674 40.1389 65.196 40.1389 65.868C40.1389 66.876 40.3489 67.8 40.7689 68.64C41.2009 69.48 41.7589 69.9 42.4429 69.9ZM54.1546 75.804C52.5466 75.804 51.2086 75.21 50.1406 74.022C49.0846 72.822 48.5566 71.226 48.5566 69.234C48.5566 67.23 49.0486 65.634 50.0326 64.446C51.0286 63.258 52.3846 62.664 54.1006 62.664C55.6966 62.664 57.0226 63.282 58.0786 64.518C59.1466 65.742 59.6806 67.332 59.6806 69.288C59.6806 71.256 59.1526 72.834 58.0966 74.022C57.0406 75.21 55.7266 75.804 54.1546 75.804ZM54.5686 74.76C55.2406 74.76 55.7866 74.388 56.2066 73.644C56.6266 72.9 56.8366 71.856 56.8366 70.512C56.8366 69.408 56.7106 68.346 56.4586 67.326C56.2066 66.306 55.8346 65.46 55.3426 64.788C54.8626 64.104 54.3166 63.762 53.7046 63.762C53.0086 63.762 52.4506 64.152 52.0306 64.932C51.6106 65.7 51.4006 66.804 51.4006 68.244C51.4006 69.372 51.5266 70.428 51.7786 71.412C52.0426 72.396 52.4146 73.2 52.8946 73.824C53.3866 74.448 53.9446 74.76 54.5686 74.76ZM66.7647 75.804C65.1567 75.804 63.8187 75.21 62.7507 74.022C61.6947 72.822 61.1667 71.226 61.1667 69.234C61.1667 67.23 61.6587 65.634 62.6427 64.446C63.6387 63.258 64.9947 62.664 66.7107 62.664C68.3067 62.664 69.6327 63.282 70.6887 64.518C71.7567 65.742 72.2908 67.332 72.2908 69.288C72.2908 71.256 71.7628 72.834 70.7068 74.022C69.6507 75.21 68.3367 75.804 66.7647 75.804ZM67.1787 74.76C67.8507 74.76 68.3967 74.388 68.8167 73.644C69.2367 72.9 69.4467 71.856 69.4467 70.512C69.4467 69.408 69.3207 68.346 69.0687 67.326C68.8167 66.306 68.4447 65.46 67.9527 64.788C67.4727 64.104 66.9267 63.762 66.3147 63.762C65.6187 63.762 65.0607 64.152 64.6407 64.932C64.2207 65.7 64.0107 66.804 64.0107 68.244C64.0107 69.372 64.1367 70.428 64.3887 71.412C64.6527 72.396 65.0247 73.2 65.5047 73.824C65.9967 74.448 66.5547 74.76 67.1787 74.76Z" fill="black"/>
<path d="M22.2704 32.5488V28.4278L19.1374 23.3188H20.4374L22.8294 27.2838H22.8554L25.2344 23.3188H26.5604L23.4014 28.4278V32.5488H22.2704ZM29.6303 32.6268C28.6597 32.6268 27.871 32.3192 27.2643 31.7038C26.6577 31.0885 26.3543 30.3172 26.3543 29.3898C26.3543 28.4625 26.6577 27.6912 27.2643 27.0758C27.871 26.4518 28.6597 26.1398 29.6303 26.1398C30.575 26.1398 31.355 26.4432 31.9703 27.0498C32.5857 27.6565 32.8933 28.4365 32.8933 29.3898C32.8933 30.3432 32.5857 31.1232 31.9703 31.7298C31.355 32.3278 30.575 32.6268 29.6303 32.6268ZM29.6303 31.6648C30.2457 31.6648 30.7613 31.4525 31.1773 31.0278C31.602 30.6032 31.8143 30.0572 31.8143 29.3898C31.8143 28.7225 31.602 28.1765 31.1773 27.7518C30.7613 27.3185 30.2457 27.1018 29.6303 27.1018C28.9803 27.1018 28.4517 27.3228 28.0443 27.7648C27.637 28.2068 27.4333 28.7485 27.4333 29.3898C27.4333 30.0312 27.637 30.5728 28.0443 31.0148C28.4603 31.4482 28.989 31.6648 29.6303 31.6648ZM36.8994 32.6268C36.1454 32.6268 35.5604 32.4102 35.1444 31.9768C34.7284 31.5348 34.5204 30.8718 34.5204 29.9878V26.2178H35.5734V29.6888C35.5734 30.3822 35.6991 30.8848 35.9504 31.1968C36.2104 31.5088 36.6004 31.6648 37.1204 31.6648C37.6491 31.6648 38.0954 31.4525 38.4594 31.0278C38.8234 30.5945 39.0054 30.0138 39.0054 29.2858V26.2178H40.0584V32.5488H39.0054V31.4568H38.9924C38.7584 31.8295 38.4551 32.1198 38.0824 32.3278C37.7184 32.5272 37.3241 32.6268 36.8994 32.6268ZM42.1632 32.5488V26.2178H43.2162V27.3748H43.2422C43.7275 26.5515 44.4122 26.1398 45.2962 26.1398C45.4089 26.1398 45.4955 26.1442 45.5562 26.1528V27.3228C45.3482 27.3055 45.2095 27.2968 45.1402 27.2968C44.5509 27.2968 44.0829 27.5005 43.7362 27.9078C43.3895 28.3152 43.2162 28.8438 43.2162 29.4938V32.5488H42.1632ZM56.3172 29.2728C56.3172 29.3335 56.3129 29.4158 56.3042 29.5198C56.2955 29.6238 56.2912 29.6845 56.2912 29.7018H51.3512C51.4205 30.2998 51.6502 30.7765 52.0402 31.1318C52.4302 31.4872 52.9242 31.6648 53.5222 31.6648C54.2849 31.6648 54.8959 31.3832 55.3552 30.8198L56.0962 31.4438C55.4809 32.2325 54.6099 32.6268 53.4832 32.6268C52.5385 32.6268 51.7672 32.3278 51.1692 31.7298C50.5799 31.1318 50.2852 30.3518 50.2852 29.3898C50.2852 28.4365 50.5755 27.6565 51.1562 27.0498C51.7455 26.4432 52.4952 26.1398 53.4052 26.1398C54.2632 26.1398 54.9609 26.4345 55.4982 27.0238C56.0442 27.6132 56.3172 28.3628 56.3172 29.2728ZM54.6532 27.5828C54.3239 27.2622 53.9035 27.1018 53.3922 27.1018C52.8809 27.1018 52.4389 27.2578 52.0662 27.5698C51.7022 27.8818 51.4725 28.3065 51.3772 28.8438H55.2642C55.1862 28.3152 54.9825 27.8948 54.6532 27.5828ZM59.972 32.6268C59.01 32.6268 58.1867 32.3278 57.502 31.7298L58.035 30.9238C58.5637 31.4352 59.2094 31.6908 59.972 31.6908C60.3447 31.6908 60.6394 31.6128 60.856 31.4568C61.0727 31.2922 61.181 31.0842 61.181 30.8328C61.181 30.5468 60.986 30.3128 60.596 30.1308C60.492 30.0875 60.1844 29.9705 59.673 29.7798C59.3697 29.6758 59.1227 29.5762 58.932 29.4808C58.7414 29.3855 58.5464 29.2642 58.347 29.1168C58.1564 28.9695 58.0134 28.7918 57.918 28.5838C57.8227 28.3672 57.775 28.1202 57.775 27.8428C57.775 27.3575 57.97 26.9545 58.36 26.6338C58.7587 26.3045 59.257 26.1398 59.855 26.1398C60.6697 26.1398 61.3977 26.3998 62.039 26.9198L61.493 27.7518C61.0077 27.3012 60.4487 27.0758 59.816 27.0758C59.556 27.0758 59.3264 27.1452 59.127 27.2838C58.9364 27.4225 58.841 27.6088 58.841 27.8428C58.841 28.0682 58.9407 28.2545 59.14 28.4018C59.3394 28.5405 59.6384 28.6835 60.037 28.8308C60.8604 29.1515 61.3717 29.3725 61.571 29.4938C62.0304 29.7972 62.2557 30.2392 62.247 30.8198C62.247 31.3398 62.0477 31.7732 61.649 32.1198C61.259 32.4578 60.7 32.6268 59.972 32.6268ZM65.7169 32.6268C64.6249 32.6268 64.0789 31.9725 64.0789 30.6638V27.1278H63.2599V26.2178H64.0789V24.0598L65.1319 23.9428V26.2178H67.2249V27.1278H65.1319V30.5078C65.1319 30.9065 65.1882 31.1968 65.3009 31.3788C65.4135 31.5522 65.6129 31.6388 65.8989 31.6388C66.2195 31.6388 66.5792 31.5305 66.9779 31.3138L67.2509 32.2368C66.8089 32.4968 66.2975 32.6268 65.7169 32.6268ZM69.952 24.8398C69.8047 24.9872 69.6227 25.0608 69.406 25.0608C69.1894 25.0608 69.0074 24.9872 68.86 24.8398C68.7127 24.6925 68.639 24.5148 68.639 24.3068C68.639 24.0988 68.7127 23.9212 68.86 23.7738C69.0074 23.6265 69.1894 23.5528 69.406 23.5528C69.6227 23.5528 69.8047 23.6265 69.952 23.7738C70.0994 23.9212 70.173 24.0988 70.173 24.3068C70.173 24.5148 70.0994 24.6925 69.952 24.8398ZM68.873 32.5488V26.2178H69.926V32.5488H68.873ZM72.1816 32.5488V26.2178H73.2346V27.3618H73.2476C73.4902 26.9805 73.7979 26.6815 74.1706 26.4648C74.5432 26.2482 74.9419 26.1398 75.3666 26.1398C76.3372 26.1398 76.9916 26.5905 77.3296 27.4918H77.3426C77.5852 27.0672 77.9102 26.7378 78.3176 26.5038C78.7249 26.2612 79.1756 26.1398 79.6696 26.1398C80.3716 26.1398 80.9089 26.3782 81.2816 26.8548C81.6629 27.3228 81.8536 28.0075 81.8536 28.9088V32.5488H80.8006V29.1948C80.8006 27.7995 80.3196 27.1018 79.3576 27.1018C78.8462 27.1018 78.4216 27.3142 78.0836 27.7388C77.7456 28.1548 77.5766 28.7095 77.5766 29.4028V32.5488H76.5236V29.1948C76.5236 28.5188 76.3979 28.0032 76.1466 27.6478C75.8952 27.2838 75.5312 27.1018 75.0546 27.1018C74.5259 27.1018 74.0882 27.3142 73.7416 27.7388C73.4036 28.1548 73.2346 28.7095 73.2346 29.4028V32.5488H72.1816ZM86.5485 32.6268C85.6645 32.6268 84.9278 32.3322 84.3385 31.7428C83.7578 31.1448 83.4675 30.3735 83.4675 29.4288C83.4675 28.4842 83.7578 27.6998 84.3385 27.0758C84.9192 26.4518 85.6558 26.1398 86.5485 26.1398C87.0165 26.1398 87.4455 26.2482 87.8355 26.4648C88.2255 26.6728 88.5332 26.9675 88.7585 27.3488L88.7845 27.3358V26.2178H89.8375V32.5488H88.8235V31.4048H88.8105C88.3165 32.2195 87.5625 32.6268 86.5485 32.6268ZM86.7045 31.6648C87.3025 31.6648 87.8052 31.4568 88.2125 31.0408C88.6198 30.6248 88.8235 30.0875 88.8235 29.4288C88.8235 28.7702 88.6242 28.2198 88.2255 27.7778C87.8268 27.3272 87.3198 27.1018 86.7045 27.1018C86.0892 27.1018 85.5735 27.3185 85.1575 27.7518C84.7415 28.1852 84.5335 28.7442 84.5335 29.4288C84.5335 30.0702 84.7328 30.6032 85.1315 31.0278C85.5388 31.4525 86.0632 31.6648 86.7045 31.6648ZM93.7102 32.6268C92.6182 32.6268 92.0722 31.9725 92.0722 30.6638V27.1278H91.2532V26.2178H92.0722V24.0598L93.1252 23.9428V26.2178H95.2182V27.1278H93.1252V30.5078C93.1252 30.9065 93.1815 31.1968 93.2942 31.3788C93.4069 31.5522 93.6062 31.6388 93.8922 31.6388C94.2129 31.6388 94.5725 31.5305 94.9712 31.3138L95.2442 32.2368C94.8022 32.4968 94.2909 32.6268 93.7102 32.6268ZM102.151 29.2728C102.151 29.3335 102.146 29.4158 102.138 29.5198C102.129 29.6238 102.125 29.6845 102.125 29.7018H97.1848C97.2541 30.2998 97.4838 30.7765 97.8738 31.1318C98.2638 31.4872 98.7578 31.6648 99.3558 31.6648C100.118 31.6648 100.729 31.3832 101.189 30.8198L101.93 31.4438C101.314 32.2325 100.443 32.6268 99.3168 32.6268C98.3721 32.6268 97.6008 32.3278 97.0028 31.7298C96.4135 31.1318 96.1188 30.3518 96.1188 29.3898C96.1188 28.4365 96.4091 27.6565 96.9898 27.0498C97.5791 26.4432 98.3288 26.1398 99.2388 26.1398C100.097 26.1398 100.794 26.4345 101.332 27.0238C101.878 27.6132 102.151 28.3628 102.151 29.2728ZM100.487 27.5828C100.157 27.2622 99.7371 27.1018 99.2258 27.1018C98.7145 27.1018 98.2725 27.2578 97.8998 27.5698C97.5358 27.8818 97.3061 28.3065 97.2108 28.8438H101.098C101.02 28.3152 100.816 27.8948 100.487 27.5828ZM106.586 32.6268C105.693 32.6268 104.952 32.3322 104.363 31.7428C103.773 31.1448 103.479 30.3735 103.479 29.4288C103.479 28.4928 103.773 27.7128 104.363 27.0888C104.952 26.4562 105.689 26.1398 106.573 26.1398C107.578 26.1398 108.332 26.5428 108.835 27.3488H108.848V22.9808H109.901V32.5488H108.887V31.3788H108.874C108.38 32.2108 107.617 32.6268 106.586 32.6268ZM106.729 31.6648C107.335 31.6648 107.847 31.4568 108.263 31.0408C108.679 30.6248 108.887 30.0875 108.887 29.4288C108.887 28.7702 108.683 28.2198 108.276 27.7778C107.877 27.3272 107.366 27.1018 106.742 27.1018C106.126 27.1018 105.606 27.3185 105.182 27.7518C104.766 28.1852 104.558 28.7442 104.558 29.4288C104.558 30.0702 104.757 30.6032 105.156 31.0278C105.563 31.4525 106.087 31.6648 106.729 31.6648ZM115.809 32.5488V26.2178H116.862V27.3618H116.875C117.118 26.9805 117.426 26.6815 117.798 26.4648C118.171 26.2482 118.57 26.1398 118.994 26.1398C119.965 26.1398 120.619 26.5905 120.957 27.4918H120.97C121.213 27.0672 121.538 26.7378 121.945 26.5038C122.353 26.2612 122.803 26.1398 123.297 26.1398C123.999 26.1398 124.537 26.3782 124.909 26.8548C125.291 27.3228 125.481 28.0075 125.481 28.9088V32.5488H124.428V29.1948C124.428 27.7995 123.947 27.1018 122.985 27.1018C122.474 27.1018 122.049 27.3142 121.711 27.7388C121.373 28.1548 121.204 28.7095 121.204 29.4028V32.5488H120.151V29.1948C120.151 28.5188 120.026 28.0032 119.774 27.6478C119.523 27.2838 119.159 27.1018 118.682 27.1018C118.154 27.1018 117.716 27.3142 117.369 27.7388C117.031 28.1548 116.862 28.7095 116.862 29.4028V32.5488H115.809ZM130.384 32.6268C129.414 32.6268 128.625 32.3192 128.018 31.7038C127.412 31.0885 127.108 30.3172 127.108 29.3898C127.108 28.4625 127.412 27.6912 128.018 27.0758C128.625 26.4518 129.414 26.1398 130.384 26.1398C131.329 26.1398 132.109 26.4432 132.724 27.0498C133.34 27.6565 133.647 28.4365 133.647 29.3898C133.647 30.3432 133.34 31.1232 132.724 31.7298C132.109 32.3278 131.329 32.6268 130.384 32.6268ZM130.384 31.6648C131 31.6648 131.515 31.4525 131.931 31.0278C132.356 30.6032 132.568 30.0572 132.568 29.3898C132.568 28.7225 132.356 28.1765 131.931 27.7518C131.515 27.3185 131 27.1018 130.384 27.1018C129.734 27.1018 129.206 27.3228 128.798 27.7648C128.391 28.2068 128.187 28.7485 128.187 29.3898C128.187 30.0312 128.391 30.5728 128.798 31.0148C129.214 31.4482 129.743 31.6648 130.384 31.6648ZM135.417 32.5488V26.2178H136.47V27.3618H136.483C137.012 26.5472 137.779 26.1398 138.784 26.1398C139.486 26.1398 140.041 26.3652 140.448 26.8158C140.856 27.2578 141.059 27.9165 141.059 28.7918V32.5488H140.006V29.0908C140.006 27.7648 139.486 27.1018 138.446 27.1018C137.84 27.1018 137.359 27.3055 137.003 27.7128C136.648 28.1202 136.47 28.6792 136.47 29.3898V32.5488H135.417ZM144.889 32.6268C143.797 32.6268 143.251 31.9725 143.251 30.6638V27.1278H142.432V26.2178H143.251V24.0598L144.304 23.9428V26.2178H146.397V27.1278H144.304V30.5078C144.304 30.9065 144.36 31.1968 144.473 31.3788C144.585 31.5522 144.785 31.6388 145.071 31.6388C145.391 31.6388 145.751 31.5305 146.15 31.3138L146.423 32.2368C145.981 32.4968 145.469 32.6268 144.889 32.6268ZM148.005 32.5488V22.9808H149.058V27.3228H149.071C149.591 26.5342 150.371 26.1398 151.411 26.1398C152.121 26.1398 152.68 26.3565 153.088 26.7898C153.504 27.2232 153.712 27.8775 153.712 28.7528V32.5488H152.659V29.0518C152.659 27.7518 152.139 27.1018 151.099 27.1018C150.466 27.1018 149.968 27.3012 149.604 27.6998C149.24 28.0985 149.058 28.6532 149.058 29.3638V32.5488H148.005ZM155.837 32.5488V22.9808H156.89V32.5488H155.837ZM159.889 35.1228L161.02 32.3018L158.329 26.2178H159.473L161.527 31.0278H161.553L163.464 26.2178H164.569L160.981 35.1228H159.889ZM22.6864 51.6268C21.759 51.6268 21.0007 51.3278 20.4114 50.7298C19.822 50.1318 19.5274 49.3518 19.5274 48.3898C19.5274 47.4365 19.822 46.6565 20.4114 46.0498C21.0094 45.4432 21.7807 45.1398 22.7254 45.1398C23.2107 45.1398 23.6787 45.2395 24.1294 45.4388C24.5887 45.6295 24.97 45.9068 25.2734 46.2708L24.5584 46.9078C24.099 46.3705 23.5054 46.1018 22.7774 46.1018C22.1274 46.1018 21.603 46.3142 21.2044 46.7388C20.8057 47.1635 20.6064 47.7138 20.6064 48.3898C20.6064 49.0658 20.8057 49.6162 21.2044 50.0408C21.603 50.4568 22.123 50.6648 22.7644 50.6648C23.5357 50.6648 24.138 50.3962 24.5714 49.8588L25.2994 50.5218C24.684 51.2585 23.813 51.6268 22.6864 51.6268ZM26.9097 51.5488V41.9808H27.9627V46.3228H27.9757C28.4957 45.5342 29.2757 45.1398 30.3157 45.1398C31.0263 45.1398 31.5853 45.3565 31.9927 45.7898C32.4087 46.2232 32.6167 46.8775 32.6167 47.7528V51.5488H31.5637V48.0518C31.5637 46.7518 31.0437 46.1018 30.0037 46.1018C29.371 46.1018 28.8727 46.3012 28.5087 46.6998C28.1447 47.0985 27.9627 47.6532 27.9627 48.3638V51.5488H26.9097ZM35.8204 43.8398C35.6731 43.9872 35.4911 44.0608 35.2744 44.0608C35.0577 44.0608 34.8757 43.9872 34.7284 43.8398C34.5811 43.6925 34.5074 43.5148 34.5074 43.3068C34.5074 43.0988 34.5811 42.9212 34.7284 42.7738C34.8757 42.6265 35.0577 42.5528 35.2744 42.5528C35.4911 42.5528 35.6731 42.6265 35.8204 42.7738C35.9677 42.9212 36.0414 43.0988 36.0414 43.3068C36.0414 43.5148 35.9677 43.6925 35.8204 43.8398ZM34.7414 51.5488V45.2178H35.7944V51.5488H34.7414ZM38.1279 51.5488V41.9808H39.1809V51.5488H38.1279ZM44.1274 51.6268C43.2348 51.6268 42.4938 51.3322 41.9044 50.7428C41.3151 50.1448 41.0204 49.3735 41.0204 48.4288C41.0204 47.4928 41.3151 46.7128 41.9044 46.0888C42.4938 45.4562 43.2304 45.1398 44.1144 45.1398C45.1198 45.1398 45.8738 45.5428 46.3764 46.3488H46.3894V41.9808H47.4424V51.5488H46.4284V50.3788H46.4154C45.9214 51.2108 45.1588 51.6268 44.1274 51.6268ZM44.2704 50.6648C44.8771 50.6648 45.3884 50.4568 45.8044 50.0408C46.2204 49.6248 46.4284 49.0875 46.4284 48.4288C46.4284 47.7702 46.2248 47.2198 45.8174 46.7778C45.4188 46.3272 44.9074 46.1018 44.2834 46.1018C43.6681 46.1018 43.1481 46.3185 42.7234 46.7518C42.3074 47.1852 42.0994 47.7442 42.0994 48.4288C42.0994 49.0702 42.2988 49.6032 42.6974 50.0278C43.1048 50.4525 43.6291 50.6648 44.2704 50.6648ZM49.3361 48.0648V47.0248H53.1841V48.0648H49.3361ZM55.0903 51.5488V45.2178H56.1433V46.3748H56.1693C56.6547 45.5515 57.3393 45.1398 58.2233 45.1398C58.336 45.1398 58.4227 45.1442 58.4833 45.1528V46.3228C58.2753 46.3055 58.1367 46.2968 58.0673 46.2968C57.478 46.2968 57.01 46.5005 56.6633 46.9078C56.3167 47.3152 56.1433 47.8438 56.1433 48.4938V51.5488H55.0903ZM65.2992 48.2728C65.2992 48.3335 65.2949 48.4158 65.2862 48.5198C65.2776 48.6238 65.2732 48.6845 65.2732 48.7018H60.3332C60.4026 49.2998 60.6322 49.7765 61.0222 50.1318C61.4122 50.4872 61.9062 50.6648 62.5042 50.6648C63.2669 50.6648 63.8779 50.3832 64.3372 49.8198L65.0782 50.4438C64.4629 51.2325 63.5919 51.6268 62.4652 51.6268C61.5206 51.6268 60.7492 51.3278 60.1512 50.7298C59.5619 50.1318 59.2672 49.3518 59.2672 48.3898C59.2672 47.4365 59.5576 46.6565 60.1382 46.0498C60.7276 45.4432 61.4772 45.1398 62.3872 45.1398C63.2452 45.1398 63.9429 45.4345 64.4802 46.0238C65.0262 46.6132 65.2992 47.3628 65.2992 48.2728ZM63.6352 46.5828C63.3059 46.2622 62.8856 46.1018 62.3742 46.1018C61.8629 46.1018 61.4209 46.2578 61.0482 46.5698C60.6842 46.8818 60.4546 47.3065 60.3592 47.8438H64.2462C64.1682 47.3152 63.9646 46.8948 63.6352 46.5828ZM67.1211 51.5488V41.9808H68.1741V51.5488H67.1211ZM73.0946 51.6268C72.2106 51.6268 71.4739 51.3322 70.8846 50.7428C70.3039 50.1448 70.0136 49.3735 70.0136 48.4288C70.0136 47.4842 70.3039 46.6998 70.8846 46.0758C71.4653 45.4518 72.2019 45.1398 73.0946 45.1398C73.5626 45.1398 73.9916 45.2482 74.3816 45.4648C74.7716 45.6728 75.0793 45.9675 75.3046 46.3488L75.3306 46.3358V45.2178H76.3836V51.5488H75.3696V50.4048H75.3566C74.8626 51.2195 74.1086 51.6268 73.0946 51.6268ZM73.2506 50.6648C73.8486 50.6648 74.3513 50.4568 74.7586 50.0408C75.1659 49.6248 75.3696 49.0875 75.3696 48.4288C75.3696 47.7702 75.1703 47.2198 74.7716 46.7778C74.3729 46.3272 73.8659 46.1018 73.2506 46.1018C72.6353 46.1018 72.1196 46.3185 71.7036 46.7518C71.2876 47.1852 71.0796 47.7442 71.0796 48.4288C71.0796 49.0702 71.2789 49.6032 71.6776 50.0278C72.0849 50.4525 72.6093 50.6648 73.2506 50.6648ZM80.2563 51.6268C79.1643 51.6268 78.6183 50.9725 78.6183 49.6638V46.1278H77.7993V45.2178H78.6183V43.0598L79.6713 42.9428V45.2178H81.7643V46.1278H79.6713V49.5078C79.6713 49.9065 79.7276 50.1968 79.8403 50.3788C79.953 50.5522 80.1523 50.6388 80.4383 50.6388C80.759 50.6388 81.1186 50.5305 81.5173 50.3138L81.7903 51.2368C81.3483 51.4968 80.837 51.6268 80.2563 51.6268ZM88.6969 48.2728C88.6969 48.3335 88.6926 48.4158 88.6839 48.5198C88.6752 48.6238 88.6709 48.6845 88.6709 48.7018H83.7309C83.8002 49.2998 84.0299 49.7765 84.4199 50.1318C84.8099 50.4872 85.3039 50.6648 85.9019 50.6648C86.6646 50.6648 87.2756 50.3832 87.7349 49.8198L88.4759 50.4438C87.8606 51.2325 86.9896 51.6268 85.8629 51.6268C84.9182 51.6268 84.1469 51.3278 83.5489 50.7298C82.9596 50.1318 82.6649 49.3518 82.6649 48.3898C82.6649 47.4365 82.9552 46.6565 83.5359 46.0498C84.1252 45.4432 84.8749 45.1398 85.7849 45.1398C86.6429 45.1398 87.3406 45.4345 87.8779 46.0238C88.4239 46.6132 88.6969 47.3628 88.6969 48.2728ZM87.0329 46.5828C86.7036 46.2622 86.2832 46.1018 85.7719 46.1018C85.2606 46.1018 84.8186 46.2578 84.4459 46.5698C84.0819 46.8818 83.8522 47.3065 83.7569 47.8438H87.6439C87.5659 47.3152 87.3622 46.8948 87.0329 46.5828ZM93.1317 51.6268C92.2391 51.6268 91.4981 51.3322 90.9087 50.7428C90.3194 50.1448 90.0247 49.3735 90.0247 48.4288C90.0247 47.4928 90.3194 46.7128 90.9087 46.0888C91.4981 45.4562 92.2347 45.1398 93.1187 45.1398C94.1241 45.1398 94.8781 45.5428 95.3807 46.3488H95.3937V41.9808H96.4467V51.5488H95.4327V50.3788H95.4197C94.9257 51.2108 94.1631 51.6268 93.1317 51.6268ZM93.2747 50.6648C93.8814 50.6648 94.3927 50.4568 94.8087 50.0408C95.2247 49.6248 95.4327 49.0875 95.4327 48.4288C95.4327 47.7702 95.2291 47.2198 94.8217 46.7778C94.4231 46.3272 93.9117 46.1018 93.2877 46.1018C92.6724 46.1018 92.1524 46.3185 91.7277 46.7518C91.3117 47.1852 91.1037 47.7442 91.1037 48.4288C91.1037 49.0702 91.3031 49.6032 91.7017 50.0278C92.1091 50.4525 92.6334 50.6648 93.2747 50.6648ZM105.111 51.6268C104.184 51.6268 103.426 51.3278 102.836 50.7298C102.247 50.1318 101.952 49.3518 101.952 48.3898C101.952 47.4365 102.247 46.6565 102.836 46.0498C103.434 45.4432 104.206 45.1398 105.15 45.1398C105.636 45.1398 106.104 45.2395 106.554 45.4388C107.014 45.6295 107.395 45.9068 107.698 46.2708L106.983 46.9078C106.524 46.3705 105.93 46.1018 105.202 46.1018C104.552 46.1018 104.028 46.3142 103.629 46.7388C103.231 47.1635 103.031 47.7138 103.031 48.3898C103.031 49.0658 103.231 49.6162 103.629 50.0408C104.028 50.4568 104.548 50.6648 105.189 50.6648C105.961 50.6648 106.563 50.3962 106.996 49.8588L107.724 50.5218C107.109 51.2585 106.238 51.6268 105.111 51.6268ZM112.208 51.6268C111.237 51.6268 110.448 51.3192 109.842 50.7038C109.235 50.0885 108.932 49.3172 108.932 48.3898C108.932 47.4625 109.235 46.6912 109.842 46.0758C110.448 45.4518 111.237 45.1398 112.208 45.1398C113.152 45.1398 113.932 45.4432 114.548 46.0498C115.163 46.6565 115.471 47.4365 115.471 48.3898C115.471 49.3432 115.163 50.1232 114.548 50.7298C113.932 51.3278 113.152 51.6268 112.208 51.6268ZM112.208 50.6648C112.823 50.6648 113.339 50.4525 113.755 50.0278C114.179 49.6032 114.392 49.0572 114.392 48.3898C114.392 47.7225 114.179 47.1765 113.755 46.7518C113.339 46.3185 112.823 46.1018 112.208 46.1018C111.558 46.1018 111.029 46.3228 110.622 46.7648C110.214 47.2068 110.011 47.7485 110.011 48.3898C110.011 49.0312 110.214 49.5728 110.622 50.0148C111.038 50.4482 111.566 50.6648 112.208 50.6648ZM119.152 51.6268C118.19 51.6268 117.366 51.3278 116.682 50.7298L117.215 49.9238C117.743 50.4352 118.389 50.6908 119.152 50.6908C119.524 50.6908 119.819 50.6128 120.036 50.4568C120.252 50.2922 120.361 50.0842 120.361 49.8328C120.361 49.5468 120.166 49.3128 119.776 49.1308C119.672 49.0875 119.364 48.9705 118.853 48.7798C118.549 48.6758 118.302 48.5762 118.112 48.4808C117.921 48.3855 117.726 48.2642 117.527 48.1168C117.336 47.9695 117.193 47.7918 117.098 47.5838C117.002 47.3672 116.955 47.1202 116.955 46.8428C116.955 46.3575 117.15 45.9545 117.54 45.6338C117.938 45.3045 118.437 45.1398 119.035 45.1398C119.849 45.1398 120.577 45.3998 121.219 45.9198L120.673 46.7518C120.187 46.3012 119.628 46.0758 118.996 46.0758C118.736 46.0758 118.506 46.1452 118.307 46.2838C118.116 46.4225 118.021 46.6088 118.021 46.8428C118.021 47.0682 118.12 47.2545 118.32 47.4018C118.519 47.5405 118.818 47.6835 119.217 47.8308C120.04 48.1515 120.551 48.3725 120.751 48.4938C121.21 48.7972 121.435 49.2392 121.427 49.8198C121.427 50.3398 121.227 50.7732 120.829 51.1198C120.439 51.4578 119.88 51.6268 119.152 51.6268ZM124.897 51.6268C123.805 51.6268 123.259 50.9725 123.259 49.6638V46.1278H122.44V45.2178H123.259V43.0598L124.312 42.9428V45.2178H126.405V46.1278H124.312V49.5078C124.312 49.9065 124.368 50.1968 124.481 50.3788C124.593 50.5522 124.793 50.6388 125.079 50.6388C125.399 50.6388 125.759 50.5305 126.158 50.3138L126.431 51.2368C125.989 51.4968 125.477 51.6268 124.897 51.6268ZM129.924 51.6268C128.962 51.6268 128.138 51.3278 127.454 50.7298L127.987 49.9238C128.515 50.4352 129.161 50.6908 129.924 50.6908C130.296 50.6908 130.591 50.6128 130.808 50.4568C131.024 50.2922 131.133 50.0842 131.133 49.8328C131.133 49.5468 130.938 49.3128 130.548 49.1308C130.444 49.0875 130.136 48.9705 129.625 48.7798C129.321 48.6758 129.074 48.5762 128.884 48.4808C128.693 48.3855 128.498 48.2642 128.299 48.1168C128.108 47.9695 127.965 47.7918 127.87 47.5838C127.774 47.3672 127.727 47.1202 127.727 46.8428C127.727 46.3575 127.922 45.9545 128.312 45.6338C128.71 45.3045 129.209 45.1398 129.807 45.1398C130.621 45.1398 131.349 45.3998 131.991 45.9198L131.445 46.7518C130.959 46.3012 130.4 46.0758 129.768 46.0758C129.508 46.0758 129.278 46.1452 129.079 46.2838C128.888 46.4225 128.793 46.6088 128.793 46.8428C128.793 47.0682 128.892 47.2545 129.092 47.4018C129.291 47.5405 129.59 47.6835 129.989 47.8308C130.812 48.1515 131.323 48.3725 131.523 48.4938C131.982 48.7972 132.207 49.2392 132.199 49.8198C132.199 50.3398 131.999 50.7732 131.601 51.1198C131.211 51.4578 130.652 51.6268 129.924 51.6268ZM140.295 51.6268C139.411 51.6268 138.674 51.3322 138.085 50.7428C137.504 50.1448 137.214 49.3735 137.214 48.4288C137.214 47.4842 137.504 46.6998 138.085 46.0758C138.665 45.4518 139.402 45.1398 140.295 45.1398C140.763 45.1398 141.192 45.2482 141.582 45.4648C141.972 45.6728 142.279 45.9675 142.505 46.3488L142.531 46.3358V45.2178H143.584V51.5488H142.57V50.4048H142.557C142.063 51.2195 141.309 51.6268 140.295 51.6268ZM140.451 50.6648C141.049 50.6648 141.551 50.4568 141.959 50.0408C142.366 49.6248 142.57 49.0875 142.57 48.4288C142.57 47.7702 142.37 47.2198 141.972 46.7778C141.573 46.3272 141.066 46.1018 140.451 46.1018C139.835 46.1018 139.32 46.3185 138.904 46.7518C138.488 47.1852 138.28 47.7442 138.28 48.4288C138.28 49.0702 138.479 49.6032 138.878 50.0278C139.285 50.4525 139.809 50.6648 140.451 50.6648ZM145.675 51.5488V45.2178H146.728V46.3748H146.754C147.24 45.5515 147.924 45.1398 148.808 45.1398C148.921 45.1398 149.008 45.1442 149.068 45.1528V46.3228C148.86 46.3055 148.722 46.2968 148.652 46.2968C148.063 46.2968 147.595 46.5005 147.248 46.9078C146.902 47.3152 146.728 47.8438 146.728 48.4938V51.5488H145.675ZM155.884 48.2728C155.884 48.3335 155.88 48.4158 155.871 48.5198C155.863 48.6238 155.858 48.6845 155.858 48.7018H150.918C150.988 49.2998 151.217 49.7765 151.607 50.1318C151.997 50.4872 152.491 50.6648 153.089 50.6648C153.852 50.6648 154.463 50.3832 154.922 49.8198L155.663 50.4438C155.048 51.2325 154.177 51.6268 153.05 51.6268C152.106 51.6268 151.334 51.3278 150.736 50.7298C150.147 50.1318 149.852 49.3518 149.852 48.3898C149.852 47.4365 150.143 46.6565 150.723 46.0498C151.313 45.4432 152.062 45.1398 152.972 45.1398C153.83 45.1398 154.528 45.4345 155.065 46.0238C155.611 46.6132 155.884 47.3628 155.884 48.2728ZM154.22 46.5828C153.891 46.2622 153.471 46.1018 152.959 46.1018C152.448 46.1018 152.006 46.2578 151.633 46.5698C151.269 46.8818 151.04 47.3065 150.944 47.8438H154.831C154.753 47.3152 154.55 46.8948 154.22 46.5828Z" fill="#55666B"/>
</svg>
