<svg width="206" height="102" viewBox="0 0 206 102" fill="none" xmlns="http://www.w3.org/2000/svg">
<rect x="0.428711" y="0.0322266" width="205.029" height="101.356" rx="18" fill="white"/>
<path d="M31.883 72.274C31.883 73.366 31.499 74.266 30.731 74.974C29.975 75.67 28.931 76.06 27.599 76.144V77.854C27.599 78.154 27.485 78.304 27.257 78.304H26.753C26.525 78.304 26.411 78.154 26.411 77.854V76.126C25.247 76.042 24.317 75.748 23.621 75.244C22.925 74.728 22.577 74.146 22.577 73.498C22.577 72.994 22.709 72.61 22.973 72.346C23.249 72.082 23.579 71.95 23.963 71.95C24.371 71.95 24.725 72.058 25.025 72.274C25.325 72.478 25.559 72.736 25.727 73.048C25.907 73.348 26.069 73.654 26.213 73.966C26.357 74.266 26.519 74.524 26.699 74.74C26.891 74.944 27.101 75.046 27.329 75.046C28.097 75.046 28.481 74.506 28.481 73.426C28.481 73.006 28.373 72.64 28.157 72.328C27.941 72.016 27.659 71.764 27.311 71.572C26.975 71.368 26.603 71.176 26.195 70.996C25.787 70.816 25.373 70.618 24.953 70.402C24.545 70.186 24.167 69.94 23.819 69.664C23.483 69.388 23.207 69.022 22.991 68.566C22.775 68.11 22.667 67.582 22.667 66.982C22.667 65.974 23.027 65.128 23.747 64.444C24.467 63.76 25.409 63.376 26.573 63.292V62.302C26.573 62.014 26.687 61.87 26.915 61.87H27.437C27.665 61.87 27.779 62.014 27.779 62.302V63.31C28.931 63.394 29.843 63.676 30.515 64.156C31.199 64.636 31.541 65.194 31.541 65.83C31.541 66.298 31.409 66.67 31.145 66.946C30.893 67.222 30.545 67.36 30.101 67.36C29.669 67.36 29.309 67.198 29.021 66.874C28.733 66.55 28.529 66.196 28.409 65.812C28.301 65.416 28.145 65.056 27.941 64.732C27.737 64.408 27.491 64.246 27.203 64.246C26.879 64.246 26.627 64.378 26.447 64.642C26.279 64.906 26.195 65.272 26.195 65.74C26.195 66.232 26.297 66.658 26.501 67.018C26.717 67.366 26.993 67.642 27.329 67.846C27.665 68.038 28.031 68.218 28.427 68.386C28.835 68.542 29.237 68.716 29.633 68.908C30.041 69.1 30.413 69.322 30.749 69.574C31.085 69.826 31.355 70.18 31.559 70.636C31.775 71.092 31.883 71.638 31.883 72.274ZM43.0108 72.328C43.1428 72.328 43.2388 72.37 43.2988 72.454C43.3708 72.538 43.3948 72.64 43.3708 72.76L42.7948 75.568C42.7228 75.856 42.5728 76 42.3448 76H33.6328C33.5008 76 33.3868 75.958 33.2908 75.874C33.1948 75.79 33.1468 75.688 33.1468 75.568V75.334C33.1468 74.626 33.3568 73.93 33.7768 73.246C34.2088 72.55 34.7248 71.92 35.3248 71.356C35.9368 70.792 36.5428 70.246 37.1428 69.718C37.7428 69.178 38.2528 68.614 38.6728 68.026C39.1048 67.426 39.3208 66.844 39.3208 66.28C39.3208 65.68 39.1888 65.2 38.9248 64.84C38.6608 64.468 38.3428 64.282 37.9708 64.282C37.7068 64.282 37.4848 64.402 37.3048 64.642C37.1248 64.882 36.9748 65.17 36.8548 65.506C36.7348 65.842 36.6028 66.178 36.4588 66.514C36.3148 66.85 36.1048 67.138 35.8288 67.378C35.5528 67.618 35.2168 67.738 34.8208 67.738C34.3648 67.738 33.9868 67.606 33.6868 67.342C33.3868 67.066 33.2368 66.694 33.2368 66.226C33.2368 65.338 33.6988 64.588 34.6228 63.976C35.5588 63.352 36.6928 63.04 38.0248 63.04C39.5008 63.04 40.6648 63.328 41.5168 63.904C42.3808 64.48 42.8128 65.374 42.8128 66.586C42.8128 67.258 42.6148 67.888 42.2188 68.476C41.8228 69.052 41.3248 69.55 40.7248 69.97C40.1368 70.39 39.5308 70.786 38.9068 71.158C38.2948 71.53 37.7248 71.938 37.1968 72.382C36.6688 72.826 36.3208 73.27 36.1528 73.714H40.7788C41.0908 73.714 41.3608 73.642 41.5888 73.498C41.8168 73.354 41.9788 73.198 42.0748 73.03C42.1828 72.85 42.2968 72.688 42.4168 72.544C42.5368 72.4 42.6568 72.328 42.7768 72.328H43.0108ZM50.4121 76.18C48.7681 76.18 47.3881 75.586 46.2721 74.398C45.1561 73.198 44.5981 71.62 44.5981 69.664C44.5981 67.66 45.1201 66.058 46.1641 64.858C47.2201 63.646 48.6301 63.04 50.3941 63.04C52.0501 63.04 53.4361 63.658 54.5521 64.894C55.6681 66.13 56.2261 67.726 56.2261 69.682C56.2261 71.638 55.6621 73.21 54.5341 74.398C53.4061 75.586 52.0321 76.18 50.4121 76.18ZM49.4221 74.002C49.8541 74.65 50.3461 74.974 50.8981 74.974C51.4501 74.974 51.8821 74.656 52.1941 74.02C52.5181 73.372 52.6801 72.418 52.6801 71.158C52.6801 70.09 52.5721 69.04 52.3561 68.008C52.1521 66.976 51.8341 66.1 51.4021 65.38C50.9821 64.66 50.4961 64.3 49.9441 64.3C49.3681 64.3 48.9181 64.654 48.5941 65.362C48.2821 66.058 48.1261 67.09 48.1261 68.458C48.1261 69.538 48.2341 70.57 48.4501 71.554C48.6661 72.538 48.9901 73.354 49.4221 74.002ZM58.1995 78.736C57.9955 78.856 57.8095 78.82 57.6415 78.628C57.4735 78.448 57.4735 78.28 57.6415 78.124C58.0135 77.74 58.2715 77.446 58.4155 77.242C58.5595 77.038 58.6435 76.816 58.6675 76.576C58.6915 76.312 58.6135 76.18 58.4335 76.18C58.0735 76.18 57.7675 76.024 57.5155 75.712C57.2635 75.388 57.1375 74.986 57.1375 74.506C57.1375 73.93 57.2995 73.468 57.6235 73.12C57.9595 72.76 58.4035 72.58 58.9555 72.58C59.4835 72.58 59.9335 72.778 60.3055 73.174C60.6895 73.57 60.8815 74.098 60.8815 74.758C60.8815 76.318 59.9875 77.644 58.1995 78.736ZM67.6168 76.18C65.9728 76.18 64.5928 75.586 63.4768 74.398C62.3608 73.198 61.8028 71.62 61.8028 69.664C61.8028 67.66 62.3248 66.058 63.3688 64.858C64.4248 63.646 65.8348 63.04 67.5988 63.04C69.2548 63.04 70.6408 63.658 71.7568 64.894C72.8728 66.13 73.4308 67.726 73.4308 69.682C73.4308 71.638 72.8668 73.21 71.7388 74.398C70.6108 75.586 69.2368 76.18 67.6168 76.18ZM66.6268 74.002C67.0588 74.65 67.5508 74.974 68.1028 74.974C68.6548 74.974 69.0868 74.656 69.3988 74.02C69.7228 73.372 69.8848 72.418 69.8848 71.158C69.8848 70.09 69.7768 69.04 69.5608 68.008C69.3568 66.976 69.0388 66.1 68.6068 65.38C68.1868 64.66 67.7008 64.3 67.1488 64.3C66.5728 64.3 66.1228 64.654 65.7988 65.362C65.4868 66.058 65.3308 67.09 65.3308 68.458C65.3308 69.538 65.4388 70.57 65.6548 71.554C65.8708 72.538 66.1948 73.354 66.6268 74.002ZM80.5785 76.18C78.9345 76.18 77.5545 75.586 76.4385 74.398C75.3225 73.198 74.7645 71.62 74.7645 69.664C74.7645 67.66 75.2865 66.058 76.3305 64.858C77.3865 63.646 78.7965 63.04 80.5605 63.04C82.2165 63.04 83.6025 63.658 84.7185 64.894C85.8345 66.13 86.3925 67.726 86.3925 69.682C86.3925 71.638 85.8285 73.21 84.7005 74.398C83.5725 75.586 82.1985 76.18 80.5785 76.18ZM79.5885 74.002C80.0205 74.65 80.5125 74.974 81.0645 74.974C81.6165 74.974 82.0485 74.656 82.3605 74.02C82.6845 73.372 82.8465 72.418 82.8465 71.158C82.8465 70.09 82.7385 69.04 82.5225 68.008C82.3185 66.976 82.0005 66.1 81.5685 65.38C81.1485 64.66 80.6625 64.3 80.1105 64.3C79.5345 64.3 79.0845 64.654 78.7605 65.362C78.4485 66.058 78.2925 67.09 78.2925 68.458C78.2925 69.538 78.4005 70.57 78.6165 71.554C78.8325 72.538 79.1565 73.354 79.5885 74.002ZM93.5402 76.18C91.8962 76.18 90.5162 75.586 89.4002 74.398C88.2842 73.198 87.7262 71.62 87.7262 69.664C87.7262 67.66 88.2482 66.058 89.2922 64.858C90.3482 63.646 91.7582 63.04 93.5222 63.04C95.1782 63.04 96.5642 63.658 97.6802 64.894C98.7962 66.13 99.3542 67.726 99.3542 69.682C99.3542 71.638 98.7902 73.21 97.6622 74.398C96.5342 75.586 95.1602 76.18 93.5402 76.18ZM92.5502 74.002C92.9822 74.65 93.4742 74.974 94.0262 74.974C94.5782 74.974 95.0102 74.656 95.3222 74.02C95.6462 73.372 95.8082 72.418 95.8082 71.158C95.8082 70.09 95.7002 69.04 95.4842 68.008C95.2802 66.976 94.9622 66.1 94.5302 65.38C94.1102 64.66 93.6242 64.3 93.0722 64.3C92.4962 64.3 92.0462 64.654 91.7222 65.362C91.4102 66.058 91.2542 67.09 91.2542 68.458C91.2542 69.538 91.3622 70.57 91.5782 71.554C91.7942 72.538 92.1182 73.354 92.5502 74.002Z" fill="black"/>
<path d="M24.9286 32.5488V28.4278L21.7956 23.3188H23.0956L25.4876 27.2838H25.5136L27.8926 23.3188H29.2186L26.0596 28.4278V32.5488H24.9286ZM32.2885 32.6268C31.3179 32.6268 30.5292 32.3192 29.9225 31.7038C29.3159 31.0885 29.0125 30.3172 29.0125 29.3898C29.0125 28.4625 29.3159 27.6912 29.9225 27.0758C30.5292 26.4518 31.3179 26.1398 32.2885 26.1398C33.2332 26.1398 34.0132 26.4432 34.6285 27.0498C35.2439 27.6565 35.5515 28.4365 35.5515 29.3898C35.5515 30.3432 35.2439 31.1232 34.6285 31.7298C34.0132 32.3278 33.2332 32.6268 32.2885 32.6268ZM32.2885 31.6648C32.9039 31.6648 33.4195 31.4525 33.8355 31.0278C34.2602 30.6032 34.4725 30.0572 34.4725 29.3898C34.4725 28.7225 34.2602 28.1765 33.8355 27.7518C33.4195 27.3185 32.9039 27.1018 32.2885 27.1018C31.6385 27.1018 31.1099 27.3228 30.7025 27.7648C30.2952 28.2068 30.0915 28.7485 30.0915 29.3898C30.0915 30.0312 30.2952 30.5728 30.7025 31.0148C31.1185 31.4482 31.6472 31.6648 32.2885 31.6648ZM39.5576 32.6268C38.8036 32.6268 38.2186 32.4102 37.8026 31.9768C37.3866 31.5348 37.1786 30.8718 37.1786 29.9878V26.2178H38.2316V29.6888C38.2316 30.3822 38.3573 30.8848 38.6086 31.1968C38.8686 31.5088 39.2586 31.6648 39.7786 31.6648C40.3073 31.6648 40.7536 31.4525 41.1176 31.0278C41.4816 30.5945 41.6636 30.0138 41.6636 29.2858V26.2178H42.7166V32.5488H41.6636V31.4568H41.6506C41.4166 31.8295 41.1133 32.1198 40.7406 32.3278C40.3766 32.5272 39.9823 32.6268 39.5576 32.6268ZM44.8214 32.5488V26.2178H45.8744V27.3748H45.9004C46.3857 26.5515 47.0704 26.1398 47.9544 26.1398C48.0671 26.1398 48.1537 26.1442 48.2144 26.1528V27.3228C48.0064 27.3055 47.8677 27.2968 47.7984 27.2968C47.2091 27.2968 46.7411 27.5005 46.3944 27.9078C46.0477 28.3152 45.8744 28.8438 45.8744 29.4938V32.5488H44.8214ZM58.9754 29.2728C58.9754 29.3335 58.9711 29.4158 58.9624 29.5198C58.9537 29.6238 58.9494 29.6845 58.9494 29.7018H54.0094C54.0787 30.2998 54.3084 30.7765 54.6984 31.1318C55.0884 31.4872 55.5824 31.6648 56.1804 31.6648C56.9431 31.6648 57.5541 31.3832 58.0134 30.8198L58.7544 31.4438C58.1391 32.2325 57.2681 32.6268 56.1414 32.6268C55.1967 32.6268 54.4254 32.3278 53.8274 31.7298C53.2381 31.1318 52.9434 30.3518 52.9434 29.3898C52.9434 28.4365 53.2337 27.6565 53.8144 27.0498C54.4037 26.4432 55.1534 26.1398 56.0634 26.1398C56.9214 26.1398 57.6191 26.4345 58.1564 27.0238C58.7024 27.6132 58.9754 28.3628 58.9754 29.2728ZM57.3114 27.5828C56.9821 27.2622 56.5617 27.1018 56.0504 27.1018C55.5391 27.1018 55.0971 27.2578 54.7244 27.5698C54.3604 27.8818 54.1307 28.3065 54.0354 28.8438H57.9224C57.8444 28.3152 57.6407 27.8948 57.3114 27.5828ZM62.6303 32.6268C61.6683 32.6268 60.8449 32.3278 60.1603 31.7298L60.6933 30.9238C61.2219 31.4352 61.8676 31.6908 62.6303 31.6908C63.0029 31.6908 63.2976 31.6128 63.5143 31.4568C63.7309 31.2922 63.8393 31.0842 63.8393 30.8328C63.8393 30.5468 63.6443 30.3128 63.2543 30.1308C63.1503 30.0875 62.8426 29.9705 62.3313 29.7798C62.0279 29.6758 61.7809 29.5762 61.5903 29.4808C61.3996 29.3855 61.2046 29.2642 61.0053 29.1168C60.8146 28.9695 60.6716 28.7918 60.5763 28.5838C60.4809 28.3672 60.4333 28.1202 60.4333 27.8428C60.4333 27.3575 60.6283 26.9545 61.0183 26.6338C61.4169 26.3045 61.9153 26.1398 62.5133 26.1398C63.3279 26.1398 64.0559 26.3998 64.6973 26.9198L64.1513 27.7518C63.6659 27.3012 63.1069 27.0758 62.4743 27.0758C62.2143 27.0758 61.9846 27.1452 61.7853 27.2838C61.5946 27.4225 61.4993 27.6088 61.4993 27.8428C61.4993 28.0682 61.5989 28.2545 61.7983 28.4018C61.9976 28.5405 62.2966 28.6835 62.6953 28.8308C63.5186 29.1515 64.0299 29.3725 64.2293 29.4938C64.6886 29.7972 64.9139 30.2392 64.9053 30.8198C64.9053 31.3398 64.7059 31.7732 64.3073 32.1198C63.9173 32.4578 63.3583 32.6268 62.6303 32.6268ZM68.3751 32.6268C67.2831 32.6268 66.7371 31.9725 66.7371 30.6638V27.1278H65.9181V26.2178H66.7371V24.0598L67.7901 23.9428V26.2178H69.8831V27.1278H67.7901V30.5078C67.7901 30.9065 67.8464 31.1968 67.9591 31.3788C68.0717 31.5522 68.2711 31.6388 68.5571 31.6388C68.8777 31.6388 69.2374 31.5305 69.6361 31.3138L69.9091 32.2368C69.4671 32.4968 68.9557 32.6268 68.3751 32.6268ZM72.6102 24.8398C72.4629 24.9872 72.2809 25.0608 72.0642 25.0608C71.8476 25.0608 71.6656 24.9872 71.5182 24.8398C71.3709 24.6925 71.2972 24.5148 71.2972 24.3068C71.2972 24.0988 71.3709 23.9212 71.5182 23.7738C71.6656 23.6265 71.8476 23.5528 72.0642 23.5528C72.2809 23.5528 72.4629 23.6265 72.6102 23.7738C72.7576 23.9212 72.8312 24.0988 72.8312 24.3068C72.8312 24.5148 72.7576 24.6925 72.6102 24.8398ZM71.5312 32.5488V26.2178H72.5842V32.5488H71.5312ZM74.8398 32.5488V26.2178H75.8928V27.3618H75.9058C76.1484 26.9805 76.4561 26.6815 76.8288 26.4648C77.2014 26.2482 77.6001 26.1398 78.0248 26.1398C78.9954 26.1398 79.6498 26.5905 79.9878 27.4918H80.0008C80.2434 27.0672 80.5684 26.7378 80.9758 26.5038C81.3831 26.2612 81.8338 26.1398 82.3278 26.1398C83.0298 26.1398 83.5671 26.3782 83.9398 26.8548C84.3211 27.3228 84.5118 28.0075 84.5118 28.9088V32.5488H83.4588V29.1948C83.4588 27.7995 82.9778 27.1018 82.0158 27.1018C81.5044 27.1018 81.0798 27.3142 80.7418 27.7388C80.4038 28.1548 80.2348 28.7095 80.2348 29.4028V32.5488H79.1818V29.1948C79.1818 28.5188 79.0561 28.0032 78.8048 27.6478C78.5534 27.2838 78.1894 27.1018 77.7128 27.1018C77.1841 27.1018 76.7464 27.3142 76.3998 27.7388C76.0618 28.1548 75.8928 28.7095 75.8928 29.4028V32.5488H74.8398ZM89.2067 32.6268C88.3227 32.6268 87.586 32.3322 86.9967 31.7428C86.416 31.1448 86.1257 30.3735 86.1257 29.4288C86.1257 28.4842 86.416 27.6998 86.9967 27.0758C87.5774 26.4518 88.314 26.1398 89.2067 26.1398C89.6747 26.1398 90.1037 26.2482 90.4937 26.4648C90.8837 26.6728 91.1914 26.9675 91.4167 27.3488L91.4427 27.3358V26.2178H92.4957V32.5488H91.4817V31.4048H91.4687C90.9747 32.2195 90.2207 32.6268 89.2067 32.6268ZM89.3627 31.6648C89.9607 31.6648 90.4634 31.4568 90.8707 31.0408C91.278 30.6248 91.4817 30.0875 91.4817 29.4288C91.4817 28.7702 91.2824 28.2198 90.8837 27.7778C90.485 27.3272 89.978 27.1018 89.3627 27.1018C88.7474 27.1018 88.2317 27.3185 87.8157 27.7518C87.3997 28.1852 87.1917 28.7442 87.1917 29.4288C87.1917 30.0702 87.391 30.6032 87.7897 31.0278C88.197 31.4525 88.7214 31.6648 89.3627 31.6648ZM96.3684 32.6268C95.2764 32.6268 94.7304 31.9725 94.7304 30.6638V27.1278H93.9114V26.2178H94.7304V24.0598L95.7834 23.9428V26.2178H97.8764V27.1278H95.7834V30.5078C95.7834 30.9065 95.8397 31.1968 95.9524 31.3788C96.0651 31.5522 96.2644 31.6388 96.5504 31.6388C96.8711 31.6388 97.2307 31.5305 97.6294 31.3138L97.9024 32.2368C97.4604 32.4968 96.9491 32.6268 96.3684 32.6268ZM104.809 29.2728C104.809 29.3335 104.805 29.4158 104.796 29.5198C104.787 29.6238 104.783 29.6845 104.783 29.7018H99.843C99.9123 30.2998 100.142 30.7765 100.532 31.1318C100.922 31.4872 101.416 31.6648 102.014 31.6648C102.777 31.6648 103.388 31.3832 103.847 30.8198L104.588 31.4438C103.973 32.2325 103.102 32.6268 101.975 32.6268C101.03 32.6268 100.259 32.3278 99.661 31.7298C99.0717 31.1318 98.777 30.3518 98.777 29.3898C98.777 28.4365 99.0673 27.6565 99.648 27.0498C100.237 26.4432 100.987 26.1398 101.897 26.1398C102.755 26.1398 103.453 26.4345 103.99 27.0238C104.536 27.6132 104.809 28.3628 104.809 29.2728ZM103.145 27.5828C102.816 27.2622 102.395 27.1018 101.884 27.1018C101.373 27.1018 100.931 27.2578 100.558 27.5698C100.194 27.8818 99.9643 28.3065 99.869 28.8438H103.756C103.678 28.3152 103.474 27.8948 103.145 27.5828ZM109.244 32.6268C108.351 32.6268 107.61 32.3322 107.021 31.7428C106.432 31.1448 106.137 30.3735 106.137 29.4288C106.137 28.4928 106.432 27.7128 107.021 27.0888C107.61 26.4562 108.347 26.1398 109.231 26.1398C110.236 26.1398 110.99 26.5428 111.493 27.3488H111.506V22.9808H112.559V32.5488H111.545V31.3788H111.532C111.038 32.2108 110.275 32.6268 109.244 32.6268ZM109.387 31.6648C109.994 31.6648 110.505 31.4568 110.921 31.0408C111.337 30.6248 111.545 30.0875 111.545 29.4288C111.545 28.7702 111.341 28.2198 110.934 27.7778C110.535 27.3272 110.024 27.1018 109.4 27.1018C108.785 27.1018 108.265 27.3185 107.84 27.7518C107.424 28.1852 107.216 28.7442 107.216 29.4288C107.216 30.0702 107.415 30.6032 107.814 31.0278C108.221 31.4525 108.746 31.6648 109.387 31.6648ZM118.467 32.5488V26.2178H119.52V27.3618H119.533C120.062 26.5472 120.829 26.1398 121.834 26.1398C122.536 26.1398 123.091 26.3652 123.498 26.8158C123.906 27.2578 124.109 27.9165 124.109 28.7918V32.5488H123.056V29.0908C123.056 27.7648 122.536 27.1018 121.496 27.1018C120.89 27.1018 120.409 27.3055 120.053 27.7128C119.698 28.1202 119.52 28.6792 119.52 29.3898V32.5488H118.467ZM131.787 29.2728C131.787 29.3335 131.782 29.4158 131.774 29.5198C131.765 29.6238 131.761 29.6845 131.761 29.7018H126.821C126.89 30.2998 127.12 30.7765 127.51 31.1318C127.9 31.4872 128.394 31.6648 128.992 31.6648C129.754 31.6648 130.365 31.3832 130.825 30.8198L131.566 31.4438C130.95 32.2325 130.079 32.6268 128.953 32.6268C128.008 32.6268 127.237 32.3278 126.639 31.7298C126.049 31.1318 125.755 30.3518 125.755 29.3898C125.755 28.4365 126.045 27.6565 126.626 27.0498C127.215 26.4432 127.965 26.1398 128.875 26.1398C129.733 26.1398 130.43 26.4345 130.968 27.0238C131.514 27.6132 131.787 28.3628 131.787 29.2728ZM130.123 27.5828C129.793 27.2622 129.373 27.1018 128.862 27.1018C128.35 27.1018 127.908 27.2578 127.536 27.5698C127.172 27.8818 126.942 28.3065 126.847 28.8438H130.734C130.656 28.3152 130.452 27.8948 130.123 27.5828ZM135.312 32.6268C134.22 32.6268 133.674 31.9725 133.674 30.6638V27.1278H132.855V26.2178H133.674V24.0598L134.727 23.9428V26.2178H136.82V27.1278H134.727V30.5078C134.727 30.9065 134.783 31.1968 134.896 31.3788C135.008 31.5522 135.208 31.6388 135.494 31.6388C135.814 31.6388 136.174 31.5305 136.573 31.3138L136.846 32.2368C136.404 32.4968 135.892 32.6268 135.312 32.6268ZM23.7456 43.8398C23.5983 43.9872 23.4163 44.0608 23.1996 44.0608C22.9829 44.0608 22.8009 43.9872 22.6536 43.8398C22.5063 43.6925 22.4326 43.5148 22.4326 43.3068C22.4326 43.0988 22.5063 42.9212 22.6536 42.7738C22.8009 42.6265 22.9829 42.5528 23.1996 42.5528C23.4163 42.5528 23.5983 42.6265 23.7456 42.7738C23.8929 42.9212 23.9666 43.0988 23.9666 43.3068C23.9666 43.5148 23.8929 43.6925 23.7456 43.8398ZM22.6666 51.5488V45.2178H23.7196V51.5488H22.6666ZM25.9751 51.5488V45.2178H27.0281V46.3618H27.0411C27.5698 45.5472 28.3368 45.1398 29.3421 45.1398C30.0441 45.1398 30.5988 45.3652 31.0061 45.8158C31.4134 46.2578 31.6171 46.9165 31.6171 47.7918V51.5488H30.5641V48.0908C30.5641 46.7648 30.0441 46.1018 29.0041 46.1018C28.3974 46.1018 27.9164 46.3055 27.5611 46.7128C27.2058 47.1202 27.0281 47.6792 27.0281 48.3898V51.5488H25.9751ZM36.4213 51.6268C35.494 51.6268 34.7357 51.3278 34.1463 50.7298C33.557 50.1318 33.2623 49.3518 33.2623 48.3898C33.2623 47.4365 33.557 46.6565 34.1463 46.0498C34.7443 45.4432 35.5157 45.1398 36.4603 45.1398C36.9457 45.1398 37.4137 45.2395 37.8643 45.4388C38.3237 45.6295 38.705 45.9068 39.0083 46.2708L38.2933 46.9078C37.834 46.3705 37.2403 46.1018 36.5123 46.1018C35.8623 46.1018 35.338 46.3142 34.9393 46.7388C34.5407 47.1635 34.3413 47.7138 34.3413 48.3898C34.3413 49.0658 34.5407 49.6162 34.9393 50.0408C35.338 50.4568 35.858 50.6648 36.4993 50.6648C37.2707 50.6648 37.873 50.3962 38.3063 49.8588L39.0343 50.5218C38.419 51.2585 37.548 51.6268 36.4213 51.6268ZM43.5176 51.6268C42.547 51.6268 41.7583 51.3192 41.1516 50.7038C40.545 50.0885 40.2416 49.3172 40.2416 48.3898C40.2416 47.4625 40.545 46.6912 41.1516 46.0758C41.7583 45.4518 42.547 45.1398 43.5176 45.1398C44.4623 45.1398 45.2423 45.4432 45.8576 46.0498C46.473 46.6565 46.7806 47.4365 46.7806 48.3898C46.7806 49.3432 46.473 50.1232 45.8576 50.7298C45.2423 51.3278 44.4623 51.6268 43.5176 51.6268ZM43.5176 50.6648C44.133 50.6648 44.6486 50.4525 45.0646 50.0278C45.4893 49.6032 45.7016 49.0572 45.7016 48.3898C45.7016 47.7225 45.4893 47.1765 45.0646 46.7518C44.6486 46.3185 44.133 46.1018 43.5176 46.1018C42.8676 46.1018 42.339 46.3228 41.9316 46.7648C41.5243 47.2068 41.3206 47.7485 41.3206 48.3898C41.3206 49.0312 41.5243 49.5728 41.9316 50.0148C42.3476 50.4482 42.8763 50.6648 43.5176 50.6648ZM48.5507 51.5488V45.2178H49.6037V46.3618H49.6167C49.8594 45.9805 50.167 45.6815 50.5397 45.4648C50.9124 45.2482 51.311 45.1398 51.7357 45.1398C52.7064 45.1398 53.3607 45.5905 53.6987 46.4918H53.7117C53.9544 46.0672 54.2794 45.7378 54.6867 45.5038C55.094 45.2612 55.5447 45.1398 56.0387 45.1398C56.7407 45.1398 57.278 45.3782 57.6507 45.8548C58.032 46.3228 58.2227 47.0075 58.2227 47.9088V51.5488H57.1697V48.1948C57.1697 46.7995 56.6887 46.1018 55.7267 46.1018C55.2154 46.1018 54.7907 46.3142 54.4527 46.7388C54.1147 47.1548 53.9457 47.7095 53.9457 48.4028V51.5488H52.8927V48.1948C52.8927 47.5188 52.767 47.0032 52.5157 46.6478C52.2644 46.2838 51.9004 46.1018 51.4237 46.1018C50.895 46.1018 50.4574 46.3142 50.1107 46.7388C49.7727 47.1548 49.6037 47.7095 49.6037 48.4028V51.5488H48.5507ZM65.8816 48.2728C65.8816 48.3335 65.8773 48.4158 65.8686 48.5198C65.86 48.6238 65.8556 48.6845 65.8556 48.7018H60.9156C60.985 49.2998 61.2146 49.7765 61.6046 50.1318C61.9946 50.4872 62.4886 50.6648 63.0866 50.6648C63.8493 50.6648 64.4603 50.3832 64.9196 49.8198L65.6606 50.4438C65.0453 51.2325 64.1743 51.6268 63.0476 51.6268C62.103 51.6268 61.3316 51.3278 60.7336 50.7298C60.1443 50.1318 59.8496 49.3518 59.8496 48.3898C59.8496 47.4365 60.14 46.6565 60.7206 46.0498C61.31 45.4432 62.0596 45.1398 62.9696 45.1398C63.8276 45.1398 64.5253 45.4345 65.0626 46.0238C65.6086 46.6132 65.8816 47.3628 65.8816 48.2728ZM64.2176 46.5828C63.8883 46.2622 63.468 46.1018 62.9566 46.1018C62.4453 46.1018 62.0033 46.2578 61.6306 46.5698C61.2666 46.8818 61.037 47.3065 60.9416 47.8438H64.8286C64.7506 47.3152 64.547 46.8948 64.2176 46.5828ZM74.2405 51.6268C73.2698 51.6268 72.4812 51.3192 71.8745 50.7038C71.2678 50.0885 70.9645 49.3172 70.9645 48.3898C70.9645 47.4625 71.2678 46.6912 71.8745 46.0758C72.4812 45.4518 73.2698 45.1398 74.2405 45.1398C75.1852 45.1398 75.9652 45.4432 76.5805 46.0498C77.1958 46.6565 77.5035 47.4365 77.5035 48.3898C77.5035 49.3432 77.1958 50.1232 76.5805 50.7298C75.9652 51.3278 75.1852 51.6268 74.2405 51.6268ZM74.2405 50.6648C74.8558 50.6648 75.3715 50.4525 75.7875 50.0278C76.2122 49.6032 76.4245 49.0572 76.4245 48.3898C76.4245 47.7225 76.2122 47.1765 75.7875 46.7518C75.3715 46.3185 74.8558 46.1018 74.2405 46.1018C73.5905 46.1018 73.0618 46.3228 72.6545 46.7648C72.2472 47.2068 72.0435 47.7485 72.0435 48.3898C72.0435 49.0312 72.2472 49.5728 72.6545 50.0148C73.0705 50.4482 73.5992 50.6648 74.2405 50.6648ZM80.8158 51.5488L78.2418 45.2178H79.3858L81.3228 50.2098H81.3358L83.2728 45.2178H84.4038L81.8298 51.5488H80.8158ZM91.1455 48.2728C91.1455 48.3335 91.1412 48.4158 91.1325 48.5198C91.1238 48.6238 91.1195 48.6845 91.1195 48.7018H86.1795C86.2488 49.2998 86.4785 49.7765 86.8685 50.1318C87.2585 50.4872 87.7525 50.6648 88.3505 50.6648C89.1132 50.6648 89.7242 50.3832 90.1835 49.8198L90.9245 50.4438C90.3092 51.2325 89.4382 51.6268 88.3115 51.6268C87.3668 51.6268 86.5955 51.3278 85.9975 50.7298C85.4082 50.1318 85.1135 49.3518 85.1135 48.3898C85.1135 47.4365 85.4038 46.6565 85.9845 46.0498C86.5738 45.4432 87.3235 45.1398 88.2335 45.1398C89.0915 45.1398 89.7892 45.4345 90.3265 46.0238C90.8725 46.6132 91.1455 47.3628 91.1455 48.2728ZM89.4815 46.5828C89.1522 46.2622 88.7318 46.1018 88.2205 46.1018C87.7092 46.1018 87.2672 46.2578 86.8945 46.5698C86.5305 46.8818 86.3008 47.3065 86.2055 47.8438H90.0925C90.0145 47.3152 89.8108 46.8948 89.4815 46.5828ZM92.8894 51.5488V45.2178H93.9424V46.3748H93.9684C94.4537 45.5515 95.1384 45.1398 96.0224 45.1398C96.135 45.1398 96.2217 45.1442 96.2824 45.1528V46.3228C96.0744 46.3055 95.9357 46.2968 95.8664 46.2968C95.277 46.2968 94.809 46.5005 94.4624 46.9078C94.1157 47.3152 93.9424 47.8438 93.9424 48.4938V51.5488H92.8894ZM103 51.5488V43.9308L101.219 45.2828L100.686 44.4638L103.182 42.6178H104.092V51.5488H103ZM109.519 51.6268C108.523 51.6268 107.712 51.2282 107.088 50.4308C106.473 49.6248 106.165 48.5112 106.165 47.0898C106.165 45.7378 106.464 44.6415 107.062 43.8008C107.66 42.9602 108.479 42.5398 109.519 42.5398C110.516 42.5398 111.322 42.9428 111.937 43.7488C112.561 44.5462 112.873 45.6598 112.873 47.0898C112.873 48.4418 112.574 49.5382 111.976 50.3788C111.387 51.2108 110.568 51.6268 109.519 51.6268ZM109.519 50.6128C110.221 50.6128 110.767 50.2965 111.157 49.6638C111.556 49.0312 111.755 48.1732 111.755 47.0898C111.755 45.9718 111.552 45.1052 111.144 44.4898C110.737 43.8658 110.195 43.5538 109.519 43.5538C108.817 43.5538 108.267 43.8745 107.868 44.5158C107.478 45.1485 107.283 46.0065 107.283 47.0898C107.283 48.1992 107.487 49.0658 107.894 49.6898C108.31 50.3052 108.852 50.6128 109.519 50.6128ZM119.364 54.1228L120.495 51.3018L117.804 45.2178H118.948L121.002 50.0278H121.028L122.939 45.2178H124.044L120.456 54.1228H119.364ZM130.822 48.2728C130.822 48.3335 130.818 48.4158 130.809 48.5198C130.8 48.6238 130.796 48.6845 130.796 48.7018H125.856C125.925 49.2998 126.155 49.7765 126.545 50.1318C126.935 50.4872 127.429 50.6648 128.027 50.6648C128.79 50.6648 129.401 50.3832 129.86 49.8198L130.601 50.4438C129.986 51.2325 129.115 51.6268 127.988 51.6268C127.043 51.6268 126.272 51.3278 125.674 50.7298C125.085 50.1318 124.79 49.3518 124.79 48.3898C124.79 47.4365 125.08 46.6565 125.661 46.0498C126.25 45.4432 127 45.1398 127.91 45.1398C128.768 45.1398 129.466 45.4345 130.003 46.0238C130.549 46.6132 130.822 47.3628 130.822 48.2728ZM129.158 46.5828C128.829 46.2622 128.408 46.1018 127.897 46.1018C127.386 46.1018 126.944 46.2578 126.571 46.5698C126.207 46.8818 125.977 47.3065 125.882 47.8438H129.769C129.691 47.3152 129.487 46.8948 129.158 46.5828ZM135.231 51.6268C134.347 51.6268 133.61 51.3322 133.021 50.7428C132.44 50.1448 132.15 49.3735 132.15 48.4288C132.15 47.4842 132.44 46.6998 133.021 46.0758C133.601 45.4518 134.338 45.1398 135.231 45.1398C135.699 45.1398 136.128 45.2482 136.518 45.4648C136.908 45.6728 137.215 45.9675 137.441 46.3488L137.467 46.3358V45.2178H138.52V51.5488H137.506V50.4048H137.493C136.999 51.2195 136.245 51.6268 135.231 51.6268ZM135.387 50.6648C135.985 50.6648 136.487 50.4568 136.895 50.0408C137.302 49.6248 137.506 49.0875 137.506 48.4288C137.506 47.7702 137.306 47.2198 136.908 46.7778C136.509 46.3272 136.002 46.1018 135.387 46.1018C134.771 46.1018 134.256 46.3185 133.84 46.7518C133.424 47.1852 133.216 47.7442 133.216 48.4288C133.216 49.0702 133.415 49.6032 133.814 50.0278C134.221 50.4525 134.745 50.6648 135.387 50.6648ZM140.611 51.5488V45.2178H141.664V46.3748H141.69C142.176 45.5515 142.86 45.1398 143.744 45.1398C143.857 45.1398 143.944 45.1442 144.004 45.1528V46.3228C143.796 46.3055 143.658 46.2968 143.588 46.2968C142.999 46.2968 142.531 46.5005 142.184 46.9078C141.838 47.3152 141.664 47.8438 141.664 48.4938V51.5488H140.611ZM147.305 51.6268C146.343 51.6268 145.52 51.3278 144.835 50.7298L145.368 49.9238C145.897 50.4352 146.543 50.6908 147.305 50.6908C147.678 50.6908 147.973 50.6128 148.189 50.4568C148.406 50.2922 148.514 50.0842 148.514 49.8328C148.514 49.5468 148.319 49.3128 147.929 49.1308C147.825 49.0875 147.518 48.9705 147.006 48.7798C146.703 48.6758 146.456 48.5762 146.265 48.4808C146.075 48.3855 145.88 48.2642 145.68 48.1168C145.49 47.9695 145.347 47.7918 145.251 47.5838C145.156 47.3672 145.108 47.1202 145.108 46.8428C145.108 46.3575 145.303 45.9545 145.693 45.6338C146.092 45.3045 146.59 45.1398 147.188 45.1398C148.003 45.1398 148.731 45.3998 149.372 45.9198L148.826 46.7518C148.341 46.3012 147.782 46.0758 147.149 46.0758C146.889 46.0758 146.66 46.1452 146.46 46.2838C146.27 46.4225 146.174 46.6088 146.174 46.8428C146.174 47.0682 146.274 47.2545 146.473 47.4018C146.673 47.5405 146.972 47.6835 147.37 47.8308C148.194 48.1515 148.705 48.3725 148.904 48.4938C149.364 48.7972 149.589 49.2392 149.58 49.8198C149.58 50.3398 149.381 50.7732 148.982 51.1198C148.592 51.4578 148.033 51.6268 147.305 51.6268ZM156.168 43.8398C156.021 43.9872 155.839 44.0608 155.622 44.0608C155.406 44.0608 155.224 43.9872 155.076 43.8398C154.929 43.6925 154.855 43.5148 154.855 43.3068C154.855 43.0988 154.929 42.9212 155.076 42.7738C155.224 42.6265 155.406 42.5528 155.622 42.5528C155.839 42.5528 156.021 42.6265 156.168 42.7738C156.316 42.9212 156.389 43.0988 156.389 43.3068C156.389 43.5148 156.316 43.6925 156.168 43.8398ZM155.089 51.5488V45.2178H156.142V51.5488H155.089ZM160.309 51.6268C159.347 51.6268 158.523 51.3278 157.839 50.7298L158.372 49.9238C158.9 50.4352 159.546 50.6908 160.309 50.6908C160.681 50.6908 160.976 50.6128 161.193 50.4568C161.409 50.2922 161.518 50.0842 161.518 49.8328C161.518 49.5468 161.323 49.3128 160.933 49.1308C160.829 49.0875 160.521 48.9705 160.01 48.7798C159.706 48.6758 159.459 48.5762 159.269 48.4808C159.078 48.3855 158.883 48.2642 158.684 48.1168C158.493 47.9695 158.35 47.7918 158.255 47.5838C158.159 47.3672 158.112 47.1202 158.112 46.8428C158.112 46.3575 158.307 45.9545 158.697 45.6338C159.095 45.3045 159.594 45.1398 160.192 45.1398C161.006 45.1398 161.734 45.3998 162.376 45.9198L161.83 46.7518C161.344 46.3012 160.785 46.0758 160.153 46.0758C159.893 46.0758 159.663 46.1452 159.464 46.2838C159.273 46.4225 159.178 46.6088 159.178 46.8428C159.178 47.0682 159.277 47.2545 159.477 47.4018C159.676 47.5405 159.975 47.6835 160.374 47.8308C161.197 48.1515 161.708 48.3725 161.908 48.4938C162.367 48.7972 162.592 49.2392 162.584 49.8198C162.584 50.3398 162.384 50.7732 161.986 51.1198C161.596 51.4578 161.037 51.6268 160.309 51.6268Z" fill="#55666B"/>
</svg>
