<svg width="51" height="51" viewBox="0 0 51 51" fill="none" xmlns="http://www.w3.org/2000/svg">
  <ellipse cx="25.5577" cy="25.3433" rx="25.4425" ry="25.3433" fill="#31C5A1"/>
  <g clip-path="url(#clip0)">
  <path d="M12.334 33.1484C11.4671 33.1484 10.7617 33.851 10.7617 34.7146C10.7617 35.5781 11.4671 36.2808 12.334 36.2808C13.201 36.2808 13.9064 35.5781 13.9064 34.7146C13.9064 33.851 13.201 33.1484 12.334 33.1484ZM12.334 35.3768C11.9674 35.3768 11.6692 35.0797 11.6692 34.7146C11.6692 34.3494 11.9674 34.0523 12.334 34.0523C12.7006 34.0523 12.9989 34.3494 12.9989 34.7146C12.9989 35.0797 12.7006 35.3768 12.334 35.3768Z" fill="white"/>
  <path d="M37.8128 19.4297C37.6315 18.4597 37.1548 17.5839 36.4345 16.897C36.2534 16.7244 35.9662 16.7305 35.7929 16.9109C35.6196 17.0912 35.6259 17.3773 35.8069 17.5499C36.3892 18.1052 36.7743 18.8124 36.9206 19.5951C36.9897 19.9641 37.2852 20.2543 37.6564 20.3171C39.4937 20.6286 40.8272 22.2041 40.8272 24.0635C40.8272 25.9228 39.4937 27.4984 37.6564 27.8099C37.2853 27.8727 36.9896 28.1628 36.9206 28.5318C36.5303 30.6201 34.4911 31.9802 32.4059 31.5552C32.0521 31.483 31.6912 31.6265 31.4861 31.92C30.4756 33.3665 28.7057 34.1026 26.9463 33.7794C26.7 33.7338 26.4633 33.8962 26.4178 34.1418C26.3723 34.3872 26.5351 34.623 26.7816 34.6683C27.1071 34.7281 27.4405 34.7585 27.7723 34.7585C29.5463 34.7585 31.2112 33.8924 32.2273 32.4415C34.7956 32.963 37.328 31.293 37.8087 28.701C40.0835 28.3154 41.7346 26.365 41.7346 24.0635C41.7346 21.762 40.0835 19.8117 37.8128 19.4297Z" fill="white"/>
  <path d="M34.3873 15.7496C33.6865 15.5638 32.9409 15.5411 32.2277 15.6859C30.0716 12.6069 25.4922 12.5951 23.3244 15.6768C20.753 15.1811 18.262 16.8661 17.7874 19.4265C15.5125 19.812 13.8613 21.7623 13.8613 24.0639C13.8613 26.3654 15.5125 28.3158 17.7832 28.6978C18.2608 31.2527 20.7426 32.9482 23.3244 32.4511C23.6788 32.9548 24.1141 33.3924 24.6181 33.7517C24.6981 33.8087 24.7903 33.8361 24.8817 33.8361C25.3204 33.8358 25.5051 33.2722 25.146 33.0164C24.7242 32.7157 24.3603 32.3495 24.0644 31.9278C23.8612 31.6381 23.5052 31.4945 23.1574 31.5624C22.9172 31.609 22.6711 31.6327 22.4259 31.6327C20.5885 31.6327 19.0111 30.3288 18.6752 28.5322C18.6062 28.1633 18.3106 27.8731 17.9395 27.8103C16.1022 27.4988 14.7687 25.9233 14.7687 24.0639C14.7687 22.2045 16.1022 20.629 17.9395 20.3175C18.3105 20.2546 18.6062 19.9645 18.6753 19.5955C19.0638 17.517 21.0837 16.1622 23.1574 16.5654C23.5049 16.6331 23.8612 16.4895 24.0644 16.2C24.9111 14.9933 26.2973 14.2729 27.7725 14.2729C29.2518 14.2729 30.6401 14.9961 31.4864 16.2076C31.6917 16.5012 32.0528 16.6443 32.4062 16.5722C32.9836 16.4545 33.5869 16.4728 34.1538 16.6231C34.3959 16.6874 34.6445 16.5438 34.709 16.3027C34.7735 16.0615 34.6295 15.8139 34.3873 15.7496Z" fill="white"/>
  <path d="M20.2759 34.1798C20.2335 33.9338 19.9992 33.7686 19.7519 33.8109C19.5049 33.8532 19.3391 34.0869 19.3815 34.3329C19.5706 35.4287 18.72 36.4125 17.6245 36.4125C16.6412 36.4125 15.8411 35.6156 15.8411 34.636C15.8411 33.3593 17.1609 32.4979 18.3346 33.0062C18.5644 33.1058 18.8317 33.0008 18.9317 32.7719C19.0316 32.5431 18.9263 32.2768 18.6966 32.1772C16.9223 31.4086 14.9336 32.7122 14.9336 34.6359C14.9336 36.1138 16.1407 37.3164 17.6245 37.3164C19.2794 37.3164 20.5605 35.8291 20.2759 34.1798Z" fill="white"/>
  </g>
  <defs>
  <clipPath id="clip0">
  <rect width="30.9735" height="30.8527" fill="white" transform="translate(10.7617 9.91699)"/>
  </clipPath>
  </defs>
</svg>
