<svg width="19" height="19" viewBox="0 0 19 19" fill="none" xmlns="http://www.w3.org/2000/svg">
<circle cx="9.5" cy="9.5" r="9.5" fill="#70305E"/>
<path d="M8.63377 11.309V10.607C8.63377 10.4943 8.64244 10.386 8.65977 10.282C8.67711 10.178 8.71177 10.074 8.76377 9.97C8.82444 9.85733 8.86777 9.76633 8.89377 9.697C8.92844 9.62767 8.99777 9.53233 9.10177 9.411C9.20577 9.28967 9.27511 9.21167 9.30977 9.177C9.34444 9.13367 9.43111 9.04267 9.56977 8.904C9.70844 8.75667 9.78644 8.67 9.80377 8.644C9.99444 8.42733 10.1461 8.24533 10.2588 8.098C10.3714 7.95067 10.4754 7.76 10.5708 7.526C10.6748 7.292 10.7268 7.058 10.7268 6.824C10.7268 6.382 10.5881 6.03533 10.3108 5.784C10.0334 5.524 9.68677 5.394 9.27077 5.394C8.95877 5.394 8.65544 5.47633 8.36077 5.641C8.06611 5.797 7.82777 6.01367 7.64577 6.291L6.85277 5.55C7.46811 4.744 8.30011 4.341 9.34877 4.341C10.0768 4.341 10.6834 4.562 11.1688 5.004C11.6628 5.446 11.9098 6.03533 11.9098 6.772C11.9098 7.24 11.8058 7.656 11.5978 8.02C11.3898 8.384 11.1038 8.748 10.7398 9.112C10.6878 9.164 10.5794 9.268 10.4148 9.424C10.2501 9.58 10.1374 9.69267 10.0768 9.762C10.0248 9.82267 9.95111 9.91367 9.85577 10.035C9.76044 10.1563 9.69111 10.2647 9.64777 10.36C9.61311 10.4553 9.59577 10.555 9.59577 10.659L9.56977 11.309H8.63377ZM9.67377 13.87C9.52644 14.0173 9.34444 14.091 9.12777 14.091C8.91111 14.091 8.72477 14.0173 8.56877 13.87C8.42144 13.7227 8.34777 13.5407 8.34777 13.324C8.34777 13.1073 8.42144 12.9253 8.56877 12.778C8.72477 12.6307 8.91111 12.557 9.12777 12.557C9.34444 12.557 9.52644 12.6307 9.67377 12.778C9.82111 12.9253 9.89477 13.1073 9.89477 13.324C9.89477 13.5407 9.82111 13.7227 9.67377 13.87Z" fill="white"/>
</svg>
