<svg width="25" height="25" viewBox="0 0 25 25" fill="none" xmlns="http://www.w3.org/2000/svg">
<rect x="0.5" y="0.5" width="24" height="24" fill="white" stroke="#E0E0E0"/>
<path d="M12.4478 13.001L8.11465 8.66784C7.96209 8.51528 7.96209 8.26793 8.11465 8.1154C8.26721 7.96286 8.51455 7.96284 8.66709 8.1154L13.0002 12.4486L17.3334 8.1154C17.4859 7.96284 17.7333 7.96284 17.8858 8.1154C18.0384 8.26795 18.0384 8.5153 17.8858 8.66784L13.5527 13.001L17.8858 17.3341C18.0384 17.4867 18.0384 17.734 17.8858 17.8866C17.8096 17.9628 17.7096 18.001 17.6096 18.001C17.5096 18.001 17.4097 17.9628 17.3334 17.8866L13.0002 13.5534L8.66711 17.8866C8.59084 17.9628 8.49086 18.001 8.39088 18.001C8.2909 18.001 8.19094 17.9628 8.11465 17.8866C7.96209 17.734 7.96209 17.4867 8.11465 17.3341L12.4478 13.001Z" fill="black"/>
</svg>
