<svg xmlns="http://www.w3.org/2000/svg" viewBox="0 0 30 24"><path d="M0 2a2 2 0 012-2h26a2 2 0 110 4H2a2 2 0 01-2-2zm0 10a2 2 0 012-2h26a2 2 0 110 4H2a2 2 0 01-2-2zm2 8a2 2 0 100 4h26a2 2 0 100-4H2z"/><defs><linearGradient id="paint0_linear" x1="0" x2="1.51" y1="0" y2="25.68" gradientUnits="userSpaceOnUse"><stop stop-color="#EEE3DE"/><stop offset="1" stop-color="#EDE2DE"/></linearGradient><linearGradient id="paint1_linear" x1="0" x2="1.51" y1="0" y2="25.68" gradientUnits="userSpaceOnUse"><stop stop-color="#EEE3DE"/><stop offset="1" stop-color="#EDE2DE"/></linearGradient><linearGradient id="paint2_linear" x1="0" x2="1.51" y1="0" y2="25.68" gradientUnits="userSpaceOnUse"><stop stop-color="#EEE3DE"/><stop offset="1" stop-color="#EDE2DE"/></linearGradient></defs></svg>