<svg xmlns="http://www.w3.org/2000/svg" fill="none" viewBox="0 0 1080 811"><path fill="#FFBE21" d="M310.952 421.772h-16.578v281.766h16.578V421.772z"/><path stroke="#A15842" stroke-miterlimit="10" stroke-width="2.7" d="M310.959 425.647h-16.585"/><path fill="#4756DF" d="M219.145 647a24.58 24.58 0 0137.44-11.945A24.578 24.578 0 01265.558 647a24.577 24.577 0 0121.85-16.45 61.23 61.23 0 00-7.708-10.8l-8.924-10.037a20.334 20.334 0 01-2.7-23.173l7.574-14.074c-2.127 2.14-14.418 13.649-33.075 13.649-18.657 0-30.949-11.509-33.075-13.649h-.034l7.58 14.074a20.322 20.322 0 01-2.781 23.173l-8.917 9.996a61.515 61.515 0 00-7.728 10.8A24.588 24.588 0 01219.145 647zm69.62 14.222a24.581 24.581 0 00-23.207 16.497 24.575 24.575 0 00-8.969-11.954 24.576 24.576 0 00-28.474 0 24.577 24.577 0 00-8.97 11.954 24.589 24.589 0 00-29.349-15.721 61.139 61.139 0 0017.55 41.54h70.329a61.139 61.139 0 0017.55-41.445 24.481 24.481 0 00-6.46-.871z"/><path fill="#30242A" d="M242.521 586.142c18.657 0 30.949-11.509 33.075-13.649h-66.15c2.126 2.12 14.418 13.649 33.075 13.649z"/><path fill="#3EC1F3" d="M219.145 677.719a24.571 24.571 0 0146.413 0 24.573 24.573 0 0129.7-15.626 61.22 61.22 0 00-7.836-31.543 24.576 24.576 0 00-21.85 16.45 24.579 24.579 0 00-37.44-11.944A24.57 24.57 0 00219.159 647a24.59 24.59 0 00-21.526-16.43 61.207 61.207 0 00-7.823 31.428 24.59 24.59 0 0129.349 15.721h-.014z"/><path stroke="#30242A" stroke-linecap="round" stroke-miterlimit="10" stroke-width="2.7" d="M247.421 584.211c1.35-8.262 7.486-41.013 22.917-58.812M240.3 584.447c-.101-9.382-1.067-55.451-10.226-82.937"/><path fill="#30242A" d="M280.898 552.212c13.53-5.953 23.412-13.246 22.073-16.29-1.34-3.043-13.393-.685-26.923 5.268-13.529 5.953-23.411 13.247-22.072 16.29 1.339 3.044 13.393.686 26.922-5.268zm-.007-83.744c4.864-6.576 6.948-13.281 4.655-14.977-2.293-1.696-8.094 2.26-12.958 8.836-4.864 6.575-6.949 13.281-4.656 14.977 2.293 1.696 8.095-2.26 12.959-8.836zm-73.251 88.419c17.638-2.667 31.554-7.355 31.083-10.469-.471-3.115-15.151-3.478-32.789-.81-17.637 2.667-31.554 7.355-31.083 10.469.471 3.115 15.151 3.477 32.789.81z"/><path fill="#FF7235" d="M195.318 510.879v.048a11.94 11.94 0 01-9.747 21.701v.04c14.782 6.642 28.964 7.148 31.664 1.134 2.7-6.014-7.128-16.281-21.917-22.923zm43.706-48.141c-3.145-.817-7.236 3.942-10.226 11.306-3.598-8.943-8.816-14.931-12.332-13.77-3.517 1.161-4.145 9.072-1.708 18.401-6.791-4.131-12.906-5.522-14.951-2.99-2.606 3.226 2.416 11.596 11.218 18.704a50.394 50.394 0 008.046 5.359 11.942 11.942 0 017.709-8.377 11.934 11.934 0 0111.225 1.897 50.612 50.612 0 003.145-8.829c2.842-10.941 1.89-20.661-2.126-21.701zm68.621 49.687c-.972-3.105-7.176-4.05-15.006-2.7 5.684-7.783 8.006-15.376 5.164-17.746-2.842-2.369-9.895 1.283-16.524 8.283-.081-7.952-2.14-13.878-5.366-14.277-4.111-.506-8.566 8.188-9.943 19.407a50.597 50.597 0 00-.297 9.672 11.935 11.935 0 0115.525 12.643 51.167 51.167 0 009.16-2.025c10.78-3.355 18.522-9.301 17.287-13.257z"/><path fill="#30242A" d="M276.959 517.238a11.915 11.915 0 00-11.286-2.194c.385 5.339 1.735 9.45 3.767 10.942 1.897 1.755 6.284 2.342 11.745 1.701a11.916 11.916 0 00-4.226-10.449zm-50.058-25.907a11.936 11.936 0 00-7.83 8.417c4.725 2.498 8.924 3.51 11.286 2.592 2.491-.675 5.306-4.097 7.648-9.072a11.917 11.917 0 00-11.104-1.937z"/><path fill="#F5EBDD" d="M196.634 530.92a5.798 5.798 0 014.759-10.53 11.927 11.927 0 00-6.075-9.45l-9.767 21.688a11.943 11.943 0 0011.083-1.708z"/><path fill="#4856DF" d="M194.15 523.475a5.8 5.8 0 002.484 7.425 11.9 11.9 0 004.759-10.53 5.798 5.798 0 00-7.243 3.105z"/><path fill="#FFB7D5" d="M640.231 534.369H468.558l2.903-11.515h75.357l28.741-112.401a71.161 71.161 0 0168.938-53.528c38.671 0 66.967 36.45 57.375 73.913l-17.759 69.45a45.305 45.305 0 01-43.882 34.081z"/><path fill="#A15842" d="M469.888 640.743v12.19h109.41v-12.19h-109.41z"/><path fill="#A15842" d="M597.321 696.99l-28.458-169.391h-88.547L451.858 696.99a5.63 5.63 0 001.257 4.56 5.614 5.614 0 004.292 1.988 5.63 5.63 0 005.494-4.428l37.274-171.511h48.856l37.26 171.511a5.623 5.623 0 005.495 4.428 5.635 5.635 0 004.283-1.993 5.629 5.629 0 001.252-4.555z"/><path fill="#FFBE21" d="M560.527 640.743v12.19h109.411v-12.19H560.527z"/><path fill="#FFBE21" d="M687.96 696.99l-28.485-169.391h-88.513L542.504 696.99a5.63 5.63 0 001.257 4.56 5.614 5.614 0 004.292 1.988 5.61 5.61 0 003.525-1.246 5.613 5.613 0 001.963-3.182l37.26-171.511h48.863l37.26 171.511a5.621 5.621 0 0011.036-2.12z"/><path fill="#FFB7D5" d="M598.529 500.288l10.854-42.45h-71.934a63.523 63.523 0 00-61.54 47.776l-7.351 28.755h86.083a45.302 45.302 0 0043.888-34.081z"/><path stroke="#A15842" stroke-linecap="round" stroke-linejoin="round" stroke-width="2.7" d="M473.236 521.726h91.327m-17.421-.425l16.004-62.572m130.754-2.342h-43.2m51.3-30.375h-55.35"/><path fill="#FF7235" d="M500.384 412.296s-54.155 14.748-77.159 26.257c-37.928 18.961-37.8 31.475-60.925 101.534-21.351 64.746-23.7 96.126-53.15 97.368-22.484.945-29.855 8.303-33.5 18.387l88.972 42.215a4.417 4.417 0 004.104-7.817l-1.87-1.08c8.269-10.017 24.219-31.36 40.122-63.78l10.125 4.725s16.355-21.256 18.947-45.367c3.375-31.138 1.35-52.124 15.572-64.307L617.47 412.269l-117.086.027z"/><path fill="#30242A" d="M300.409 642.457c1.761-3.665 11.549-25.994 17.178-23.294 7.324 3.51-11.684 25.927-11.684 25.927l-5.494-2.633z"/><path fill="#30242A" d="M275.643 656.16l88.972 42.207a4.416 4.416 0 006.141-5.213 4.414 4.414 0 00-2.037-2.596l-1.87-1.08.189-.23-61.155-28.87a37.926 37.926 0 001.917-7.843c9.153 1.586 27.675 3.294 27.77-4.34.101-7.115-20.129-4.26-27.52-2.248a30.155 30.155 0 00-1.58-8.026c-20.391 1.404-27.33 8.559-30.827 18.239z"/><path fill="#FFB7D5" d="M423.225 438.553c-4.259 2.126-8.032 4.172-11.414 6.224l-5.191 16.625 19.98-14.074 18.421 14.688-6.791-20.135 20.865-9.558-16.126-2.025a200.824 200.824 0 00-19.744 8.255zm58.867-8.654l-1.35 8.796 8.802-3.382-7.452-5.414zm-50.767 43.997l-12.859 16.922-18.279-8.795 10.827 18.272-16.922 14.216 21.661-2.707 7.452 25.049 7.445-25.049 23.692-6.77-23.017-9.477v-21.661zm-72.293 129.208l1.58-4.509 21.6-1.147-17.55-11.948 7.816-18.717-17.678 11.785-3.375-3.645c-2.7 8.89-5.09 16.808-7.425 23.767h.108c.257-.763.513-1.532.769-2.315l14.155 6.729z"/><path fill="#EAA58B" d="M359.033 603.104l-14.175-6.702c-.257.783-.513 1.552-.77 2.315-8.566 25.515-16.369 38.272-34.924 39.055-.912 0-1.789.088-2.653.149a30.114 30.114 0 011.579 8.026c7.425-2.025 27.621-4.867 27.52 2.247-.108 7.635-18.616 5.927-27.769 4.341a37.893 37.893 0 01-1.938 7.843l61.155 28.87c8.316-10.125 24.132-31.361 39.913-63.511l-47.938-22.633z"/><path fill="#FFB7D5" d="M413.046 551.744l-2.025 18.279-18.954-.675 16.247 12.19-6.075 21.661 16.261-14.222 14.614 9.747a75.004 75.004 0 001.113-3.922l-5.602-13.952 8.68-9.511c.142-1.768.277-3.51.405-5.204l-15.16 2.531-9.504-16.922zm-42.221-37.996c-1.708 5.279-3.544 11.009-5.569 17.24l18.009 1.1-12.44-18.34z"/><path fill="#30242A" d="M434.417 678.651c.283-4.05 1.167-28.418 7.391-27.979 8.1.567-1.316 28.404-1.316 28.404l-6.075-.425z"/><path fill="#FF7235" d="M584.327 413.288s-67.696 12.555-104.929 28.12c-37.59 15.721-37.226 43.639-30.462 119.475 6.075 67.892 16.929 100.859-5.4 111.011-20.48 9.315-27.594 20.992-26.622 31.671h100.811a4.319 4.319 0 003.059-1.268 4.319 4.319 0 000-6.119 4.327 4.327 0 00-3.059-1.267h-1.701c3.179-10.402 7.789-30.706 8.424-64.307h12.501s6.426-29.7-.675-56.187c-7.425-27.749-14.216-32.488-18.272-51.442h60.662c46.325 0 81-42.849 70.922-88.06-3.145-14.128-7.708-21.6-7.708-21.6l-57.551-.027z"/><path fill="#FFB7D5" d="M542.356 452.91l-12.427 15.633-19.352-6.648 11.468 18.771-14.891 20.311 19.629-8.127 10.942 20.169 1.242-22.201 18.954-4.056-16.24-10.159.675-23.693zm-27.041 120.677l11.475 18.771-14.89 20.311 19.629-8.1 7.276 13.412c1.067-10.422 1.593-25.839-1.809-40.641l-2.322 2.922-19.359-6.675zm-50.611 56.99l-.871-10.463 21.978-8.478-20.804-4.313 2.295-22.835-13.5 17.665-.405-.169c1.296 10.901 2.43 20.425 3.065 28.667v-.074h8.242z"/><path fill="#EAA58B" d="M517.725 694.884h-1.701c3.179-10.401 7.79-30.705 8.424-64.307h-68.006v.061c.054.675.101 1.35.148 2.025v.189c1.411 21.094-.891 33.433-13.081 38.974-20.48 9.315-27.594 20.993-26.622 31.671h100.838a4.33 4.33 0 004.327-4.326 4.328 4.328 0 00-4.327-4.327v.04z"/><path fill="#FFB7D5" d="M607.986 415.036l-31.097 2.754 3.24 12.501-19.893 10.611 24.78 3.314 8.383 18.569 8.62-19.23 25.204-3.983-21.89-11.272 2.653-13.264zm-148.217 87.966l7.425-23.693 21.661 3.375-16.922-14.89 12.15-14.216-22.336 8.1-3.571-6.122c-5.744 6.507-9.213 14.587-11.07 24.975l3.807.122 8.856 22.349zm57.956-74.324a497.228 497.228 0 00-13.561 3.969l17.894 12.15-4.333-16.119zM488.2 538.203l-9.477-19.629-4.738 21.661-17.597-1.35 16.24 14.215-10.152 23.693 17.624-16.43 14.607 16.842-4.475-25.461 14.891-19.629-16.923 6.088z"/><path fill="#30242A" d="M448.018 686.967c8.95-2.471 26.419-8.829 23.26-15.775-2.943-6.48-20.02 4.725-25.846 9.713a29.829 29.829 0 00-5.568-7.276c-17.672 8.997-23.875 19.892-22.95 29.909h100.811a4.327 4.327 0 000-8.653h-68.108a38.363 38.363 0 00-1.599-7.918z"/><path stroke="#A15842" stroke-linecap="round" stroke-miterlimit="10" stroke-width="2.7" d="M517.725 524.467l-17.429-.243m30.389-98.503c-18.056 4.604-37.354 10.253-51.975 16.355-31.185 13.062-36.241 34.5-33.21 84.774"/><path fill="#FFBE21" d="M759.834 421.772h-16.578v281.766h16.578V421.772z"/><path stroke="#A15842" stroke-miterlimit="10" stroke-width="2.7" d="M759.834 425.647h-16.578"/><path fill="#A15842" d="M519.338 209.897c-9.45-1.35-31.097 8.808-31.812 28.89-.716 20.081 17.212 26.534 20.081 27.972l41.6-6.46 2.869-45.9-32.738-4.502zm73.494-49.869c17.857 0 32.333-14.476 32.333-32.333s-14.476-32.332-32.333-32.332-32.332 14.475-32.332 32.332 14.475 32.333 32.332 32.333z"/><path fill="#30242A" d="M571.86 149.93c1.971.911-14.627-38.475-23.099-32.333-7.971 5.799 13.089 27.716 23.099 32.333z"/><path fill="#30242A" d="M572.778 152.339c1.809 2.16 44.159-12.656 38.3-21.201-5.603-8.222-40.109 19.035-38.3 21.201z"/><path fill="#EAA58B" d="M628.998 260.663s28.431-23.692 10.125-50.091c-11.65-16.828-43.328-10.125-43.328-10.125.77-9.241 3.281-35.863-16.74-50.49-20.02-14.628-45.421-6.926-54.675 4.617-9.254 11.542-6.925 33.108-10.003 48.505-3.078 15.397-1.026 25.866 8.464 30.794 8.633 4.482 18.792 1.775 18.792 1.775l-1.08 16.247s-19.575.736-31.57 5.076c-28.903 10.463-79.683 82.215-79.683 82.215-31.813-1.35-61.601-2.7-61.601-2.7l15.572 46.035s39.258 12.859 67.689 5.4c28.843-7.553 56.187-48.06 56.187-48.06l9.45 27.074-16.247 45.354h141.48l-23.692-41.972c4.097-37.219 10.86-109.654 10.86-109.654z"/><path fill="#4756DF" d="M583.537 250.208l-37.125 67.317-15.187-64.955c-6.676.675-15.573 1.985-22.174 4.374-28.971 10.49-79.751 82.242-79.751 82.242-31.813-1.35-61.601-2.7-61.601-2.7l15.572 46.035s39.258 12.859 67.689 5.4c28.843-7.553 56.187-48.06 56.187-48.06l9.45 27.074-16.247 45.354h141.48l-23.692-41.965c4.05-37.233 10.8-109.667 10.8-109.667a65.64 65.64 0 00-20.304-8.1c-8.08-1.823-16.963-.736-25.097-2.349z"/><path fill="#30242A" d="M391.277 407.557h117.234l-26.656-84.186a12.234 12.234 0 00-11.67-8.552h-99.077a12.243 12.243 0 00-9.882 5.009 12.245 12.245 0 00-1.789 10.934l22.032 69.62a10.29 10.29 0 009.808 7.175z"/><path fill="#A15842" d="M408.746 352.902c3.112-4.252 17.226 6.98 18.266 7.904.54-.924 7.891-12.15 13.277-7.904 4.678 3.686-5.602 20.149-8.336 24.347a1.226 1.226 0 01-1.405.299 1.226 1.226 0 01-.411-.299c-4.988-4.198-24.091-20.661-21.391-24.347z"/><path fill="#A15842" d="M425.849 355.749c1.178-.367 1.223-3.587.1-7.193-1.123-3.605-2.989-6.231-4.167-5.864s-1.223 3.588-.1 7.193c1.123 3.606 2.989 6.231 4.167 5.864z"/><path fill="#30242A" d="M576.585 398.08a7.29 7.29 0 01-1.083 6.478 7.283 7.283 0 01-5.856 2.972H391.277a10.29 10.29 0 01-9.808-7.175l-.729-2.302 195.845.027z"/><path fill="#FFBE21" d="M788.4 407.557H265.808v16.922H788.4v-16.922z"/><path fill="#FFB7D5" d="M684.106 500.288l10.854-42.45h-63.315a63.509 63.509 0 00-38.951 13.347 63.524 63.524 0 00-22.582 34.429l-7.358 28.755h77.457a45.312 45.312 0 0043.895-34.081z"/><path stroke="#A15842" stroke-linecap="round" stroke-linejoin="round" stroke-width="2.7" d="M564.253 523.239l-2.504 10.584"/><path fill="#EAA58A" d="M362.057 338.923c-7.878 3.935-11.813 10.496-11.813 15.093 0 6.71 6.831 7.972 6.831 7.972s-5.096 8.012 3.767 11.772c0 0 0 8.248 8.255 8.248 0 0-1.094 6.433 7.519 7.041 8.613.607 17.476-3.888 18.225-6.798.858-3.435-1.458-6.311-7.708-7.222 0 0 8.437-3.942 7.101-8.917-1.337-4.975-7.04-4.86-7.04-4.86s5.46-3.274 2.544-8.1-8.491-3.152-8.491-3.152 1.458-3.375-1.094-5.947c-3.037-3.037-16.098.797-16.098.797l-1.998-5.927z"/><path stroke="#A15842" stroke-linecap="round" stroke-miterlimit="10" stroke-width="2.7" d="M369.157 382.325a98.43 98.43 0 0020.561-7.425m-28.897-1.181a105.3 105.3 0 0027.932-12.238m-32.353 1.465a87.196 87.196 0 0025.542-12.373"/><path fill="#A15842" d="M639.158 210.572c-11.651-16.828-43.329-10.125-43.329-10.125.77-9.241 3.281-35.863-16.74-50.49-20.02-14.628-45.42-6.926-54.675 4.617-3.766 4.725-5.609 11.083-6.682 18.022 6.142 1.033 15.154-1.08 15.154-1.08 12.318 13.858 23.355 16.058 23.355 16.058 8.619-8.619 23.739-8.336 26.196 4.725 2.552 13.561-19.109 19.656-19.109 19.656s-2.025 24.368 8.775 33.17a25.367 25.367 0 0011.401 5.11c8.1 1.613 17.017.526 25.157 2.335a65.64 65.64 0 0120.304 8.1 51.994 51.994 0 006.75-7.195c7.101-9.005 15.593-25.353 3.443-42.903z"/><path stroke="#EAA58B" stroke-linecap="round" stroke-miterlimit="10" stroke-width="2.7" d="M545.737 166.575c-4.05 3.375-8.775 5.4-14.215 6.75"/><path stroke="#A15842" stroke-linecap="round" stroke-miterlimit="10" stroke-width="2.7" d="M541.411 237.167a50.307 50.307 0 009.051-4.05m13.696-34.776l6.156-3.848m-41.479 21.917c1.276.79 6.075 1.404 7.979-2.261"/><path fill="#30242A" d="M541.377 199.09a2.308 2.308 0 100-4.616 2.308 2.308 0 000 4.616zm-19.136-3.058a2.308 2.308 0 100-4.615 2.308 2.308 0 000 4.615z"/><path stroke="#A15842" stroke-linecap="round" stroke-miterlimit="10" stroke-width="2.7" d="M528.741 202.641c-.459 1.451-.857 3.03-.594 3.557a3.892 3.892 0 001.58 1.573"/><path fill="#F5EBDD" d="M567.054 220.96a8.087 8.087 0 10-.001-16.173 8.087 8.087 0 00.001 16.173z"/><path stroke="#30242A" stroke-linecap="round" stroke-miterlimit="10" stroke-width="2.7" d="M528.152 195.022c1.399-7.191-2.714-14.041-9.188-15.3-6.473-1.26-12.855 3.548-14.254 10.739-1.399 7.19 2.715 14.04 9.188 15.3 6.474 1.259 12.855-3.549 14.254-10.739zm29.329 3.596c1.399-7.191-2.714-14.041-9.187-15.3-6.474-1.26-12.856 3.548-14.255 10.739-1.399 7.19 2.715 14.04 9.188 15.3 6.474 1.259 12.855-3.549 14.254-10.739zm-28.774-4.685l4.664.499m64.004 6.906l-1.343 8.64"/><path stroke="#30242A" stroke-linecap="round" stroke-linejoin="round" stroke-width="2.7" d="M499.709 322.264l6.534 19.015m27.986 24.307H517.05m30.719-48.736l5.414 26.4v24.367"/><path stroke="#30242A" stroke-linecap="round" stroke-linejoin="round" stroke-width="2.7" d="M511.765 256.357l10.28 23.26-12.184-1.35 43.322 64.983m58.745-89.66l-17.449 24.678 16.247-1.357-59.575 52.798M621 336.338l-12.98-18.131m27.999 84.956c-7.067-2.356-19.751-6.906-27.398-11.475"/><path fill="#FFB7D5" d="M441.079 235.203c7.332 0 13.277-5.945 13.277-13.278s-5.945-13.277-13.277-13.277c-7.333 0-13.278 5.944-13.278 13.277 0 7.333 5.945 13.278 13.278 13.278z"/><path fill="#4756DF" d="M401.397 169.086l-7.73-9.321a3.375 3.375 0 00-4.753-.443l-.166.138a3.374 3.374 0 00-.443 4.752l7.73 9.321a3.375 3.375 0 004.752.444l.167-.138a3.376 3.376 0 00.443-4.753z"/><path fill="#3EC1F3" d="M415.3 180.413l-7.776-9.383-139.772 115.898a5.973 5.973 0 00-.783 8.41l.155.189a5.97 5.97 0 008.404.783l43.699-36.247v127.19h12.198V249.938l83.875-69.525z"/><path stroke="#4756DF" stroke-miterlimit="10" stroke-width="2.7" d="M392.776 183.113l3.895 4.725a16.713 16.713 0 013.037 5.548"/><path fill="#4756DF" d="M325.323 262.877c8.787 0 15.91-7.123 15.91-15.909 0-8.787-7.123-15.91-15.91-15.91-8.787 0-15.91 7.123-15.91 15.91 0 8.786 7.123 15.909 15.91 15.909z"/><path fill="#3EC1F3" d="M325.323 253.083a6.115 6.115 0 10.001-12.231 6.115 6.115 0 00-.001 12.231z"/><path stroke="#A15842" stroke-miterlimit="10" stroke-width="2.7" d="M451.98 214.385l-20.351 16.822"/><path fill="#3EC1F3" d="M425.615 178.712a16.752 16.752 0 01-10.949-5.954l-5.4-6.527a11.269 11.269 0 00-18.632 1.932 11.246 11.246 0 00-.8 8.582 11.251 11.251 0 002.091 3.863l5.4 6.548a16.748 16.748 0 013.801 11.826l-1.35 19.737a45.162 45.162 0 006.993 27.432l1.728 2.7 64.752-53.71-2.322-2.18a45.134 45.134 0 00-25.65-11.954l-19.662-2.295zm-94.19 208.541h-12.197l-18.029 4.914a15.953 15.953 0 00-11.752 15.39h71.752a15.95 15.95 0 00-11.758-15.39l-18.016-4.914z"/><path stroke="#4756DF" stroke-linecap="round" stroke-miterlimit="10" stroke-width="2.7" d="M460.964 185.59l-59.258 48.978m-82.775 151.288h12.494m-39.609 13.263h66.609"/><path fill="#30242A" d="M675.716 581.693c1.35-11.475.675-37.233-14.216-56.862-14.89-19.629 5.4-11.475 11.475-6.075 9.72 8.64 18.279 16.923 25.724 44.679l-22.983 18.258z"/><path fill="#A15842" d="M855.515 703.538h79.468v-2.599a13.82 13.82 0 00-13.817-13.81h-66.062l.411 16.409z"/><path fill="#A15842" d="M661.662 627.668l16.76 75.87h31.144v-4.725a11.506 11.506 0 00-11.475-11.509s15.566-11.671 25.043-23.18c0 0 16.247 19.798 39.265 16.41l1.667 8.1a18.675 18.675 0 0018.259 14.904h75.485c33.48 0 49.95-5.11 50.895-24.172a5.407 5.407 0 00-1.503-3.959 5.407 5.407 0 00-3.897-1.657h-21.074a5.796 5.796 0 01-4.529-2.167l-8.971-11.131a22.11 22.11 0 00-22.659-7.539l-18.043 4.61s-31.968-45.941-60.926-77.848c-27.675-30.463-79.731-33.75-100.237 5.927a62.36 62.36 0 00-5.204 42.066z"/><path stroke="#30242A" stroke-miterlimit="10" stroke-width="2.7" d="M850.365 703.538v-2.599a13.817 13.817 0 00-8.53-12.761 13.804 13.804 0 00-5.287-1.049h-9.201"/><path stroke="#30242A" stroke-linecap="round" stroke-miterlimit="10" stroke-width="2.7" d="M724.39 664.664c4.725-5.622 20.85-26.325 19.696-46.575-1.235-21.667-14.215-33.169-14.215-33.169m28.431 67.007s.864 16.018 2.598 27.979m-67.581 16.7v6.257m7.446-6.257v6.257m134.709-6.257v6.257m7.446-6.257v6.257"/><path fill="#30242A" d="M862.886 678.327a3.044 3.044 0 100-6.089 3.044 3.044 0 000 6.089zm-16.612-25.475v-.081l-18.272 4.725 18.043-4.61.229-.034z"/><path fill="#30242A" d="M801.306 687.432c-5.292 2.7-12.771 7.986-12.15 15.991h29.389l6.177-9.74a11.196 11.196 0 019.45-5.204h1.964l10.071-35.424-.149-.156-18.042 4.611-17.274 22.126a28.433 28.433 0 01-9.436 7.796z"/><path fill="#EAA58B" d="M758.383 596.213s-8.175 28.296 18.225 38.981c13.385 5.4 24.502 1.303 32.217-4.05-11.657-15.525-27.081-35.289-41.728-51.435a70.995 70.995 0 00-12.299-10.739c-3.996 5.44-8.37 18.9 3.585 27.243zm-67.433 20.52c6.17 0 11.171-5.002 11.171-11.171 0-6.17-5.001-11.172-11.171-11.172-6.17 0-11.171 5.002-11.171 11.172 0 6.169 5.001 11.171 11.171 11.171z"/><path fill="#30242A" d="M903.332 673.75h-4.05a7.807 7.807 0 004.307 8.561 7.815 7.815 0 003.327.754c.476 0 .951-.045 1.418-.135.206-1.178.339-2.369.398-3.564a5.41 5.41 0 00-1.503-3.959 5.412 5.412 0 00-3.897-1.657z"/><path stroke="#30242A" stroke-linecap="round" stroke-miterlimit="10" stroke-width="2.7" d="M919.411 696.606v6.102m7.445-6.102v6.102"/><path stroke="#30242A" stroke-linecap="round" stroke-linejoin="round" stroke-width="2.7" d="M878.56 702.728c16.551-1.667 26.419-6.149 30.003-15.687"/><path fill="#EAA58A" d="M608.695 347.59a160.29 160.29 0 00-25.05-.277c-11.934.979-27.978 4.104-34.425 7.223-6.446 3.118-31.131 14.128-24.482 17.82 6.075 3.375 18.819-1.701 18.819-1.701s-12.717 11.691-14.904 16.584c-2.187 4.894 5.042 7.642 5.042 7.642 1.904 8.356 10.422 4.765 10.422 4.765 5.367 11.414 34.358-13.318 34.358-13.318a71.294 71.294 0 0020.675-.87s3.672 2.058 9.565 4.92l-.02-42.788z"/><path fill="#4756DF" d="M681.122 404.85c54.156-25.724-24.347-121.837-52.123-144.186l-15.566 62.957 19.629 27.074c-8.599-1.485-16.821-2.504-24.367-3.105v42.788c17.185 8.357 53.298 23.585 72.427 14.472z"/><path stroke="#A15842" stroke-linecap="round" stroke-miterlimit="10" stroke-width="2.7" d="M540.965 371.364c4.806-3.976 12.785-10.402 18.738-14.277m6.561 9.498c-13.831 8.957-26.433 20.925-32.67 27.189m38.806-17.058c-9.45 6.487-20.419 16.322-27.581 23.072"/><path fill="#3EC1F3" d="M734.872 373.078a3.869 3.869 0 013.861 3.861v.574a3.867 3.867 0 01-3.861 3.861H714.98v-8.296h19.892zm0-5.4h-24.563a.725.725 0 00-.675.455.71.71 0 00-.054.281v17.651a.727.727 0 00.729.729h24.563a9.256 9.256 0 008.562-5.731 9.257 9.257 0 00.699-3.55v-.594a9.26 9.26 0 00-9.261-9.261v.02z"/><path fill="#3EC1F3" d="M705.172 364.769c-20.115 0-29.409-16.031-29.409-16.031l13.5 58.819h31.779l13.5-58.819a34.546 34.546 0 01-12.613 11.811 34.536 34.536 0 01-16.757 4.22z"/><path fill="#30242A" d="M705.172 364.769a34.53 34.53 0 0029.41-16.031h-58.819s9.294 16.031 29.409 16.031z"/></svg>