<svg xmlns="http://www.w3.org/2000/svg" fill="none" viewBox="0 0 236 190"><path fill="#FFB7D5" d="M94.007 95.165h102.439a4.343 4.343 0 014.342 4.345v89.658H89.665V99.51a4.348 4.348 0 014.342-4.345z"/><path fill="#A15842" d="M160.399 105.477v15.257h-60.43v-15.257h60.43zm.869-.869H99.101v16.995h62.167v-16.995z"/><path fill="#A15842" d="M130.184 115.728a2.621 2.621 0 002.621-2.622 2.621 2.621 0 10-2.621 2.622zm30.215 16.187v46.943h-60.43v-46.943h60.43zm.869-.869H99.101v48.682h62.167v-48.682z"/><path fill="#A15842" d="M121.168 158.008a2.621 2.621 0 002.62-2.622 2.621 2.621 0 10-2.62 2.622zm18.033 0a2.621 2.621 0 002.62-2.622 2.621 2.621 0 10-2.62 2.622z"/><path stroke="#A15842" stroke-miterlimit="10" stroke-width=".84" d="M130.341 131.466v47.842"/><path fill="#A15842" d="M191.355 104.608h-20.651v75.12h20.651v-75.12z"/><path stroke="#FFB7D5" stroke-miterlimit="10" stroke-width=".84" d="M191.354 142.166h-20.757"/><path fill="#3EC1F3" d="M12.603 95.165h72.878a4.34 4.34 0 014.342 4.345v89.658H8.261V99.51a4.347 4.347 0 014.342-4.345z"/><path fill="#30242A" d="M77.348 121.603H20.736v58.124h56.612v-58.124z"/><path fill="#4756DF" d="M77.348 179.727H20.737L.819 139.02h56.61l19.919 40.707z"/><path fill="#30242A" d="M40.445 95.165H20.736l2.098-4.407h15.514l2.097 4.407zm36.902 0H57.64l2.097-4.407H75.25l2.097 4.407z"/><path fill="#F5EBDD" d="M24.616 112.371a3.881 3.881 0 003.88-3.883 3.882 3.882 0 00-3.88-3.883 3.882 3.882 0 00-3.88 3.883 3.881 3.881 0 003.88 3.883z"/><path stroke="#30242A" stroke-linecap="round" stroke-miterlimit="10" stroke-width=".84" d="M20.317 108.488h3.146"/><path fill="#F5EBDD" d="M40.898 112.371a3.881 3.881 0 003.88-3.883 3.882 3.882 0 00-3.88-3.883 3.882 3.882 0 00-3.88 3.883 3.881 3.881 0 003.88 3.883z"/><path stroke="#30242A" stroke-linecap="round" stroke-miterlimit="10" stroke-width=".84" d="M40.898 104.188v3.147"/><path fill="#F5EBDD" d="M57.185 112.371a3.881 3.881 0 003.88-3.883 3.882 3.882 0 00-3.88-3.883 3.882 3.882 0 00-3.88 3.883 3.881 3.881 0 003.88 3.883z"/><path stroke="#30242A" stroke-linecap="round" stroke-miterlimit="10" stroke-width=".84" d="M57.185 104.188v3.147"/><path fill="#F5EBDD" d="M73.469 112.371a3.881 3.881 0 003.88-3.883 3.882 3.882 0 00-3.88-3.883 3.882 3.882 0 00-3.88 3.883 3.881 3.881 0 003.88 3.883z"/><path stroke="#30242A" stroke-linecap="round" stroke-miterlimit="10" stroke-width=".84" d="M73.469 104.188v3.147"/><path fill="#30242A" d="M49.092 146.784h-29.56a1.363 1.363 0 100 2.727h29.56a1.364 1.364 0 000-2.727z"/><path fill="#A15842" d="M90.295 11.443c-3.867 2.488-1.257 7.763 2.305 7.972a14.21 14.21 0 01.422 10.073h5.427l.02-2.288c4.963 1.236 6.791-.715 7.753-2.477 1.085-1.999.764-3.87.392-6.301 0 0 1.774-.706 1.64-1.777-.109-.87-2-1.189-2-1.189a25.68 25.68 0 01-.059-1.188 29.605 29.605 0 00-.238-3.26c-4.169 2.223-9.36 3.377-9.36 3.377s-3.367-4.832-6.302-2.942zm64.611 79.074c2.273.87 3.949-.597 3.53-1.438-.273-.548-8.139-6.453-16.257-12.455l-9.298 11.605c2.134.82 3.541 1.282 3.541 1.282s2.305 3.566 5.662 5.665c0 0 3.563 8.602 5.449 8.393 1.268-.141-.419-5.036-.838-7.135 0 0 4.195 7.135 6.919 7.135.63 0 1.21-.434 1.257-1.469 0 0 1.383.381 1.889-.63.217-.419.217-1.049.217-1.469 0 0 1.086.302 1.679-.419.998-1.208-1.19-5.202-3.75-9.065z"/><path fill="#FF7235" d="M67.44 53.619c-.11-.096-.233-.2-.37-.313.121.104.243.209.37.313z"/><path fill="#FF7235" d="M124.266 63.481s-9.675-22.282-13.628-27.488c-3.988-5.247-12.208-4.96-12.208-4.96l.013-1.545h-5.428s5.862 11.75-5.243 16.787c-4.193 13.638-17.193 10.07-20.337 7.344-1.26 2.307-7.549 12.589-4.194 20.352 2.935 6.084 13.42 4.826 13.42 4.826l2.096-4.406h26.633-8.49l6.814-14.888 2.315 5.656s2.941 7.546 9.225 13.43c4.487 4.202 12.874 7.802 17.635 9.63l9.299-11.595a3735.776 3735.776 0 00-17.922-13.143z"/><path stroke="#30242A" stroke-linecap="round" stroke-linejoin="round" stroke-width=".84" d="M77.42 64.868l-4.318 1.97m5.87 8.394l-2.816-18.98"/><path fill="#FFBE21" d="M96.899 74.382l8.491.009.63-9.232-2.306-5.665-6.815 14.888zm4.532-72.312C99.319.886 96.003-.289 92.258.878c-6.867 2.14-8.185 8.091-9.092 12.033-.63 2.726-1.26 5.866-1.26 5.866s-11.74.839-10.481 12.8c-6.242 1.428-12.783 9.834-7.766 17.867a16.642 16.642 0 003.41 3.852c.138.113.262.218.372.313 3.144 2.727 16.144 6.301 20.336-7.344C98.891 41.23 93.02 29.48 93.02 29.48a14.21 14.21 0 00-.42-10.073c-3.564-.217-6.173-5.484-2.307-7.972 2.936-1.89 6.296 2.957 6.296 2.957s5.191-1.153 9.36-3.376v-.024c0-.007 3.339-1.612 4.257-4.593 1.683-5.448-5.236-8.385-8.775-4.329z"/><path stroke="#30242A" stroke-linecap="round" stroke-linejoin="round" stroke-width=".84" d="M105.696 65.483c-1.19-2.797-3.226-7.762-4.498-11.864m45.196 43.051l-.748-1.716m9.232 6.964c-1.364-1.78-4.195-5.767-6.513-8.852m8.901 6.679c-1.667-2.453-4.222-6.301-5.957-8.776m4.092-.548a117.072 117.072 0 00-2.605-3.84"/><path stroke="#CA7358" stroke-linecap="round" stroke-linejoin="round" stroke-width=".84" d="M102.005 1.91c.482.342 1.021.74 1.498 1.14M81.377 19.022l-.518 2.492m-9.861 10.457c.338 1.72.98 3.366 1.895 4.86"/><path stroke="#30242A" stroke-linecap="round" stroke-linejoin="round" stroke-width=".84" d="M98.347 27.609a14.043 14.043 0 01-2.401-1.104"/><path fill="#F5EBDD" d="M113.777 117.373a3.872 3.872 0 01-3.46 2.131 3.87 3.87 0 01-3.459-2.131 3.88 3.88 0 01-3.46 2.131 3.874 3.874 0 01-3.46-2.131 3.873 3.873 0 01-6.917 0 3.917 3.917 0 01-.54.797c5.782 15.603 2.217 23.158.54 38.265a64.177 64.177 0 00-.29 9.652h20.058c.729-6.362 2.23-14.955 3.087-25.611a7.556 7.556 0 01.417-15.092h.217c0-2.034-.063-4.03-.165-5.988a3.87 3.87 0 01-1.507-.728 3.868 3.868 0 01-1.061-1.295zm-27.677 0a3.874 3.874 0 01-6.918 0 3.874 3.874 0 01-6.92 0 3.881 3.881 0 01-2.667 2.05 3.866 3.866 0 01-3.264-.811c-1.954 5.762-4.205 7.62-14.196 22.925a81.59 81.59 0 00-6.748 12.763l18.02 9.167c3.758-6.267 9.474-13.885 14.242-21.511a7.559 7.559 0 01-2.89-10.002 7.545 7.545 0 019.837-3.387c1.616-3.843 2.777-7.209 3.504-9.343a3.894 3.894 0 01-2-1.851z"/><path fill="#30242A" d="M90.034 119.474c.124-.015.247-.035.369-.061h.026c.117-.027.232-.06.345-.098l.057-.015c.12-.043.239-.089.354-.143h.015c.115-.054.217-.113.336-.178l.02-.013c.113-.067.222-.14.328-.218.215-.162.412-.347.588-.552.212-.242.394-.51.54-.797a3.873 3.873 0 006.917 0 3.879 3.879 0 003.46 2.131 3.877 3.877 0 003.46-2.131 3.872 3.872 0 003.46 2.131 3.87 3.87 0 003.459-2.131 3.888 3.888 0 002.564 2.025 125.83 125.83 0 00-2.194-17.547 12.068 12.068 0 01-9.375-1.263c-6.016-3.44-7.523-20.27-7.87-26.23h-18.13C68.28 83.827 68.49 111.945 66.498 118.11c-.054.169-.11.332-.165.495a3.877 3.877 0 005.931-1.239 3.876 3.876 0 005.491 1.556 3.876 3.876 0 001.429-1.556 3.876 3.876 0 005.49 1.556 3.876 3.876 0 001.43-1.556 3.898 3.898 0 001.99 1.843c.225.095.46.167.7.217h.034c.1.02.2.035.302.046h.082c.115 0 .232.017.35.017.117 0 .258 0 .386-.019l.087.004z"/><path fill="#FF7235" d="M95.957 186.439h17.192s.617-4.067 2.794-6.722c-1.7-1.232-3.08-2.762-3.423-5.239-.293-2.114-.126-4.921.269-8.393H92.731a93.034 93.034 0 003.226 20.354zm-56.402-12.385l-.54-.269a1.43 1.43 0 00-.168-.07l16.092 8.231s2.388-3.277 5.465-4.615a12.594 12.594 0 01-.932-2.647c-.59-2.607 1.125-6.544 3.932-11.224l-18.02-9.167c-4.609 10.896-5.83 19.761-5.83 19.761z"/><path fill="#30242A" d="M95.956 186.439h-.525a1.372 1.372 0 00-.999.38 1.36 1.36 0 00-.31 1.518 1.363 1.363 0 001.309.829h28.834c0-5.649-4.833-6.922-8.318-9.449-2.171 2.655-2.794 6.722-2.794 6.722H95.956zm-41.016-4.487l-16.093-8.23a1.317 1.317 0 00-1.018 2.423l25.619 13.023c2.46-5.099-1.058-7.635-3.053-11.831-3.068 1.339-5.456 4.615-5.456 4.615z"/><path fill="#FFBE21" d="M108.747 132.934a7.549 7.549 0 007.129 7.542c.343-4.282.584-8.908.628-13.836v-1.254h-.217a7.55 7.55 0 00-7.54 7.548zm-34.807 2.519a7.55 7.55 0 003.708 6.501c.523-.839 1.037-1.678 1.535-2.514a89.017 89.017 0 005.405-10.875 7.543 7.543 0 00-9.718 3.28 7.56 7.56 0 00-.92 3.608h-.01zm30.823-34.839a12.07 12.07 0 009.383 1.23c-3.256-16.615-8.755-27.46-8.755-27.46h-8.498c.347 5.967 1.854 22.797 7.87 26.23z"/><path stroke="#30242A" stroke-linecap="round" stroke-linejoin="round" stroke-width=".84" d="M104.767 20.439c-.365.185-1.674.24-2.11-.805"/><path fill="#30242A" d="M103.923 15.85a.63.63 0 10-.002-1.26.63.63 0 00.002 1.26z"/><path stroke="#30242A" stroke-linecap="round" stroke-linejoin="round" stroke-width=".84" d="M91.973 15.008l2.095 1.47"/><path stroke="#30242A" stroke-linecap="round" stroke-miterlimit="10" stroke-width=".84" d="M78.553 74.39h26.837"/><path stroke="#A15842" stroke-linecap="round" stroke-linejoin="round" stroke-width=".84" d="M86.256 75.02s4.91 7.028 2.605 7.786c-2.132.7-2.55-4.548-2.605-7.785zm-.151 0s-2.519 6.302-4.406 5.246c-1.228-.682 1.887-3.77 4.406-5.245z"/><path fill="#30242A" d="M47.627 73.341H13.87a1.363 1.363 0 100 2.727h33.756a1.364 1.364 0 000-2.727z"/><path fill="#FFB7D5" d="M30.749 74.182c-9.854 0-14.257-7.135-14.257-7.135v17.617a6.097 6.097 0 001.783 4.299 6.088 6.088 0 004.296 1.785h16.332a6.097 6.097 0 006.09-6.084V67.047s-4.392 7.135-14.244 7.135z"/><path fill="#A15842" d="M30.749 74.182c9.852 0 14.255-7.135 14.255-7.135H16.492s4.403 7.135 14.257 7.135z"/><path fill="#30242A" d="M31.061 67.047a2.622 2.622 0 002.62-2.623 2.621 2.621 0 10-2.62 2.623z"/><path fill="#F5EBDD" d="M31.272 50.681a3.881 3.881 0 003.88-3.883 3.881 3.881 0 00-3.88-3.882 3.881 3.881 0 00-3.88 3.883 3.881 3.881 0 003.88 3.882zm.068-11.644a5.716 5.716 0 005.714-5.718 5.716 5.716 0 00-5.714-5.72 5.716 5.716 0 00-5.715 5.72 5.716 5.716 0 005.715 5.718z"/><path fill="#3EC1F3" d="M221.964 137.769s-1.995 4.493-7.231 4.493c-5.237 0-7.23-4.493-7.23-4.493s-14.711 33.691-.25 51.408h14.963c14.462-17.73-.252-51.408-.252-51.408z"/><path fill="#30242A" d="M214.735 142.254c5.237 0 7.232-4.494 7.232-4.494h-14.464s1.996 4.494 7.232 4.494z"/><path stroke="#F5EBDD" stroke-linecap="round" stroke-linejoin="round" stroke-width=".84" d="M228.26 167.753c-8.139.146-17.763 3.086-25.184 13.472m-1.302-21.728c5.462-1.334 15.809-2.608 25.835-.218m-.049 17.124c-3.641.041-10.371 4.17-9.629 12.491"/><path stroke="#30242A" stroke-miterlimit="10" stroke-width=".84" d="M219.243 104.825l-4.004 35.036m5.94-20.963l-5.032 20.677"/><path fill="#30242A" d="M210.679 128.421c.456-1.069-2.788-3.483-7.246-5.39-4.458-1.908-8.443-2.588-8.9-1.519-.457 1.069 2.787 3.483 7.246 5.39 4.458 1.908 8.443 2.588 8.9 1.519zm16.691 1.852c4.705-1.775 8.199-4.062 7.805-5.107-.394-1.046-4.527-.454-9.231 1.321s-8.198 4.062-7.805 5.107c.394 1.046 4.527.454 9.231-1.321zm-10.096-7.374c.507-.701-.935-2.613-3.221-4.272-2.286-1.659-4.551-2.436-5.059-1.735-.507.7.935 2.613 3.221 4.272 2.286 1.658 4.551 2.435 5.059 1.735z"/><path stroke="#30242A" stroke-miterlimit="10" stroke-width=".84" d="M204.583 110.552l9.835 29.307"/><path fill="#FF7235" d="M217.243 112.506a5.79 5.79 0 0110.973 3.365 5.79 5.79 0 01-3.198 4.276 10.78 10.78 0 00-7.775-7.641z"/><path stroke="#F5EBDD" stroke-linecap="round" stroke-miterlimit="10" stroke-width=".84" d="M220.271 115.782a10.838 10.838 0 014.688-6.018m-3.721 6.79a10.747 10.747 0 016.513-4.016"/><path fill="#FF7235" d="M225.017 120.148a5.787 5.787 0 01-6.571-1.086 5.802 5.802 0 01-1.203-6.556 10.788 10.788 0 017.774 7.642zm-16.663-16.034a5.781 5.781 0 00-7.26-2.338 5.788 5.788 0 00-3.374 4.143 5.79 5.79 0 001.45 5.145 5.785 5.785 0 002.304 1.5 10.806 10.806 0 016.88-8.45z"/><path stroke="#F5EBDD" stroke-linecap="round" stroke-miterlimit="10" stroke-width=".84" d="M205.706 107.708a10.814 10.814 0 00-5.324-5.462m4.451 6.334a10.733 10.733 0 00-6.926-3.259"/><path fill="#FF7235" d="M201.474 112.564a5.789 5.789 0 006.412-1.808 5.797 5.797 0 00.468-6.65 10.806 10.806 0 00-6.88 8.458zm23.313-11.022a5.803 5.803 0 00-2.352-4.794 5.792 5.792 0 00-5.271-.832 5.791 5.791 0 00-3.853 6.582 5.796 5.796 0 001.14 2.501 10.785 10.785 0 0110.336-3.457z"/><path stroke="#F5EBDD" stroke-linecap="round" stroke-miterlimit="10" stroke-width=".84" d="M220.632 103.159a10.843 10.843 0 00-1.576-7.468m.373 7.735a10.756 10.756 0 00-4.103-6.469"/><path fill="#FF7235" d="M214.455 104.999a5.79 5.79 0 0010.332-3.457 10.786 10.786 0 00-10.332 3.457z"/><path stroke="#F5EBDD" stroke-linecap="round" stroke-miterlimit="10" stroke-width=".84" d="M208.571 104.332a10.788 10.788 0 00-6.88 8.45m23.198-11.24a10.775 10.775 0 00-10.421 3.177m11.125 14.983a10.796 10.796 0 00-8.117-7.277"/></svg>