<svg viewBox="0 0 81 27" fill="none" xmlns="http://www.w3.org/2000/svg">
	<path d="M27.4823 0C26.7622 0.0111086 26.0748 0.303328 25.566 0.814586C25.0573 1.32584 24.7674 2.01586 24.7578 2.73806C24.7578 3.46423 25.0455 4.16067 25.5575 4.67415C26.0695 5.18764 26.764 5.47611 27.4881 5.47611C28.2122 5.47611 28.9067 5.18764 29.4187 4.67415C29.9308 4.16067 30.2184 3.46423 30.2184 2.73806C30.2088 2.01388 29.9173 1.32216 29.4061 0.810583C28.8949 0.299007 28.2045 0.00811079 27.4823 0V0Z" fill="black" />
	<path d="M30.2126 9.01367H24.752V26.3574H30.2126V9.01367Z" fill="black" />
	<path d="M59.5638 12.4519V9.01306H43.6771H43.61C41.5982 9.01306 39.8929 9.65233 38.4641 11.598L38.5 9.01074H33.0312V26.3568H38.4919V19.8388C38.4919 17.1333 40.6079 13.8058 44.31 13.8058H52.2221L45.0654 22.9215V26.3591H59.941V21.5664H52.4084L59.5638 12.4519Z" fill="black" />
	<path d="M16.2951 9.01599C14.0264 9.19582 12.9574 9.88034 11.5113 12.0661L11.0612 12.8922L10.6505 12.13L10.6123 12.0661C9.10836 9.78172 7.07914 9.26659 5.68506 9.07748L5.01984 9.02759L0 9.01367V26.3574H5.29865V14.3865L5.34377 13.8296C7.02361 14.1661 9.2981 15.9528 9.94828 17.9599L10.138 18.5481H11.9891L12.1788 17.9599C12.7064 16.3299 14.908 14.7833 16.6213 14.115L16.6433 14.3865V26.3574H21.942V9.01367H16.3657L16.2951 9.01599Z" fill="black" />
	<path d="M75.5387 9.01365V10.8119L75.3594 10.6217C74.0556 9.22945 72.1964 8.52637 69.834 8.52637C64.8396 8.52637 60.9258 12.5488 60.9258 17.6919C60.9258 22.835 64.8385 26.8516 69.834 26.8516C72.1976 26.8516 74.0556 26.1462 75.3606 24.7563L75.5387 24.5649V26.3632H81.0005V9.01365H75.5387ZM70.9643 21.9858C68.2271 21.9858 66.3887 20.2571 66.3887 17.6861C66.3887 15.1151 68.2271 13.3853 70.9643 13.3853C73.7016 13.3853 75.5387 15.1139 75.5387 17.6861C75.5387 20.2582 73.6958 21.9858 70.9643 21.9858Z" fill="black" />
</svg>
