<svg xmlns="http://www.w3.org/2000/svg" fill="none" viewBox="0 0 118 48"><path fill="#66264A" d="M48.702 48c11.467 0 20.763-9.314 20.763-20.804 0-11.49-9.296-20.804-20.763-20.804-11.466 0-20.762 9.314-20.762 20.804C27.94 38.686 37.236 48 48.702 48z" opacity=".6"/><path fill="#E9D1C8" d="M69.301 41.609c11.467 0 20.763-9.315 20.763-20.805S80.768 0 69.3 0C57.834 0 48.54 9.314 48.54 20.804c0 11.49 9.295 20.805 20.762 20.805z" opacity=".6"/><path fill="#e9d1c8" fill-rule="evenodd" d="M109.609 33.058c-1.895 2.86-5.729 4.463-8.757 3.724-3.661-.894-5.008-5.527-2.4-8.259 1.15-1.204 2.609-1.918 4.15-2.416 2.334-.755 4.697-1.42 7.062-2.072.557-.154.743-.388.696-.948-.122-1.483-.089-2.987-.332-4.448-.254-1.526-1.055-2.82-2.722-3.108-1.799-.312-3.508.051-4.757 1.5-.848.984-1.011 2.186-.58 3.44.149.436.338.866.417 1.316.205 1.175-.491 2.131-1.694 2.398-1.246.275-2.405-.319-2.724-1.432-.313-1.097-.047-2.124.48-3.094.576-1.06 1.432-1.866 2.428-2.512 2.763-1.795 5.761-2.6 9.044-1.984 3.069.576 4.77 2.643 4.788 5.794.021 3.72-.002 7.44.014 11.16.003.497.058 1.015.208 1.486.27.851.959 1.099 1.748.682.452-.24.885-.514 1.322-.772-.571 2.625-3.182 4.029-5.658 3.029-1.191-.481-1.808-1.428-1.914-2.665-.092-1.086-.068-2.183-.074-3.275-.009-1.87-.002-3.742-.002-5.612v-.787c-.939.305-1.8.51-2.598.86-1.436.63-2.882 1.262-4.233 2.05-1.175.685-1.965 1.771-2.143 3.185-.331 2.649 1.55 4.514 4.279 4.278 1.219-.105 2.324-.522 3.359-1.152.173-.105.344-.212.593-.366zM91.895 36.53H73.29c.263-.388.445-.66.632-.928 4.048-5.802 8.097-11.603 12.14-17.409.239-.342.461-.706.622-1.09.264-.627.038-1.08-.639-1.12-2.266-.137-4.519-.195-6.63.936a19.06 19.06 0 00-5.21 4.11c-.054.06-.12.11-.301.278.125-.505.21-.871.307-1.233.358-1.316.732-2.628 1.073-3.948.087-.34.218-.488.588-.487 5.535.01 11.071.008 16.607.01.082 0 .165.019.361.045-.163.244-.288.442-.423.635-4.008 5.726-8.02 11.452-12.022 17.183a7.316 7.316 0 00-.72 1.252c-.361.83-.094 1.318.793 1.413 4.543.485 8.366-.835 11.195-4.566.554-.732 1.052-1.508 1.664-2.246l-1.43 7.164zm-28.371-.169h-9.362l-.021-.068c.188-.063.38-.117.565-.19 1.276-.5 1.943-1.466 1.951-2.81.027-4.223.022-8.447.002-12.67-.006-1.187-.396-1.648-1.64-2.102l5.926-3.585v4.774l.145.061.343-.52c1.517-2.271 3.5-3.837 6.297-4.14 1.686-.184 2.917.596 3.257 2.01.277 1.152-.202 2.394-1.1 2.846-.98.494-2.217.205-3.01-.703-.027-.031-.059-.06-.08-.095-1.213-1.902-3.069-1.736-4.634-.248-.79.751-1.246 1.532-1.216 2.727.094 3.675.033 7.355.034 11.031 0 2.102.554 2.887 2.543 3.682zm-42.193-17c.475-.421.933-.862 1.428-1.26 1.736-1.393 3.586-2.59 5.865-2.826.734-.076 1.51-.002 2.237.153 1.56.333 2.465 1.41 2.776 2.923.214 1.042.334 2.12.346 3.184.04 3.76.004 7.522.018 11.283.006 1.825.652 2.74 2.321 3.413.05.02.095.053.22.126h-9.308c.006-.03.005-.08.021-.086 1.793-.728 2.397-1.597 2.4-3.548.007-3.383-.001-6.766-.017-10.148-.003-.566-.064-1.13-.115-1.695-.175-1.94-1.337-2.845-3.393-3.025-1.27-.112-2.432.359-3.541.94-.4.209-.786.446-1.178.67l-.08-.104zm1.683 17.006h-9.6c.226-.099.29-.132.358-.155 1.425-.475 2.21-1.515 2.218-2.967.026-4.117.032-8.238-.103-12.353-.078-2.38-1.598-3.46-3.97-3.115-1.312.191-2.489.73-3.61 1.41-.25.152-.495.31-.822.38.414-.39.813-.797 1.242-1.17 1.734-1.501 3.596-2.8 5.928-3.118a7.893 7.893 0 012.615.1c1.68.348 2.689 1.65 2.899 3.681.132 1.272.158 2.558.165 3.837.02 3.258-.004 6.516 0 9.773.003 1.965.666 2.916 2.68 3.697zM6.786 14.914V32.05c0 .168.004.336 0 .505-.04 1.824.621 3.187 2.473 3.793H0c.074-.051.112-.09.157-.107 1.568-.606 2.271-1.557 2.295-3.24.03-2.124.011-4.246.012-6.369v-5.107c0-.273-.002-.547-.018-.82-.07-1.226-.455-1.718-1.694-2.092l6.034-3.7zm34.284 3.7c2.097-1.26 4.063-2.443 6.117-3.68.015.32.033.539.033.758.002 5.462.002 10.924.002 16.387 0 .21.003.42 0 .63-.021 1.719.573 3.036 2.333 3.635H40.37c.123-.066.206-.125.297-.16 1.508-.559 2.268-1.576 2.275-3.19.019-4.056.016-8.11 0-12.165-.005-1.342-.513-1.956-1.87-2.215zm3.782-5.934c-1.428 0-2.569-1.152-2.582-2.608-.013-1.473 1.166-2.669 2.61-2.648 1.424.022 2.596 1.197 2.606 2.612.011 1.437-1.19 2.643-2.634 2.644z" clip-rule="evenodd"/></svg>