<svg xmlns="http://www.w3.org/2000/svg" fill="none" viewBox="0 0 54 40"><path fill="#66264A" d="M18.157 40c10.028 0 18.158-8.13 18.158-18.157 0-10.029-8.13-18.158-18.158-18.158S0 11.815 0 21.843C0 31.87 8.13 40 18.157 40z" opacity=".6"/><path fill="#E9D1C8" d="M34.969 36.315c10.028 0 18.157-8.13 18.157-18.158S44.996 0 34.97 0C24.94 0 16.81 8.13 16.81 18.157c0 10.028 8.13 18.158 18.158 18.158z" opacity=".6"/><path fill="#55666B" fill-rule="evenodd" d="M30.576 13.313c.464-.41.91-.84 1.392-1.226 1.693-1.355 3.497-2.522 5.719-2.75.716-.074 1.473-.003 2.181.148 1.52.325 2.403 1.372 2.706 2.845.21 1.013.326 2.063.337 3.098.04 3.659.005 7.318.018 10.978.006 1.776.636 2.667 2.263 3.32.048.02.093.053.215.123h-9.075c.006-.028.005-.077.02-.083 1.748-.709 2.337-1.554 2.34-3.453.007-3.291-.001-6.583-.017-9.874-.002-.55-.062-1.1-.112-1.649-.17-1.887-1.304-2.768-3.307-2.943-1.24-.109-2.372.35-3.453.915-.39.203-.767.434-1.149.652-.026-.034-.051-.068-.078-.101zm1.641 16.543h-9.36c.221-.096.283-.129.35-.15 1.39-.463 2.153-1.475 2.162-2.888.026-4.006.031-8.016-.1-12.02-.077-2.315-1.558-3.366-3.872-3.03-1.278.186-2.425.71-3.518 1.372-.244.147-.483.302-.802.37.403-.38.792-.776 1.21-1.138 1.691-1.461 3.506-2.725 5.78-3.035a7.71 7.71 0 012.55.097c1.639.339 2.621 1.606 2.826 3.582.129 1.238.155 2.489.162 3.734.018 3.17-.005 6.34 0 9.51.002 1.91.649 2.836 2.612 3.596zM16.395 8.988v16.675c0 .163.004.327 0 .49-.039 1.776.606 3.102 2.412 3.691H9.778c.072-.05.109-.087.153-.104 1.528-.59 2.214-1.515 2.238-3.153.03-2.065.01-4.13.012-6.196v-4.97c-.002-.265-.003-.531-.018-.796-.069-1.194-.444-1.673-1.652-2.037l5.883-3.6z" clip-rule="evenodd"/></svg>