<svg xmlns="http://www.w3.org/2000/svg" fill="none" viewBox="0 0 297 264"><path fill="#FFB7D5" d="M160.574 8.29h3.305a47.103 47.103 0 0147.091 47.103v89.858h-97.513V55.393A47.102 47.102 0 01160.574 8.29z"/><path fill="#CA7358" d="M179.918 91.16v55.49h-43.27V91.16h43.27zm1.146-1.147h-45.563v57.784h45.563V90.013z"/><path fill="#CA7358" d="M181.064 90.01h-45.563v11.946h45.563V90.011z"/><path fill="#CA7358" d="M135.258 61.155v85.773h-26.044V61.155h26.044zm1.146-1.147h-28.337v88.067h28.337V60.008zm79.281-16.217V146.65h-34.377V43.791h34.377zm1.147-1.146h-36.67v105.152h36.67V42.644z"/><path fill="#CA7358" d="M195.068 56.674h.33a4.696 4.696 0 014.695 4.696v10.584h-9.723V61.37a4.697 4.697 0 012.9-4.34 4.696 4.696 0 011.798-.356z"/><path stroke="#FFB7D5" stroke-linecap="round" stroke-linejoin="round" stroke-width="1.15" d="M189.26 65.007h11.946"/><path fill="#F5EBDD" d="M195.068 84.085h.33a4.696 4.696 0 014.695 4.696v10.583h-9.723V88.781a4.698 4.698 0 012.9-4.34 4.696 4.696 0 011.798-.356z"/><path stroke="#FFB7D5" stroke-linecap="round" stroke-linejoin="round" stroke-width="1.15" d="M189.26 92.418h11.946"/><path fill="#F5EBDD" d="M195.068 111.496h.33a4.698 4.698 0 014.695 4.696v10.583h-9.723v-10.583a4.695 4.695 0 014.695-4.696h.003z"/><path stroke="#FFB7D5" stroke-linecap="round" stroke-linejoin="round" stroke-width="1.15" d="M189.26 119.829h11.946"/><path fill="#30242A" d="M195.068 138.907h.33a4.695 4.695 0 014.695 4.696v9.724h-9.723v-9.724a4.7 4.7 0 011.376-3.321 4.696 4.696 0 013.322-1.375z"/><path fill="#CA7358" d="M216.832 42.645h-36.67v4.583h36.67v-4.584zm-80.428 15.141h-28.337v4.584h28.337v-4.584z"/><path fill="#F5EBDD" d="M153.421 112.792h-9.724v12.501h9.724v-12.501z"/><path stroke="#FFB7D5" stroke-linecap="round" stroke-linejoin="round" stroke-width="1.15" d="M142.585 118.348h11.948m-5.974 7.502v-7.502"/><path fill="#CA7358" d="M153.421 135.37h-9.724v12.501h9.724V135.37z"/><path stroke="#FFB7D5" stroke-linecap="round" stroke-linejoin="round" stroke-width="1.15" d="M142.585 140.925h11.948m-5.974 7.502v-7.502"/><path fill="#30242A" d="M171.756 112.792h-9.723v12.501h9.723v-12.501z"/><path stroke="#FFB7D5" stroke-linecap="round" stroke-linejoin="round" stroke-width="1.15" d="M160.923 118.348h11.946m-5.974 7.502v-7.502"/><path fill="#F5EBDD" d="M171.756 135.37h-9.723v12.501h9.723V135.37z"/><path stroke="#FFB7D5" stroke-linecap="round" stroke-linejoin="round" stroke-width="1.15" d="M160.923 140.925h11.946m-5.974 7.502v-7.502"/><path fill="#F5EBDD" d="M141.96 42.229a7.224 7.224 0 100-14.448 7.224 7.224 0 000 14.448zm81.511 103.068H100.956v8.333h122.515v-8.333z"/><path fill="#F5EBDD" d="M164.148 0h-3.861c-30.461 0-55.155 24.694-55.155 55.155v98.475h114.183V55.155C219.306 24.693 194.61 0 164.148 0zm-6.1 145.297h-44.591V75.844h44.591v69.453zm0-77.787h-44.591V55.438a47.107 47.107 0 0144.591-47.036V67.51zm52.922 77.787h-44.588V75.844h44.588v69.453zm0-77.787h-44.588V8.402a47.1 47.1 0 0144.588 47.036V67.51z"/><path fill="#FFB7D5" d="M11.111 263.366c6.137 0 11.111-4.974 11.111-11.111 0-6.136-4.974-11.111-11.11-11.111C4.974 241.144 0 246.119 0 252.255c0 6.137 4.975 11.111 11.111 11.111z"/><path fill="#FFBE21" d="M258.914 161.68c.002.307-.06.61-.183.892-.86 1.957-4.535 2.247-8.19.645-3.062-1.339-5.143-3.581-5.232-5.424v24.447h13.614v-20.56h-.009z"/><path fill="#A15842" d="M253.68 156.133c-3.655-1.602-7.324-1.313-8.19.645a2.234 2.234 0 00-.18 1.021c.088 1.843 2.17 4.085 5.231 5.423 3.655 1.603 7.325 1.313 8.19-.645.123-.281.186-.584.184-.891.008-1.866-2.099-4.183-5.235-5.553z"/><path fill="#FFBE21" d="M269.352 169.744c-.089 1.843-2.17 4.085-5.232 5.427-3.658 1.599-7.324 1.313-8.193-.648a2.228 2.228 0 01-.183-.889v8.6h13.611v-12.49h-.003z"/><path fill="#A15842" d="M269.171 168.723c-.86-1.957-4.535-2.247-8.193-.645-3.133 1.374-5.24 3.687-5.234 5.556-.001.306.062.608.183.889.86 1.961 4.535 2.247 8.193.648 3.062-1.342 5.143-3.584 5.232-5.427a2.25 2.25 0 00-.181-1.021z"/><path stroke="#A15842" stroke-linecap="round" stroke-miterlimit="10" stroke-width="1.15" d="M256.143 182.245v-8.333"/><path stroke="#30242A" stroke-linecap="round" stroke-linejoin="round" stroke-width="1.15" d="M252.115 154.324v4.724m10.434 7.224v5"/><path fill="#30242A" d="M193.827 263.447a2.2 2.2 0 01-2.172-1.86 2.196 2.196 0 01.085-1.024l6.88-20.967a2.209 2.209 0 012.09-1.511h4.821a2.204 2.204 0 011.896 1.085 2.195 2.195 0 01.022 2.183l-11.713 20.967a2.182 2.182 0 01-.802.822 2.187 2.187 0 01-1.107.305zm92.169 0a2.196 2.196 0 002.087-2.884l-6.88-20.967a2.204 2.204 0 00-2.087-1.511h-4.825a2.198 2.198 0 00-1.918 3.268l11.713 20.967a2.2 2.2 0 001.91 1.127z"/><path fill="#A15842" d="M296.634 182.246h-113.07v64.729h113.07v-64.729z"/><path fill="#FFB7D5" d="M288.298 190.579h-96.401v48.062h96.401v-48.062z"/><path stroke="#A15842" stroke-miterlimit="10" stroke-width="1.15" d="M239.995 189.748v49.728"/><path fill="#30242A" d="M251.355 217.523a2.913 2.913 0 10-.001-5.825 2.913 2.913 0 00.001 5.825zm-22.515 0a2.913 2.913 0 100-5.826 2.913 2.913 0 000 5.826z"/><path fill="#A15842" d="M44.697 236.5v4.722h40.839V236.5H44.697z"/><path fill="#FFBE21" d="M92.263 261.004l-10.116-60.701h6.186a2.503 2.503 0 002.5-2.5 2.501 2.501 0 00-2.5-2.5H41.948a2.503 2.503 0 00-2.5 2.5 2.501 2.501 0 002.5 2.5h6.137L37.97 261.004a2.098 2.098 0 004.12.792l13.404-61.493H74.74l13.401 61.493a2.103 2.103 0 002.935 1.456 2.102 2.102 0 001.188-2.248z"/><path fill="#A15842" d="M88.334 200.303a2.503 2.503 0 002.5-2.5 2.5 2.5 0 00-2.5-2.5H41.947a2.503 2.503 0 00-2.5 2.5 2.501 2.501 0 002.5 2.5h6.138v.077h7.401l.017-.077H74.75l.017.077h7.402v-.077h6.163z"/><path fill="#4856DF" d="M91.083 236.42h29.526c.367-6.27 1.677-14.586 2.764-25.82.966-9.962 1.797-18.324 1.743-25.227-.092-11.507-29.527 2.42-29.527 2.42 0 2.514.507 4.927.522 7.267.034 6.077-3.045 11.248-5.243 18.578-3.334 11.114-.556 22.782-.556 22.782h.77z"/><path fill="#3EC1F3" d="M122.183 260.311H96.334a1.578 1.578 0 00.476 3.084l38.038.052c.336-3.698-1.766-6.482-7.694-10.607-3.383 2.933-4.971 7.471-4.971 7.471z"/><path fill="#A15842" d="M125.821 251.943a11.202 11.202 0 01-3.122-3.022c-2.007-2.944-2.431-6.908-2.101-12.501H95.01c.05 4.181.35 8.356.903 12.501.653 4.693 1.536 7.921 2.244 11.315h-1.344c-.163 0-.324.025-.479.075h25.849s1.588-4.538 4.971-7.454c-.425-.3-.869-.605-1.333-.914z"/><path stroke="#30242A" stroke-linecap="round" stroke-linejoin="round" stroke-width="1.15" d="M120.908 231.397a33.707 33.707 0 01-3.197-10.013c-1.872-13.006-.762-19.674-6.04-25.513H96.228"/><path fill="#4856DF" d="M130.537 237.529l.028.069 22.796-10.675c-1.774-5.309-3.629-12.373-6.676-21.618-2.856-8.652-4.745-15.116-6.534-20.118a12.355 12.355 0 01-16.552-1.923 12.359 12.359 0 01.41-16.659c-12.169-5.498-55.39-9.084-55.39-9.084l-24.45-3.612c-1.29 2.132-2.387 5.512-2.983 9.46h8.542v9.136a6.979 6.979 0 01-6.974 6.963h-.828c2.333 8.6 8.335 15.844 20.587 15.844h49.451c5.277 5.834 4.168 12.501 6.04 25.513 1.53 10.644 8.786 18.49 8.786 18.49l3.747-1.786z"/><path fill="#3EC1F3" d="M165.263 249.756l-22.704 10.297a1.87 1.87 0 001.875 3.219l34.452-16.053c-1.351-3.727-4.822-5.16-13.047-6.594l-.352-.066a23.421 23.421 0 00-.224 9.197z"/><path fill="#A15842" d="M165.487 240.548c-2.368-.453-4.225-1.242-5.759-2.434-2.827-2.202-4.558-5.785-6.367-11.18l-22.796 10.675c1.933 4.441 4.644 9.111 7.227 13.187 2.256 3.549 4.409 6.642 5.857 8.715l-.823.398a1.76 1.76 0 00-.266.161l22.704-10.297a23.43 23.43 0 01.223-9.225z"/><path fill="#3EC1F3" d="M132.933 187.523a12.297 12.297 0 007.219-2.336c-3.558-9.999-6.643-14.164-15.971-18.505l-.172-.077a12.357 12.357 0 008.924 20.912v.006zm-90.179-8.055a6.978 6.978 0 006.98-6.978v-9.136H41.19c-.754 4.957-.71 10.787.734 16.105h.341l.488.009z"/><path stroke="#30242A" stroke-linecap="round" stroke-linejoin="round" stroke-width="1.15" d="M111.542 195.997h8.333m27.512-88.345s-15.001-17.223-32.726-23.47"/><path fill="#4756DF" d="M100.333 90.91c-.544-1.315 1.273-3.38 4.3-5.122-4.099-1.02-7.012-2.921-6.72-4.518.293-1.597 3.687-2.348 7.884-1.855-2.207-2.694-3.179-5.269-2.204-6.306 1.241-1.328 5.18.347 8.795 3.726 3.153 2.953 5.016 6.238 4.621 7.91-.221 1.702-3.125 4.116-7.115 5.767-4.59 1.904-8.864 2.081-9.561.399z"/><path fill="#30242A" d="M117.158 90.094a5.234 5.234 0 100-10.469 5.234 5.234 0 000 10.469z"/><path fill="#30242A" d="M128.187 91.6c1.438-.533.785-5.867-1.46-11.912-2.245-6.045-5.23-10.513-6.668-9.979-1.439.534-.785 5.868 1.46 11.913 2.244 6.045 5.23 10.513 6.668 9.979z"/><path stroke="#30242A" stroke-linecap="round" stroke-linejoin="round" stroke-width="1.15" d="M127.931 92.65s2.224 6.112 1.112 12.502"/><path fill="#A15842" d="M87.365 68.307c-4.742 5.335-9.781 6.513-9.781 6.513-3.26-3.555-9.174-3.555-10.077 1.482-.983 5.581 5.92 7.118 5.92 7.118s1.74 7.201-.929 10.759c-2.356 3.153-5.383 3.672-11.587 4.365 8.084 13.66 16.34 12.582 19.09 12.582 6.593 0 8.45-7.651 8.97-11.595a39.229 39.229 0 00-4.588-1.293l-.888-5.332s4.148 1.479 7.705-.594c3.558-2.072 4.447-5.928 3.26-11.853-.703-3.512-.677-7.855-1.279-11.736-2.348.398-5.816-.416-5.816-.416zm49.318 29.762c-1.259-5.037-11.111-7.769-11.111-7.769s.59-11.306-1.947-11.667c-1.943-.287-3.89 4.446-5.555 13.614-1.864 10.245-.835 29.168-.835 29.168s-2.061-1.872-4.985-4.478a3.604 3.604 0 01-3.153 2.007 3.604 3.604 0 01-2.761 5.839 3.599 3.599 0 01.429 3.775 3.6 3.6 0 01-3.189 2.065 3.604 3.604 0 01-1.126 5.41 3.601 3.601 0 01-2.028.415c6.086 3.961 14.359 8.583 19.872 8.583 28.89-.012 17.223-43.628 16.389-46.962z"/><path fill="#FFBE21" d="M103.994 134.386a3.619 3.619 0 00-.427-3.775 3.605 3.605 0 002.76-5.839 3.611 3.611 0 003.19-2.065 3.6 3.6 0 00-.429-3.775 3.6 3.6 0 003.153-2.006c-5.039-4.49-12.639-11.146-16.684-14.136-1.958-1.448-4.452-2.52-6.593-3.26-.505 3.957-2.35 11.596-8.944 11.596-2.738 0-11.005 1.078-19.09-12.582l-2.596.287c-8.944.995-13.015 5.808-15.412 11.559-1.482 3.557-2.668 10.076-2.668 10.076a121.86 121.86 0 00-1.417 18.06l11.63 10.764 31.224.771c2.5-3.686 7.087-10.494 8.6-13.106 1.944-3.334 2.222-6.112 2.222-6.112s3.337 2.609 7.909 5.587a3.601 3.601 0 003.572-2.044z"/><path fill="#30242A" d="M90.627 61.785c-3.555-4.443-13.336-7.407-21.042-1.777-7.705 5.63-7.112 14.818-6.817 18.375 0 0-8.296-2.669-14.224 3.555a15.001 15.001 0 00-3.853 13.634s-10.916-.307-13.04 9.781c-1.207 5.733 1.046 9.549 3.546 11.911a15.959 15.959 0 005.048 3.202s1.187-6.519 2.669-10.076c2.396-5.751 6.467-10.564 15.411-11.559l2.597-.286c6.204-.694 9.23-1.222 11.587-4.366 2.666-3.558.918-10.759.918-10.759s-6.912-1.537-5.929-7.112c.892-5.037 6.817-5.037 10.077-1.482 0 0 5.04-1.184 9.78-6.519 0 0 3.47.814 5.834.416-.404-2.672-1.115-5.123-2.562-6.938z"/><path stroke="#30242A" stroke-linecap="round" stroke-linejoin="round" stroke-width="2.29" d="M137.299 102.028c-.84-.387-1.342-1.362-1.198-3.225 0 0-1.737 2.178-3.586 1.209-1.849-.969-1.11-3.055-1.11-3.055s-1.668 1.112-3.056-.287c-1.258-1.259-.286-3.334-.286-3.334s-1.847.754-2.5-.556c-.823-1.64.178-3.357 1.261-4.673"/><path stroke="#000" stroke-linecap="round" stroke-miterlimit="10" stroke-width="1.15" d="M44.164 95.813c.314 1.485.88 2.905 1.674 4.199"/><path stroke="#30242A" stroke-linecap="round" stroke-linejoin="round" stroke-width="1.15" d="M116.679 121.773l.697 8.66m-25.837-9.173c1.814 3.268 1.791 7.19 1.556 9.514m-17.948-.341l-8.89.278m17.086-37.258a33.306 33.306 0 01-3.63-1.682m5.851 9.91l-.484-3.07"/><path stroke="#000" stroke-linecap="round" stroke-miterlimit="10" stroke-width="1.15" d="M62.17 78.495l.616 5.126"/><path stroke="#30242A" stroke-linecap="round" stroke-linejoin="round" stroke-width="1.15" d="M91.539 84.595c-.628.407-2.71.542-3.707-1.272m-12.963-4.564L72.09 77.37m15.604.16c-.444.604-2.54 1.776-4.116.438m10.867-1.313a2.582 2.582 0 01-1.944-.362m-1.814 1.394c.318.72.625 1.513.559 1.817-.098.37-.318.695-.625.923"/><path fill="#F4E6D8" d="M73.347 82.116l-3.793 3.577a1.651 1.651 0 00.573 2.755l4.484 1.591a1.652 1.652 0 002.187-1.774l-.69-5.16a1.651 1.651 0 00-2.761-.99z"/><path fill="#A15842" d="M127.793 83.067s1.944-1.112 3.612-.556c2.58.86 2.202 3.263 2.202 3.263s3.617-1.305 4.32 2.52c0 0 3.262.73 2.528 3.993 0 0 2.64.14 2.116 3.6-.525 3.46-2.832 6.335-4.22 6.335-1.433 0-2.445-.88-2.25-3.44 0 0-1.737 2.179-3.586 1.21-1.849-.969-1.11-3.056-1.11-3.056s-1.668 1.113-3.056-.286c-1.258-1.259-.286-3.334-.286-3.334s-1.847.754-2.5-.556c-1.39-2.778 2.434-5.765 3.056-6.665l-.826-3.028z"/><path stroke="#30242A" stroke-linecap="round" stroke-linejoin="round" stroke-width="1.15" d="M126.968 94.328c1.909-1.752 5.16-5.057 6.702-8.526m-3.196 12.525a30.673 30.673 0 007.611-9.747m-2.701 11.805c.86-1.05 3.867-4.819 5.358-7.803"/><path fill="#30242A" d="M134.845 164.188H86.731l10.936-34.552a5.027 5.027 0 014.793-3.503h40.658a5.034 5.034 0 014.056 2.056 5.018 5.018 0 01.737 4.486l-9.044 28.572a4.218 4.218 0 01-4.022 2.941z"/><path fill="#30242A" d="M58.807 160.298a2.988 2.988 0 002.846 3.89h73.192a4.22 4.22 0 004.013-2.947l.287-.943H58.807z"/><path fill="#FFBE21" d="M127.475 142.187c-1.118-1.531-6.201 2.511-6.573 2.846-.195-.335-2.838-4.377-4.779-2.846-1.683 1.327 2.007 7.252 3.001 8.763a.448.448 0 00.327.146.44.44 0 00.327-.146c1.809-1.525 8.669-7.45 7.697-8.763z"/><path fill="#FFBE21" d="M122.831 141.105c.404-1.297.387-2.456-.038-2.588-.424-.132-1.096.812-1.5 2.109-.404 1.297-.387 2.455.038 2.587.424.133 1.096-.811 1.5-2.108zm-91.593-8.244a3.607 3.607 0 003.727-.693 3.6 3.6 0 002.282 3.042 3.605 3.605 0 003.738-.697 3.605 3.605 0 004.251 3.221 3.609 3.609 0 001.769-.879 3.599 3.599 0 004.564 3.153l4.334-11.641a37.08 37.08 0 002.33-13.987l-.438-15.48s-10.002.831-15.835 8.055c-2.993 3.707-8.867 13.5-12.63 24.146a3.601 3.601 0 001.908 1.76z"/><path fill="#A15842" d="M49.295 139.893a3.603 3.603 0 01-2.293-3.038 3.608 3.608 0 01-6.02-2.342 3.604 3.604 0 01-6.02-2.345 3.612 3.612 0 01-4.605.209 3.608 3.608 0 01-1.054-1.273c-3.262 9.228-4.942 19.101-1.783 26.207 6.8 15.305 27.208 9.919 32.024 8.503 4.816-1.416 14.173-6.235 20.408-5.384 6.235.852 13.318 3.968 14.453 0 0 0 3.816-.097 2.615-3.727 0 0 1.918-.237 2.201-1.654.574-2.835-6.235-5.383-6.235-5.383s5.387.86 6.52-.287c1.432-1.433.04-3.747-8.759-5.879-9.663-2.34-22.417-.924-41.406 2.476l2.222-5.971a3.573 3.573 0 01-2.268-.112z"/><path stroke="#30242A" stroke-linecap="round" stroke-linejoin="round" stroke-width="1.15" d="M55.978 126.821l-6.344 18.519m45.064 4.529c-3.08-1.169-8.205-2.964-12.184-3.612M97.1 156.554c-3.956-1.78-11.513-5.011-15.578-5.618m-32.135-5.556a253.03 253.03 0 00-8.827 1.583m53.728 13.857c-2.967-1.511-9.22-4.515-13.614-5.352"/><path fill="#3EC1F3" d="M227.08 124.241s-2.253 5.069-8.164 5.069-8.176-5.069-8.176-5.069-16.626 38.012-.286 58.004h16.893c16.331-19.992-.267-58.004-.267-58.004z"/><path fill="#30242A" d="M218.902 129.31c5.911 0 8.164-5.069 8.164-5.069h-16.34s2.262 5.069 8.176 5.069z"/><path stroke="#F5EBDD" stroke-linecap="round" stroke-linejoin="round" stroke-width="1.15" d="M234.172 158.082c-9.19.164-20.066 3.483-28.437 15.194m-1.471-24.496c6.169-1.505 17.851-2.938 29.174-.244m-.051 19.305c-4.111.048-11.711 4.707-10.873 14.095"/><path stroke="#30242A" stroke-linecap="round" stroke-miterlimit="10" stroke-width="1.15" d="M217.867 127.624c-.172-4.085-1.259-20.319-7.709-29.842"/><path fill="#30242A" d="M216.522 115.141c.825-1.398-3.546-5.504-9.763-9.172-6.216-3.667-11.924-5.508-12.749-4.11-.824 1.398 3.547 5.504 9.763 9.172 6.217 3.667 11.925 5.508 12.749 4.11zm-2.414-40.513c1.211-.69.588-4.061-1.389-7.53-1.978-3.468-4.562-5.721-5.773-5.03-1.21.69-.588 4.06 1.39 7.53 1.978 3.468 4.562 5.72 5.772 5.03z"/><path fill="#4756DF" d="M192.818 89.334c.651-1.448 3.712-1.554 7.433-.444-2.293-4.103-2.996-7.918-1.479-8.901 1.516-.984 4.721 1.192 7.533 4.968.496-3.85 1.838-6.594 3.44-6.611 2.024 0 3.681 4.463 3.701 9.985a24.527 24.527 0 01-.418 4.707 5.828 5.828 0 00-7.514 2.46 5.81 5.81 0 00-.736 2.771 24.648 24.648 0 01-4.323-1.496c-5.054-2.262-8.466-5.59-7.637-7.44z"/><path fill="#30242A" d="M207.418 93.453a5.815 5.815 0 015.595-.41c-.493 2.566-1.384 4.47-2.456 5.089-1.021.742-3.182.771-5.794.143a5.83 5.83 0 012.655-4.822z"/><path stroke="#30242A" stroke-linecap="round" stroke-miterlimit="10" stroke-width="1.15" d="M220.017 127.378c.791-4.513 4.91-26.635 11.504-39.15"/><path fill="#30242A" d="M253.775 118.886c.474-1.464-5.859-4.827-14.146-7.512-8.287-2.685-15.389-3.674-15.864-2.21-.474 1.464 5.86 4.827 14.146 7.512 8.287 2.684 15.39 3.674 15.864 2.21z"/><path fill="#4756DF" d="M230.279 68.835c1.582-.144 3.176 2.473 4.033 6.26 2.443-4.013 5.43-6.496 7.032-5.656 1.603.84 1.276 4.699-.636 9.002 3.601-1.454 6.659-1.637 7.453-.255.998 1.76-2.084 5.397-6.88 8.12a24.566 24.566 0 01-4.3 1.944 5.82 5.82 0 00-3.047-4.641 5.828 5.828 0 00-5.553.017 25.037 25.037 0 01-.817-4.503c-.53-5.498.7-10.105 2.715-10.288z"/><path fill="#30242A" d="M233.854 83.575a5.832 5.832 0 013.105 4.675c-2.48.829-4.587.987-5.642.356-1.147-.525-2.233-2.397-2.967-4.98a5.82 5.82 0 015.504-.051z"/><path fill="#4756DF" d="M247.37 95.079v.023a5.828 5.828 0 00-3.341 7.134 5.83 5.83 0 006.816 3.951v.023c-7.554 2.365-14.457 1.792-15.42-1.284-.963-3.076 4.392-7.482 11.945-9.847z"/><path fill="#FFB7D5" d="M245.573 104.719a2.828 2.828 0 00.346-5.086 2.829 2.829 0 00-2.046-.294 5.837 5.837 0 013.503-4.237l3.475 11.085a5.834 5.834 0 01-5.278-1.468z"/><path fill="#30242A" d="M247.207 101.251a2.826 2.826 0 01-1.634 3.468 5.824 5.824 0 01-1.7-5.38 2.833 2.833 0 013.334 1.912z"/></svg>