<svg xmlns="http://www.w3.org/2000/svg" fill="none" viewBox="0 0 20 20"><path fill="#3F4A4E" fill-rule="evenodd" d="M10 20c5.523 0 10-4.477 10-10S15.523 0 10 0 0 4.477 0 10s4.477 10 10 10zm-.82-8.89v.886h1.64v-.654c0-.387.088-.687.262-.9a5.79 5.79 0 01.262-.275c.116-.116.252-.247.407-.392.164-.155.295-.28.392-.377a6.36 6.36 0 00.421-.494c.32-.387.48-.87.48-1.451 0-.842-.272-1.495-.814-1.96-.542-.473-1.245-.71-2.107-.71-.861 0-1.583.246-2.164.74-.571.484-.906 1.156-1.002 2.017h1.757c.04-.377.18-.677.422-.9a1.32 1.32 0 01.93-.348c.367 0 .668.12.9.363.232.232.349.527.349.885s-.112.658-.334.9L9.92 9.5c-.31.309-.514.56-.611.754-.087.184-.13.47-.13.856zm.057 3.803c.223.203.485.304.785.304.31 0 .571-.106.784-.319a1.01 1.01 0 00.334-.755.98.98 0 00-.334-.754 1.116 1.116 0 00-.799-.32c-.3 0-.561.107-.784.32-.213.213-.32.469-.32.769 0 .29.112.542.334.755z" clip-rule="evenodd" opacity=".5"/></svg>