<svg xmlns="http://www.w3.org/2000/svg" fill="none" viewBox="0 0 254 190"><g clip-path="url(#clip0)"><path fill="#FFB7D5" d="M86.52 6.642h4.09c9.294 0 18.208 3.768 24.781 10.474 6.573 6.707 10.265 15.803 10.265 25.288v70.559H51.474V42.404c0-9.485 3.692-18.58 10.265-25.288C68.31 10.41 77.225 6.642 86.52 6.642z"/><path fill="#CA7358" d="M102.052 70.951v43.118H69.098V70.951h32.954zm.853-.87h-34.66v44.858h34.66V70.081z"/><path fill="#CA7358" d="M102.905 70.08h-34.66v9.275h34.66v-9.274z"/><path fill="#CA7358" d="M68.079 47.66v66.624H48.227V47.661H68.08zm.853-.87H47.374v68.365h21.558V46.79zm60.331-12.609v79.879h-26.191V34.181h26.191zm.853-.87h-27.897v81.62h27.897v-81.62z"/><path fill="#CA7358" d="M113.479 44.202h.407a3.46 3.46 0 012.471 1.044 3.603 3.603 0 011.023 2.521v8.295h-7.395v-8.295a3.6 3.6 0 011.023-2.52 3.459 3.459 0 012.471-1.045z"/><path stroke="#FFB7D5" stroke-linecap="round" stroke-linejoin="round" stroke-width=".84" d="M109.141 50.67h9.086"/><path fill="#F5EBDD" d="M113.479 65.48h.407a3.46 3.46 0 012.471 1.044 3.603 3.603 0 011.023 2.521v8.3h-7.395v-8.297c0-.946.368-1.853 1.023-2.522a3.46 3.46 0 012.471-1.044v-.002z"/><path stroke="#FFB7D5" stroke-linecap="round" stroke-linejoin="round" stroke-width=".84" d="M109.141 71.951h9.086"/><path fill="#F5EBDD" d="M113.479 86.76h.407a3.46 3.46 0 012.471 1.044 3.603 3.603 0 011.023 2.521v8.295h-7.395v-8.295c0-.946.368-1.852 1.023-2.52a3.459 3.459 0 012.471-1.045z"/><path stroke="#FFB7D5" stroke-linecap="round" stroke-linejoin="round" stroke-width=".84" d="M109.141 93.228h9.086"/><path fill="#30242A" d="M113.479 108.033h.407a3.46 3.46 0 012.471 1.045 3.601 3.601 0 011.023 2.521v7.617h-7.395v-7.617c0-.946.368-1.853 1.023-2.521a3.458 3.458 0 012.471-1.045z"/><path fill="#F5EBDD" d="M53.756 61.832h.407c.927 0 1.816.376 2.47 1.044a3.603 3.603 0 011.024 2.521v8.295h-7.395v-8.295a3.6 3.6 0 011.023-2.52 3.459 3.459 0 012.471-1.045z"/><path stroke="#FFB7D5" stroke-linecap="round" stroke-linejoin="round" stroke-width=".84" d="M49.417 68.3h9.087"/><path fill="#F5EBDD" d="M53.756 83.11h.407c.927 0 1.816.376 2.47 1.044a3.602 3.602 0 011.024 2.521v8.3h-7.395v-8.298c0-.468.09-.932.266-1.365.175-.433.432-.826.757-1.157a3.49 3.49 0 011.134-.773c.424-.18.878-.272 1.337-.272z"/><path stroke="#FFB7D5" stroke-linecap="round" stroke-linejoin="round" stroke-width=".84" d="M49.417 89.58h9.087"/><path fill="#CA7358" d="M53.756 104.39h.407c.927 0 1.816.375 2.47 1.044a3.6 3.6 0 011.024 2.521v8.294h-7.395v-8.294a3.6 3.6 0 011.023-2.521 3.457 3.457 0 012.471-1.044z"/><path stroke="#FFB7D5" stroke-linecap="round" stroke-linejoin="round" stroke-width=".84" d="M49.417 110.858h9.087"/><path fill="#CA7358" d="M130.116 33.31h-27.897v3.56h27.897v-3.56zM68.932 45.064H47.374v3.559h21.558v-3.559z"/><path fill="#F5EBDD" d="M81.877 87.765H74.48v9.705h7.397v-9.705z"/><path stroke="#FFB7D5" stroke-linecap="round" stroke-linejoin="round" stroke-width=".84" d="M73.633 92.08h9.089m-4.544 5.822v-5.823"/><path fill="#CA7358" d="M81.877 105.293H74.48v9.705h7.397v-9.705z"/><path stroke="#FFB7D5" stroke-linecap="round" stroke-linejoin="round" stroke-width=".84" d="M73.633 109.604h9.089m-4.544 5.825v-5.825"/><path fill="#30242A" d="M95.824 87.765h-7.397v9.705h7.397v-9.705z"/><path stroke="#FFB7D5" stroke-linecap="round" stroke-linejoin="round" stroke-width=".84" d="M87.582 92.08h9.089m-4.545 5.822v-5.823"/><path fill="#F5EBDD" d="M95.824 105.293h-7.397v9.705h7.397v-9.705z"/><path stroke="#FFB7D5" stroke-linecap="round" stroke-linejoin="round" stroke-width=".84" d="M87.582 109.604h9.089m-4.545 5.825v-5.825"/><path fill="#F5EBDD" d="M73.158 32.986c3.034 0 5.494-2.51 5.494-5.606 0-3.097-2.46-5.607-5.494-5.607-3.035 0-5.495 2.51-5.495 5.607 0 3.096 2.46 5.607 5.495 5.607zm62.009 80.012H41.963v6.471h93.204v-6.471z"/><path fill="#F5EBDD" d="M90.038.206h-2.946c-23.166 0-41.957 19.17-41.957 42.817v76.446h86.862V43.023c0-23.646-18.787-42.817-41.96-42.817zm-4.644 112.792H51.48V59.083h33.914v53.915zm0-60.386H51.48v-9.37c0-9.358 3.517-18.36 9.826-25.153 6.309-6.793 14.93-10.859 24.088-11.36v45.883zm40.262 60.386H91.742V59.083h33.914v53.915zm0-60.386H91.742V6.73c9.158.501 17.78 4.567 24.089 11.36 6.309 6.792 9.825 15.795 9.825 25.154v9.37z"/><path fill="#A15842" d="M110.883 107.315s-14.645-35.87-15.285-45.22c-2.15-31.47 31.307-13.542 36.539-10.447 3.81 2.255 18.749 10.785 21.731 13.825 1.92 1.96.585 3.411.585 3.411s2.241 3.004-.911 3.36c2.242 3.004-1.333 3.411-1.333 3.411s.957 2.932-2.756 2.05c-4.002-.95-34.341-14.352-34.341-14.352s6.779 21.838 8.895 28.746l-13.124 15.216z"/><path stroke="#30242A" stroke-linecap="round" stroke-miterlimit="10" stroke-width=".84" d="M143.588 75.205c.721-.146 1.207-.57 1.066-1.483-.458-2.994-5.362-5.824-5.362-5.824s1.967-4.83-1.894-8.56M152.16 75.5c-1.76-1.05-8.21-4.9-9.739-5.702m11.181 2.349c-2.201-1.345-7.563-4.752-9.777-5.936m10.577 2.257c-2.772-1.876-8.002-5.352-10.071-6.418m-2.157 7.335c.738-1.363 2.001-4.07 2.069-8.41"/><path stroke="#30242A" stroke-linecap="round" stroke-linejoin="round" stroke-width=".84" d="M115.032 63.863l-4.996-2.316"/><path fill="#A15842" d="M38.921 165.642v4.194H74.46v-4.194H38.92z"/><path fill="#FFBE21" d="M80.311 187.401l-8.803-53.902h5.393c.577 0 1.13-.234 1.538-.65.408-.417.637-.981.637-1.57 0-.589-.229-1.154-.637-1.57a2.155 2.155 0 00-1.538-.65H36.53c-.577 0-1.13.234-1.538.65a2.243 2.243 0 00-.638 1.57c0 .589.23 1.153.638 1.57.408.416.961.65 1.538.65h5.332l-8.802 53.897a1.898 1.898 0 00.404 1.515 1.819 1.819 0 001.396.662c.417 0 .821-.146 1.146-.413.325-.267.55-.639.64-1.054l11.669-54.607h16.75l11.659 54.605c.088.415.313.787.637 1.054a1.802 1.802 0 002.541-.245 1.88 1.88 0 00.41-1.512z"/><path fill="#A15842" d="M76.901 133.499c.577 0 1.13-.234 1.539-.65.408-.417.637-.981.637-1.57 0-.589-.23-1.154-.637-1.57a2.155 2.155 0 00-1.539-.65h-40.37c-.577 0-1.13.234-1.539.65a2.243 2.243 0 00-.637 1.57c0 .589.23 1.153.637 1.57.408.416.962.65 1.539.65h5.332l-.01.067h6.439l.015-.067h16.75l.015.067h6.448l-.011-.067h5.392z"/><path fill="#FFB7D5" d="M60.074 185.683H9.932L.477 155.991c-.702-2.203.48-3.987 2.636-3.987h42.329c2.158 0 4.479 1.784 5.176 3.987l9.456 29.692z"/><path fill="#FFB7D5" d="M91.655 185.683H42.352a3.028 3.028 0 01-.416 2.664c-.27.379-.625.688-1.035.9-.41.213-.863.323-1.322.323h49.303c.46.001.913-.109 1.323-.322a2.91 2.91 0 001.035-.9 3.025 3.025 0 00.414-2.665z"/><path fill="#CA7358" d="M42.35 185.683H9.982l.377 1.188a3.9 3.9 0 001.39 1.953 3.773 3.773 0 002.25.746h25.595c.458-.002.91-.114 1.317-.327.408-.214.76-.523 1.03-.902a3.026 3.026 0 00.411-2.658z"/><path fill="#F5EBDD" d="M56.656 185.683H13.782l-8.948-28.066h42.875l8.947 28.066z"/><path fill="#3EC1F3" d="M40.617 180.111H27.41c-1.468 0-3.042-1.214-3.52-2.71l-3.184-10.012c-.476-1.495.326-2.709 1.794-2.709h13.207c1.465 0 3.04 1.214 3.517 2.709l3.185 10.012c.475 1.496-.327 2.71-1.792 2.71z"/><path stroke="#CA7358" stroke-linecap="round" stroke-miterlimit="10" stroke-width=".84" d="M10.175 185.252H59.66"/><path stroke="#F5EBDD" stroke-linecap="round" stroke-miterlimit="10" stroke-width=".84" d="M39.145 166.91l-5.208 5.677c-1.01 1.088-2.931 1.088-4.64 0l-8.6-5.533m13.445 5.368l8.211 5.282m-18.33.128l4.91-5.352"/><path fill="#4756DF" d="M39.65 168.575c-1.642 0-3.412-1.371-3.954-3.047-.252-.792-.185-1.523.188-2.043.343-.479.921-.745 1.63-.745 1.642 0 3.412 1.371 3.952 3.058.253.792.187 1.524-.188 2.042-.341.47-.92.735-1.627.735z"/><path fill="#F5EBDD" d="M37.513 163.165c1.447 0 3.072 1.262 3.548 2.755.213.653.164 1.245-.126 1.654a1.507 1.507 0 01-1.28.566c-1.448 0-3.072-1.262-3.547-2.758-.213-.653-.164-1.242.126-1.652.26-.365.714-.565 1.28-.565zm0-.871c-1.817 0-2.813 1.504-2.222 3.358.59 1.855 2.542 3.359 4.36 3.359 1.817 0 2.813-1.504 2.222-3.359-.59-1.854-2.542-3.358-4.36-3.358z"/><path fill="#3EC1F3" d="M213.039 87.67h-.053c-.38.7-2.882 4.986-7.278 4.986-4.396 0-6.898-4.285-7.28-4.986h-.051l-6.842 31.518h28.347l-6.843-31.518z"/><path stroke="#F5EBDD" stroke-linecap="round" stroke-miterlimit="10" stroke-width=".84" d="M194.777 104.435c5.806.621 14.822 5.912 17.955 14.662m-14.192.254c.65-7.128 6.185-18.91 16.146-22.594m-9.082-6.423c-2.447 2.631-5.531 5.082-9.021 6.727"/><path fill="#30242A" d="M205.708 92.656c4.396 0 6.898-4.285 7.278-4.986h-14.558c.382.7 2.882 4.986 7.28 4.986z"/><path fill="#A15842" d="M165.766 189.57c-.296 0-.589-.071-.853-.209a1.892 1.892 0 01-.666-.582 1.939 1.939 0 01-.262-1.72l5.883-18.266c.125-.381.364-.712.683-.947.32-.234.704-.36 1.098-.359h4.117c.327 0 .648.087.932.253.284.165.52.404.686.692a1.954 1.954 0 01.02 1.902l-10 18.266c-.164.295-.402.54-.69.711-.288.171-.615.26-.948.259zm78.7 0c.297 0 .589-.071.853-.209a1.895 1.895 0 001-1.41 1.94 1.94 0 00-.072-.892l-5.882-18.266a1.912 1.912 0 00-.684-.946 1.852 1.852 0 00-1.097-.36h-4.119a1.88 1.88 0 00-1.617.946 1.95 1.95 0 00-.019 1.901l9.999 18.266a1.9 1.9 0 00.69.711c.288.171.615.26.948.259z"/><path fill="#FFB7D5" d="M253.546 118.831h-96.529v56.39h96.529v-56.39z"/><path fill="#CA7358" d="M246.281 126.098v41.851h-81.999v-41.851h81.999zm.854-.87h-83.706v43.591h83.706v-43.591z"/><path stroke="#CA7358" stroke-miterlimit="10" stroke-width=".84" d="M205.192 125.149v43.753"/><path fill="#30242A" d="M214.893 149.561c1.372 0 2.484-1.135 2.484-2.535 0-1.401-1.112-2.536-2.484-2.536-1.373 0-2.485 1.135-2.485 2.536 0 1.4 1.112 2.535 2.485 2.535zm-19.222 0c1.373 0 2.485-1.135 2.485-2.535 0-1.401-1.112-2.536-2.485-2.536-1.372 0-2.484 1.135-2.484 2.536 0 1.4 1.112 2.535 2.484 2.535z"/><path fill="#4756DF" d="M62.97 101.982c1.656 0 3.244.672 4.415 1.866a6.437 6.437 0 011.828 4.505v20.766H56.727v-20.766c0-1.69.658-3.31 1.829-4.505a6.184 6.184 0 014.414-1.866z"/><path fill="#3EC1F3" d="M69.216 110.121H56.727v11.872h12.489v-11.872z"/><path fill="#30242A" d="M65.745 98.679h-5.55v4.011h5.55v-4.011zm73.594-33.68c4.264 0 7.721-3.527 7.721-7.879 0-4.351-3.457-7.879-7.721-7.879s-7.721 3.528-7.721 7.879c0 4.352 3.457 7.879 7.721 7.879z"/><path fill="#FFBE21" d="M133.343 61.991c.617.285-4.611-12.188-7.23-10.212-2.464 1.852 4.112 8.765 7.23 10.212z"/><path fill="#FFBE21" d="M132.679 61.967c.512.653 12.851-3.482 11.203-6.046-1.583-2.46-11.715 5.398-11.203 6.046z"/><path fill="#30242A" d="M147.803 52.91c2.745 0 4.971-2.27 4.971-5.073 0-2.802-2.226-5.073-4.971-5.073-2.746 0-4.972 2.271-4.972 5.073 0 2.802 2.226 5.074 4.972 5.074z"/><path fill="#CA7358" d="M113.846 137.756h25.388l1.34-6.478h-30.591l3.863 6.478zm-.222-21.374s5.185-6.908 14.915-7.557L135 94.663c-1.725-.281-2.969-.46-2.969-.46.256-.63 1.126-2.72 2.178-5.297-1.903-1.29-5.01-3.829-5.729-7.03 2.282-.35 6.825-2.55 5.031-6.395-2.197-4.716-8.011-1.088-8.011-1.088a13.82 13.82 0 01-3.238-7.279c-.706.074-2.728-.145-4.163-.938l-.096-.056a50.257 50.257 0 00-2.065 4.73c-.16.413-.314.813-.476 1.194 0 0-2.007-.348-2.418.499-.51 1.044 1.017 2.394 1.017 2.394-1.22 2.342-2.302 4.26-1.909 6.688.345 2.144 2.327 4.75 6.996 5.185l-2.346 7.555-8.745 15.494c1.715 1.025 4.018 2.978 5.567 6.523zm61.788-30.332c-2.754-3.506-12.584-17.823-15.867-20.51-2.116-1.727-3.385-.217-3.385-.217s-3.174-1.943-3.174 1.295c-3.174-1.943-3.174 1.726-3.174 1.726s-2.962-.653-1.691 3.024c1.367 3.952 16.714 32.482 16.714 32.482s-15.87-6.044-22.004-7.655c-1.126-.296-2.506-.588-3.899-.853-.898 2.146-2.301 5.659-4.565 11.535-3.071 7.956-1.578 15.909 7.31 19.065l1.576-7.618s16.424 6.299 25.596 6.044c31.105-.862 10.373-33.462 6.563-38.318z"/><path fill="#30242A" d="M122.263 67.115a13.81 13.81 0 003.246 7.297s5.815-3.639 8.011 1.089c1.794 3.846-2.749 6.044-5.031 6.394.719 3.202 3.826 5.74 5.729 7.03 1.561-3.828 3.519-8.736 4.441-11.535 1.363-4.149 2.067-10.578-4.053-15.223-5.727-4.338-12.29-1.46-13.77.05-.879.897-1.707 1.742-2.824 3.918l.096.057c1.427.768 3.449.988 4.155.923z"/><path fill="#FFBE21" d="M134.368 106.884c2.263-5.863 3.666-9.385 4.564-11.535a140.806 140.806 0 00-3.922-.69l-6.455 14.167c-9.73.653-14.916 7.556-14.916 7.556-1.557-3.545-3.86-5.497-5.565-6.529l-1.949 3.454a11.967 11.967 0 00-1.463 5.958 11.967 11.967 0 001.676 5.9l3.643 6.109h30.593l1.103-5.33c-8.888-3.152-10.381-11.105-7.309-19.06z"/><path stroke="#30242A" stroke-linecap="round" stroke-miterlimit="10" stroke-width=".84" d="M119.28 87.255a13.8 13.8 0 003.921-.591m27.223-10.876c.156-.553.54-.912 1.293-.858 2.963.218 6.134 4.967 6.134 4.967s4.554-2.394 8.519 1.208m-16.127-12.878c1.655 2.661 4.731 7.617 5.492 8.862m-2.438-10.71c1.707 2.564 4.693 6.939 5.825 8.77m-2.485-9.776c2.133 2.778 5.401 7.087 6.504 8.924m-6.981 2.793c1.279-.871 3.807-2.375 8.039-2.806M131.983 93.74l-3.75-.457m-9.522 42.312l-.211-.429m24.544-16.425l-2.118-.848m28.774-12.522l-4.81-1.928"/><path stroke="#30242A" stroke-linecap="round" stroke-linejoin="round" stroke-width=".84" d="M140.574 131.278h-30.591m18.25-22.452l-3.091 7.043a5.968 5.968 0 01-2.168 2.578 5.79 5.79 0 01-3.192.963h-15.144"/><path stroke="#30242A" stroke-linecap="round" stroke-miterlimit="10" stroke-width=".84" d="M115.218 77.561c.365.32 1.845.755 2.636-.334"/><path stroke="#A15842" stroke-linecap="round" stroke-miterlimit="10" stroke-width=".84" d="M130.246 76.885l-2.679 1.06"/><path stroke="#30242A" stroke-linecap="round" stroke-linejoin="round" stroke-width=".84" d="M120.253 72.608a1.51 1.51 0 01-1.206-.204 1.537 1.537 0 01-.445-.446 1.59 1.59 0 01-.235-.59"/><path fill="#F4E6D8" d="M127.451 80.74l-.969 4.037a1.268 1.268 0 00.317 1.187 1.203 1.203 0 001.159.337l3.616-.87c.204-.052.392-.155.545-.3a1.276 1.276 0 00.095-1.733l-2.647-3.159a1.227 1.227 0 00-.549-.373 1.203 1.203 0 00-1.236.293c-.16.159-.275.36-.331.58z"/><path stroke="#30242A" stroke-linecap="round" stroke-linejoin="round" stroke-width=".84" d="M135.593 174.552c-2.115-2.592-9.476-11.971-9.476-11.971"/><path fill="#4856DF" d="M192.757 153.523c-.776-2.142-2.201-5.731-3.959-10.041l-18.864 5.618-2.163.696c.973 6.419 1.72 9.549 1.72 9.549s-20.31-18.999-30.254-21.589h-25.4l-8.674 51.814h75.741c21.59 0 15.453-26.122 11.853-36.047z"/><path fill="#A15842" d="M172.219 104.005a2.788 2.788 0 00-1.247-1.392 2.699 2.699 0 00-1.829-.269c-3.76.857-4.053 8.123-4.944 12.31-1.48 6.911-4.654 9.501-4.865 14.035-.214 4.353 6.558 6.044 6.558 6.044.231 2.279.465 4.396.702 6.349l18.851-5.751c-5.17-12.436-11.294-26.804-13.226-31.326zm-4.458 45.741v.05l2.163-.696-2.163.646z"/><path fill="#3EC1F3" d="M188.802 143.476c-.056-.133-.109-.268-.164-.403l-18.704 6.027 18.868-5.624z"/><path fill="#3EC1F3" d="M188.638 143.075a1054.72 1054.72 0 00-3.199-7.742l-18.851 5.751c.403 3.36.802 6.244 1.167 8.665l2.171-.653 18.712-6.021z"/><path stroke="#3EC1F3" stroke-linecap="round" stroke-linejoin="round" stroke-width=".84" d="M131.485 137.688c6.761 7.237 41.725 43.923 52.601 40.222 7.941-2.701-3.752-29.313-4.865-32.815"/><path stroke="#30242A" stroke-linecap="round" stroke-linejoin="round" stroke-width=".84" d="M178.68 167.148c-2.451-2.242-6.826-6.24-9.151-8.352m-4.484-29.028l.415 4.512m4.901-31.553l.802 2.294m-2.722-2.076l1.297 3.254"/><path fill="#4856DF" d="M119.283 166.547l-.12-.037 4.413-28.797h-9.739s-38.92 15.157-47.806 29.62c-8.4 13.671 6.981 22.237 11.424 22.237h38.75l3.078-23.023z"/><path fill="#CA7358" d="M160.178 189.57c5.078 0 3.387-5.831-.214-7.772-3.6-1.942-7.828-3.887-12.271-9.932-4.442-6.044-9.732-4.533-13.117-.217 0 0-2.581-.947-6.374-2.231l-2.969 20.15 34.945.002z"/><path fill="#3EC1F3" d="M119.654 166.66l-.371-.113-3.078 23.023h9.031l2.969-20.159a338.655 338.655 0 00-8.551-2.751z"/><path stroke="#30242A" stroke-linecap="round" stroke-linejoin="round" stroke-width=".84" d="M157.852 187.196l3.124 1.939M98.4 161.504c8.887 1.726 12.73 2.829 20.77 5.441m36.143 21.331l1.824 1.077m-22.134-17.972l2.961 1.134"/><path stroke="#30242A" stroke-linecap="round" stroke-miterlimit="10" stroke-width=".84" d="M206.38 90.025c.452-2.726 2.508-13.534 7.54-19.383"/><path fill="#30242A" d="M217.017 80.07c4.393-1.938 7.608-4.326 7.181-5.335-.428-1.008-4.335-.255-8.729 1.683-4.393 1.938-7.608 4.327-7.181 5.336.428 1.008 4.335.254 8.729-1.684zm.437-28.211c1.588-2.162 2.277-4.373 1.538-4.938-.739-.566-2.626.729-4.214 2.89-1.589 2.163-2.278 4.374-1.539 4.94.739.565 2.626-.73 4.215-2.892z"/><path fill="#FFBE21" d="M226.032 66.435c-.31-1.027-2.315-1.358-4.853-.925 1.858-2.561 2.626-5.062 1.707-5.852-.92-.79-3.2.402-5.367 2.699 0-2.625-.663-4.589-1.706-4.726-1.331-.176-2.79 2.686-3.259 6.39a16.956 16.956 0 00-.116 3.194 3.79 3.79 0 011.898-.107 3.836 3.836 0 011.719.83c.496.417.882.955 1.123 1.564.24.609.328 1.27.256 1.922 1.007-.119 2-.332 2.969-.638 3.496-1.092 6.017-3.04 5.629-4.35z"/><path fill="#30242A" d="M216.08 67.963a3.82 3.82 0 00-1.729-.852 3.785 3.785 0 00-1.918.104c.113 1.765.542 3.119 1.197 3.623.608.586 2.028.788 3.798.586a4.02 4.02 0 00-.248-1.903 3.94 3.94 0 00-1.1-1.558z"/><path stroke="#30242A" stroke-linecap="round" stroke-miterlimit="10" stroke-width=".84" d="M204.985 89.678c-.147-3.095-1.028-18.283-4.33-27.252"/><path fill="#30242A" d="M194.096 80.968c5.674-1.104 10.119-2.827 9.928-3.85-.191-1.022-4.946-.957-10.619.147-5.674 1.103-10.118 2.826-9.927 3.849.191 1.023 4.945.957 10.618-.146z"/><path fill="#FFBE21" d="M203.076 49.51c-1.028-.23-2.293 1.394-3.17 3.862-1.28-2.908-3.037-4.817-4.159-4.39-1.122.426-1.231 3.047-.329 6.094-2.246-1.28-4.242-1.66-4.871-.799-.804 1.088.923 3.798 3.858 6.034a16.41 16.41 0 002.671 1.669c.133-.642.422-1.24.839-1.74a3.87 3.87 0 011.551-1.122 3.792 3.792 0 013.655.483 17.18 17.18 0 00.91-2.953c.783-3.648.357-6.844-.955-7.137z"/><path fill="#30242A" d="M199.506 59.105a3.85 3.85 0 00-1.577 1.12 3.963 3.963 0 00-.852 1.757c1.563.764 2.928 1.047 3.681.714.798-.257 1.668-1.421 2.363-3.093a3.79 3.79 0 00-3.615-.498z"/><path fill="#FFBE21" d="M189.662 65.687v.013a3.929 3.929 0 011.775 2.217c.299.94.242 1.96-.161 2.858a3.907 3.907 0 01-2.013 1.992 3.8 3.8 0 01-2.803.083v.015c4.774 2.227 9.362 2.422 10.238.435.877-1.987-2.263-5.389-7.036-7.613z"/><path fill="#F5EBDD" d="M190.046 72.31a1.907 1.907 0 01-.868-1.078 1.953 1.953 0 01.079-1.393c.198-.438.549-.784.985-.969a1.841 1.841 0 011.367-.03 4.004 4.004 0 00-.592-1.819 3.91 3.91 0 00-1.361-1.321l-3.2 7.15a3.789 3.789 0 003.59-.54z"/><path fill="#30242A" d="M189.256 69.844a1.95 1.95 0 00-.076 1.39c.146.457.455.84.866 1.076a3.922 3.922 0 001.221-1.528 4.005 4.005 0 00.342-1.941 1.842 1.842 0 00-1.368.032 1.896 1.896 0 00-.985.971z"/></g><defs><clipPath id="clip0"><path fill="#fff" d="M0 0h254v189.95H0z"/></clipPath></defs></svg>