<svg width="71" height="71" viewBox="0 0 71 71" fill="none" xmlns="http://www.w3.org/2000/svg">
  <circle cx="35.5" cy="35.5" r="35.5" fill="#31C5A1"/>
  <path d="M35.6093 22.086L35.5167 22.1236C35.5204 22.1327 35.5239 22.1415 35.5272 22.1503L35.5272 22.1503L38.6858 30.5688L38.6858 30.5689C38.8736 31.0692 38.6223 31.6272 38.1259 31.8156C38.014 31.8581 37.8994 31.8781 37.7869 31.8781C37.3986 31.8781 37.0329 31.6396 36.8875 31.2522L36.36 29.8461L36.3356 29.7812H36.2663H32.6096H32.5405L32.5161 29.8458L31.9825 31.255L31.9825 31.255C31.7934 31.7544 31.238 32.0043 30.7425 31.8145C30.2466 31.6246 29.997 31.0658 30.1863 30.5661L30.0928 30.5307L30.1863 30.5661L33.3739 22.1479L33.374 22.1476C33.3767 22.1404 33.3796 22.1332 33.3826 22.1258L33.2899 22.0882M35.6093 22.086L35.5168 22.1238C35.3379 21.6865 34.9194 21.4048 34.4501 21.4048H34.4501H34.4501H34.4501H34.4501H34.4501H34.4501H34.4501H34.4501H34.4501H34.45H34.45H34.45H34.45H34.45H34.45H34.45H34.45H34.45H34.45H34.45H34.45H34.45H34.45H34.45H34.45H34.45H34.45H34.45H34.45H34.4499H34.4499H34.4499H34.4499H34.4499H34.4499H34.4499H34.4499H34.4499H34.4499H34.4499H34.4499H34.4499H34.4499H34.4499H34.4499H34.4499H34.4499H34.4499H34.4499H34.4498H34.4498H34.4498H34.4498H34.4498H34.4498H34.4498H34.4498H34.4498H34.4498H34.4498H34.4498H34.4498H34.4498H34.4498H34.4498H34.4498H34.4498H34.4498H34.4498H34.4497H34.4497H34.4497H34.4497H34.4497H34.4497H34.4497H34.4497H34.4497H34.4497H34.4497H34.4497H34.4497H34.4497H34.4497H34.4497H34.4497H34.4497H34.4497H34.4497H34.4496H34.4496H34.4496H34.4496H34.4496H34.4496H34.4496H34.4496H34.4496H34.4496H34.4496H34.4496H34.4496H34.4496H34.4496H34.4496H34.4496H34.4496H34.4496H34.4496H34.4495H34.4495H34.4495H34.4495H34.4495H34.4495H34.4495H34.4495H34.4495H34.4495H34.4495H34.4495H34.4495H34.4495H34.4495H34.4495H34.4495H34.4495H34.4495H34.4495H34.4494H34.4494H34.4494H34.4494H34.4494H34.4494H34.4494H34.4494H34.4494H34.4494H34.4494H34.4494H34.4494H34.4494H34.4494H34.4494H34.4494H34.4494H34.4494H34.4494H34.4493H34.4493H34.4493H34.4493H34.4493H34.4493H34.4493H34.4493H34.4493H34.4493H34.4493H34.4493H34.4493H34.4493H34.4493H34.4493H34.4493H34.4493H34.4493H34.4493H34.4492H34.4492H34.4492H34.4492H34.4492H34.4492H34.4492H34.4492H34.4492H34.4492H34.4492H34.4492H34.4492H34.4492H34.4492H34.4492H34.4492H34.4492H34.4492H34.4492H34.4492H34.4491H34.4491H34.4491H34.4491H34.4491H34.4491H34.4491H34.4491H34.4491H34.4491H34.4491H34.4491H34.4491H34.4491H34.4491H34.4491H34.4491H34.4491H34.4491H34.4491H34.449H34.449H34.449H34.449H34.449H34.449H34.449H34.449H34.449H34.449H34.449H34.449H34.449H34.449H34.449H34.449H34.449H34.449H34.449H34.449H34.4489H34.4489H34.4489H34.4489H34.4489H34.4489H34.4489C33.9791 21.4053 33.5606 21.6879 33.3825 22.1259L33.2899 22.0882M35.6093 22.086C35.4152 21.6113 34.9603 21.3048 34.4501 21.3048H34.4488C33.9381 21.3053 33.4832 21.6129 33.2899 22.0882M35.6093 22.086C35.6133 22.0957 35.6171 22.1054 35.6208 22.1152L38.7794 30.5337C38.9864 31.0852 38.7096 31.701 38.1614 31.9091L33.2804 22.1125C33.2834 22.1044 33.2866 22.0963 33.2899 22.0882M33.3244 27.7113L33.2731 27.8467H33.4179H35.4655H35.6098L35.5591 27.7116L34.54 24.9956L34.4468 24.7472L34.3528 24.9953L33.3244 27.7113Z" fill="white" stroke="#31C5A1" stroke-width="0.2"/>
  <path d="M28.9063 43.077L28.8577 43.1524L28.9273 43.2089C29.6651 43.8082 30.1379 44.7244 30.1378 45.75V45.75C30.1378 47.5511 28.681 49.0156 26.8917 49.0156C26.3318 49.0156 24.4217 49.0239 24.0591 49.0255C24.0237 49.0256 24.003 49.0257 23.9998 49.0257C23.9997 49.0257 23.9996 49.0257 23.9996 49.0257L23.9952 49.0257C23.7413 49.0257 23.4975 48.9246 23.3173 48.7441C23.136 48.5626 23.0341 48.3159 23.0341 48.0584V39.52C23.0341 38.9853 23.465 38.5527 23.9952 38.5527H26.4611C28.0675 38.5527 29.3755 39.8675 29.3755 41.4847C29.3755 42.0716 29.2027 42.6181 28.9063 43.077ZM25.0563 40.4873H24.9563V40.5873V42.4017V42.5017H25.0563V42.4017L25.0564 42.5017H25.0564H25.0565H25.0566H25.0567H25.0568H25.057H25.0572H25.0575H25.0577H25.058H25.0583H25.0587H25.059H25.0594H25.0599H25.0603H25.0608H25.0613H25.0618H25.0624H25.0629H25.0635H25.0642H25.0648H25.0655H25.0662H25.0669H25.0677H25.0685H25.0693H25.0701H25.071H25.0718H25.0727H25.0737H25.0746H25.0756H25.0766H25.0776H25.0787H25.0797H25.0808H25.082H25.0831H25.0843H25.0855H25.0867H25.0879H25.0892H25.0904H25.0917H25.0931H25.0944H25.0958H25.0972H25.0986H25.1H25.1015H25.103H25.1045H25.106H25.1076H25.1091H25.1107H25.1123H25.114H25.1156H25.1173H25.119H25.1207H25.1225H25.1242H25.126H25.1278H25.1296H25.1315H25.1333H25.1352H25.1371H25.139H25.141H25.1429H25.1449H25.1469H25.1489H25.151H25.153H25.1551H25.1572H25.1593H25.1615H25.1636H25.1658H25.168H25.1702H25.1724H25.1746H25.1769H25.1792H25.1815H25.1838H25.1861H25.1885H25.1909H25.1932H25.1956H25.1981H25.2005H25.203H25.2054H25.2079H25.2104H25.2129H25.2155H25.218H25.2206H25.2232H25.2258H25.2284H25.231H25.2337H25.2363H25.239H25.2417H25.2444H25.2472H25.2499H25.2527H25.2554H25.2582H25.261H25.2638H25.2667H25.2695H25.2724H25.2752H25.2781H25.281H25.2839H25.2869H25.2898H25.2928H25.2957H25.2987H25.3017H25.3047H25.3077H25.3108H25.3138H25.3169H25.32H25.3231H25.3262H25.3293H25.3324H25.3355H25.3387H25.3418H25.345H25.3482H25.3514H25.3546H25.3578H25.361H25.3643H25.3675H25.3708H25.3741H25.3774H25.3807H25.384H25.3873H25.3906H25.3939H25.3973H25.4007H25.404H25.4074H25.4108H25.4142H25.4176H25.421H25.4244H25.4279H25.4313H25.4348H25.4382H25.4417H25.4452H25.4487H25.4522H25.4557H25.4592H25.4627H25.4663H25.4698H25.4734H25.4769H25.4805H25.4841H25.4876H25.4912H25.4948H25.4984H25.502H25.5056H25.5093H25.5129H25.5165H25.5202H25.5238H25.5275H25.5312H25.5348H25.5385H25.5422H25.5459H25.5496H25.5533H25.557H25.5607H25.5644H25.5681H25.5719H25.5756H25.5793H25.5831H25.5868H25.5906H25.5943H25.5981H25.6019H25.6056H25.6094H25.6132H25.617H25.6208H25.6246H25.6284H25.6322H25.636H25.6398H25.6436H25.6474H25.6512H25.655H25.6589H25.6627H25.6665H25.6704H25.6742H25.678H25.6819H25.6857H25.6896H25.6934H25.6972H25.7011H25.7049H25.7088H25.7127H25.7165H25.7204H25.7242H25.7281H25.732H25.7358H25.7397H25.7435H25.7474H25.7513H25.7551H25.759H25.7629H25.7667H25.7706H25.7745H25.7783H25.7822H25.7861H25.7899H25.7938H25.7977H25.8015H25.8054H25.8093H25.8131H25.817H25.8209H25.8247H25.8286H25.8324H25.8363H25.8401H25.844H25.8478H25.8517H25.8555H25.8594H25.8632H25.867H25.8709H25.8747H25.8785H25.8824H25.8862H25.89H25.8938H25.8976H25.9014H25.9052H25.909H25.9128H25.9166H25.9204H25.9242H25.928H25.9318H25.9356H25.9393H25.9431H25.9469H25.9506H25.9544H25.9581H25.9619H25.9656H25.9693H25.9731H25.9768H25.9805H25.9842H25.9879H25.9916H25.9953H25.999H26.0027H26.0064H26.01H26.0137H26.0174H26.021H26.0247H26.0283H26.0319H26.0355H26.0392H26.0428H26.0464H26.05H26.0536H26.0571H26.0607H26.0643H26.0678H26.0714H26.0749H26.0784H26.082H26.0855H26.089H26.0925H26.096H26.0995H26.1029H26.1064H26.1098H26.1133H26.1167H26.1201H26.1236H26.127H26.1304H26.1338H26.1371H26.1405H26.1439H26.1472H26.1505H26.1539H26.1572H26.1605H26.1638H26.1671H26.1703H26.1736H26.1769H26.1801H26.1833H26.1865H26.1897H26.1929H26.1961H26.1993H26.2024H26.2056H26.2087H26.2118H26.215H26.2181H26.2211H26.2242H26.2273H26.2303H26.2334H26.2364H26.2394H26.2424H26.2454H26.2483H26.2513H26.2542H26.2571H26.2601H26.263H26.2658H26.2687H26.2716H26.2744H26.2772H26.2801H26.2828H26.2856H26.2884H26.2912H26.2939H26.2966H26.2993H26.302H26.3047H26.3074H26.31H26.3126H26.3153H26.3179H26.3204H26.323H26.3256H26.3281H26.3306H26.3331H26.3356H26.3381H26.3405H26.3429H26.3454H26.3478H26.3501H26.3525H26.3549H26.3572H26.3595H26.3618H26.3641H26.3663H26.3686H26.3708H26.373H26.3752H26.3774H26.3795H26.3816H26.3838H26.3858H26.3879H26.39H26.392H26.394H26.396H26.398H26.4H26.4019H26.4038H26.4057H26.4076H26.4095H26.4113H26.4131H26.4149H26.4167H26.4184H26.4202H26.4219H26.4236H26.4253H26.4269H26.4285H26.4302H26.4317H26.4333H26.4349H26.4364H26.4379H26.4394H26.4408H26.4423H26.4437H26.4451H26.4464H26.4478H26.4491H26.4504H26.4517H26.4529H26.4542H26.4554H26.4566H26.4577H26.4589H26.46H26.4611C27.0116 42.5017 27.4533 42.0314 27.4533 41.4847C27.4533 40.9352 27.0088 40.4873 26.4611 40.4873H25.0563ZM24.9563 46.9866V47.087L25.0567 47.0866C25.7384 47.0839 26.5554 47.081 26.8918 47.081C27.6224 47.081 28.2156 46.4834 28.2156 45.75C28.2156 45.0166 27.6224 44.419 26.8918 44.419H26.8917L26.8918 44.519L26.8917 44.419H26.8916H26.8914L26.8905 44.419L26.8869 44.4191L26.8729 44.4191L26.8197 44.4191L26.6285 44.4193L26.037 44.4198C25.5993 44.4202 25.1402 44.4207 25.056 44.421L24.9563 44.4214V44.521V46.9866Z" fill="white" stroke="#31C5A1" stroke-width="0.2"/>
  <path d="M43.5058 34.1026L43.4317 34.248H43.5949H49.3292C51.4188 34.248 53.12 35.9582 53.12 38.0614V49.5171C53.12 51.6203 51.4188 53.3305 49.3292 53.3305H37.9397C36.8545 53.3305 35.875 52.8688 35.183 52.1305L35.11 52.0526L35.037 52.1305C34.345 52.8688 33.3655 53.3305 32.2803 53.3305H20.8908C18.8012 53.3305 17.1 51.6203 17.1 49.5171V38.0614C17.1 35.9582 18.8012 34.248 20.8908 34.248H25.2776H25.4408L25.3667 34.1026C25.1014 33.582 24.9507 32.9932 24.9507 32.3691V20.9134C24.9507 18.8102 26.6519 17.1 28.7415 17.1H40.131C42.2206 17.1 43.9218 18.8102 43.9218 20.9134V32.3691C43.9218 32.9932 43.7711 33.582 43.5058 34.1026ZM32.2803 51.3959C33.3113 51.3959 34.1489 50.5526 34.1489 49.5171V38.0614C34.1489 37.0259 33.3113 36.1826 32.2803 36.1826H20.8908C19.8599 36.1826 19.0223 37.0259 19.0223 38.0614V49.5171C19.0223 50.5526 19.8599 51.3959 20.8908 51.3959H32.2803ZM26.873 32.3691C26.873 33.4047 27.7106 34.248 28.7415 34.248H40.131C41.162 34.248 41.9996 33.4047 41.9996 32.3691V20.9134C41.9996 19.8779 41.162 19.0346 40.131 19.0346H28.7415C27.7106 19.0346 26.873 19.8779 26.873 20.9134V32.3691ZM49.3292 51.3959C50.3601 51.3959 51.1977 50.5526 51.1977 49.5171V38.0614C51.1977 37.0259 50.3601 36.1826 49.3292 36.1826H37.9397C36.9087 36.1826 36.0711 37.0259 36.0711 38.0614V49.5171C36.0711 50.5526 36.9087 51.3959 37.9397 51.3959H49.3292Z" fill="white" stroke="#31C5A1" stroke-width="0.2"/>
  <path d="M47.3886 47.9332L47.3885 47.9332C46.5917 48.6471 45.5664 49.0257 44.4199 49.0257C41.5502 49.0257 39.2143 46.6771 39.2143 43.7892C39.2143 40.9014 41.5502 38.5527 44.4199 38.5527C45.463 38.5527 46.4694 38.8621 47.3309 39.4474C47.7709 39.7464 47.8869 40.3479 47.5894 40.7909C47.2921 41.2335 46.695 41.3495 46.2553 41.0509C45.7127 40.6821 45.078 40.4873 44.4199 40.4873C42.6088 40.4873 41.1365 41.969 41.1365 43.7892C41.1365 45.6094 42.6088 47.0911 44.4199 47.0911C45.0908 47.0911 45.662 46.89 46.1104 46.4882C46.1976 46.4101 46.2808 46.3237 46.3577 46.2314C46.6989 45.8223 47.3048 45.7689 47.7114 46.1119C48.1183 46.4551 48.1716 47.0655 47.8302 47.475C47.6936 47.639 47.545 47.7931 47.3886 47.9332Z" fill="white" stroke="#31C5A1" stroke-width="0.2"/>
</svg>
