<svg width="71" height="71" viewBox="0 0 71 71" fill="none" xmlns="http://www.w3.org/2000/svg">
  <circle cx="35.5" cy="35.5" r="35.5" fill="#31C5A1"/>
  <path d="M34.8767 35.4572L34.8766 35.4573L34.8665 35.4621C34.7353 35.5237 31.8111 36.9209 30.2729 37.656C30.0373 37.7692 29.8234 37.9207 29.638 38.1061C28.7404 39.0037 28.7404 40.4644 29.638 41.362C30.5356 42.2597 31.9964 42.2597 32.8941 41.3621C32.8941 41.362 32.8942 41.362 32.8942 41.362M34.8767 35.4572L33.4339 40.7698C33.3162 41.0161 33.1583 41.2392 32.9649 41.4327L32.8942 41.362M34.8767 35.4572C35.0681 35.3659 35.297 35.405 35.446 35.5541L35.446 35.5541C35.5951 35.7031 35.6344 35.933 35.5439 36.1242M34.8767 35.4572L33.3467 40.7204M32.8942 41.362C33.0796 41.1765 33.2308 40.9627 33.3437 40.7267L33.3437 40.7265L33.3467 40.7204M32.8942 41.362L33.3467 40.7204M33.3467 40.7204L33.4368 40.7639L33.3473 40.7191L33.3467 40.7204ZM33.3467 40.7204C33.3956 40.6191 34.803 37.6746 35.5439 36.1242M35.5439 36.1242C35.5439 36.1242 35.5439 36.1243 35.5438 36.1244L35.6342 36.1672L35.544 36.1241C35.5439 36.1241 35.5439 36.1241 35.5439 36.1242ZM25.5531 41.3175L25.4997 41.233L25.5532 41.3175C25.8801 41.1105 25.9772 40.6776 25.7702 40.3508C24.1857 37.8487 23.3481 34.953 23.3481 31.9766C23.3481 23.3332 30.3802 16.3012 39.0235 16.3012C47.6668 16.3012 54.6989 23.3332 54.6989 31.9766C54.6989 40.6199 47.6668 47.652 39.0235 47.652C35.5149 47.652 32.1147 46.4747 29.3661 44.3234L30.3651 43.3245C30.6604 43.3982 30.963 43.4359 31.266 43.4359C31.9738 43.4359 32.6814 43.234 33.2952 42.8316C35.0527 43.7598 37.023 44.2484 39.0235 44.2484C45.7903 44.2484 51.2954 38.7434 51.2954 31.9766C51.2954 25.2097 45.7904 19.7047 39.0235 19.7047C32.2567 19.7047 26.7516 25.2097 26.7516 31.9766C26.7516 33.9771 27.2403 35.9475 28.1685 37.7048C27.594 38.5814 27.43 39.6491 27.6757 40.6349L24.8252 43.4855C24.4662 43.8446 24.2682 44.3224 24.2682 44.8302C24.2682 45.0944 24.3235 45.3493 24.4253 45.5842L23.5688 46.4407C23.2472 46.7622 22.8202 46.9391 22.3655 46.9391H20.4606C19.9496 46.9391 19.4695 47.1392 19.1097 47.5023L19.1807 47.5727L19.1097 47.5023C18.3735 48.2452 18.3902 49.46 19.1411 50.2108L20.7893 51.8591C20.9972 52.0669 21.0018 52.4034 20.8162 52.5906L20.8162 52.5906C20.7213 52.6864 20.5953 52.7389 20.4606 52.7389H18.5558C17.7271 52.7389 16.9475 53.0618 16.3616 53.6478L15.1052 54.9042C14.8316 55.1778 14.8316 55.6214 15.1052 55.8949L15.1052 55.895C15.2421 56.0316 15.4216 56.1 15.6006 56.1C15.7797 56.1 15.9593 56.0316 16.096 55.8948L17.3524 54.6384L17.2817 54.5676L17.3524 54.6383C17.6739 54.3168 18.1009 54.1399 18.5558 54.1399H20.4606C20.9717 54.1399 21.4518 53.9398 21.8115 53.5768C22.5477 52.8339 22.531 51.6191 21.78 50.8682L20.1319 49.2199L20.0612 49.2907L20.1319 49.2199C19.924 49.0122 19.9194 48.6758 20.105 48.4885C20.1999 48.3927 20.3258 48.3402 20.4606 48.3402H22.3654C23.1941 48.3402 23.9736 48.0174 24.5595 47.4314L25.4159 46.5749C25.6508 46.6768 25.9058 46.732 26.1699 46.732C26.6777 46.732 27.1556 46.5341 27.5147 46.175L28.369 45.3206C31.3866 47.7316 35.1442 49.0531 39.0235 49.0531C48.4396 49.0531 56.1001 41.3927 56.1001 31.9766C56.1001 22.5604 48.4397 14.9 39.0235 14.9C29.6074 14.9 21.9469 22.5604 21.9469 31.9766C21.9469 35.2186 22.8596 38.3735 24.5864 41.1004C24.7935 41.4274 25.2262 41.5245 25.5531 41.3175ZM34.1829 34.2358L34.1847 34.2395C34.1672 34.2477 34.1478 34.2568 34.1269 34.2666C34.0397 34.3076 33.9192 34.3646 33.7767 34.4322C33.4916 34.5675 33.118 34.7453 32.7466 34.9223C32.3753 35.0992 32.0061 35.2754 31.7298 35.4072L31.3962 35.5665L31.3601 35.5837C30.8321 34.4614 30.5551 33.2269 30.5551 31.9766C30.5551 27.3072 34.3541 23.5082 39.0235 23.5082C43.6929 23.5082 47.4919 27.3072 47.4919 31.9766C47.4919 36.6459 43.6929 40.4449 39.0235 40.4449C37.7731 40.4449 36.5386 40.168 35.4163 39.6399L36.8089 36.7265L36.8091 36.7262C37.1534 35.9997 37.004 35.1306 36.4367 34.5633C35.8685 33.9951 34.9991 33.8462 34.2731 34.1927L34.1829 34.2358ZM29.154 31.9766C29.154 33.4359 29.4781 34.8772 30.0961 36.1877L29.6677 36.3923L29.6675 36.3924C29.5079 36.4691 29.3549 36.5567 29.209 36.6544C28.5162 35.2009 28.1528 33.6003 28.1528 31.9766C28.1528 25.9825 33.0295 21.1059 39.0235 21.1059C45.0175 21.1059 49.8942 25.9825 49.8942 31.9766C49.8942 37.9706 45.0175 42.8473 39.0235 42.8473C37.3997 42.8473 35.799 42.4837 34.3455 41.7909C34.4428 41.6446 34.5289 41.4913 34.605 41.3324C34.6249 41.2954 34.6872 41.1662 34.7429 41.0497L34.8123 40.904C36.1228 41.522 37.5641 41.8461 39.0235 41.8461C44.4657 41.8461 48.893 37.4187 48.893 31.9766C48.893 26.5344 44.4657 22.107 39.0235 22.107C33.5813 22.107 29.154 26.5344 29.154 31.9766ZM25.816 45.1841L25.8159 45.1841C25.7213 45.0894 25.6693 44.9641 25.6693 44.8301C25.6693 44.6963 25.7213 44.5708 25.8159 44.4762L25.816 44.4762L28.3178 41.9744C28.4176 42.106 28.5271 42.2326 28.6473 42.3528C28.7675 42.4731 28.8941 42.5826 29.0257 42.6824L26.5239 45.1841L26.5946 45.2548L26.5239 45.1841C26.4291 45.2788 26.3038 45.3307 26.1699 45.3307C26.036 45.3307 25.9106 45.2788 25.816 45.1841Z" fill="white" stroke="white" stroke-width="0.2"/>
</svg>
