<svg width="71" height="71" viewBox="0 0 71 71" fill="none" xmlns="http://www.w3.org/2000/svg">
  <circle cx="35.5" cy="35.5" r="35.5" fill="#31C5A1"/>
  <mask id="path-2-outside-1" maskUnits="userSpaceOnUse" x="15" y="15.7606" width="41" height="39" fill="black">
  <rect fill="white" x="15" y="15.7606" width="41" height="39"/>
  <path d="M17.4822 37.6922C18.1901 37.2776 19.0157 37.169 19.8066 37.3863C20.5976 37.6037 21.2517 38.1189 21.6482 38.8369L22.2339 39.8972L22.7695 37.8983L21.1754 35.1374C20.2314 33.5024 20.7936 31.4041 22.4287 30.4601C23.0325 30.1115 23.7054 29.9698 24.3611 30.0136L22.8719 27.4365C22.4146 26.6445 22.2931 25.7217 22.5298 24.8383C22.7665 23.9549 23.3331 23.2165 24.1251 22.7593C24.7337 22.4079 25.4063 22.2656 26.0598 22.3092L25.8212 21.896C24.8771 20.261 25.4394 18.1627 27.0745 17.2187C28.7095 16.2746 30.8077 16.8371 31.7518 18.472L31.9901 18.8849C32.279 18.2973 32.739 17.7861 33.3474 17.4348C34.1394 16.9775 35.0622 16.856 35.9456 17.0927C36.829 17.3294 37.5674 17.896 38.0246 18.688L39.085 20.5248C39.2954 20.8892 39.1706 21.3551 38.8062 21.5654C38.4418 21.7757 37.9759 21.6509 37.7657 21.2866L36.7053 19.4498C36.4514 19.0102 36.0416 18.6956 35.5513 18.5642C35.061 18.4328 34.5488 18.5003 34.1091 18.7541C33.6695 19.0079 33.3551 19.4177 33.2236 19.908C33.093 20.3955 33.1589 20.9045 33.4089 21.3424L40.2899 33.2601C40.5002 33.6245 40.3754 34.0903 40.0111 34.3007C39.6468 34.5109 39.1809 34.3862 38.9705 34.022L30.4326 19.2337C29.9086 18.3261 28.744 18.014 27.8364 18.538C26.9288 19.062 26.6167 20.2267 27.1407 21.1342L34.0544 33.109C35.2921 33.5306 36.0102 34.8499 35.6669 36.131L35.5482 36.5738C35.8739 36.5269 36.2139 36.5435 36.5513 36.6338C37.887 36.9918 38.6825 38.3696 38.3247 39.7054L36.2785 47.3418C35.9004 48.7527 35.2123 50.0272 34.2724 51.0906C38.2391 53.294 43.0419 53.2716 47.0119 50.9795C52.5815 47.7638 54.9296 41.0802 52.5951 35.0876L50.1647 28.8488C49.7681 27.8308 48.6102 27.3065 47.5836 27.6802C46.5839 28.0441 46.0337 29.1292 46.3309 30.1506L47.9065 35.565C48.0242 35.9694 47.8208 36.399 47.4336 36.5643C47.0462 36.7295 46.5953 36.5791 46.3849 36.2145L41.1914 27.2197C40.981 26.8553 41.1059 26.3895 41.4702 26.1791C41.8344 25.9688 42.3004 26.0936 42.5108 26.4579L44.8487 30.507C44.3723 28.7381 45.3338 26.8777 47.0624 26.2486C47.9394 25.9295 48.8906 25.9657 49.7406 26.3505C50.5907 26.7354 51.2455 27.4262 51.5843 28.2958L54.0146 34.5346C55.2676 37.7509 55.3276 41.3157 54.1834 44.5723C53.0393 47.8289 50.7629 50.5728 47.7736 52.2987C45.5693 53.5715 43.0847 54.2375 40.5574 54.2375C40.3891 54.2375 40.2204 54.2345 40.0518 54.2286C37.6027 54.1425 35.2186 53.4375 33.1225 52.185C32.7542 52.4798 32.3612 52.7489 31.945 52.9893C30.5119 53.8168 28.9215 54.2394 27.3097 54.2394C26.5019 54.2394 25.6885 54.1331 24.8873 53.9184C21.9174 53.1227 19.5365 50.9156 18.5184 48.0144L16.1759 41.3395C15.6898 39.9541 16.2391 38.4201 17.4822 37.6922ZM23.1906 31.7795C22.283 32.3035 21.971 33.4681 22.4949 34.3757L23.3272 35.8173L24.0754 33.0251C24.2172 32.4959 24.5208 32.0379 24.944 31.7053C24.3985 31.4527 23.7426 31.4609 23.1906 31.7795ZM24.887 24.0786C24.4474 24.3324 24.133 24.7423 24.0015 25.2326C23.8701 25.723 23.9376 26.2351 24.1913 26.6745L26.797 31.1839C26.9141 31.1982 27.031 31.2205 27.1469 31.2516C27.4819 31.3414 27.7881 31.4964 28.0523 31.705C28.2495 31.1365 28.6393 30.6627 29.1658 30.3588C29.5814 30.1188 30.0462 30.0058 30.5143 30.0244L27.483 24.774C26.959 23.8667 25.7945 23.5547 24.887 24.0786ZM17.6135 40.835L19.9559 47.5099C20.8073 49.9358 22.7982 51.7814 25.2816 52.4468C27.2884 52.9845 29.3842 52.7086 31.1833 51.6698C32.9824 50.6311 34.2693 48.954 34.807 46.9473L36.8531 39.311C36.9936 38.7867 36.6813 38.2459 36.157 38.1053C35.6329 37.9651 35.0921 38.2769 34.9514 38.801L33.6364 43.7087C33.5452 44.049 33.2375 44.2734 32.9011 44.2734C32.8359 44.2734 32.7695 44.265 32.7034 44.2473C32.2971 44.1384 32.0559 43.7207 32.1648 43.3143L34.1952 35.7365C34.3357 35.2122 34.0235 34.6713 33.4991 34.5308C32.9749 34.3905 32.434 34.7026 32.2934 35.2269L30.2629 42.8047C30.1541 43.211 29.7366 43.4522 29.3299 43.3433C28.9236 43.2345 28.6825 42.8167 28.7913 42.4103L31.3706 32.7854C31.4387 32.5314 31.4037 32.2662 31.2722 32.0384C31.1408 31.8108 30.9285 31.6479 30.6745 31.5798C30.4205 31.5117 30.1553 31.5467 29.9275 31.6781C29.6998 31.8096 29.537 32.0219 29.4689 32.2759L26.8898 41.9009C26.7986 42.2413 26.4909 42.4658 26.1545 42.4657C26.0893 42.4657 26.0229 42.4573 25.9568 42.4396C25.5505 42.3307 25.3094 41.913 25.4182 41.5066L27.4486 33.9288C27.5167 33.6748 27.4818 33.4096 27.3503 33.1818C27.2188 32.9541 27.0065 32.7913 26.7526 32.7232C26.2283 32.583 25.6875 32.8949 25.5469 33.4193L23.2164 42.1168C23.136 42.4169 22.8814 42.6381 22.5729 42.6757C22.2643 42.7136 21.9641 42.5599 21.8139 42.2879L20.3147 39.5735C20.1183 39.218 19.7945 38.963 19.4029 38.8553C19.0114 38.7476 18.6027 38.8015 18.2521 39.0068C17.6367 39.3672 17.3682 40.1361 17.6135 40.835Z"/>
  </mask>
  <path d="M17.4822 37.6922C18.1901 37.2776 19.0157 37.169 19.8066 37.3863C20.5976 37.6037 21.2517 38.1189 21.6482 38.8369L22.2339 39.8972L22.7695 37.8983L21.1754 35.1374C20.2314 33.5024 20.7936 31.4041 22.4287 30.4601C23.0325 30.1115 23.7054 29.9698 24.3611 30.0136L22.8719 27.4365C22.4146 26.6445 22.2931 25.7217 22.5298 24.8383C22.7665 23.9549 23.3331 23.2165 24.1251 22.7593C24.7337 22.4079 25.4063 22.2656 26.0598 22.3092L25.8212 21.896C24.8771 20.261 25.4394 18.1627 27.0745 17.2187C28.7095 16.2746 30.8077 16.8371 31.7518 18.472L31.9901 18.8849C32.279 18.2973 32.739 17.7861 33.3474 17.4348C34.1394 16.9775 35.0622 16.856 35.9456 17.0927C36.829 17.3294 37.5674 17.896 38.0246 18.688L39.085 20.5248C39.2954 20.8892 39.1706 21.3551 38.8062 21.5654C38.4418 21.7757 37.9759 21.6509 37.7657 21.2866L36.7053 19.4498C36.4514 19.0102 36.0416 18.6956 35.5513 18.5642C35.061 18.4328 34.5488 18.5003 34.1091 18.7541C33.6695 19.0079 33.3551 19.4177 33.2236 19.908C33.093 20.3955 33.1589 20.9045 33.4089 21.3424L40.2899 33.2601C40.5002 33.6245 40.3754 34.0903 40.0111 34.3007C39.6468 34.5109 39.1809 34.3862 38.9705 34.022L30.4326 19.2337C29.9086 18.3261 28.744 18.014 27.8364 18.538C26.9288 19.062 26.6167 20.2267 27.1407 21.1342L34.0544 33.109C35.2921 33.5306 36.0102 34.8499 35.6669 36.131L35.5482 36.5738C35.8739 36.5269 36.2139 36.5435 36.5513 36.6338C37.887 36.9918 38.6825 38.3696 38.3247 39.7054L36.2785 47.3418C35.9004 48.7527 35.2123 50.0272 34.2724 51.0906C38.2391 53.294 43.0419 53.2716 47.0119 50.9795C52.5815 47.7638 54.9296 41.0802 52.5951 35.0876L50.1647 28.8488C49.7681 27.8308 48.6102 27.3065 47.5836 27.6802C46.5839 28.0441 46.0337 29.1292 46.3309 30.1506L47.9065 35.565C48.0242 35.9694 47.8208 36.399 47.4336 36.5643C47.0462 36.7295 46.5953 36.5791 46.3849 36.2145L41.1914 27.2197C40.981 26.8553 41.1059 26.3895 41.4702 26.1791C41.8344 25.9688 42.3004 26.0936 42.5108 26.4579L44.8487 30.507C44.3723 28.7381 45.3338 26.8777 47.0624 26.2486C47.9394 25.9295 48.8906 25.9657 49.7406 26.3505C50.5907 26.7354 51.2455 27.4262 51.5843 28.2958L54.0146 34.5346C55.2676 37.7509 55.3276 41.3157 54.1834 44.5723C53.0393 47.8289 50.7629 50.5728 47.7736 52.2987C45.5693 53.5715 43.0847 54.2375 40.5574 54.2375C40.3891 54.2375 40.2204 54.2345 40.0518 54.2286C37.6027 54.1425 35.2186 53.4375 33.1225 52.185C32.7542 52.4798 32.3612 52.7489 31.945 52.9893C30.5119 53.8168 28.9215 54.2394 27.3097 54.2394C26.5019 54.2394 25.6885 54.1331 24.8873 53.9184C21.9174 53.1227 19.5365 50.9156 18.5184 48.0144L16.1759 41.3395C15.6898 39.9541 16.2391 38.4201 17.4822 37.6922ZM23.1906 31.7795C22.283 32.3035 21.971 33.4681 22.4949 34.3757L23.3272 35.8173L24.0754 33.0251C24.2172 32.4959 24.5208 32.0379 24.944 31.7053C24.3985 31.4527 23.7426 31.4609 23.1906 31.7795ZM24.887 24.0786C24.4474 24.3324 24.133 24.7423 24.0015 25.2326C23.8701 25.723 23.9376 26.2351 24.1913 26.6745L26.797 31.1839C26.9141 31.1982 27.031 31.2205 27.1469 31.2516C27.4819 31.3414 27.7881 31.4964 28.0523 31.705C28.2495 31.1365 28.6393 30.6627 29.1658 30.3588C29.5814 30.1188 30.0462 30.0058 30.5143 30.0244L27.483 24.774C26.959 23.8667 25.7945 23.5547 24.887 24.0786ZM17.6135 40.835L19.9559 47.5099C20.8073 49.9358 22.7982 51.7814 25.2816 52.4468C27.2884 52.9845 29.3842 52.7086 31.1833 51.6698C32.9824 50.6311 34.2693 48.954 34.807 46.9473L36.8531 39.311C36.9936 38.7867 36.6813 38.2459 36.157 38.1053C35.6329 37.9651 35.0921 38.2769 34.9514 38.801L33.6364 43.7087C33.5452 44.049 33.2375 44.2734 32.9011 44.2734C32.8359 44.2734 32.7695 44.265 32.7034 44.2473C32.2971 44.1384 32.0559 43.7207 32.1648 43.3143L34.1952 35.7365C34.3357 35.2122 34.0235 34.6713 33.4991 34.5308C32.9749 34.3905 32.434 34.7026 32.2934 35.2269L30.2629 42.8047C30.1541 43.211 29.7366 43.4522 29.3299 43.3433C28.9236 43.2345 28.6825 42.8167 28.7913 42.4103L31.3706 32.7854C31.4387 32.5314 31.4037 32.2662 31.2722 32.0384C31.1408 31.8108 30.9285 31.6479 30.6745 31.5798C30.4205 31.5117 30.1553 31.5467 29.9275 31.6781C29.6998 31.8096 29.537 32.0219 29.4689 32.2759L26.8898 41.9009C26.7986 42.2413 26.4909 42.4658 26.1545 42.4657C26.0893 42.4657 26.0229 42.4573 25.9568 42.4396C25.5505 42.3307 25.3094 41.913 25.4182 41.5066L27.4486 33.9288C27.5167 33.6748 27.4818 33.4096 27.3503 33.1818C27.2188 32.9541 27.0065 32.7913 26.7526 32.7232C26.2283 32.583 25.6875 32.8949 25.5469 33.4193L23.2164 42.1168C23.136 42.4169 22.8814 42.6381 22.5729 42.6757C22.2643 42.7136 21.9641 42.5599 21.8139 42.2879L20.3147 39.5735C20.1183 39.218 19.7945 38.963 19.4029 38.8553C19.0114 38.7476 18.6027 38.8015 18.2521 39.0068C17.6367 39.3672 17.3682 40.1361 17.6135 40.835Z" fill="white"/>
  <path d="M17.4822 37.6922C18.1901 37.2776 19.0157 37.169 19.8066 37.3863C20.5976 37.6037 21.2517 38.1189 21.6482 38.8369L22.2339 39.8972L22.7695 37.8983L21.1754 35.1374C20.2314 33.5024 20.7936 31.4041 22.4287 30.4601C23.0325 30.1115 23.7054 29.9698 24.3611 30.0136L22.8719 27.4365C22.4146 26.6445 22.2931 25.7217 22.5298 24.8383C22.7665 23.9549 23.3331 23.2165 24.1251 22.7593C24.7337 22.4079 25.4063 22.2656 26.0598 22.3092L25.8212 21.896C24.8771 20.261 25.4394 18.1627 27.0745 17.2187C28.7095 16.2746 30.8077 16.8371 31.7518 18.472L31.9901 18.8849C32.279 18.2973 32.739 17.7861 33.3474 17.4348C34.1394 16.9775 35.0622 16.856 35.9456 17.0927C36.829 17.3294 37.5674 17.896 38.0246 18.688L39.085 20.5248C39.2954 20.8892 39.1706 21.3551 38.8062 21.5654C38.4418 21.7757 37.9759 21.6509 37.7657 21.2866L36.7053 19.4498C36.4514 19.0102 36.0416 18.6956 35.5513 18.5642C35.061 18.4328 34.5488 18.5003 34.1091 18.7541C33.6695 19.0079 33.3551 19.4177 33.2236 19.908C33.093 20.3955 33.1589 20.9045 33.4089 21.3424L40.2899 33.2601C40.5002 33.6245 40.3754 34.0903 40.0111 34.3007C39.6468 34.5109 39.1809 34.3862 38.9705 34.022L30.4326 19.2337C29.9086 18.3261 28.744 18.014 27.8364 18.538C26.9288 19.062 26.6167 20.2267 27.1407 21.1342L34.0544 33.109C35.2921 33.5306 36.0102 34.8499 35.6669 36.131L35.5482 36.5738C35.8739 36.5269 36.2139 36.5435 36.5513 36.6338C37.887 36.9918 38.6825 38.3696 38.3247 39.7054L36.2785 47.3418C35.9004 48.7527 35.2123 50.0272 34.2724 51.0906C38.2391 53.294 43.0419 53.2716 47.0119 50.9795C52.5815 47.7638 54.9296 41.0802 52.5951 35.0876L50.1647 28.8488C49.7681 27.8308 48.6102 27.3065 47.5836 27.6802C46.5839 28.0441 46.0337 29.1292 46.3309 30.1506L47.9065 35.565C48.0242 35.9694 47.8208 36.399 47.4336 36.5643C47.0462 36.7295 46.5953 36.5791 46.3849 36.2145L41.1914 27.2197C40.981 26.8553 41.1059 26.3895 41.4702 26.1791C41.8344 25.9688 42.3004 26.0936 42.5108 26.4579L44.8487 30.507C44.3723 28.7381 45.3338 26.8777 47.0624 26.2486C47.9394 25.9295 48.8906 25.9657 49.7406 26.3505C50.5907 26.7354 51.2455 27.4262 51.5843 28.2958L54.0146 34.5346C55.2676 37.7509 55.3276 41.3157 54.1834 44.5723C53.0393 47.8289 50.7629 50.5728 47.7736 52.2987C45.5693 53.5715 43.0847 54.2375 40.5574 54.2375C40.3891 54.2375 40.2204 54.2345 40.0518 54.2286C37.6027 54.1425 35.2186 53.4375 33.1225 52.185C32.7542 52.4798 32.3612 52.7489 31.945 52.9893C30.5119 53.8168 28.9215 54.2394 27.3097 54.2394C26.5019 54.2394 25.6885 54.1331 24.8873 53.9184C21.9174 53.1227 19.5365 50.9156 18.5184 48.0144L16.1759 41.3395C15.6898 39.9541 16.2391 38.4201 17.4822 37.6922ZM23.1906 31.7795C22.283 32.3035 21.971 33.4681 22.4949 34.3757L23.3272 35.8173L24.0754 33.0251C24.2172 32.4959 24.5208 32.0379 24.944 31.7053C24.3985 31.4527 23.7426 31.4609 23.1906 31.7795ZM24.887 24.0786C24.4474 24.3324 24.133 24.7423 24.0015 25.2326C23.8701 25.723 23.9376 26.2351 24.1913 26.6745L26.797 31.1839C26.9141 31.1982 27.031 31.2205 27.1469 31.2516C27.4819 31.3414 27.7881 31.4964 28.0523 31.705C28.2495 31.1365 28.6393 30.6627 29.1658 30.3588C29.5814 30.1188 30.0462 30.0058 30.5143 30.0244L27.483 24.774C26.959 23.8667 25.7945 23.5547 24.887 24.0786ZM17.6135 40.835L19.9559 47.5099C20.8073 49.9358 22.7982 51.7814 25.2816 52.4468C27.2884 52.9845 29.3842 52.7086 31.1833 51.6698C32.9824 50.6311 34.2693 48.954 34.807 46.9473L36.8531 39.311C36.9936 38.7867 36.6813 38.2459 36.157 38.1053C35.6329 37.9651 35.0921 38.2769 34.9514 38.801L33.6364 43.7087C33.5452 44.049 33.2375 44.2734 32.9011 44.2734C32.8359 44.2734 32.7695 44.265 32.7034 44.2473C32.2971 44.1384 32.0559 43.7207 32.1648 43.3143L34.1952 35.7365C34.3357 35.2122 34.0235 34.6713 33.4991 34.5308C32.9749 34.3905 32.434 34.7026 32.2934 35.2269L30.2629 42.8047C30.1541 43.211 29.7366 43.4522 29.3299 43.3433C28.9236 43.2345 28.6825 42.8167 28.7913 42.4103L31.3706 32.7854C31.4387 32.5314 31.4037 32.2662 31.2722 32.0384C31.1408 31.8108 30.9285 31.6479 30.6745 31.5798C30.4205 31.5117 30.1553 31.5467 29.9275 31.6781C29.6998 31.8096 29.537 32.0219 29.4689 32.2759L26.8898 41.9009C26.7986 42.2413 26.4909 42.4658 26.1545 42.4657C26.0893 42.4657 26.0229 42.4573 25.9568 42.4396C25.5505 42.3307 25.3094 41.913 25.4182 41.5066L27.4486 33.9288C27.5167 33.6748 27.4818 33.4096 27.3503 33.1818C27.2188 32.9541 27.0065 32.7913 26.7526 32.7232C26.2283 32.583 25.6875 32.8949 25.5469 33.4193L23.2164 42.1168C23.136 42.4169 22.8814 42.6381 22.5729 42.6757C22.2643 42.7136 21.9641 42.5599 21.8139 42.2879L20.3147 39.5735C20.1183 39.218 19.7945 38.963 19.4029 38.8553C19.0114 38.7476 18.6027 38.8015 18.2521 39.0068C17.6367 39.3672 17.3682 40.1361 17.6135 40.835Z" stroke="#31C5A1" stroke-width="0.6" mask="url(#path-2-outside-1)"/>
  <path d="M40.1396 24.7859C39.8995 24.7859 39.6648 24.6885 39.495 24.5188C39.3253 24.349 39.2279 24.1143 39.2279 23.8742C39.2279 23.634 39.3253 23.3993 39.495 23.2296C39.6648 23.0598 39.8995 22.9625 40.1396 22.9625C40.3806 22.9625 40.6144 23.0598 40.7841 23.2294C40.9551 23.3996 41.0514 23.6344 41.0514 23.8742C41.0514 24.1139 40.9551 24.3488 40.7841 24.5189C40.6144 24.6886 40.3806 24.7859 40.1396 24.7859Z" fill="white" stroke="#31C5A1" stroke-width="0.3"/>
</svg>
