<svg width="71" height="71" viewBox="0 0 71 71" fill="none" xmlns="http://www.w3.org/2000/svg">
  <circle cx="35.5" cy="35.5" r="35.5" fill="#31C5A1"/>
  <g clip-path="url(#clip0)">
  <path d="M51.3998 23.9C51.8048 23.9 52.1332 23.5717 52.1332 23.1667C52.1332 22.7617 51.8048 22.4333 51.3998 22.4333C50.9948 22.4333 50.6665 22.7617 50.6665 23.1667C50.6665 23.5717 50.9948 23.9 51.3998 23.9Z" fill="white"/>
  <path d="M18.4 40.7667C19.8916 40.8725 21.3498 40.2916 22.36 39.1893C22.5165 39.4643 22.6904 39.7291 22.8807 39.982C23.0772 40.2549 23.0536 40.6285 22.8242 40.8745C21.5202 42.3774 20.4491 44.0675 19.6467 45.8883C19.4761 45.7527 19.3135 45.6072 19.1598 45.4527C18.1092 44.2376 16.2778 44.091 15.0472 45.1234C13.8084 46.1671 13.6501 48.0175 14.6938 49.2565C14.9277 49.5388 20.6822 56.1667 36 56.1667C51.3179 56.1667 57.0724 49.5388 57.31 49.2572C58.2401 48.1489 58.22 46.5272 57.2628 45.4423C56.3056 44.3574 54.6989 44.1355 53.4834 44.9203C52.4511 42.6171 51.0157 40.5168 49.2448 38.7185C49.0423 38.5012 48.9866 38.1852 49.1025 37.9118C50.2025 34.9785 49.7031 30.9752 49.3797 29.1301C49.9808 29.3008 50.5271 29.6247 50.9652 30.0703C51.6513 30.7965 52.6011 31.2157 53.6 31.2333C55.2728 31.2333 57.2667 30.4699 57.2667 26.8333C57.2667 25.4209 54.8848 21.3803 53.7826 19.5851C54.5317 18.748 54.9832 17.6868 55.0667 16.5667C55.0667 16.1617 54.7384 15.8333 54.3334 15.8333C53.0827 15.8271 51.8418 16.0526 50.6733 16.4985C49.7442 16.093 48.7466 15.8673 47.7334 15.8333C40.1566 15.8333 38.1326 24.1083 37.6134 27.6693C37.5643 28.0322 37.2535 28.3022 36.8874 28.3H27.2C26.5762 28.3003 25.9562 28.3975 25.3623 28.5882C24.6846 26.5621 22.7328 25.2418 20.6 25.3667C19.0187 25.2837 17.5183 26.0713 16.6884 27.42C15.7278 29.1354 15.5759 31.1881 16.2734 33.0263C16.7596 33.9438 16.87 35.0143 16.5814 36.0117C16.1716 36.9106 15.3981 37.5922 14.4547 37.8854C14.2642 37.9616 14.1144 38.114 14.0415 38.3058C13.9686 38.4975 13.9794 38.711 14.0712 38.8945C14.1731 39.0859 15.1088 40.7667 18.4 40.7667ZM56.02 46.2667C56.3145 46.5147 56.4981 46.8697 56.5303 47.2533C56.5625 47.6369 56.4406 48.0176 56.1916 48.3112C55.968 48.573 50.6425 54.7 36 54.7C21.3576 54.7 16.0321 48.573 15.8121 48.3119C15.4451 47.8765 15.3633 47.2679 15.6023 46.751C15.8413 46.2341 16.358 45.9023 16.9275 45.9C17.3626 45.9007 17.7756 46.0914 18.0583 46.4221C18.257 46.6429 23.0728 51.7667 36 51.7667C49.0152 51.7667 53.7533 46.6333 53.9513 46.4133C54.4854 45.8082 55.4059 45.743 56.02 46.2667ZM37.6676 42.1659C39.7625 41.6656 41.9138 41.4417 44.0667 41.5C44.455 41.5015 44.8426 41.4671 45.2246 41.3973C45.4569 41.3456 45.6999 41.4089 45.8773 41.5675C47.592 43.2466 48.9296 45.2715 49.8014 47.5075C47.1922 48.8289 42.7731 50.3 36 50.3C30.2236 50.3 26.158 49.2301 23.4696 48.0956C24.2378 46.1639 25.4079 44.4176 26.9023 42.9725C27.0644 42.818 27.2909 42.7508 27.511 42.7921C28.1338 42.9091 28.7663 42.9675 29.4 42.9667C32.179 43.0599 34.9583 42.7907 37.6676 42.1659ZM53.6 29.7667C53.0947 29.7695 52.6078 29.5769 52.2412 29.2291L55.5368 25.9343C55.6708 26.2184 55.7596 26.5218 55.8 26.8333C55.8 29.4117 54.7426 29.7667 53.6 29.7667ZM52.2448 19.8887C53.1982 21.4081 54.1852 23.1417 54.879 24.5175L51.0884 28.3081C50.312 27.7961 49.3962 27.5371 48.4667 27.5667C48.2428 27.5666 48.0311 27.6688 47.8919 27.8443C47.7528 28.0197 47.7014 28.2492 47.7524 28.4672C47.7649 28.5215 49.0123 33.9672 47.729 37.4007C47.4114 38.2143 47.6012 39.1386 48.2137 39.7613C49.954 41.5392 51.3468 43.6266 52.3204 45.9161C51.9276 46.2297 51.5162 46.5191 51.0884 46.7829C50.1377 44.4141 48.7016 42.2705 46.8724 40.4902C46.3536 40.0132 45.6366 39.8158 44.9467 39.96C44.6562 40.0111 44.3617 40.0357 44.0667 40.0333C41.8061 39.9728 39.5473 40.2085 37.3479 40.7344C36.1804 41.0134 34.9949 41.2109 33.8 41.3255V37.1C36.2291 37.0976 38.1976 35.129 38.2 32.7V29.7667H39.6667C41.8865 29.7667 42.6844 27.3188 43.3114 24.8115C43.6553 23.4351 44.704 20.2333 47 20.2333C49.1868 20.2333 50.7012 18.4733 51.1426 17.8918C51.873 17.6021 52.641 17.4184 53.4233 17.3462C53.1892 17.9635 52.8221 18.5218 52.3482 18.9815C52.1068 19.223 52.0639 19.5991 52.2448 19.8887ZM47.7334 17.3C48.3139 17.3146 48.8888 17.4174 49.4384 17.6051C48.8044 18.2904 47.9316 18.7062 47 18.7667C44.6534 18.7667 42.7922 20.8405 41.8887 24.4551C41.0879 27.6569 40.4455 28.3 39.6667 28.3H38.9605C39.0088 28.1629 39.044 28.0214 39.0654 27.8776C39.5288 24.6971 41.3013 17.3 47.7334 17.3ZM36.7334 29.7667V32.7C36.7334 34.32 35.4201 35.6333 33.8 35.6333H32.3334C30.7133 35.6333 29.4 34.32 29.4 32.7V29.7667H36.7334ZM27.9334 29.7667V32.7C27.9358 35.129 29.9043 37.0976 32.3334 37.1V41.4318C31.5032 41.4751 30.5404 41.5 29.4 41.5C28.8589 41.5016 28.3187 41.4525 27.7867 41.3533C27.1105 41.2229 26.4127 41.4238 25.9094 41.8938C24.2735 43.4683 22.989 45.3709 22.14 47.4767C21.6494 47.2259 21.2241 46.9809 20.8611 46.7529C21.6189 44.9679 22.6515 43.3125 23.9213 41.8469C24.617 41.0745 24.6674 39.9173 24.0416 39.0873C22.5524 37.1044 22.2668 34.4658 23.2972 32.2101C23.99 30.6863 25.5267 29.7243 27.2 29.7667H27.9334ZM17.9549 36.5346C18.3978 35.1543 18.2656 33.6538 17.5882 32.3722C17.1144 30.9902 17.2399 29.4731 17.9344 28.1878C18.5057 27.2799 19.5299 26.7595 20.6 26.8333C22.1683 26.6937 23.6112 27.6977 24.0254 29.2167C23.1442 29.7995 22.4376 30.6106 21.9809 31.5633C21.1038 33.4623 20.9886 35.6253 21.659 37.6067C21.1031 38.7258 20.0134 39.3 18.4 39.3C17.5631 39.341 16.7305 39.1569 15.9888 38.7669C16.8821 38.2719 17.5767 37.4832 17.9549 36.5346Z" fill="white"/>
  </g>
  <defs>
  <clipPath id="clip0">
  <rect width="44" height="44" fill="white" transform="translate(14 14)"/>
  </clipPath>
  </defs>
</svg>
