<svg width="71" height="71" viewBox="0 0 71 71" fill="none" xmlns="http://www.w3.org/2000/svg">
  <circle cx="35.5" cy="35.5" r="35.5" fill="#31C5A1"/>
  <path d="M34.9192 25.2261H25.9543C25.5891 25.2261 25.294 25.5237 25.294 25.8897C25.294 26.2557 25.5891 26.5533 25.9543 26.5533H34.9192C35.2845 26.5533 35.5795 26.2557 35.5795 25.8897C35.5795 25.5237 35.2845 25.2261 34.9192 25.2261Z" fill="white" stroke="white" stroke-width="0.2"/>
  <path d="M22.0417 36.9044C22.129 36.6682 22.0756 36.4026 21.9038 36.219C19.851 34.025 18.7206 31.1573 18.7206 28.144C18.7206 21.6451 23.9771 16.3587 30.4368 16.3587C36.0983 16.3587 40.9452 20.4179 41.9612 26.0114C42.0266 26.3716 42.3708 26.6109 42.7295 26.545C43.0887 26.4791 43.3257 26.133 43.2603 25.7731C42.1298 19.5494 36.737 15.0316 30.4368 15.0316C23.2477 15.0316 17.4 20.9143 17.4 28.144C17.4 31.352 18.552 34.4122 20.6526 36.8089C20.0893 38.044 19.0718 39.0275 17.8123 39.5403L17.8123 39.5403C17.5629 39.642 17.4 39.8854 17.4 40.1554C17.4 40.4254 17.5629 40.6689 17.8124 40.7704C18.6042 41.093 19.4419 41.2564 20.3015 41.2564C21.8186 41.2564 23.2737 40.7398 24.4482 39.7931C25.5903 40.3883 26.8098 40.8074 28.0796 41.0405L28.0797 41.0405C28.4385 41.1062 28.7825 40.867 28.8479 40.5068L28.8479 40.5068C28.9131 40.1469 28.6761 39.801 28.3169 39.7351L28.2988 39.8334L28.3169 39.7351C27.0386 39.5004 25.8174 39.0559 24.6869 38.4141C24.4366 38.2719 24.1238 38.3091 23.9131 38.5052L23.9131 38.5052C22.9277 39.4236 21.6451 39.9293 20.3015 39.9293C20.1395 39.9293 19.9786 39.9221 19.8189 39.9077C20.8196 39.1461 21.5979 38.1064 22.0417 36.9044ZM22.0417 36.9044L21.9479 36.8697M22.0417 36.9044C22.0417 36.9044 22.0417 36.9044 22.0417 36.9044L21.9479 36.8697M21.9479 36.8697C22.0221 36.669 21.9767 36.4432 21.8308 36.2873C19.7606 34.0747 18.6206 31.1826 18.6206 28.144C18.6206 21.5904 23.9213 16.2587 30.4368 16.2587C36.147 16.2587 41.035 20.3528 42.0596 25.9936C42.1151 26.2998 42.4076 26.5025 42.7115 26.4467C43.0159 26.3908 43.2175 26.0972 43.1619 25.791C42.04 19.6145 36.6884 15.1316 30.4368 15.1316C23.3035 15.1316 17.5 20.969 17.5 28.144C17.5 31.3493 18.6587 34.4056 20.7702 36.7911L21.9479 36.8697Z" fill="white" stroke="white" stroke-width="0.2"/>
  <path d="M25.9543 29.7348C25.5891 29.7348 25.294 30.0323 25.294 30.3983C25.294 30.7643 25.5891 31.0619 25.9543 31.0619H32.2904C32.6557 31.0619 32.9507 30.7643 32.9507 30.3983C32.9507 30.0323 32.6557 29.7348 32.2904 29.7348H25.9543Z" fill="white" stroke="white" stroke-width="0.2"/>
  <path d="M35.5795 28.144C35.5795 27.778 35.2845 27.4804 34.9192 27.4804H25.9543C25.5891 27.4804 25.294 27.778 25.294 28.144C25.294 28.51 25.5891 28.8076 25.9543 28.8076H34.9192C35.2845 28.8076 35.5795 28.51 35.5795 28.144Z" fill="white" stroke="white" stroke-width="0.2"/>
  <path d="M47.2957 39.9292H38.3308C37.9655 39.9292 37.6705 40.2268 37.6705 40.5928C37.6705 40.9588 37.9655 41.2564 38.3308 41.2564H47.2957C47.6609 41.2564 47.956 40.9588 47.956 40.5928C47.956 40.2268 47.6609 39.9292 47.2957 39.9292Z" fill="white" stroke="white" stroke-width="0.2"/>
  <path d="M47.2957 42.1836H38.3308C37.9655 42.1836 37.6705 42.4811 37.6705 42.8471C37.6705 43.2131 37.9655 43.5107 38.3308 43.5107H47.2957C47.6609 43.5107 47.956 43.2131 47.956 42.8471C47.956 42.4811 47.6609 42.1836 47.2957 42.1836Z" fill="white" stroke="white" stroke-width="0.2"/>
  <path d="M47.2957 37.6749H38.3308C37.9655 37.6749 37.6705 37.9725 37.6705 38.3385C37.6705 38.7045 37.9655 39.0021 38.3308 39.0021H47.2957C47.6609 39.0021 47.956 38.7045 47.956 38.3385C47.956 37.9725 47.6609 37.6749 47.2957 37.6749Z" fill="white" stroke="white" stroke-width="0.2"/>
  <path d="M51.2082 49.3532C51.652 50.5552 52.4303 51.5949 53.431 52.3564C53.2714 52.3709 53.1104 52.3781 52.9485 52.3781C51.605 52.3781 50.3225 51.8725 49.3368 50.954L49.3368 50.954C49.2117 50.8374 49.0505 50.777 48.8877 50.777C48.7765 50.777 48.6645 50.8052 48.563 50.8629C46.8172 51.8541 44.8289 52.3781 42.8132 52.3781C36.3535 52.3781 31.0971 47.0917 31.0971 40.5928C31.0971 34.094 36.3535 28.8076 42.8132 28.8076C49.2729 28.8076 54.5294 34.094 54.5294 40.5928C54.5294 43.6062 53.3989 46.4738 51.3461 48.6678C51.1743 48.8513 51.1208 49.1169 51.2082 49.3532ZM51.2082 49.3532L51.302 49.3185M51.2082 49.3532C51.2082 49.3532 51.2082 49.3532 51.2082 49.3532L51.302 49.3185M51.302 49.3185C51.7518 50.5367 52.5504 51.5857 53.5775 52.3412L48.6124 50.9498C46.8515 51.9496 44.8461 52.4781 42.8132 52.4781C36.2978 52.4781 30.9971 47.1464 30.9971 40.5928C30.9971 34.0393 36.2978 28.7076 42.8132 28.7076C49.3287 28.7076 54.6294 34.0393 54.6294 40.5928C54.6294 43.6315 53.4893 46.5235 51.4191 48.7361C51.2732 48.892 51.2277 49.1177 51.302 49.3185ZM55.4376 51.9892C54.1782 51.4764 53.1607 50.4929 52.5972 49.2578C54.698 46.8611 55.85 43.8008 55.85 40.5928C55.85 33.3631 50.0023 27.4804 42.8132 27.4804C35.6241 27.4804 29.7765 33.3631 29.7765 40.5928C29.7765 47.8225 35.6241 53.7052 42.8132 53.7052C44.8994 53.7052 46.9597 53.2005 48.8017 52.2418C49.9763 53.1887 51.4313 53.7052 52.9485 53.7052C53.8081 53.7052 54.6458 53.5417 55.4376 53.2193C55.6871 53.1177 55.85 52.8743 55.85 52.6043C55.85 52.3342 55.6871 52.0908 55.4376 51.9892Z" fill="white" stroke="white" stroke-width="0.2"/>
</svg>
